<svg width="255" height="43" viewBox="0 0 255 43" fill="none" xmlns="http://www.w3.org/2000/svg">
<rect y="0.5" width="255" height="42" rx="8" fill="#6B16A8"/>
<path d="M84 21.5C84 26.4706 79.9706 30.5 75 30.5C70.0294 30.5 66 26.4706 66 21.5C66 16.5294 70.0294 12.5 75 12.5C79.9706 12.5 84 16.5294 84 21.5ZM68.8588 21.5C68.8588 24.8917 71.6083 27.6412 75 27.6412C78.3917 27.6412 81.1412 24.8917 81.1412 21.5C81.1412 18.1083 78.3917 15.3588 75 15.3588C71.6083 15.3588 68.8588 18.1083 68.8588 21.5Z" fill="#ECE8EF"/>
<path d="M100 15L107 21.5L100 28" stroke="#ECE8EF" stroke-width="1.5" stroke-linecap="round" stroke-linejoin="round"/>
<path d="M128.504 24.796C128.504 24.4333 128.387 24.1187 128.152 23.852C127.917 23.5853 127.619 23.3347 127.256 23.1C126.893 22.8653 126.504 22.6253 126.088 22.38C125.683 22.124 125.299 21.836 124.936 21.516C124.573 21.1853 124.275 20.8013 124.04 20.364C123.816 19.916 123.704 19.3773 123.704 18.748H125.96C125.96 19.1 126.072 19.4147 126.296 19.692C126.531 19.9587 126.829 20.2093 127.192 20.444C127.555 20.6787 127.939 20.924 128.344 21.18C128.76 21.4253 129.149 21.7133 129.512 22.044C129.875 22.364 130.173 22.748 130.408 23.196C130.643 23.6333 130.76 24.1667 130.76 24.796H128.504ZM123.704 18.764C123.704 18.1773 123.859 17.6653 124.168 17.228C124.477 16.7907 124.899 16.444 125.432 16.188C125.976 15.932 126.589 15.804 127.272 15.804V17.564C126.867 17.564 126.547 17.6707 126.312 17.884C126.077 18.0973 125.96 18.3907 125.96 18.764H123.704ZM130.76 24.796C130.76 25.372 130.605 25.884 130.296 26.332C129.987 26.7693 129.56 27.116 129.016 27.372C128.483 27.628 127.875 27.756 127.192 27.756V25.98C127.597 25.98 127.917 25.8787 128.152 25.676C128.387 25.4627 128.504 25.1693 128.504 24.796H130.76ZM128.456 18.876C128.403 18.4493 128.269 18.124 128.056 17.9C127.843 17.676 127.581 17.564 127.272 17.564V15.804C127.837 15.804 128.344 15.916 128.792 16.14C129.24 16.3533 129.608 16.6627 129.896 17.068C130.184 17.4627 130.371 17.9427 130.456 18.508L128.456 18.876ZM125.592 23.996C125.635 24.6253 125.795 25.116 126.072 25.468C126.36 25.8093 126.733 25.98 127.192 25.98V27.756C126.157 27.756 125.32 27.4573 124.68 26.86C124.04 26.2627 123.667 25.4307 123.56 24.364L125.592 23.996ZM134.4 27.5V25.74H138.592V27.5H134.4ZM134.48 22.668V20.892H137.632V22.668H134.48ZM132.784 16.06H135.04V27.5H132.784V16.06ZM134.56 16.06H138.432V17.82H134.56V16.06ZM142.286 27.5V25.74H146.478V27.5H142.286ZM142.366 22.668V20.892H145.518V22.668H142.366ZM140.67 16.06H142.926V27.5H140.67V16.06ZM142.446 16.06H146.318V17.82H142.446V16.06ZM156.126 27.5L158.622 16.06H160.334L157.838 27.5H156.126ZM156.062 27.5L153.566 16.06H155.278L157.774 27.5H156.062ZM152.286 27.5V16.06H154.542V27.5H152.286ZM159.358 27.5V16.06H161.614V27.5H159.358ZM168.784 24.508V19.036H171.04V24.508H168.784ZM163.936 24.508V19.036H166.192V24.508H163.936ZM171.04 19.052H168.784C168.784 18.5827 168.667 18.22 168.432 17.964C168.198 17.708 167.878 17.58 167.472 17.58V15.82C168.155 15.82 168.763 15.9587 169.296 16.236C169.84 16.5133 170.267 16.8973 170.576 17.388C170.886 17.8787 171.04 18.4333 171.04 19.052ZM163.936 19.052C163.936 18.4333 164.091 17.8787 164.4 17.388C164.71 16.8973 165.131 16.5133 165.664 16.236C166.208 15.9587 166.822 15.82 167.504 15.82V17.58C167.099 17.58 166.779 17.708 166.544 17.964C166.31 18.22 166.192 18.5827 166.192 19.052H163.936ZM171.04 24.492C171.04 25.1213 170.886 25.6813 170.576 26.172C170.267 26.652 169.84 27.036 169.296 27.324C168.763 27.6013 168.155 27.74 167.472 27.74V25.98C167.878 25.98 168.198 25.852 168.432 25.596C168.667 25.3293 168.784 24.9613 168.784 24.492H171.04ZM163.936 24.492H166.192C166.192 24.9613 166.31 25.3293 166.544 25.596C166.779 25.852 167.099 25.98 167.504 25.98V27.74C166.822 27.74 166.208 27.6013 165.664 27.324C165.131 27.036 164.71 26.652 164.4 26.172C164.091 25.6813 163.936 25.1213 163.936 24.492ZM177.948 27.5L175.948 22.14H178.14L180.156 27.5H177.948ZM175.34 23.116V21.356H176.412V23.116H175.34ZM175.34 17.82V16.06H176.412V17.82H175.34ZM177.708 19.9V19.276H179.964V19.9H177.708ZM179.964 19.292H177.708C177.708 18.8227 177.59 18.46 177.356 18.204C177.121 17.948 176.801 17.82 176.396 17.82V16.06C177.078 16.06 177.686 16.1987 178.22 16.476C178.764 16.7533 179.19 17.1373 179.5 17.628C179.809 18.1187 179.964 18.6733 179.964 19.292ZM179.964 19.884C179.964 20.5027 179.809 21.0573 179.5 21.548C179.19 22.0387 178.764 22.4227 178.22 22.7C177.686 22.9773 177.078 23.116 176.396 23.116V21.356C176.801 21.356 177.121 21.228 177.356 20.972C177.59 20.716 177.708 20.3533 177.708 19.884H179.964ZM173.356 27.5V16.06H175.612V27.5H173.356ZM183.858 27.5V25.74H188.05V27.5H183.858ZM183.938 22.668V20.892H187.09V22.668H183.938ZM182.242 16.06H184.498V27.5H182.242V16.06ZM184.018 16.06H187.89V17.82H184.018V16.06Z" fill="#ECE8EF"/>
</svg>
