<svg width="860" height="740" viewBox="0 0 860 740" fill="none" xmlns="http://www.w3.org/2000/svg">
<path d="M15.3693 740C13.3929 740.002 11.4353 739.615 9.60846 738.861C7.78162 738.106 6.12115 737 4.72205 735.604C3.32288 734.208 2.21246 732.55 1.45404 730.725C0.695618 728.9 0.304138 726.943 0.30188 724.966V15.0675C0.30188 11.0714 1.88934 7.23888 4.71503 4.41318C7.54077 1.58747 11.3732 0 15.3693 0H660.813C682.151 13.9738 700.216 32.3945 713.771 54.0005C744.368 102.398 773.563 161.779 771.855 219.009C770.146 276.238 758.769 332.698 752.516 389.62C751.713 396.864 751.167 404.79 755.233 410.838C762.869 422.181 779.593 419.106 788.255 428.673C796.352 437.607 792.97 459.098 790.151 469.673C784.377 491.317 768.575 505.787 762.049 526.697C756.895 543.643 755.5 561.509 757.961 579.05C760.422 596.591 766.679 613.384 776.296 628.258C795.088 656.736 825.103 676.245 843.861 704.689C850.993 715.519 856.339 727.424 859.697 739.949L15.3693 740Z" fill="#C78AF3"/>
<path d="M816.152 672.572C826.249 682.617 836.037 692.901 843.844 704.74C850.976 715.57 856.323 727.475 859.681 740H15.3698C13.3933 740.002 11.4358 739.615 9.60889 738.861C7.78204 738.106 6.12164 737 4.72247 735.604C3.3233 734.208 2.21289 732.55 1.45447 730.725C0.696045 728.9 0.304565 726.943 0.302307 724.966V672.572H816.152Z" fill="#6B16A8"/>
<path d="M392.587 385.486L409.534 366.113V244.855H579.138V370.008H414.112L392.587 385.486Z" fill="#6B16A8"/>
<path d="M539.692 325.506H552.897V351.422H539.692V325.506Z" fill="#C2BFEB"/>
<path d="M519.841 310.473H533.047V351.422H519.841V310.473Z" fill="#C2BFEB"/>
<path d="M499.99 297.797H513.195V351.422H499.99V297.797Z" fill="#C2BFEB"/>
<path d="M480.139 277.98H493.345V351.422H480.139V277.98Z" fill="#7278FF"/>
<path d="M460.288 261.871H473.493V351.422H460.288V261.871Z" fill="#7278FF"/>
<path d="M440.438 287.052H453.644V351.422H440.438V287.052Z" fill="#7278FF"/>
<path d="M500.522 263.074L555.316 306.069L554.262 307.413L499.468 264.418L500.522 263.074Z" fill="white"/>
<path d="M498.691 276.169H500.399V263.63H513.639V261.922H498.691V276.169Z" fill="white"/>
<path d="M42.6693 105.131H115.615V326.463H42.6693V105.131Z" fill="#7278FF"/>
<path d="M205.781 289.563L214.425 322.38H224.333C224.333 322.38 219.516 352.088 205.781 341.821C192.045 331.554 193.685 326.924 193.685 326.924L202.706 324.943C202.706 324.943 198.657 299.318 198.298 297.797C197.939 296.277 205.781 289.563 205.781 289.563Z" fill="#E6B287"/>
<path d="M159.878 256.917C159.878 256.917 137.67 251.877 149.714 238.467C161.757 225.056 205.713 247.658 205.713 247.658L168.42 259.855L159.878 256.917Z" fill="#6B16A8"/>
<path d="M109.447 312.745L100.837 294.175L124.31 292.74L141.547 337.994H120.517L109.447 312.745Z" fill="#1E1A56"/>
<path d="M304.83 543.832C304.83 543.832 294.58 544.071 284.808 509.938C275.037 475.806 261.917 399.136 264.308 378.567C266.7 357.999 338.109 364.542 339.082 364.542C340.056 364.542 359.582 401.801 359.582 401.801L372.002 514.653L352.646 552.476L304.83 543.832Z" fill="#1E1A56"/>
<path d="M381.688 426.896L392.024 447.584L438.593 440.426L438.371 447.584L387.326 461.421L376.204 447.584L371.882 429.578L381.688 426.896Z" fill="#E2A171"/>
<path d="M379.348 375.783C379.348 375.783 387.496 363.226 389.598 354.941C368.602 337.636 326.833 324.994 316.857 324.191C307.085 359.348 308.793 398.999 308.793 398.999C308.793 398.999 342.653 417.005 383.174 410.786C377.851 403.95 374.592 395.735 373.778 387.109L379.348 375.783Z" fill="#6901BC"/>
<path d="M356.781 411.897C356.781 411.897 367.356 405.918 370.26 404.876C373.164 403.834 381.688 426.896 381.688 426.896L376.29 430.227C376.29 430.227 387.702 455.152 366.518 459.098C368.808 474.268 375.06 501.072 375.06 501.072H330.712L314.927 437.283C307.868 435.624 300.722 434.364 293.521 433.507C289.028 419.567 286.295 407.609 291.932 405.901C297.57 404.192 316.891 410.291 316.891 410.291L349.179 430.415L356.781 411.897Z" fill="white"/>
<path d="M373.608 358.921C373.608 358.921 385.754 376.996 387.274 391.38C377.605 399.17 352.049 403.338 352.049 403.338L347.368 416.065L356.729 412.016C356.729 412.016 364.827 422.933 368.568 427.921C372.309 432.909 368.568 438.53 355.79 440.546C343.011 442.562 336.469 436.019 327.431 423.855C318.394 411.692 316.84 410.428 316.84 410.428C316.84 410.428 337.34 416.065 337.34 415.143C337.34 414.22 341.389 403.338 341.389 403.338C341.389 403.338 333.906 397.034 335.153 383.795C336.4 370.555 364.263 361.723 373.608 358.921Z" fill="#E6B287"/>
<path d="M375.042 361.193C370.739 365.845 366.009 370.083 360.914 373.852C354.081 378.567 356.831 374.723 360.914 370.008C353.842 377.286 339.628 388.424 330.01 385.213C336.263 371.29 344.617 364.713 344.617 364.713L370.344 355.009L375.042 356.137V361.193Z" fill="#6901BC"/>
<path d="M339.014 385.093C339.014 385.093 333.086 379.49 330.592 383.539C328.097 387.587 332.471 400.058 339.014 394.762" fill="#E6B287"/>
<path d="M320.461 543.114C320.461 543.114 307.204 539.92 297.74 547.675C288.276 555.431 301.345 573.967 301.345 573.967C301.345 573.967 337.596 588.163 414.095 572.788C428.223 555.26 424.123 543.746 424.123 543.746L394.278 540.5L320.461 543.114Z" fill="#1E1A56"/>
<path d="M330.711 501.072C330.711 501.072 301.328 532.83 316.891 556.234C332.454 579.638 396.38 557.293 427.83 526.543C416.999 552.39 451.935 619.75 451.935 619.75L457.88 622.552V496.442C457.88 496.442 402.974 499.586 381.688 502.37L375.043 501.021L330.711 501.072Z" fill="#6B16A8"/>
<path d="M409.533 541.201C409.533 541.201 416.367 520.598 449.491 514.653C444.605 532.471 414.556 643.018 414.556 643.018L409.533 639.516C409.533 639.516 391.237 555.841 409.533 541.201Z" fill="#6B16A8"/>
<path d="M409.535 541.201C411.2 537.364 413.59 533.884 416.573 530.951C419.469 527.987 422.75 525.424 426.327 523.332C433.532 519.267 441.407 516.524 449.578 515.234L449.014 514.619L444.931 529.721L440.763 544.806C439.362 549.845 437.927 554.851 436.441 559.856C434.955 564.862 433.468 569.85 431.845 574.821C435.433 565.015 438.593 555.056 441.549 545.045C444.504 535.034 447.272 524.955 449.971 514.876L450.176 514.107L449.407 514.244C441.121 515.61 433.161 518.507 425.934 522.785C422.354 524.98 419.09 527.653 416.231 530.729C413.354 533.762 411.081 537.316 409.535 541.201Z" fill="#221B87"/>
<path d="M457.879 622.552C457.879 622.552 469.222 641.924 471.136 657.248C461.292 648.177 451.994 638.53 443.29 628.36C443.29 628.36 440.215 622.825 451.934 619.818L457.879 622.552Z" fill="#1E1A56"/>
<path d="M414.556 643.018C414.556 643.018 442.248 665.397 448.278 675.322C435.329 674.81 404.289 656.531 404.289 656.531C404.289 656.531 396.14 646.639 409.533 639.447L414.556 643.018Z" fill="#1E1A56"/>
<path d="M312.347 485.902L293.555 433.507C293.555 433.507 309.614 435.216 314.961 437.283L323.759 466.188L376.205 447.584C376.205 447.584 396.483 454.281 401.403 457.834C406.323 461.387 409.944 471.501 409.944 471.501C409.944 471.501 407.262 472.372 402.65 465.658C403.453 467.379 404.149 469.147 404.734 470.954C404.801 471.191 404.804 471.441 404.742 471.68C404.679 471.918 404.555 472.135 404.381 472.309C404.207 472.483 403.989 472.608 403.751 472.67C403.513 472.732 403.262 472.729 403.026 472.662C398.173 471.431 393.607 469.267 389.581 466.29C383.738 465.419 374.923 459.696 374.992 455.306C366.245 462.498 312.347 485.902 312.347 485.902Z" fill="#E6B287"/>
<path d="M513.195 424.06L382.866 332.75L325.227 449.275L419.22 474.507L513.195 424.06Z" fill="url(#paint0_linear_1747_5282)"/>
<path d="M419.22 474.507L418.331 473.978L439.566 423.36H512.392L513.195 424.06L419.22 474.507Z" fill="#444470"/>
<path d="M440.454 424.06H513.195L491.961 474.507H419.22L440.454 424.06Z" fill="#BEBCE6"/>
<path d="M356.302 474.507H419.22V478.847H356.302V474.507Z" fill="#BEBCE6"/>
<path d="M419.22 474.507H492.046V478.847H419.22V474.507Z" fill="#7A7A9F"/>
<path d="M422.227 475.481V478.043" stroke="#444470" stroke-width="0.62" stroke-miterlimit="10"/>
<path d="M424.789 475.481V478.043" stroke="#444470" stroke-width="0.62" stroke-miterlimit="10"/>
<path d="M427.352 475.481V478.043" stroke="#444470" stroke-width="0.62" stroke-miterlimit="10"/>
<path d="M429.914 475.481V478.043" stroke="#444470" stroke-width="0.62" stroke-miterlimit="10"/>
<path d="M432.493 475.481V478.043" stroke="#444470" stroke-width="0.62" stroke-miterlimit="10"/>
<path d="M479.132 475.481V478.043" stroke="#444470" stroke-width="0.62" stroke-miterlimit="10"/>
<path d="M481.694 475.481V478.043" stroke="#444470" stroke-width="0.62" stroke-miterlimit="10"/>
<path d="M484.257 475.481V478.043" stroke="#444470" stroke-width="0.62" stroke-miterlimit="10"/>
<path d="M486.819 475.481V478.043" stroke="#444470" stroke-width="0.62" stroke-miterlimit="10"/>
<path d="M489.382 475.481V478.043" stroke="#444470" stroke-width="0.62" stroke-miterlimit="10"/>
<path d="M492.046 476.762H356.284" stroke="#444470" stroke-width="0.12" stroke-miterlimit="10"/>
<path d="M563.557 459.696L541.81 471.433C541.81 471.433 524.095 474.422 524.522 478.847H542.032L555.391 474.508C555.391 474.508 548.814 477.497 550.352 478.847C551.889 480.196 558.894 478.625 561.951 476.677C565.009 474.73 569.212 466.273 569.212 466.273L563.557 459.696Z" fill="#A56536"/>
<path d="M592.019 674.28H604.849L565.967 487.679H553.137L592.019 674.28Z" fill="#460878"/>
<path d="M228.229 674.28H215.382L254.264 487.679H267.11L228.229 674.28Z" fill="#460878"/>
<path d="M227.784 478.847H610.639V488.311H227.784V478.847Z" fill="#1E1A56"/>
<path d="M153.762 365.908L137.379 376.637C137.379 376.637 123.952 329.384 124.225 328.581C124.498 327.778 116.435 326.463 116.435 326.463L125.831 408.6L162.748 385.776L153.762 365.908Z" fill="#E2A171"/>
<path d="M159.878 256.917C159.878 256.917 157.811 298.139 164.508 326.463C174.758 325.95 197.991 324.396 202.638 317.187C207.285 309.978 205.713 247.657 205.713 247.657C205.713 247.657 175.39 247.128 159.878 256.917Z" fill="#E6B287"/>
<path d="M202.706 317.187C198.059 324.396 174.877 325.95 164.576 326.463C163.066 319.759 161.965 312.971 161.279 306.134C165.653 302.874 170.388 300.129 175.389 297.951C178.248 296.74 181.251 295.901 184.324 295.456C184.324 295.456 198.657 292.228 204.961 295.456C205.174 295.565 205.374 295.697 205.559 295.849C205.097 306.185 204.294 314.778 202.706 317.187Z" fill="#6B16A8"/>
<path d="M202.706 276.34C202.706 276.34 209.095 265.048 214.989 271.438C220.883 277.827 213.503 297.438 204.192 287.615" fill="#E6B287"/>
<path d="M206.003 272.053L198.588 269.473L193.293 248.153C197.415 247.547 201.589 247.381 205.746 247.657C209.607 248.153 206.003 272.053 206.003 272.053Z" fill="#6B16A8"/>
<path d="M253.289 440.426C253.289 440.426 269.159 471.979 247.788 475.02C240.374 485.936 174.945 532.164 174.945 532.164L168.419 660.443L159.689 653.285L157.075 539.612L80.7469 666.541L75.0753 657.812L197.87 433.507C197.87 433.507 240.032 436.804 253.289 440.426Z" fill="#6B16A8"/>
<path d="M197.871 325.729C197.871 325.729 205.063 350.448 220.079 322.312C228.284 322.217 236.486 322.679 244.628 323.696C248.66 336.406 256.176 427.084 253.289 440.358C235.095 436.211 216.527 433.921 197.871 433.525C197.871 433.525 191.567 429.766 197.871 428.605C195.821 423.702 198.998 421.959 198.998 421.959C198.998 421.959 190.457 382.155 182.837 372.742L163.772 389.33L149.901 365.413L178.225 330.563C178.225 330.563 181.317 329.026 197.871 325.729Z" fill="#7278FF"/>
<path d="M182.838 371.358C182.126 368.412 181.107 365.549 179.797 362.816C178.546 360.044 177 357.415 175.185 354.975C176.693 360.876 179.288 366.443 182.838 371.392V371.358Z" fill="#5459D0"/>
<path d="M209.898 346.109L221.686 370.026C221.686 370.026 175.561 398.401 162.885 403.236C145.972 367.805 129.589 331.024 129.589 331.024C129.589 331.024 118.844 336.918 114.026 332.083C109.209 327.249 103.776 312.215 103.776 312.215L107.278 308.201L109.414 312.762L130.136 315.359C130.136 315.359 128.257 307.039 132.545 302.205C136.833 297.37 135.5 304.357 135.773 309.448C136.047 314.539 137.653 326.395 137.653 326.395L170.948 377.115L209.898 346.109Z" fill="#E6B287"/>
<path d="M75.0598 657.778L20.7006 674.28H78.0493L80.7314 666.507L75.0598 657.778Z" fill="#1E1A56"/>
<path d="M159.673 653.25L110.764 674.28L170.009 666.507L168.403 660.408L159.673 653.25Z" fill="#1E1A56"/>
<path d="M176.004 281.397C176.004 281.397 170.418 297.216 167.77 303.605C175.679 304.34 183.435 298.925 184.323 295.405C185.212 291.886 180.907 290.571 178.601 293.509" fill="#E6B287"/>
<path d="M213.16 278.322C213.16 278.322 210.085 269.405 203.935 281.397C207.164 280.662 205.114 284.916 205.114 284.916" fill="#E6B287"/>
<path d="M176.004 281.397C174.45 285.053 172.98 288.709 171.545 292.399C170.11 296.089 168.727 299.779 167.309 303.469L167.087 304.084H167.736C170.155 304.282 172.589 303.991 174.894 303.23C177.203 302.477 179.361 301.32 181.266 299.813C182.228 299.07 183.069 298.182 183.76 297.182C184.154 296.685 184.433 296.108 184.578 295.49C184.722 294.873 184.729 294.232 184.597 293.612C184.392 293.002 183.987 292.479 183.447 292.129C182.907 291.778 182.265 291.621 181.625 291.681C181.027 291.73 180.447 291.907 179.925 292.202C179.403 292.497 178.951 292.902 178.601 293.389C178.975 292.944 179.44 292.582 179.964 292.329C180.488 292.076 181.06 291.936 181.642 291.92C182.18 291.898 182.71 292.054 183.151 292.362C183.593 292.671 183.921 293.116 184.085 293.629C184.171 294.168 184.139 294.721 183.988 295.246C183.837 295.772 183.573 296.258 183.213 296.67C182.511 297.575 181.683 298.374 180.753 299.044C177.037 301.827 172.455 303.201 167.821 302.922L168.231 303.605C169.564 299.864 170.965 296.174 172.229 292.416C173.493 288.657 174.808 285.172 176.004 281.397Z" fill="#D18B56"/>
<path d="M213.16 278.322C213.029 277.726 212.816 277.151 212.528 276.614C212.249 276.067 211.845 275.593 211.349 275.23C210.815 274.828 210.155 274.629 209.487 274.666C209.161 274.729 208.841 274.82 208.531 274.939L207.693 275.401C206.738 276.145 205.923 277.053 205.285 278.083C204.633 279.054 204.062 280.077 203.576 281.141L203.183 281.927L204.038 281.739C204.367 281.648 204.716 281.648 205.046 281.739C205.319 281.739 205.473 282.097 205.507 282.49C205.522 283.314 205.395 284.135 205.131 284.916C205.614 284.183 205.919 283.346 206.019 282.473C206.053 282.206 206.006 281.934 205.885 281.694C205.763 281.453 205.572 281.255 205.336 281.124C204.87 280.935 204.357 280.893 203.867 281.004L204.328 281.585C204.926 280.628 205.456 279.62 206.036 278.715C206.643 277.799 207.367 276.966 208.189 276.238C208.543 275.884 209.002 275.654 209.497 275.58C209.992 275.506 210.497 275.593 210.939 275.828C211.89 276.444 212.658 277.306 213.16 278.322Z" fill="#D18B56"/>
<path d="M177.576 310.234C179.028 310.859 180.621 311.083 182.188 310.883C183.773 310.706 185.304 310.2 186.681 309.397C188.035 308.564 189.232 307.5 190.218 306.253C190.68 305.632 191.103 304.981 191.482 304.306C191.827 303.616 192.124 302.902 192.37 302.17C191.789 302.7 191.311 303.281 190.798 303.879C190.286 304.477 189.773 304.955 189.227 305.416C188.178 306.389 187.033 307.253 185.81 307.996C183.295 309.418 180.464 310.187 177.576 310.234Z" fill="#1E1A56"/>
<path d="M180.804 279.125C180.804 280.389 181.385 281.397 182.12 281.397C182.854 281.397 183.418 280.389 183.418 279.125C183.418 277.861 182.837 276.87 182.12 276.87C181.402 276.87 180.804 277.878 180.804 279.125Z" fill="#1E1A56"/>
<path d="M171.442 283.669C170.716 283.669 170.127 282.652 170.127 281.397C170.127 280.142 170.716 279.125 171.442 279.125C172.169 279.125 172.758 280.142 172.758 281.397C172.758 282.652 172.169 283.669 171.442 283.669Z" fill="#1E1A56"/>
<path d="M176.96 269.473C176.96 269.473 181.795 264.126 187.057 270.857L176.96 269.473Z" fill="#6B16A8"/>
<path d="M170.709 270.942C170.709 270.942 166.319 267.338 164.269 274.188L170.709 270.942Z" fill="#6B16A8"/>
<path d="M157.06 539.578C157.265 534.453 157.333 529.208 157.487 524.032L157.401 524.288C162.014 518.172 166.678 512.09 171.222 505.94L184.888 487.473L198.367 468.87L211.658 450.078L211.555 450.18C215.443 447.738 219.606 445.766 223.958 444.304C219.484 445.499 215.179 447.255 211.145 449.531L197.291 467.845L183.624 486.312L170.145 504.915C165.635 511.117 161.262 517.386 156.82 523.622V523.741V523.878C156.769 529.208 156.855 534.401 157.06 539.578Z" fill="#1E1687"/>
<path d="M209.573 452.333C208.77 451.792 208.036 451.155 207.387 450.437C206.715 449.705 206.14 448.89 205.678 448.011C205.21 447.13 204.914 446.167 204.807 445.175C204.701 444.15 204.783 443.114 205.046 442.117C204.615 443.089 204.36 444.131 204.294 445.192C204.268 446.268 204.442 447.34 204.807 448.353C205.175 449.376 205.674 450.346 206.293 451.24C206.948 452.159 207.711 452.996 208.565 453.734L209.573 452.333Z" fill="#1E1687"/>
<path d="M209.897 346.109C212.101 344.554 214.236 342.914 216.355 341.274C218.473 339.634 220.54 337.858 222.641 336.235C224.743 334.612 226.758 332.818 228.774 331.007C230.79 329.196 232.806 327.454 234.736 325.575C232.533 327.112 230.397 328.752 228.279 330.409C226.16 332.066 224.093 333.826 221.992 335.449C219.891 337.072 217.875 338.866 215.859 340.676C213.843 342.487 211.828 344.161 209.897 346.109Z" fill="#5459D0"/>
<path d="M221.685 370.026C223.701 368.949 225.666 367.771 227.613 366.609C229.561 365.447 231.474 364.166 233.405 362.953C235.335 361.74 237.197 360.408 239.042 359.075C240.887 357.743 242.766 356.427 244.543 354.992C242.527 356.068 240.563 357.23 238.615 358.409C236.668 359.588 234.754 360.852 232.841 362.082C230.928 363.312 229.048 364.61 227.186 365.943C225.324 367.275 223.479 368.573 221.685 370.026Z" fill="#5459D0"/>
<path d="M371.882 381.386C371.25 383.914 370.755 386.511 370.345 388.988V389.312L370.669 389.483C371.917 390.15 373.164 390.816 374.445 391.431L374.701 390.474C371.507 390.337 368.329 390.252 365.117 390.474C368.278 391.004 371.455 391.311 374.633 391.533L377.024 391.704L374.889 390.594C373.642 389.927 372.361 389.312 371.097 388.697L371.353 389.176C371.575 386.562 371.712 383.982 371.882 381.386Z" fill="#D18B56"/>
<path d="M351.211 388.168C351.143 389.722 351.369 391.276 351.877 392.746C352.366 394.295 353.32 395.655 354.61 396.641C355.28 397.114 356.038 397.447 356.84 397.62C357.641 397.793 358.469 397.803 359.274 397.649C360.047 397.501 360.807 397.29 361.546 397.017C362.23 396.641 362.93 396.3 363.579 395.89C362.827 396.078 362.11 396.334 361.392 396.539C360.671 396.695 359.941 396.803 359.206 396.863C357.789 397.005 356.369 396.629 355.208 395.804C354.059 394.911 353.164 393.734 352.612 392.388C351.994 391.035 351.525 389.621 351.211 388.168Z" fill="#D18B56"/>
<path d="M332.18 387.109C332.377 386.718 332.68 386.39 333.054 386.163C333.429 385.936 333.86 385.82 334.298 385.828C335.144 386 335.918 386.422 336.519 387.041C337.197 387.651 337.825 388.313 338.398 389.022C338.996 389.723 339.526 390.492 340.107 391.226L340.414 390.56C340.038 390.633 339.667 390.73 339.304 390.85C338.962 391.004 338.501 391.124 338.296 391.67C338.26 391.888 338.289 392.111 338.38 392.312C338.472 392.513 338.621 392.682 338.808 392.798C339.092 393.035 339.409 393.231 339.748 393.379C339.491 393.134 339.251 392.871 339.031 392.593C338.808 392.337 338.689 391.995 338.791 391.841C338.894 391.687 339.201 391.568 339.492 391.517C339.825 391.459 340.162 391.419 340.5 391.397H341.2L340.807 390.799C340.289 389.977 339.719 389.19 339.099 388.442C338.813 388.05 338.493 387.684 338.142 387.348C337.815 386.98 337.448 386.647 337.049 386.357C336.278 385.653 335.274 385.257 334.23 385.247C333.735 385.299 333.269 385.507 332.9 385.842C332.532 386.177 332.279 386.621 332.18 387.109Z" fill="#D18B56"/>
<path d="M366.313 380.874C366.313 381.95 366.791 382.838 367.372 382.838C367.953 382.838 368.414 381.95 368.414 380.874C368.414 379.798 367.953 378.909 367.372 378.909C366.791 378.909 366.313 379.78 366.313 380.874Z" fill="#1E1A56"/>
<path d="M374 380.874C374 381.95 374.462 382.838 375.042 382.838C375.623 382.838 376.102 381.95 376.102 380.874C376.102 379.798 375.623 378.909 375.042 378.909C374.462 378.909 374 379.78 374 380.874Z" fill="#1E1A56"/>
<path d="M369.832 374.126C369.354 373.645 368.768 373.286 368.123 373.078C367.479 372.87 366.793 372.819 366.125 372.93C365.457 373.04 364.824 373.308 364.28 373.713C363.737 374.117 363.297 374.645 362.999 375.253" fill="#6901BC"/>
<path d="M374.001 374.023C374.001 374.023 376.221 370.145 379.348 375.732L374.001 374.023Z" fill="#6901BC"/>
<path d="M376.29 430.227C376.095 429.397 375.826 428.585 375.487 427.801C375.151 427.024 374.763 426.271 374.325 425.546C373.878 424.816 373.364 424.13 372.788 423.496C372.236 422.825 371.534 422.292 370.738 421.942C371.268 422.578 371.742 423.258 372.156 423.975L373.454 426.076C373.881 426.776 374.308 427.494 374.787 428.177C375.252 428.887 375.753 429.571 376.29 430.227Z" fill="#DAD5E0"/>
<path d="M381.688 502.421C377.776 503.31 373.898 504.318 370.038 505.343C366.177 506.368 362.333 507.529 358.472 508.657C354.611 509.784 350.836 511.048 347.061 512.364C343.254 513.644 339.519 515.127 335.871 516.806C339.663 515.473 343.473 514.294 347.3 513.116L358.78 509.699L370.243 506.163C374.069 504.984 377.896 503.703 381.688 502.421Z" fill="#221B87"/>
<path d="M621.675 246.274C621.675 246.274 585.031 212.517 625.86 216.053C631.976 208.981 630.678 217.352 630.678 217.352C630.678 217.352 677.298 183.27 694.587 199.978C711.875 216.686 699.712 252.219 669.184 272.89C696.517 266.21 712.917 291.938 694.262 310.268C694.262 310.268 710.337 350.294 698.447 363.551C695.111 367.363 690.823 370.22 686.02 371.832C681.218 373.444 676.074 373.752 671.114 372.725L631.378 332.75C631.378 332.75 616.003 304.477 629.772 287.752C625.738 274.221 623.026 260.329 621.675 246.274Z" fill="#1E1A56"/>
<path d="M613.099 317.272C613.099 317.272 663.341 300.872 697.03 307.261C726.072 345.716 744.863 389.74 744.863 389.74L699.934 417.073L694.297 409.847L727.472 381.403L691.17 340.745L686.643 413.896L688.232 418.184H647.522C647.522 418.184 635.854 376.773 635.393 373.323C635.393 373.323 625.69 376.876 622.307 375.971L610.674 413.896L569.246 466.273L563.592 459.696L597.912 403.629L613.099 317.272Z" fill="white"/>
<path d="M618.788 232.129C618.788 232.129 627.142 255.277 601.107 257.207C603.994 261.393 604.968 262.674 604.968 262.674C604.968 262.674 608.812 281.978 614.124 288.726C619.437 295.474 638.041 285.19 638.041 285.19L644.516 306.817L640.655 351.507L657.738 307.449L641.338 244.121C641.338 244.121 623.606 228.234 618.788 232.129Z" fill="#A56536"/>
<path d="M643.216 263.323C643.216 263.323 645.796 251.365 654.149 255.926C662.503 260.487 652.219 275.111 648.683 272.599C645.147 270.088 643.216 263.323 643.216 263.323Z" fill="#A56536"/>
<path d="M618.789 232.129C618.789 232.129 629.722 253.995 645.148 249.212C660.574 244.429 648.684 230.677 648.684 230.677L618.789 226.696V232.129Z" fill="#1E1A56"/>
<path d="M654.782 261.512C654.293 260.598 653.567 259.831 652.681 259.291C652.156 258.976 651.548 258.829 650.938 258.869C650.327 258.908 649.744 259.133 649.264 259.514C648.41 260.227 647.776 261.169 647.436 262.23C647.101 263.195 646.861 264.19 646.719 265.202L646.514 266.449L647.693 266.091C648.137 265.954 648.598 265.817 649.042 265.715C649.337 265.676 649.636 265.676 649.931 265.715C650.067 265.715 650.016 266.279 649.828 266.706C649.643 267.178 649.432 267.64 649.196 268.089C649.636 267.786 650.033 267.424 650.375 267.013C650.626 266.783 650.803 266.482 650.882 266.15C650.961 265.818 650.939 265.47 650.819 265.151C650.733 264.912 650.511 264.809 650.341 264.673C650.17 264.595 649.993 264.532 649.811 264.485C649.51 264.452 649.206 264.452 648.906 264.485C648.331 264.511 647.759 264.585 647.197 264.707L648.171 265.595C648.444 264.707 648.615 263.784 648.957 262.947C649.186 262.114 649.601 261.343 650.17 260.692C650.431 260.432 650.76 260.251 651.12 260.17C651.479 260.088 651.855 260.109 652.203 260.231C653.125 260.519 653.996 260.951 654.782 261.512Z" fill="#935125"/>
<path d="M613.099 275.657C613.099 275.657 619.027 269.541 630.678 268.021C632.027 279.672 620.94 291.528 613.099 275.657Z" fill="#1E1A56"/>
<path d="M616.158 273.266C620.534 270.432 625.501 268.638 630.678 268.021C630.849 269.399 630.849 270.794 630.678 272.172L617.336 275.674L616.158 273.266Z" fill="white"/>
<path d="M621.127 252.39C621.127 253.791 621.657 254.918 622.306 254.918C622.955 254.918 623.468 253.791 623.468 252.39C623.468 250.989 622.955 249.878 622.306 249.878C621.657 249.878 621.127 251.006 621.127 252.39Z" fill="#1E1A56"/>
<path d="M622.274 375.971C621.173 375.84 620.12 375.444 619.206 374.816C618.293 374.188 617.545 373.347 617.029 372.366C616.736 371.906 616.511 371.405 616.363 370.88C616.151 370.371 616.007 369.837 615.936 369.291L615.68 367.668C615.68 367.121 615.68 366.558 615.68 365.96V364.251L615.885 362.543C615.969 361.432 616.141 360.33 616.397 359.246L617.115 355.983L618.105 352.788C618.686 350.619 619.506 348.535 620.292 346.433C621.078 344.332 622 342.282 622.838 340.215C623.675 338.148 624.546 336.081 625.588 334.065L628.39 327.932C626.22 331.861 623.948 335.773 622.12 339.89C621.146 341.923 620.207 343.99 619.421 346.109C618.635 348.227 617.713 350.294 617.132 352.481C616.807 353.574 616.465 354.651 616.175 355.744L615.475 359.075C615.235 360.201 615.075 361.343 614.996 362.492L614.825 364.2V365.908C614.825 366.472 614.825 367.053 614.928 367.617L615.27 369.325C615.356 369.919 615.535 370.495 615.799 371.033C615.967 371.586 616.227 372.105 616.568 372.571C617.151 373.576 617.982 374.416 618.98 375.011C619.979 375.605 621.112 375.936 622.274 375.971Z" fill="#DAD5E0"/>
<path d="M662.538 306.817L666.877 319.066L667.014 318.707C662.453 321.03 657.874 323.285 653.347 325.54L652.681 325.882L653.313 326.309L664.896 334.304V333.501C655.961 341.65 647.026 349.816 638.245 358.152L638.519 358.323L640.705 351.387L638.194 358.221L637.972 358.836L638.468 358.392C647.607 350.465 656.593 342.367 665.579 334.253L666.057 333.826L665.528 333.45L653.86 325.574V326.343C658.387 323.986 662.863 321.526 667.373 319.134L667.595 319.014L667.509 318.775L662.538 306.817Z" fill="#DAD5E0"/>
<path d="M640.194 310.319C637.341 314.231 634.573 318.195 631.823 322.175L631.567 322.551L631.994 322.739C635.035 324.157 638.127 325.472 641.202 326.856L641.116 326.019C637.7 328.411 634.283 330.854 630.866 333.314L630.559 333.536L630.712 333.877C633.565 340.711 636.572 347.544 639.664 354.206C637.09 347.271 634.391 340.375 631.567 333.519L631.413 334.065C634.83 331.674 638.246 329.265 641.663 326.805L642.363 326.292L641.577 325.968C638.485 324.669 635.41 323.303 632.301 322.039L632.472 322.602C635.086 318.536 637.682 314.454 640.194 310.319Z" fill="#DAD5E0"/>
<path d="M638.211 358.306C637.594 359.72 637.097 361.183 636.725 362.679C636.326 364.194 636.199 365.767 636.349 367.326C636.416 368.149 636.698 368.94 637.165 369.62C637.633 370.3 638.27 370.846 639.014 371.204C640.53 371.775 642.174 371.911 643.763 371.597L643.285 371.307C644.31 375.15 645.181 379.08 646.052 382.992L648.683 394.728L651.348 406.464C652.219 410.393 653.21 414.288 654.133 418.183C653.415 414.237 652.749 410.274 651.963 406.345C651.177 402.415 650.426 398.469 649.589 394.54C648.752 390.611 647.88 386.682 647.026 382.77C646.172 378.857 645.198 374.945 644.105 371.067L644.002 370.709H643.627C642.19 371.042 640.69 370.977 639.287 370.521C638.628 370.227 638.058 369.764 637.635 369.179C637.212 368.594 636.951 367.908 636.879 367.189C636.663 365.69 636.703 364.165 636.998 362.679C637.277 361.19 637.683 359.727 638.211 358.306Z" fill="#DAD5E0"/>
<path d="M643.337 365.482C643.337 365.688 643.398 365.889 643.512 366.061C643.627 366.232 643.79 366.366 643.98 366.444C644.17 366.523 644.38 366.544 644.582 366.504C644.784 366.464 644.97 366.364 645.116 366.219C645.261 366.073 645.361 365.887 645.401 365.685C645.441 365.483 645.42 365.273 645.342 365.083C645.263 364.892 645.129 364.73 644.958 364.615C644.786 364.501 644.585 364.44 644.379 364.44C644.241 364.437 644.105 364.463 643.977 364.514C643.85 364.566 643.734 364.642 643.637 364.74C643.54 364.837 643.463 364.953 643.411 365.08C643.36 365.208 643.334 365.344 643.337 365.482Z" fill="#DAD5E0"/>
<path d="M648.753 382.411C648.75 382.618 648.808 382.821 648.92 382.994C649.033 383.168 649.194 383.304 649.384 383.386C649.574 383.467 649.784 383.49 649.988 383.452C650.191 383.414 650.378 383.316 650.526 383.171C650.673 383.026 650.774 382.84 650.816 382.638C650.857 382.435 650.838 382.225 650.759 382.033C650.681 381.842 650.547 381.678 650.376 381.563C650.204 381.447 650.002 381.386 649.795 381.386C649.522 381.386 649.259 381.493 649.064 381.685C648.869 381.877 648.757 382.137 648.753 382.411Z" fill="#DAD5E0"/>
<path d="M651.69 396.402C651.69 396.609 651.752 396.811 651.867 396.983C651.982 397.154 652.146 397.288 652.338 397.366C652.529 397.445 652.739 397.464 652.942 397.423C653.145 397.381 653.33 397.28 653.475 397.133C653.62 396.985 653.718 396.798 653.756 396.595C653.795 396.391 653.772 396.181 653.69 395.991C653.609 395.801 653.472 395.64 653.299 395.527C653.125 395.415 652.922 395.357 652.715 395.36C652.579 395.36 652.444 395.387 652.319 395.44C652.194 395.492 652.08 395.569 651.984 395.666C651.889 395.763 651.814 395.878 651.763 396.005C651.713 396.131 651.688 396.266 651.69 396.402Z" fill="#DAD5E0"/>
<path d="M654.731 412.734C654.731 412.94 654.792 413.141 654.907 413.313C655.021 413.484 655.184 413.618 655.375 413.696C655.565 413.775 655.775 413.796 655.977 413.756C656.179 413.715 656.364 413.616 656.51 413.47C656.656 413.325 656.755 413.139 656.795 412.937C656.836 412.735 656.815 412.525 656.736 412.335C656.657 412.144 656.524 411.982 656.352 411.867C656.181 411.753 655.979 411.692 655.773 411.692C655.636 411.689 655.499 411.715 655.372 411.766C655.244 411.818 655.129 411.894 655.031 411.992C654.934 412.089 654.857 412.205 654.806 412.332C654.754 412.46 654.729 412.596 654.731 412.734Z" fill="#DAD5E0"/>
<path d="M647.489 418.184L579.958 656.274L585.886 658.273C585.886 658.273 643.064 595.492 621.761 565.374C647.386 525.672 672.55 476.762 672.55 476.762L723.219 655.318L730.052 654.856C730.052 654.856 750.125 589.615 712.252 557.686C736.886 514.79 730.36 423.531 688.181 418.252L647.489 418.184Z" fill="#6B16A8"/>
<path d="M579.957 656.274C579.957 656.274 535.233 674.178 536.6 673.614C537.967 673.05 585.424 673.614 585.424 673.614C585.424 673.614 593.641 669.856 585.885 658.239L579.957 656.274Z" fill="#1E1A56"/>
<path d="M730.069 654.788L748.775 671.632L733.708 678.739L715.463 674.519L723.219 655.249L730.069 654.788Z" fill="#1E1A56"/>
<path d="M694.297 409.83C694.297 409.83 689.531 398.914 682.971 403.219C676.411 407.524 663.564 422.198 667.135 426.896C670.705 431.594 692.555 419.072 692.555 419.072L696.877 420.678L699.935 417.056L694.297 409.83Z" fill="#A56536"/>
<path d="M335.75 109.18H580.008V215.472L596.271 240.67L574.9 221.537H335.75V109.18Z" fill="#6B16A8"/>
<path d="M69.7804 265.048H88.5721C90.7939 265.057 92.9222 265.944 94.4933 267.515C96.0644 269.086 96.951 271.214 96.96 273.436V281.978C96.951 284.2 96.0644 286.328 94.4933 287.899C92.9222 289.47 90.7939 290.357 88.5721 290.366H74.4612L71.7962 293.783C71.6679 293.945 71.5002 294.071 71.3092 294.151C71.1181 294.23 70.9099 294.259 70.7045 294.235C70.4991 294.211 70.3032 294.135 70.1355 294.014C69.9678 293.893 69.8337 293.731 69.7462 293.543L68.2087 290.127C66.2892 289.758 64.5577 288.733 63.3109 287.228C62.0642 285.722 61.38 283.83 61.3754 281.875V273.334C61.4112 271.127 62.312 269.022 63.8839 267.473C65.4558 265.923 67.5731 265.053 69.7804 265.048ZM88.5721 280.287C89.0323 280.287 89.4822 280.15 89.8646 279.894C90.247 279.638 90.5448 279.274 90.7201 278.848C90.8954 278.423 90.9404 277.955 90.8494 277.504C90.7584 277.053 90.5354 276.639 90.2088 276.314C89.8821 275.99 89.4666 275.77 89.0148 275.683C88.563 275.595 88.0953 275.643 87.6711 275.822C87.2469 276 86.8852 276.301 86.632 276.685C86.3787 277.069 86.2454 277.52 86.2488 277.98C86.2485 278.58 86.4821 279.157 86.8999 279.588C87.3178 280.018 87.8869 280.269 88.4867 280.287H88.5721ZM79.1762 280.287C79.6365 280.287 80.0863 280.15 80.4687 279.894C80.8512 279.638 81.1489 279.274 81.3243 278.848C81.4996 278.423 81.5446 277.955 81.4536 277.504C81.3625 277.053 81.1396 276.639 80.8129 276.314C80.4863 275.99 80.0708 275.77 79.619 275.683C79.1672 275.595 78.6995 275.643 78.2752 275.822C77.851 276 77.4893 276.301 77.2361 276.685C76.9829 277.069 76.8495 277.52 76.8529 277.98C76.8569 278.579 77.0918 279.153 77.5088 279.583C77.9257 280.013 78.4925 280.265 79.0908 280.287H79.1762ZM69.7633 280.287C70.2242 280.29 70.6758 280.156 71.0605 279.902C71.4452 279.648 71.7456 279.286 71.9235 278.86C72.1015 278.435 72.1489 277.967 72.0598 277.514C71.9707 277.062 71.7491 276.647 71.4231 276.321C71.0972 275.995 70.6816 275.773 70.2294 275.684C69.7771 275.595 69.3086 275.642 68.8834 275.82C68.4581 275.998 68.0954 276.299 67.8414 276.683C67.5874 277.068 67.4537 277.519 67.4571 277.98C67.4609 278.576 67.6934 279.148 68.1068 279.577C68.5201 280.006 69.0826 280.26 69.6779 280.287H69.7633Z" fill="white"/>
<path d="M69.1307 204.18C69.1273 206.162 69.712 208.1 70.8107 209.748C71.9094 211.397 73.4727 212.683 75.3027 213.443C77.1326 214.203 79.1469 214.402 81.0904 214.017C83.0339 213.631 84.8192 212.677 86.2203 211.276C87.6214 209.875 88.5751 208.09 88.9608 206.146C89.3465 204.203 89.1469 202.188 88.3871 200.358C87.6273 198.529 86.3414 196.965 84.6926 195.867C83.0437 194.768 81.1058 194.183 79.1244 194.187C76.4739 194.187 73.932 195.239 72.0578 197.114C70.1836 198.988 69.1307 201.53 69.1307 204.18Z" fill="#6B16A8"/>
<path d="M79.1234 217.847C85.9567 217.847 91.8676 220.581 94.2422 224.441C94.476 224.822 94.6042 225.257 94.6137 225.704C94.6231 226.15 94.5134 226.591 94.2959 226.98C94.0784 227.37 93.7608 227.695 93.376 227.921C92.9912 228.148 92.5532 228.267 92.1068 228.268H66.1571C65.7107 228.267 65.2726 228.148 64.8878 227.921C64.503 227.695 64.1854 227.37 63.9679 226.98C63.7504 226.591 63.6408 226.15 63.6502 225.704C63.6597 225.257 63.7879 224.822 64.0217 224.441C66.3963 220.581 72.2558 217.847 79.1234 217.847Z" fill="#6B16A8"/>
<path d="M76.3231 142.971V134.856C76.3231 134.484 76.4707 134.128 76.7334 133.865C76.9961 133.603 77.3523 133.455 77.7238 133.455C79.1691 133.455 80.5553 134.029 81.5773 135.051C82.5993 136.073 83.1734 137.459 83.1734 138.905V142.817H93.5601C94.2111 142.822 94.842 143.043 95.3537 143.445C95.8653 143.848 96.2288 144.409 96.3872 145.04C96.5455 145.672 96.4897 146.338 96.2285 146.934C95.9672 147.53 95.5154 148.023 94.9439 148.335C95.4095 148.581 95.799 148.95 96.07 149.402C96.341 149.853 96.4833 150.37 96.4814 150.897C96.4808 151.426 96.3376 151.944 96.0671 152.398C95.7965 152.852 95.4085 153.225 94.9439 153.477C95.4095 153.723 95.799 154.092 96.07 154.544C96.341 154.995 96.4833 155.513 96.4814 156.039C96.4803 156.627 96.3042 157.2 95.9756 157.687C95.647 158.174 95.1807 158.552 94.6364 158.773C95.2618 159.03 95.7792 159.496 96.1011 160.091C96.4229 160.686 96.5296 161.374 96.4031 162.039C96.2766 162.703 95.9247 163.304 95.4067 163.739C94.8888 164.174 94.2365 164.417 93.5601 164.427H77.6726C76.9488 164.429 76.2317 164.289 75.5623 164.013C74.893 163.738 74.2845 163.333 73.7718 162.822C73.2592 162.311 72.8526 161.704 72.575 161.035C72.2975 160.367 72.1547 159.65 72.1547 158.926V148.335C72.1517 147.104 72.5603 145.907 73.3156 144.935C74.0709 143.963 75.1295 143.272 76.3231 142.971Z" fill="white"/>
<path d="M63.8178 144.986H67.9519C69.0841 144.986 70.002 145.904 70.002 147.036V160.139C70.002 161.271 69.0841 162.189 67.9519 162.189H63.8178C62.6856 162.189 61.7678 161.271 61.7678 160.139V147.036C61.7678 145.904 62.6856 144.986 63.8178 144.986Z" fill="#6B16A8"/>
<path d="M348.853 577.811H359.872V643.223H348.853V577.811Z" fill="#1E1A56"/>
<path d="M344.873 603.572H363.853V643.223H344.873V603.572Z" fill="#1E1A56"/>
<path d="M363.853 643.223L421.714 656.701V663.706H406.732V659.127L346.615 652.431L344.873 643.223H363.853Z" fill="#1E1A56"/>
<path d="M345.984 643.223L288.122 656.701V663.706H303.122V659.127L363.221 652.431L364.98 643.223H345.984Z" fill="#1E1A56"/>
<path d="M406.424 665.927C406.421 667.584 406.909 669.204 407.828 670.584C408.746 671.963 410.054 673.038 411.584 673.674C413.114 674.31 414.799 674.477 416.424 674.154C418.049 673.832 419.543 673.034 420.714 671.863C421.886 670.691 422.684 669.198 423.006 667.572C423.328 665.947 423.161 664.263 422.526 662.732C421.89 661.202 420.814 659.895 419.435 658.976C418.056 658.058 416.435 657.569 414.778 657.573C412.563 657.573 410.438 658.453 408.871 660.02C407.304 661.586 406.424 663.711 406.424 665.927Z" fill="#1E1A56"/>
<path d="M355.635 665.926C355.635 670.539 357.515 674.28 359.821 674.28C362.127 674.28 363.989 670.539 363.989 665.926C363.989 661.314 362.127 657.573 359.821 657.573C357.515 657.573 355.635 661.314 355.635 665.926Z" fill="#1E1A56"/>
<path d="M367.098 665.926C367.098 670.539 368.977 674.28 371.283 674.28C373.59 674.28 375.469 670.539 375.469 665.926C375.469 661.314 373.59 657.573 371.283 657.573C368.977 657.573 367.098 661.314 367.098 665.926Z" fill="#1E1A56"/>
<path d="M288.122 665.927C288.118 667.583 288.606 669.203 289.524 670.582C290.442 671.961 291.748 673.036 293.277 673.672C294.806 674.309 296.49 674.477 298.115 674.156C299.74 673.835 301.233 673.039 302.405 671.869C303.578 670.699 304.377 669.207 304.701 667.583C305.026 665.959 304.861 664.275 304.228 662.744C303.595 661.214 302.522 659.905 301.145 658.985C299.768 658.064 298.149 657.573 296.492 657.573C295.394 657.571 294.306 657.785 293.29 658.204C292.275 658.623 291.352 659.238 290.574 660.013C289.797 660.789 289.18 661.711 288.759 662.726C288.338 663.74 288.122 664.828 288.122 665.927Z" fill="#1E1A56"/>
<path d="M364.982 643.223L369.577 657.573V663.706H359.771V657.573L345.985 643.223H364.982Z" fill="#1E1A56"/>
<path d="M478.447 168.92V155.031H485.434C486.248 151.298 487.724 147.74 489.791 144.525L484.854 139.571L494.711 129.765L499.648 134.702C502.841 132.643 506.376 131.168 510.086 130.346V123.359H523.974V130.346C527.715 131.157 531.279 132.633 534.498 134.702L539.435 129.765L549.258 139.571L544.321 144.525C546.388 147.74 547.863 151.298 548.677 155.031H555.698V168.92H548.711C547.9 172.66 546.425 176.225 544.355 179.444L549.292 184.381L539.469 194.204L534.532 189.266C531.313 191.336 527.749 192.812 524.009 193.623V200.61H510.086V193.623C506.352 192.809 502.794 191.333 499.579 189.266L494.642 194.204L484.819 184.381L489.756 179.444C487.687 176.225 486.211 172.66 485.4 168.92H478.447ZM517.073 168.647C518.39 168.647 519.679 168.256 520.774 167.524C521.87 166.792 522.724 165.751 523.228 164.534C523.732 163.317 523.864 161.977 523.607 160.685C523.35 159.392 522.716 158.205 521.784 157.273C520.852 156.341 519.665 155.707 518.373 155.45C517.08 155.193 515.741 155.325 514.523 155.829C513.306 156.333 512.265 157.187 511.533 158.283C510.801 159.379 510.41 160.667 510.41 161.984C510.415 163.75 511.118 165.442 512.367 166.69C513.615 167.939 515.307 168.642 517.073 168.647Z" fill="#ECE8EF"/>
<path d="M356.336 168.92V155.031H363.323C364.143 151.297 365.624 147.739 367.696 144.525L362.742 139.571L372.565 129.765L377.502 134.702C380.721 132.633 384.286 131.157 388.026 130.346V123.359H401.949V130.346C405.682 131.16 409.24 132.635 412.455 134.702L417.409 129.765L427.232 139.571L422.278 144.525C424.345 147.74 425.82 151.298 426.634 155.031H433.621V168.92H426.634C425.823 172.66 424.347 176.225 422.278 179.444L427.232 184.381L417.409 194.204L412.455 189.266C409.24 191.333 405.682 192.809 401.949 193.623V200.61H388.06V193.623C384.32 192.812 380.755 191.336 377.536 189.266L372.599 194.204L362.776 184.381L367.731 179.444C365.655 176.226 364.174 172.661 363.357 168.92H356.336ZM394.961 168.647C396.28 168.65 397.57 168.262 398.668 167.532C399.766 166.802 400.622 165.763 401.129 164.546C401.636 163.329 401.77 161.989 401.515 160.695C401.26 159.402 400.627 158.213 399.696 157.279C398.765 156.346 397.578 155.71 396.285 155.451C394.992 155.193 393.651 155.324 392.433 155.827C391.214 156.331 390.173 157.185 389.44 158.281C388.707 159.377 388.316 160.666 388.316 161.984C388.321 163.753 389.026 165.448 390.278 166.697C391.531 167.945 393.227 168.647 394.996 168.647H394.961Z" fill="#6EE2E5"/>
<path d="M439.002 204.556L432.801 193.196L439.122 189.779C438.993 188.943 438.924 188.098 438.917 187.251C438.919 185.93 439.062 184.613 439.344 183.322L433.33 179.41L440.369 168.442L446.416 172.371C447.761 171.388 449.232 170.589 450.79 169.997V162.805H463.739V169.997C465.736 170.753 467.585 171.852 469.205 173.243L475.509 169.826L481.728 181.186L475.407 184.603C475.53 185.446 475.593 186.297 475.595 187.148C475.591 188.464 475.448 189.775 475.168 191.061L481.198 194.973L474.143 205.838L468.095 201.908C466.758 202.895 465.292 203.694 463.739 204.283V211.492H450.79V204.317C448.794 203.567 446.944 202.474 445.323 201.089L439.002 204.556ZM457.264 190.89C458.012 190.89 458.742 190.668 459.363 190.252C459.985 189.837 460.469 189.246 460.754 188.555C461.039 187.864 461.113 187.104 460.966 186.371C460.819 185.639 460.457 184.966 459.928 184.439C459.398 183.911 458.724 183.553 457.99 183.409C457.257 183.266 456.497 183.343 455.808 183.631C455.118 183.92 454.529 184.406 454.117 185.029C453.704 185.652 453.485 186.384 453.489 187.131C453.48 187.632 453.571 188.13 453.757 188.595C453.942 189.06 454.219 189.483 454.571 189.839C454.923 190.196 455.342 190.478 455.805 190.671C456.267 190.863 456.763 190.96 457.264 190.958V190.89Z" fill="white"/>
<defs>
<linearGradient id="paint0_linear_1747_5282" x1="452.737" y1="435.574" x2="367.201" y2="396.966" gradientUnits="userSpaceOnUse">
<stop stop-color="#BEBCE6" stop-opacity="0.3"/>
<stop offset="1" stop-color="#B4B2D9" stop-opacity="0"/>
</linearGradient>
</defs>
</svg>
