<svg width="255" height="42" viewBox="0 0 255 42" fill="none" xmlns="http://www.w3.org/2000/svg">
<rect width="255" height="42" rx="8" fill="#ECE8EF"/>
<path d="M95 21C95 25.9706 90.9706 30 86 30C81.0294 30 77 25.9706 77 21C77 16.0294 81.0294 12 86 12C90.9706 12 95 16.0294 95 21ZM79.8588 21C79.8588 24.3917 82.6083 27.1412 86 27.1412C89.3917 27.1412 92.1412 24.3917 92.1412 21C92.1412 17.6083 89.3917 14.8588 86 14.8588C82.6083 14.8588 79.8588 17.6083 79.8588 21Z" fill="#6B16A8"/>
<path d="M111 14.5L118 21L111 27.5" stroke="#6B16A8" stroke-width="1.5" stroke-linecap="round" stroke-linejoin="round"/>
<path d="M139.728 24.008V18.536H141.984V24.008H139.728ZM134.88 24.008V18.536H137.136V24.008H134.88ZM141.984 18.552H139.728C139.728 18.0827 139.611 17.72 139.376 17.464C139.141 17.208 138.821 17.08 138.416 17.08V15.32C139.099 15.32 139.707 15.4587 140.24 15.736C140.784 16.0133 141.211 16.3973 141.52 16.888C141.829 17.3787 141.984 17.9333 141.984 18.552ZM134.88 18.552C134.88 17.9333 135.035 17.3787 135.344 16.888C135.653 16.3973 136.075 16.0133 136.608 15.736C137.152 15.4587 137.765 15.32 138.448 15.32V17.08C138.043 17.08 137.723 17.208 137.488 17.464C137.253 17.72 137.136 18.0827 137.136 18.552H134.88ZM141.984 23.992C141.984 24.6213 141.829 25.1813 141.52 25.672C141.211 26.152 140.784 26.536 140.24 26.824C139.707 27.1013 139.099 27.24 138.416 27.24V25.48C138.821 25.48 139.141 25.352 139.376 25.096C139.611 24.8293 139.728 24.4613 139.728 23.992H141.984ZM134.88 23.992H137.136C137.136 24.4613 137.253 24.8293 137.488 25.096C137.723 25.352 138.043 25.48 138.448 25.48V27.24C137.765 27.24 137.152 27.1013 136.608 26.824C136.075 26.536 135.653 26.152 135.344 25.672C135.035 25.1813 134.88 24.6213 134.88 23.992ZM148.891 27L146.891 21.64H149.083L151.099 27H148.891ZM146.283 22.616V20.856H147.355V22.616H146.283ZM146.283 17.32V15.56H147.355V17.32H146.283ZM148.651 19.4V18.776H150.907V19.4H148.651ZM150.907 18.792H148.651C148.651 18.3227 148.534 17.96 148.299 17.704C148.065 17.448 147.745 17.32 147.339 17.32V15.56C148.022 15.56 148.63 15.6987 149.163 15.976C149.707 16.2533 150.134 16.6373 150.443 17.128C150.753 17.6187 150.907 18.1733 150.907 18.792ZM150.907 19.384C150.907 20.0027 150.753 20.5573 150.443 21.048C150.134 21.5387 149.707 21.9227 149.163 22.2C148.63 22.4773 148.022 22.616 147.339 22.616V20.856C147.745 20.856 148.065 20.728 148.299 20.472C148.534 20.216 148.651 19.8533 148.651 19.384H150.907ZM144.299 27V15.56H146.555V27H144.299ZM157.65 23.784V18.792H159.906V23.784H157.65ZM155.09 27V25.24H156.354V27H155.09ZM155.09 17.32V15.56H156.354V17.32H155.09ZM155.09 17.32V15.56H156.354V17.32H155.09ZM159.906 18.792H157.65C157.65 18.3227 157.532 17.96 157.298 17.704C157.074 17.448 156.759 17.32 156.354 17.32V15.56C157.036 15.56 157.644 15.6987 158.178 15.976C158.711 16.2533 159.132 16.6373 159.442 17.128C159.751 17.6187 159.906 18.1733 159.906 18.792ZM159.906 23.752C159.906 24.3813 159.751 24.9413 159.442 25.432C159.132 25.912 158.711 26.296 158.178 26.584C157.644 26.8613 157.036 27 156.354 27V25.24C156.759 25.24 157.074 25.112 157.298 24.856C157.532 24.5893 157.65 24.2213 157.65 23.752H159.906ZM153.186 27V15.56H155.442V27H153.186ZM163.844 27V25.24H168.036V27H163.844ZM163.924 22.168V20.392H167.076V22.168H163.924ZM162.228 15.56H164.484V27H162.228V15.56ZM164.004 15.56H167.876V17.32H164.004V15.56ZM174.706 27L172.706 21.64H174.898L176.914 27H174.706ZM172.098 22.616V20.856H173.17V22.616H172.098ZM172.098 17.32V15.56H173.17V17.32H172.098ZM174.466 19.4V18.776H176.722V19.4H174.466ZM176.722 18.792H174.466C174.466 18.3227 174.349 17.96 174.114 17.704C173.88 17.448 173.56 17.32 173.154 17.32V15.56C173.837 15.56 174.445 15.6987 174.978 15.976C175.522 16.2533 175.949 16.6373 176.258 17.128C176.568 17.6187 176.722 18.1733 176.722 18.792ZM176.722 19.384C176.722 20.0027 176.568 20.5573 176.258 21.048C175.949 21.5387 175.522 21.9227 174.978 22.2C174.445 22.4773 173.837 22.616 173.154 22.616V20.856C173.56 20.856 173.88 20.728 174.114 20.472C174.349 20.216 174.466 19.8533 174.466 19.384H176.722ZM170.114 27V15.56H172.37V27H170.114Z" fill="#6B16A8"/>
</svg>
