<svg width="255" height="43" viewBox="0 0 255 43" fill="none" xmlns="http://www.w3.org/2000/svg">
<rect y="0.5" width="255" height="42" rx="8" fill="#6B16A8"/>
<path d="M95 21.5C95 26.4706 90.9706 30.5 86 30.5C81.0294 30.5 77 26.4706 77 21.5C77 16.5294 81.0294 12.5 86 12.5C90.9706 12.5 95 16.5294 95 21.5ZM79.8588 21.5C79.8588 24.8917 82.6083 27.6412 86 27.6412C89.3917 27.6412 92.1412 24.8917 92.1412 21.5C92.1412 18.1083 89.3917 15.3588 86 15.3588C82.6083 15.3588 79.8588 18.1083 79.8588 21.5Z" fill="#ECE8EF"/>
<path d="M111 15L118 21.5L111 28" stroke="#ECE8EF" stroke-width="1.5" stroke-linecap="round" stroke-linejoin="round"/>
<path d="M139.728 24.508V19.036H141.984V24.508H139.728ZM134.88 24.508V19.036H137.136V24.508H134.88ZM141.984 19.052H139.728C139.728 18.5827 139.611 18.22 139.376 17.964C139.141 17.708 138.821 17.58 138.416 17.58V15.82C139.099 15.82 139.707 15.9587 140.24 16.236C140.784 16.5133 141.211 16.8973 141.52 17.388C141.829 17.8787 141.984 18.4333 141.984 19.052ZM134.88 19.052C134.88 18.4333 135.035 17.8787 135.344 17.388C135.653 16.8973 136.075 16.5133 136.608 16.236C137.152 15.9587 137.765 15.82 138.448 15.82V17.58C138.043 17.58 137.723 17.708 137.488 17.964C137.253 18.22 137.136 18.5827 137.136 19.052H134.88ZM141.984 24.492C141.984 25.1213 141.829 25.6813 141.52 26.172C141.211 26.652 140.784 27.036 140.24 27.324C139.707 27.6013 139.099 27.74 138.416 27.74V25.98C138.821 25.98 139.141 25.852 139.376 25.596C139.611 25.3293 139.728 24.9613 139.728 24.492H141.984ZM134.88 24.492H137.136C137.136 24.9613 137.253 25.3293 137.488 25.596C137.723 25.852 138.043 25.98 138.448 25.98V27.74C137.765 27.74 137.152 27.6013 136.608 27.324C136.075 27.036 135.653 26.652 135.344 26.172C135.035 25.6813 134.88 25.1213 134.88 24.492ZM148.891 27.5L146.891 22.14H149.083L151.099 27.5H148.891ZM146.283 23.116V21.356H147.355V23.116H146.283ZM146.283 17.82V16.06H147.355V17.82H146.283ZM148.651 19.9V19.276H150.907V19.9H148.651ZM150.907 19.292H148.651C148.651 18.8227 148.534 18.46 148.299 18.204C148.065 17.948 147.745 17.82 147.339 17.82V16.06C148.022 16.06 148.63 16.1987 149.163 16.476C149.707 16.7533 150.134 17.1373 150.443 17.628C150.753 18.1187 150.907 18.6733 150.907 19.292ZM150.907 19.884C150.907 20.5027 150.753 21.0573 150.443 21.548C150.134 22.0387 149.707 22.4227 149.163 22.7C148.63 22.9773 148.022 23.116 147.339 23.116V21.356C147.745 21.356 148.065 21.228 148.299 20.972C148.534 20.716 148.651 20.3533 148.651 19.884H150.907ZM144.299 27.5V16.06H146.555V27.5H144.299ZM157.65 24.284V19.292H159.906V24.284H157.65ZM155.09 27.5V25.74H156.354V27.5H155.09ZM155.09 17.82V16.06H156.354V17.82H155.09ZM155.09 17.82V16.06H156.354V17.82H155.09ZM159.906 19.292H157.65C157.65 18.8227 157.532 18.46 157.298 18.204C157.074 17.948 156.759 17.82 156.354 17.82V16.06C157.036 16.06 157.644 16.1987 158.178 16.476C158.711 16.7533 159.132 17.1373 159.442 17.628C159.751 18.1187 159.906 18.6733 159.906 19.292ZM159.906 24.252C159.906 24.8813 159.751 25.4413 159.442 25.932C159.132 26.412 158.711 26.796 158.178 27.084C157.644 27.3613 157.036 27.5 156.354 27.5V25.74C156.759 25.74 157.074 25.612 157.298 25.356C157.532 25.0893 157.65 24.7213 157.65 24.252H159.906ZM153.186 27.5V16.06H155.442V27.5H153.186ZM163.844 27.5V25.74H168.036V27.5H163.844ZM163.924 22.668V20.892H167.076V22.668H163.924ZM162.228 16.06H164.484V27.5H162.228V16.06ZM164.004 16.06H167.876V17.82H164.004V16.06ZM174.706 27.5L172.706 22.14H174.898L176.914 27.5H174.706ZM172.098 23.116V21.356H173.17V23.116H172.098ZM172.098 17.82V16.06H173.17V17.82H172.098ZM174.466 19.9V19.276H176.722V19.9H174.466ZM176.722 19.292H174.466C174.466 18.8227 174.349 18.46 174.114 18.204C173.88 17.948 173.56 17.82 173.154 17.82V16.06C173.837 16.06 174.445 16.1987 174.978 16.476C175.522 16.7533 175.949 17.1373 176.258 17.628C176.568 18.1187 176.722 18.6733 176.722 19.292ZM176.722 19.884C176.722 20.5027 176.568 21.0573 176.258 21.548C175.949 22.0387 175.522 22.4227 174.978 22.7C174.445 22.9773 173.837 23.116 173.154 23.116V21.356C173.56 21.356 173.88 21.228 174.114 20.972C174.349 20.716 174.466 20.3533 174.466 19.884H176.722ZM170.114 27.5V16.06H172.37V27.5H170.114Z" fill="#ECE8EF"/>
</svg>
