<svg width="20" height="20" viewBox="0 0 20 20" fill="none" xmlns="http://www.w3.org/2000/svg">
<path d="M7.64176 12.9832C7.55967 12.9834 7.47835 12.9673 7.40255 12.9358C7.32675 12.9043 7.25798 12.858 7.20027 12.7997C7.08415 12.682 7.01904 12.5233 7.01904 12.3579C7.01904 12.1926 7.08415 12.0339 7.20027 11.9162L11.9187 7.20031C12.0358 7.08315 12.1947 7.01733 12.3604 7.01733C12.5261 7.01733 12.685 7.08315 12.8021 7.20031C12.9193 7.31746 12.9851 7.47636 12.9851 7.64205C12.9851 7.80773 12.9193 7.96663 12.8021 8.08379L8.08325 12.8002C8.02596 12.8591 7.95726 12.9057 7.88135 12.9371C7.80545 12.9686 7.72392 12.9843 7.64176 12.9832V12.9832Z" fill="#C6C2DE"/>
<path d="M12.3582 12.9831C12.2761 12.9834 12.1948 12.9673 12.119 12.9358C12.0432 12.9043 11.9744 12.858 11.9167 12.7997L7.20029 8.08327C7.08704 7.9654 7.02452 7.80782 7.02615 7.64437C7.02779 7.48091 7.09345 7.32462 7.20903 7.20903C7.32462 7.09345 7.48091 7.02779 7.64437 7.02615C7.80782 7.02452 7.9654 7.08704 8.08327 7.20029L12.8002 11.9187C12.9163 12.0364 12.9814 12.1951 12.9814 12.3604C12.9814 12.5258 12.9163 12.6845 12.8002 12.8022C12.7422 12.8601 12.6732 12.906 12.5974 12.9371C12.5215 12.9682 12.4402 12.9838 12.3582 12.9831V12.9831Z" fill="#C6C2DE"/>
<path d="M12.4997 18.9581H7.49984C2.97496 18.9581 1.0415 17.0246 1.0415 12.4997V7.49984C1.0415 2.97496 2.97496 1.0415 7.49984 1.0415H12.4997C17.0246 1.0415 18.9581 2.97496 18.9581 7.49984V12.4997C18.9581 17.0246 17.0246 18.9581 12.4997 18.9581ZM7.49984 2.29147C3.65794 2.29147 2.29147 3.65794 2.29147 7.49984V12.4997C2.29147 16.3416 3.65794 17.7081 7.49984 17.7081H12.4997C16.3416 17.7081 17.7081 16.3416 17.7081 12.4997V7.49984C17.7081 3.65794 16.3411 2.29147 12.4997 2.29147H7.49984Z" fill="#C6C2DE"/>
</svg>
