<svg width="255" height="52" viewBox="0 0 255 52" fill="none" xmlns="http://www.w3.org/2000/svg">
<g clip-path="url(#clip0_787_2626)">
<path d="M45.1215 36.4012H33.8764C29.7681 36.4012 27.4116 34.0444 27.4116 29.934V22.0638C27.4116 17.9555 29.7681 15.6001 33.8764 15.6001H45.1215C49.2319 15.6001 51.5883 17.9562 51.5883 22.0638V29.934C51.5918 34.0444 49.2326 36.4012 45.1215 36.4012ZM32.3191 20.5114C32.1926 20.5108 32.0676 20.5389 31.9534 20.5934C31.8392 20.648 31.7386 20.7274 31.6595 20.8262C31.5893 20.9126 31.5366 21.0123 31.505 21.1191C31.4734 21.2259 31.4637 21.3378 31.4756 21.4486C31.4869 21.5594 31.5201 21.6669 31.5733 21.7647C31.6266 21.8626 31.6984 21.9487 31.7853 22.0184C36.8953 26.1568 36.9404 26.1742 37.0209 26.2043C37.7453 26.7147 38.6121 26.9842 39.4982 26.9744C40.3776 26.9866 41.2379 26.7192 41.9558 26.2112C42.0461 26.1804 42.0956 26.1637 47.214 22.0197C47.3869 21.8775 47.4972 21.6727 47.5202 21.45C47.5433 21.2272 47.4778 21.0043 47.3377 20.8296C47.2585 20.731 47.1578 20.6515 47.0437 20.5968C46.9297 20.5422 46.8051 20.5141 46.6787 20.5141C46.4846 20.5144 46.2965 20.5811 46.1455 20.7031L41.0726 24.7743C40.6194 25.1186 40.0632 25.2994 39.4941 25.2873C38.9245 25.2992 38.367 25.1185 37.913 24.7743L32.8523 20.7031C32.7017 20.5806 32.5134 20.514 32.3191 20.5148V20.5114Z" fill="#ECE8EF"/>
</g>
<path d="M63.5 19.5L70.5 26L63.5 32.5" stroke="#ECE8EF" stroke-width="1.5" stroke-linecap="round" stroke-linejoin="round"/>
<path d="M84.468 26.704V25.28C84.8733 25.28 85.188 25.152 85.412 24.896C85.6467 24.6293 85.764 24.256 85.764 23.776H88.02C88.02 24.3307 87.8653 24.832 87.556 25.28C87.2467 25.7173 86.82 26.064 86.276 26.32C85.7427 26.576 85.14 26.704 84.468 26.704ZM83.476 32V30.24H84.628V32H83.476ZM83.476 26.944V25.28H84.628V26.944H83.476ZM85.924 28.768V28.448H88.18V28.768H85.924ZM85.924 28.464C85.924 27.984 85.8067 27.6107 85.572 27.344C85.348 27.0773 85.0333 26.944 84.628 26.944V25.52C85.3 25.52 85.9027 25.648 86.436 25.904C86.98 26.16 87.4067 26.512 87.716 26.96C88.0253 27.3973 88.18 27.8987 88.18 28.464H85.924ZM83.476 22.32V20.56H84.468V22.32H83.476ZM88.02 23.792H85.764C85.764 23.3227 85.6467 22.96 85.412 22.704C85.188 22.448 84.8733 22.32 84.468 22.32V20.56C85.1507 20.56 85.7587 20.6987 86.292 20.976C86.8253 21.2533 87.2467 21.6373 87.556 22.128C87.8653 22.6187 88.02 23.1733 88.02 23.792ZM88.18 28.752C88.18 29.3813 88.0253 29.9413 87.716 30.432C87.4067 30.912 86.9853 31.296 86.452 31.584C85.9187 31.8613 85.3107 32 84.628 32V30.24C85.0333 30.24 85.348 30.112 85.572 29.856C85.8067 29.5893 85.924 29.2213 85.924 28.752H88.18ZM81.46 32V20.56H83.716V32H81.46ZM91.9622 32V30.24H96.1542V32H91.9622ZM92.0422 27.168V25.392H95.1942V27.168H92.0422ZM90.3462 20.56H92.6022V32H90.3462V20.56ZM92.1222 20.56H95.9942V22.32H92.1222V20.56ZM103 29.008V23.536H105.256V29.008H103ZM98.1525 29.008V23.536H100.408V29.008H98.1525ZM105.256 23.552H103C103 23.0827 102.883 22.72 102.648 22.464C102.414 22.208 102.094 22.08 101.688 22.08V20.32C102.371 20.32 102.979 20.4587 103.512 20.736C104.056 21.0133 104.483 21.3973 104.792 21.888C105.102 22.3787 105.256 22.9333 105.256 23.552ZM98.1525 23.552C98.1525 22.9333 98.3072 22.3787 98.6165 21.888C98.9258 21.3973 99.3472 21.0133 99.8805 20.736C100.424 20.4587 101.038 20.32 101.72 20.32V22.08C101.315 22.08 100.995 22.208 100.76 22.464C100.526 22.72 100.408 23.0827 100.408 23.552H98.1525ZM105.256 28.992C105.256 29.6213 105.102 30.1813 104.792 30.672C104.483 31.152 104.056 31.536 103.512 31.824C102.979 32.1013 102.371 32.24 101.688 32.24V30.48C102.094 30.48 102.414 30.352 102.648 30.096C102.883 29.8293 103 29.4613 103 28.992H105.256ZM98.1525 28.992H100.408C100.408 29.4613 100.526 29.8293 100.76 30.096C100.995 30.352 101.315 30.48 101.72 30.48V32.24C101.038 32.24 100.424 32.1013 99.8805 31.824C99.3472 31.536 98.9258 31.152 98.6165 30.672C98.3072 30.1813 98.1525 29.6213 98.1525 28.992ZM112.5 32L107.956 20.56H109.924L114.468 32H112.5ZM107.572 32V20.56H109.828V32H107.572ZM113.044 32V20.56H115.3V32H113.044ZM122.188 28.784V23.792H124.444V28.784H122.188ZM119.628 32V30.24H120.892V32H119.628ZM119.628 22.32V20.56H120.892V22.32H119.628ZM119.628 22.32V20.56H120.892V22.32H119.628ZM124.444 23.792H122.188C122.188 23.3227 122.07 22.96 121.836 22.704C121.612 22.448 121.297 22.32 120.892 22.32V20.56C121.574 20.56 122.182 20.6987 122.716 20.976C123.249 21.2533 123.67 21.6373 123.98 22.128C124.289 22.6187 124.444 23.1733 124.444 23.792ZM124.444 28.752C124.444 29.3813 124.289 29.9413 123.98 30.432C123.67 30.912 123.249 31.296 122.716 31.584C122.182 31.8613 121.574 32 120.892 32V30.24C121.297 30.24 121.612 30.112 121.836 29.856C122.07 29.5893 122.188 29.2213 122.188 28.752H124.444ZM117.724 32V20.56H119.98V32H117.724ZM126.926 32V20.56H129.182V32H126.926ZM131.106 22.32V20.56H138.546V22.32H131.106ZM133.698 32V20.56H135.954V32H133.698ZM140.192 26.752C140.267 25.8773 140.454 25.0987 140.752 24.416C141.051 23.7227 141.451 23.136 141.952 22.656C142.464 22.1653 143.062 21.792 143.744 21.536C144.427 21.28 145.19 21.152 146.032 21.152L145.952 22.848C145.195 22.848 144.528 23.0027 143.952 23.312C143.387 23.6213 142.939 24.0693 142.608 24.656C142.278 25.232 142.075 25.9307 142 26.752H140.192ZM145.136 33.792C143.995 33.792 143.03 33.568 142.24 33.12C141.462 32.672 140.886 32.032 140.512 31.2C140.139 30.3573 140 29.36 140.096 28.208H141.904C141.851 29.0187 141.942 29.7173 142.176 30.304C142.422 30.8907 142.8 31.3387 143.312 31.648C143.824 31.9467 144.459 32.096 145.216 32.096L145.136 33.792ZM140.096 28.208L140.192 26.752H142L141.904 28.208H140.096ZM145.136 33.792L145.216 32.096C145.558 32.096 145.883 32.0693 146.192 32.016C146.512 31.9627 146.8 31.8773 147.056 31.76L147.456 33.296C147.115 33.456 146.747 33.5787 146.352 33.664C145.958 33.7493 145.552 33.792 145.136 33.792ZM144.864 31.04C144.427 31.04 144.048 30.9173 143.728 30.672C143.408 30.4267 143.168 30.0853 143.008 29.648C142.848 29.2107 142.795 28.7147 142.848 28.16H144.496C144.475 28.4907 144.534 28.7573 144.672 28.96C144.822 29.1627 145.024 29.264 145.28 29.264L144.864 31.04ZM142.848 28.16L142.928 27.024H144.576L144.496 28.16H142.848ZM144.864 31.04L145.28 29.264C145.515 29.264 145.707 29.1627 145.856 28.96C146.016 28.7573 146.112 28.4907 146.144 28.16H147.008C146.955 28.7147 146.827 29.2107 146.624 29.648C146.422 30.0853 146.171 30.4267 145.872 30.672C145.574 30.9173 145.238 31.04 144.864 31.04ZM149.152 28.208H150.976C150.934 28.88 150.779 29.44 150.512 29.888C150.256 30.336 149.936 30.672 149.552 30.896C149.168 31.12 148.768 31.232 148.352 31.232C147.947 31.232 147.568 31.12 147.216 30.896C146.864 30.6613 146.587 30.32 146.384 29.872C146.182 29.4133 146.102 28.8427 146.144 28.16H147.792C147.75 28.672 147.787 29.056 147.904 29.312C148.022 29.568 148.171 29.696 148.352 29.696C148.534 29.696 148.699 29.5733 148.848 29.328C149.008 29.0827 149.11 28.7093 149.152 28.208ZM142.928 27.024C142.982 26.4693 143.115 25.9733 143.328 25.536C143.542 25.0987 143.814 24.7573 144.144 24.512C144.486 24.2667 144.854 24.144 145.248 24.144L145.504 25.92C145.259 25.92 145.051 26.0213 144.88 26.224C144.71 26.416 144.608 26.6827 144.576 27.024H142.928ZM146.224 26.896C146.246 26.5973 146.187 26.3627 146.048 26.192C145.92 26.0107 145.739 25.92 145.504 25.92L145.248 24.144C145.622 24.144 145.942 24.2667 146.208 24.512C146.486 24.7467 146.688 25.072 146.816 25.488C146.955 25.8933 147.003 26.3627 146.96 26.896H146.224ZM146.144 28.16L146.368 24.736L146.64 24.24H148.048L147.792 28.16H146.144ZM149.152 28.208L149.248 26.752H151.072L150.976 28.208H149.152ZM149.248 26.752C149.323 25.9307 149.238 25.232 148.992 24.656C148.747 24.0693 148.368 23.6213 147.856 23.312C147.344 23.0027 146.71 22.848 145.952 22.848L146.032 21.152C147.163 21.152 148.118 21.3813 148.896 21.84C149.686 22.288 150.267 22.928 150.64 23.76C151.024 24.592 151.168 25.5893 151.072 26.752H149.248ZM156.469 27.44V25.68H160.213V27.44H156.469ZM157.957 29.024V25.728H160.213V29.024H157.957ZM153.109 29.024V23.536H155.365V29.024H153.109ZM153.109 23.536C153.109 22.9173 153.263 22.3627 153.573 21.872C153.882 21.3813 154.303 20.9973 154.837 20.72C155.381 20.4427 155.994 20.304 156.677 20.304V22.064C156.271 22.064 155.951 22.192 155.717 22.448C155.482 22.704 155.365 23.0667 155.365 23.536H153.109ZM153.109 29.008H155.365C155.365 29.4773 155.482 29.8453 155.717 30.112C155.951 30.368 156.271 30.496 156.677 30.496V32.256C155.994 32.256 155.381 32.1173 154.837 31.84C154.303 31.552 153.882 31.168 153.573 30.688C153.263 30.1973 153.109 29.6373 153.109 29.008ZM158.261 24.048C158.218 23.4293 158.053 22.944 157.765 22.592C157.487 22.24 157.119 22.064 156.661 22.064V20.304C157.695 20.304 158.527 20.6027 159.157 21.2C159.797 21.7867 160.175 22.6133 160.293 23.68L158.261 24.048ZM160.213 29.008C160.213 29.6373 160.058 30.1973 159.749 30.688C159.439 31.168 159.018 31.552 158.485 31.84C157.951 32.1173 157.343 32.256 156.661 32.256V30.496C157.066 30.496 157.381 30.368 157.605 30.112C157.839 29.8453 157.957 29.4773 157.957 29.008H160.213ZM166.448 32L168.944 20.56H170.656L168.16 32H166.448ZM166.384 32L163.888 20.56H165.6L168.096 32H166.384ZM162.608 32V20.56H164.864V32H162.608ZM169.68 32V20.56H171.936V32H169.68ZM176.034 30.048V28.288H180.13V30.048H176.034ZM178.866 20.56L176.05 32H173.858L176.69 20.56H178.866ZM178.898 20.56L181.73 32H179.554L176.722 20.56H178.898ZM183.572 32V20.56H185.828V32H183.572ZM190.199 32V30.24H194.071V32H190.199ZM188.423 32V20.56H190.679V32H188.423ZM196.929 32.192C196.566 32.192 196.262 32.0747 196.017 31.84C195.782 31.5947 195.665 31.2907 195.665 30.928C195.665 30.5653 195.782 30.2613 196.017 30.016C196.262 29.76 196.566 29.632 196.929 29.632C197.292 29.632 197.596 29.76 197.841 30.016C198.097 30.2613 198.225 30.5653 198.225 30.928C198.225 31.2907 198.097 31.5947 197.841 31.84C197.596 32.0747 197.292 32.192 196.929 32.192ZM199.942 29.024V23.536H202.198V29.024H199.942ZM199.942 23.536C199.942 22.9173 200.097 22.3627 200.406 21.872C200.715 21.3813 201.137 20.9973 201.67 20.72C202.214 20.4427 202.827 20.304 203.51 20.304V22.064C203.105 22.064 202.785 22.192 202.55 22.448C202.315 22.704 202.198 23.0667 202.198 23.536H199.942ZM199.942 29.008H202.198C202.198 29.4773 202.315 29.8453 202.55 30.112C202.785 30.368 203.105 30.496 203.51 30.496V32.256C202.827 32.256 202.214 32.1173 201.67 31.84C201.137 31.552 200.715 31.168 200.406 30.688C200.097 30.1973 199.942 29.6373 199.942 29.008ZM205.094 24.048C205.051 23.4293 204.886 22.944 204.598 22.592C204.321 22.24 203.953 22.064 203.494 22.064V20.304C204.529 20.304 205.361 20.6027 205.99 21.2C206.63 21.7867 207.009 22.6133 207.126 23.68L205.094 24.048ZM205.094 28.512L207.126 28.864C207.009 29.9307 206.63 30.7627 205.99 31.36C205.361 31.9573 204.529 32.256 203.494 32.256V30.496C203.953 30.496 204.321 30.32 204.598 29.968C204.886 29.616 205.051 29.1307 205.094 28.512ZM213.819 29.008V23.536H216.075V29.008H213.819ZM208.971 29.008V23.536H211.227V29.008H208.971ZM216.075 23.552H213.819C213.819 23.0827 213.701 22.72 213.467 22.464C213.232 22.208 212.912 22.08 212.507 22.08V20.32C213.189 20.32 213.797 20.4587 214.331 20.736C214.875 21.0133 215.301 21.3973 215.611 21.888C215.92 22.3787 216.075 22.9333 216.075 23.552ZM208.971 23.552C208.971 22.9333 209.125 22.3787 209.435 21.888C209.744 21.3973 210.165 21.0133 210.699 20.736C211.243 20.4587 211.856 20.32 212.539 20.32V22.08C212.133 22.08 211.813 22.208 211.579 22.464C211.344 22.72 211.227 23.0827 211.227 23.552H208.971ZM216.075 28.992C216.075 29.6213 215.92 30.1813 215.611 30.672C215.301 31.152 214.875 31.536 214.331 31.824C213.797 32.1013 213.189 32.24 212.507 32.24V30.48C212.912 30.48 213.232 30.352 213.467 30.096C213.701 29.8293 213.819 29.4613 213.819 28.992H216.075ZM208.971 28.992H211.227C211.227 29.4613 211.344 29.8293 211.579 30.096C211.813 30.352 212.133 30.48 212.539 30.48V32.24C211.856 32.24 211.243 32.1013 210.699 31.824C210.165 31.536 209.744 31.152 209.435 30.672C209.125 30.1813 208.971 29.6213 208.971 28.992ZM222.23 32L224.726 20.56H226.438L223.942 32H222.23ZM222.166 32L219.67 20.56H221.382L223.878 32H222.166ZM218.39 32V20.56H220.646V32H218.39ZM225.462 32V20.56H227.718V32H225.462Z" fill="#ECE8EF"/>
<rect x="2" y="2" width="251" height="48" rx="6" stroke="#6B16A8" stroke-width="4"/>
<defs>
<clipPath id="clip0_787_2626">
<rect width="28" height="28" fill="white" transform="translate(25.5 12)"/>
</clipPath>
</defs>
</svg>
