<svg width="255" height="52" viewBox="0 0 255 52" fill="none" xmlns="http://www.w3.org/2000/svg">
<g clip-path="url(#clip0_923_2014)">
<path d="M45.1215 36.4009H33.8764C29.7681 36.4009 27.4116 34.0442 27.4116 29.9338V22.0636C27.4116 17.9553 29.7681 15.5999 33.8764 15.5999H45.1215C49.2319 15.5999 51.5883 17.956 51.5883 22.0636V29.9338C51.5918 34.0442 49.2326 36.4009 45.1215 36.4009ZM32.3191 20.5111C32.1926 20.5106 32.0676 20.5386 31.9534 20.5932C31.8392 20.6477 31.7386 20.7271 31.6595 20.8259C31.5893 20.9124 31.5366 21.0121 31.505 21.1188C31.4734 21.2256 31.4637 21.3376 31.4756 21.4483C31.4869 21.5591 31.5201 21.6667 31.5733 21.7645C31.6266 21.8623 31.6984 21.9484 31.7853 22.0181C36.8953 26.1565 36.9404 26.174 37.0209 26.2041C37.7453 26.7145 38.6121 26.984 39.4982 26.9742C40.3776 26.9863 41.2379 26.7189 41.9558 26.2109C42.0461 26.1801 42.0956 26.1635 47.214 22.0195C47.3869 21.8772 47.4972 21.6725 47.5202 21.4497C47.5433 21.227 47.4778 21.004 47.3377 20.8293C47.2585 20.7308 47.1578 20.6512 47.0437 20.5966C46.9297 20.5419 46.8051 20.5138 46.6787 20.5139C46.4846 20.5142 46.2965 20.5809 46.1455 20.7029L41.0726 24.774C40.6194 25.1184 40.0632 25.2992 39.4941 25.2871C38.9245 25.299 38.367 25.1183 37.913 24.774L32.8523 20.7029C32.7017 20.5803 32.5134 20.5138 32.3191 20.5146V20.5111Z" fill="#ECE8EF"/>
</g>
<path d="M63.5 19.4998L70.5 25.9998L63.5 32.4998" stroke="#ECE8EF" stroke-width="1.5" stroke-linecap="round" stroke-linejoin="round"/>
<path d="M84.468 26.7038V25.2798C84.8733 25.2798 85.188 25.1518 85.412 24.8958C85.6467 24.6291 85.764 24.2558 85.764 23.7758H88.02C88.02 24.3304 87.8653 24.8318 87.556 25.2798C87.2467 25.7171 86.82 26.0638 86.276 26.3198C85.7427 26.5758 85.14 26.7038 84.468 26.7038ZM83.476 31.9998V30.2398H84.628V31.9998H83.476ZM83.476 26.9438V25.2798H84.628V26.9438H83.476ZM85.924 28.7678V28.4478H88.18V28.7678H85.924ZM85.924 28.4638C85.924 27.9838 85.8067 27.6104 85.572 27.3438C85.348 27.0771 85.0333 26.9438 84.628 26.9438V25.5198C85.3 25.5198 85.9027 25.6478 86.436 25.9038C86.98 26.1598 87.4067 26.5118 87.716 26.9598C88.0253 27.3971 88.18 27.8984 88.18 28.4638H85.924ZM83.476 22.3198V20.5598H84.468V22.3198H83.476ZM88.02 23.7918H85.764C85.764 23.3224 85.6467 22.9598 85.412 22.7038C85.188 22.4478 84.8733 22.3198 84.468 22.3198V20.5598C85.1507 20.5598 85.7587 20.6984 86.292 20.9758C86.8253 21.2531 87.2467 21.6371 87.556 22.1278C87.8653 22.6184 88.02 23.1731 88.02 23.7918ZM88.18 28.7518C88.18 29.3811 88.0253 29.9411 87.716 30.4318C87.4067 30.9118 86.9853 31.2958 86.452 31.5838C85.9187 31.8611 85.3107 31.9998 84.628 31.9998V30.2398C85.0333 30.2398 85.348 30.1118 85.572 29.8558C85.8067 29.5891 85.924 29.2211 85.924 28.7518H88.18ZM81.46 31.9998V20.5598H83.716V31.9998H81.46ZM91.9622 31.9998V30.2398H96.1542V31.9998H91.9622ZM92.0422 27.1678V25.3918H95.1942V27.1678H92.0422ZM90.3462 20.5598H92.6022V31.9998H90.3462V20.5598ZM92.1222 20.5598H95.9942V22.3198H92.1222V20.5598ZM103 29.0078V23.5358H105.256V29.0078H103ZM98.1525 29.0078V23.5358H100.408V29.0078H98.1525ZM105.256 23.5518H103C103 23.0824 102.883 22.7198 102.648 22.4638C102.414 22.2078 102.094 22.0798 101.688 22.0798V20.3198C102.371 20.3198 102.979 20.4584 103.512 20.7358C104.056 21.0131 104.483 21.3971 104.792 21.8878C105.102 22.3784 105.256 22.9331 105.256 23.5518ZM98.1525 23.5518C98.1525 22.9331 98.3072 22.3784 98.6165 21.8878C98.9258 21.3971 99.3472 21.0131 99.8805 20.7358C100.424 20.4584 101.038 20.3198 101.72 20.3198V22.0798C101.315 22.0798 100.995 22.2078 100.76 22.4638C100.526 22.7198 100.408 23.0824 100.408 23.5518H98.1525ZM105.256 28.9918C105.256 29.6211 105.102 30.1811 104.792 30.6718C104.483 31.1518 104.056 31.5358 103.512 31.8238C102.979 32.1011 102.371 32.2398 101.688 32.2398V30.4798C102.094 30.4798 102.414 30.3518 102.648 30.0958C102.883 29.8291 103 29.4611 103 28.9918H105.256ZM98.1525 28.9918H100.408C100.408 29.4611 100.526 29.8291 100.76 30.0958C100.995 30.3518 101.315 30.4798 101.72 30.4798V32.2398C101.038 32.2398 100.424 32.1011 99.8805 31.8238C99.3472 31.5358 98.9258 31.1518 98.6165 30.6718C98.3072 30.1811 98.1525 29.6211 98.1525 28.9918ZM112.5 31.9998L107.956 20.5598H109.924L114.468 31.9998H112.5ZM107.572 31.9998V20.5598H109.828V31.9998H107.572ZM113.044 31.9998V20.5598H115.3V31.9998H113.044ZM122.188 28.7838V23.7918H124.444V28.7838H122.188ZM119.628 31.9998V30.2398H120.892V31.9998H119.628ZM119.628 22.3198V20.5598H120.892V22.3198H119.628ZM119.628 22.3198V20.5598H120.892V22.3198H119.628ZM124.444 23.7918H122.188C122.188 23.3224 122.07 22.9598 121.836 22.7038C121.612 22.4478 121.297 22.3198 120.892 22.3198V20.5598C121.574 20.5598 122.182 20.6984 122.716 20.9758C123.249 21.2531 123.67 21.6371 123.98 22.1278C124.289 22.6184 124.444 23.1731 124.444 23.7918ZM124.444 28.7518C124.444 29.3811 124.289 29.9411 123.98 30.4318C123.67 30.9118 123.249 31.2958 122.716 31.5838C122.182 31.8611 121.574 31.9998 120.892 31.9998V30.2398C121.297 30.2398 121.612 30.1118 121.836 29.8558C122.07 29.5891 122.188 29.2211 122.188 28.7518H124.444ZM117.724 31.9998V20.5598H119.98V31.9998H117.724ZM126.926 31.9998V20.5598H129.182V31.9998H126.926ZM131.106 22.3198V20.5598H138.546V22.3198H131.106ZM133.698 31.9998V20.5598H135.954V31.9998H133.698ZM140.192 26.7518C140.267 25.8771 140.454 25.0984 140.752 24.4158C141.051 23.7224 141.451 23.1358 141.952 22.6558C142.464 22.1651 143.062 21.7918 143.744 21.5358C144.427 21.2798 145.19 21.1518 146.032 21.1518L145.952 22.8478C145.195 22.8478 144.528 23.0024 143.952 23.3118C143.387 23.6211 142.939 24.0691 142.608 24.6558C142.278 25.2318 142.075 25.9304 142 26.7518H140.192ZM145.136 33.7918C143.995 33.7918 143.03 33.5678 142.24 33.1198C141.462 32.6718 140.886 32.0318 140.512 31.1998C140.139 30.3571 140 29.3598 140.096 28.2078H141.904C141.851 29.0184 141.942 29.7171 142.176 30.3038C142.422 30.8904 142.8 31.3384 143.312 31.6478C143.824 31.9464 144.459 32.0958 145.216 32.0958L145.136 33.7918ZM140.096 28.2078L140.192 26.7518H142L141.904 28.2078H140.096ZM145.136 33.7918L145.216 32.0958C145.558 32.0958 145.883 32.0691 146.192 32.0158C146.512 31.9624 146.8 31.8771 147.056 31.7598L147.456 33.2958C147.115 33.4558 146.747 33.5784 146.352 33.6638C145.958 33.7491 145.552 33.7918 145.136 33.7918ZM144.864 31.0398C144.427 31.0398 144.048 30.9171 143.728 30.6718C143.408 30.4264 143.168 30.0851 143.008 29.6478C142.848 29.2104 142.795 28.7144 142.848 28.1598H144.496C144.475 28.4904 144.534 28.7571 144.672 28.9598C144.822 29.1624 145.024 29.2638 145.28 29.2638L144.864 31.0398ZM142.848 28.1598L142.928 27.0238H144.576L144.496 28.1598H142.848ZM144.864 31.0398L145.28 29.2638C145.515 29.2638 145.707 29.1624 145.856 28.9598C146.016 28.7571 146.112 28.4904 146.144 28.1598H147.008C146.955 28.7144 146.827 29.2104 146.624 29.6478C146.422 30.0851 146.171 30.4264 145.872 30.6718C145.574 30.9171 145.238 31.0398 144.864 31.0398ZM149.152 28.2078H150.976C150.934 28.8798 150.779 29.4398 150.512 29.8878C150.256 30.3358 149.936 30.6718 149.552 30.8958C149.168 31.1198 148.768 31.2318 148.352 31.2318C147.947 31.2318 147.568 31.1198 147.216 30.8958C146.864 30.6611 146.587 30.3198 146.384 29.8718C146.182 29.4131 146.102 28.8424 146.144 28.1598H147.792C147.75 28.6718 147.787 29.0558 147.904 29.3118C148.022 29.5678 148.171 29.6958 148.352 29.6958C148.534 29.6958 148.699 29.5731 148.848 29.3278C149.008 29.0824 149.11 28.7091 149.152 28.2078ZM142.928 27.0238C142.982 26.4691 143.115 25.9731 143.328 25.5358C143.542 25.0984 143.814 24.7571 144.144 24.5118C144.486 24.2664 144.854 24.1438 145.248 24.1438L145.504 25.9198C145.259 25.9198 145.051 26.0211 144.88 26.2238C144.71 26.4158 144.608 26.6824 144.576 27.0238H142.928ZM146.224 26.8958C146.246 26.5971 146.187 26.3624 146.048 26.1918C145.92 26.0104 145.739 25.9198 145.504 25.9198L145.248 24.1438C145.622 24.1438 145.942 24.2664 146.208 24.5118C146.486 24.7464 146.688 25.0718 146.816 25.4878C146.955 25.8931 147.003 26.3624 146.96 26.8958H146.224ZM146.144 28.1598L146.368 24.7358L146.64 24.2398H148.048L147.792 28.1598H146.144ZM149.152 28.2078L149.248 26.7518H151.072L150.976 28.2078H149.152ZM149.248 26.7518C149.323 25.9304 149.238 25.2318 148.992 24.6558C148.747 24.0691 148.368 23.6211 147.856 23.3118C147.344 23.0024 146.71 22.8478 145.952 22.8478L146.032 21.1518C147.163 21.1518 148.118 21.3811 148.896 21.8398C149.686 22.2878 150.267 22.9278 150.64 23.7598C151.024 24.5918 151.168 25.5891 151.072 26.7518H149.248ZM156.469 27.4398V25.6798H160.213V27.4398H156.469ZM157.957 29.0238V25.7278H160.213V29.0238H157.957ZM153.109 29.0238V23.5358H155.365V29.0238H153.109ZM153.109 23.5358C153.109 22.9171 153.263 22.3624 153.573 21.8718C153.882 21.3811 154.303 20.9971 154.837 20.7198C155.381 20.4424 155.994 20.3038 156.677 20.3038V22.0638C156.271 22.0638 155.951 22.1918 155.717 22.4478C155.482 22.7038 155.365 23.0664 155.365 23.5358H153.109ZM153.109 29.0078H155.365C155.365 29.4771 155.482 29.8451 155.717 30.1118C155.951 30.3678 156.271 30.4958 156.677 30.4958V32.2558C155.994 32.2558 155.381 32.1171 154.837 31.8398C154.303 31.5518 153.882 31.1678 153.573 30.6878C153.263 30.1971 153.109 29.6371 153.109 29.0078ZM158.261 24.0478C158.218 23.4291 158.053 22.9438 157.765 22.5918C157.487 22.2398 157.119 22.0638 156.661 22.0638V20.3038C157.695 20.3038 158.527 20.6024 159.157 21.1998C159.797 21.7864 160.175 22.6131 160.293 23.6798L158.261 24.0478ZM160.213 29.0078C160.213 29.6371 160.058 30.1971 159.749 30.6878C159.439 31.1678 159.018 31.5518 158.485 31.8398C157.951 32.1171 157.343 32.2558 156.661 32.2558V30.4958C157.066 30.4958 157.381 30.3678 157.605 30.1118C157.839 29.8451 157.957 29.4771 157.957 29.0078H160.213ZM166.448 31.9998L168.944 20.5598H170.656L168.16 31.9998H166.448ZM166.384 31.9998L163.888 20.5598H165.6L168.096 31.9998H166.384ZM162.608 31.9998V20.5598H164.864V31.9998H162.608ZM169.68 31.9998V20.5598H171.936V31.9998H169.68ZM176.034 30.0478V28.2878H180.13V30.0478H176.034ZM178.866 20.5598L176.05 31.9998H173.858L176.69 20.5598H178.866ZM178.898 20.5598L181.73 31.9998H179.554L176.722 20.5598H178.898ZM183.572 31.9998V20.5598H185.828V31.9998H183.572ZM190.199 31.9998V30.2398H194.071V31.9998H190.199ZM188.423 31.9998V20.5598H190.679V31.9998H188.423ZM196.929 32.1918C196.566 32.1918 196.262 32.0744 196.017 31.8398C195.782 31.5944 195.665 31.2904 195.665 30.9278C195.665 30.5651 195.782 30.2611 196.017 30.0158C196.262 29.7598 196.566 29.6318 196.929 29.6318C197.292 29.6318 197.596 29.7598 197.841 30.0158C198.097 30.2611 198.225 30.5651 198.225 30.9278C198.225 31.2904 198.097 31.5944 197.841 31.8398C197.596 32.0744 197.292 32.1918 196.929 32.1918ZM199.942 29.0238V23.5358H202.198V29.0238H199.942ZM199.942 23.5358C199.942 22.9171 200.097 22.3624 200.406 21.8718C200.715 21.3811 201.137 20.9971 201.67 20.7198C202.214 20.4424 202.827 20.3038 203.51 20.3038V22.0638C203.105 22.0638 202.785 22.1918 202.55 22.4478C202.315 22.7038 202.198 23.0664 202.198 23.5358H199.942ZM199.942 29.0078H202.198C202.198 29.4771 202.315 29.8451 202.55 30.1118C202.785 30.3678 203.105 30.4958 203.51 30.4958V32.2558C202.827 32.2558 202.214 32.1171 201.67 31.8398C201.137 31.5518 200.715 31.1678 200.406 30.6878C200.097 30.1971 199.942 29.6371 199.942 29.0078ZM205.094 24.0478C205.051 23.4291 204.886 22.9438 204.598 22.5918C204.321 22.2398 203.953 22.0638 203.494 22.0638V20.3038C204.529 20.3038 205.361 20.6024 205.99 21.1998C206.63 21.7864 207.009 22.6131 207.126 23.6798L205.094 24.0478ZM205.094 28.5118L207.126 28.8638C207.009 29.9304 206.63 30.7624 205.99 31.3598C205.361 31.9571 204.529 32.2558 203.494 32.2558V30.4958C203.953 30.4958 204.321 30.3198 204.598 29.9678C204.886 29.6158 205.051 29.1304 205.094 28.5118ZM213.819 29.0078V23.5358H216.075V29.0078H213.819ZM208.971 29.0078V23.5358H211.227V29.0078H208.971ZM216.075 23.5518H213.819C213.819 23.0824 213.701 22.7198 213.467 22.4638C213.232 22.2078 212.912 22.0798 212.507 22.0798V20.3198C213.189 20.3198 213.797 20.4584 214.331 20.7358C214.875 21.0131 215.301 21.3971 215.611 21.8878C215.92 22.3784 216.075 22.9331 216.075 23.5518ZM208.971 23.5518C208.971 22.9331 209.125 22.3784 209.435 21.8878C209.744 21.3971 210.165 21.0131 210.699 20.7358C211.243 20.4584 211.856 20.3198 212.539 20.3198V22.0798C212.133 22.0798 211.813 22.2078 211.579 22.4638C211.344 22.7198 211.227 23.0824 211.227 23.5518H208.971ZM216.075 28.9918C216.075 29.6211 215.92 30.1811 215.611 30.6718C215.301 31.1518 214.875 31.5358 214.331 31.8238C213.797 32.1011 213.189 32.2398 212.507 32.2398V30.4798C212.912 30.4798 213.232 30.3518 213.467 30.0958C213.701 29.8291 213.819 29.4611 213.819 28.9918H216.075ZM208.971 28.9918H211.227C211.227 29.4611 211.344 29.8291 211.579 30.0958C211.813 30.3518 212.133 30.4798 212.539 30.4798V32.2398C211.856 32.2398 211.243 32.1011 210.699 31.8238C210.165 31.5358 209.744 31.1518 209.435 30.6718C209.125 30.1811 208.971 29.6211 208.971 28.9918ZM222.23 31.9998L224.726 20.5598H226.438L223.942 31.9998H222.23ZM222.166 31.9998L219.67 20.5598H221.382L223.878 31.9998H222.166ZM218.39 31.9998V20.5598H220.646V31.9998H218.39ZM225.462 31.9998V20.5598H227.718V31.9998H225.462Z" fill="#ECE8EF"/>
<rect x="2" y="1.99976" width="251" height="48" rx="6" stroke="#6B16A8" stroke-width="4"/>
<defs>
<clipPath id="clip0_923_2014">
<rect width="28" height="28" fill="white" transform="translate(25.5 11.9998)"/>
</clipPath>
</defs>
</svg>
