<svg width="22" height="22" viewBox="0 0 22 22" fill="none" xmlns="http://www.w3.org/2000/svg">
<path d="M10.7932 21.2038H8.15351C7.8301 21.2038 7.51479 21.1949 7.21598 21.1775C6.91717 21.1601 6.62361 21.1336 6.3476 21.0982C6.07159 21.0628 5.80042 21.0185 5.54602 20.9651C5.29161 20.9117 5.04287 20.8479 4.81006 20.7765C4.5827 20.7068 4.35906 20.6251 4.14032 20.5317C3.93252 20.4439 3.7303 20.3437 3.53444 20.2317C3.34585 20.1236 3.1643 20.0034 2.99127 19.8718C2.82207 19.7427 2.66183 19.6022 2.51137 19.4517C2.36091 19.3012 2.22048 19.1409 2.09124 18.9718C1.95964 18.7988 1.83962 18.6174 1.73147 18.4288C1.6195 18.2329 1.51932 18.0305 1.43146 17.8227C1.3378 17.6039 1.25596 17.3802 1.18653 17.1526C1.11453 16.9204 1.05124 16.6725 0.998444 16.4175C0.945642 16.1625 0.899661 15.8937 0.86426 15.6159C0.82886 15.3381 0.804357 15.0477 0.785157 14.7471C0.765956 14.4465 0.758789 14.1333 0.758789 13.8098V8.08334C0.758789 7.75993 0.768356 7.44492 0.785157 7.14611C0.801957 6.8473 0.82886 6.55329 0.86426 6.27729C0.899661 6.00128 0.945042 5.72997 0.998444 5.47556C1.05184 5.22115 1.11453 4.97283 1.18653 4.74063C1.25597 4.51297 1.33782 4.28912 1.43146 4.0703C1.51933 3.86251 1.61951 3.66028 1.73147 3.46442C1.83965 3.27586 1.95967 3.09446 2.09124 2.92139C2.22044 2.75225 2.36087 2.59186 2.51137 2.44135C2.66187 2.29084 2.82211 2.15055 2.99127 2.02137C3.16433 1.8898 3.34588 1.76949 3.53444 1.6613C3.73027 1.54927 3.9325 1.44909 4.14032 1.3613C4.35903 1.26789 4.58268 1.1862 4.81006 1.11651C5.04287 1.04451 5.29041 0.981532 5.54602 0.928131C5.80162 0.87473 6.06979 0.830228 6.3476 0.794827C6.62541 0.759426 6.91537 0.734924 7.21598 0.715723C7.51659 0.696523 7.8295 0.689941 8.15351 0.689941H13.8806C14.2034 0.689941 14.5187 0.698923 14.8175 0.715723C15.1163 0.732524 15.4099 0.760026 15.6865 0.794827C15.9631 0.829628 16.2337 0.87533 16.4881 0.928131C16.7425 0.980932 16.9907 1.04511 17.2235 1.11651C17.451 1.1863 17.6742 1.26799 17.8932 1.3613C18.1009 1.44933 18.3037 1.5495 18.4997 1.6613C18.6881 1.76977 18.869 1.89007 19.0423 2.02137C19.2114 2.15054 19.3723 2.29082 19.5227 2.44135C19.6734 2.59172 19.8132 2.75212 19.9423 2.92139C20.0737 3.0946 20.1942 3.27598 20.3026 3.46442C20.4144 3.66041 20.5145 3.86262 20.6026 4.0703C20.6961 4.2892 20.7779 4.51304 20.8476 4.74063C20.919 4.97343 20.9829 5.22055 21.0357 5.47556C21.0885 5.73057 21.1339 5.99948 21.1693 6.27729C21.2047 6.55509 21.2292 6.8455 21.249 7.14611C21.2688 7.44672 21.2747 7.75993 21.2747 8.08334V13.8098C21.2747 14.1333 21.2658 14.4483 21.249 14.7471C21.2322 15.0459 21.2047 15.3399 21.1693 15.6159C21.1339 15.8919 21.0891 16.1631 21.0357 16.4175C20.9823 16.6719 20.916 16.9204 20.8476 17.1526C20.7779 17.3801 20.6961 17.6038 20.6026 17.8227C20.5145 18.0304 20.4144 18.2328 20.3026 18.4288C20.1943 18.6172 20.0737 18.7986 19.9423 18.9718C19.8132 19.141 19.6734 19.3013 19.5227 19.4517C19.3723 19.6023 19.2115 19.7427 19.0423 19.8718C18.869 20.0032 18.6881 20.1233 18.4997 20.2317C18.3037 20.3434 18.1009 20.4436 17.8932 20.5317C17.6742 20.625 17.451 20.7067 17.2235 20.7765C16.9907 20.8479 16.7431 20.9117 16.4881 20.9651C16.2331 21.0185 15.9643 21.0634 15.6865 21.0982C15.4087 21.133 15.1181 21.1583 14.8175 21.1775C14.5169 21.1967 14.204 21.2038 13.8806 21.2038H12.1931V19.7722H12.2077V12.848H14.7279L14.9224 11.8976H12.2224V8.36401C12.2222 8.23268 12.2478 8.10263 12.2979 7.98124C12.3474 7.85877 12.4207 7.7476 12.5142 7.65428C12.6075 7.56067 12.7187 7.48677 12.8411 7.43703C12.9628 7.38721 13.0934 7.36173 13.2249 7.36203H15.0847V5.9304H12.9249C12.6439 5.93055 12.3655 5.98658 12.1063 6.09535C11.9771 6.1493 11.8531 6.21566 11.7366 6.2934C11.6186 6.37194 11.5084 6.46158 11.4073 6.56104C11.0056 6.96411 10.7793 7.50945 10.7774 8.0785V11.8982H8.87071V12.8486H10.7774V19.7728H10.792V21.2044L10.7932 21.2038ZM13.6415 14.2742V19.7722H13.8818C14.8209 19.7944 15.759 19.6889 16.6697 19.4584C17.3629 19.285 17.9983 18.9332 18.5137 18.4383C19.0089 17.9228 19.3606 17.2867 19.5339 16.5933C19.7645 15.6824 19.8704 14.7444 19.8479 13.805V8.0785C19.8704 7.13935 19.7645 6.20151 19.5339 5.29084C19.3607 4.59734 19.0089 3.96128 18.5137 3.44582C17.9983 2.95089 17.3629 2.59914 16.6697 2.42568C15.759 2.19523 14.8209 2.0897 13.8818 2.1119H8.15468C7.21553 2.08967 6.27742 2.1952 5.36672 2.42568C4.67329 2.59902 4.03771 2.95077 3.52214 3.44582C3.02691 3.96126 2.67513 4.59733 2.502 5.29084C2.27135 6.20151 2.16551 7.13935 2.18793 8.0785V13.805C2.16549 14.7444 2.27132 15.6824 2.502 16.5933C2.67521 17.2867 3.02698 17.9228 3.52214 18.4383C4.03771 18.9333 4.67329 19.2851 5.36672 19.4584C6.27742 19.6889 7.21553 19.7944 8.15468 19.7722H9.34592V14.2802H7.43806V10.4666H9.34592V8.0785C9.34592 7.84278 9.36878 7.60753 9.41506 7.37639C9.46084 7.14754 9.52869 6.92381 9.6178 6.70811C9.70715 6.4926 9.81797 6.28633 9.94769 6.09242C10.0781 5.8965 10.2277 5.71403 10.3942 5.54763C10.5617 5.38146 10.7444 5.23187 10.9409 5.10114C11.1354 4.97191 11.3422 4.86189 11.5579 4.77242C11.7732 4.68318 11.9968 4.61499 12.2253 4.56894C12.4554 4.52278 12.6896 4.49949 12.9243 4.49936H16.5039V8.75587L15.5019 8.79425H13.6415V10.4666H16.6498C16.2862 12.3152 15.8898 14.2748 15.8898 14.2748L13.6415 14.2742Z" fill="white"/>
</svg>
