<svg width="89" height="32" viewBox="0 0 89 32" fill="none" xmlns="http://www.w3.org/2000/svg">
<path d="M32 16C32 24.8366 24.8366 32 16 32C7.16344 32 0 24.8366 0 16C0 7.16344 7.16344 0 16 0C24.8366 0 32 7.16344 32 16Z" fill="#AA37FC"/>
<path d="M73.5741 8.32007C73.2073 8.32007 72.91 8.61855 72.91 8.98674V23.6801H76.4373V8.98674C76.4373 8.61855 76.14 8.32007 75.7733 8.32007H73.5741Z" fill="#37383F"/>
<path d="M79.0066 8.32007C78.6398 8.32007 78.3425 8.61855 78.3425 8.98674V11.0081H81.7848V23.6801H85.3121V11.0081H88.7544V8.98674C88.7544 8.61855 88.4571 8.32007 88.0904 8.32007H79.0066Z" fill="#37383F"/>
<path fill-rule="evenodd" clip-rule="evenodd" d="M61.4707 8.32007C62.4198 8.32007 63.2697 8.51918 64.0205 8.9174C64.7713 9.3014 65.3663 9.83474 65.8054 10.5174C66.2409 11.1803 66.4604 11.934 66.4641 12.7787L66.4641 12.8001V19.2427H66.4639C66.4567 20.079 66.2372 20.8328 65.8054 21.5041C65.3663 22.1725 64.7713 22.7058 64.0205 23.1041C63.2697 23.4881 62.4198 23.6801 61.4707 23.6801H57.5662C57.1995 23.6801 56.9022 23.3816 56.9022 23.0134V8.98674C56.9022 8.61855 57.1995 8.32007 57.5662 8.32007H61.4707ZM62.5331 11.4774C62.8023 11.7903 62.9368 12.2312 62.9368 12.8001V19.2001C62.9368 19.769 62.8023 20.2099 62.5331 20.5227C62.2781 20.8356 61.924 20.9921 61.4707 20.9921H60.4295V11.0081H61.4707C61.924 11.0081 62.2781 11.1645 62.5331 11.4774Z" fill="#37383F"/>
<path d="M50.388 23.2588C50.4883 23.513 50.7331 23.6801 51.0054 23.6801H54.2461C54.6128 23.6801 54.9101 23.3816 54.9101 23.0134V8.98674C54.9101 8.61855 54.6128 8.32007 54.2461 8.32007H52.0469C51.6801 8.32007 51.3828 8.61855 51.3828 8.98674V18.2367L47.6392 8.74137C47.5389 8.48709 47.2942 8.32007 47.0218 8.32007H44.4983L44.5006 8.32587C44.1754 8.3691 43.9246 8.64851 43.9246 8.98674V23.0134C43.9246 23.3816 44.2219 23.6801 44.5886 23.6801H47.4518V15.8114L50.388 23.2588Z" fill="#37383F"/>
<path fill-rule="evenodd" clip-rule="evenodd" d="M36.8513 8.3202C35.9265 8.32583 35.0971 8.51693 34.3633 8.89351C33.6183 9.26215 33.0279 9.77415 32.5921 10.4295C32.1636 11.0605 31.9458 11.7773 31.9387 12.5799H31.9385V19.3998C31.9421 20.2108 32.16 20.9412 32.5921 21.5911C33.0279 22.2328 33.6183 22.7448 34.3633 23.1271C35.0971 23.4902 35.9265 23.6745 36.8513 23.6799V23.6801C36.8583 23.6801 36.8653 23.6801 36.8723 23.68C36.8793 23.6801 36.8864 23.6801 36.8934 23.6801V23.6799C37.8183 23.6745 38.6476 23.4902 39.3815 23.1271C40.1265 22.7448 40.7168 22.2328 41.1526 21.5911C41.5847 20.9412 41.8026 20.2108 41.8062 19.3998L41.8062 19.3793V12.5799H41.8061C41.7989 11.7773 41.5811 11.0605 41.1526 10.4295C40.7168 9.77415 40.1265 9.26215 39.3815 8.89351C38.6476 8.51693 37.8183 8.32583 36.8934 8.3202V8.32007C36.8794 8.32007 36.8653 8.32011 36.8513 8.3202ZM37.9055 11.3511C38.1726 11.6515 38.3061 12.0747 38.3061 12.6209V19.3793C38.3061 19.9254 38.1726 20.3487 37.9055 20.649C37.6565 20.9447 37.3121 21.0949 36.8724 21.0995C36.4324 21.0949 36.081 20.9447 35.8181 20.649C35.5651 20.3487 35.4386 19.9254 35.4386 19.3793V12.6209C35.4386 12.0747 35.5651 11.6515 35.8181 11.3511C36.081 11.0554 36.4324 10.9053 36.8724 10.9007C37.3121 10.9053 37.6565 11.0554 37.9055 11.3511Z" fill="#37383F"/>
<path d="M27.6534 8.74472L25.6894 13.8454L24.0362 8.78087L24.0361 8.78072C23.9472 8.50605 23.6923 8.32007 23.4046 8.32007H21.1188C20.6515 8.32007 20.3304 8.79167 20.5 9.22876L23.9722 18.1761V23.0134C23.9722 23.3816 24.2695 23.6801 24.6362 23.6801H26.4105C26.7772 23.6801 27.0745 23.3816 27.0745 23.0134V18.1761L30.5466 9.22876C30.7163 8.79167 30.3951 8.32007 29.9279 8.32007H28.2721C27.9985 8.32007 27.7528 8.48861 27.6535 8.74458L27.6534 8.74472Z" fill="#37383F"/>
<path d="M18.7813 23.6801C19.148 23.6801 19.4453 23.3816 19.4453 23.0134V20.9921H14.8981V17.3441H18.1704V14.6561H14.8981V11.0081H19.2328V8.98673C19.2328 8.61855 18.9356 8.32007 18.5688 8.32007H12.0349C11.6681 8.32007 11.3708 8.61855 11.3708 8.98674V23.0134C11.3708 23.3816 11.6681 23.6801 12.0349 23.6801H18.7813Z" fill="#37383F"/>
<path fill-rule="evenodd" clip-rule="evenodd" d="M9.44457 12.7787C9.44094 11.934 9.22138 11.1803 8.78591 10.5174C8.34677 9.83473 7.75181 9.3014 7.00102 8.9174C6.25584 8.52215 5.41298 8.32305 4.47243 8.3201L4.45119 8.32007H0.759235C0.392507 8.32007 0.0952148 8.61855 0.0952148 8.98674V23.6801H4.68492C5.62547 23.6772 6.46833 23.4852 7.21351 23.1041C7.96429 22.7058 8.55926 22.1725 8.99839 21.5041C9.43387 20.8271 9.65343 20.0662 9.65706 19.2214L9.6571 19.2001V18.8161C9.65292 18.0853 9.43331 17.4381 8.99839 16.8747C8.65787 16.4226 8.22365 16.0474 7.69573 15.7491C8.12882 15.4673 8.49221 15.1314 8.78591 14.7414C9.22074 14.164 9.44029 13.5169 9.44455 12.8001C9.44455 12.7962 9.44461 12.7924 9.4446 12.7885C9.44461 12.7853 9.44457 12.782 9.44457 12.7787ZM5.51362 14.1014C5.25863 14.4143 4.90449 14.5707 4.45119 14.5707H3.62249V11.0081H4.45119C4.90449 11.0081 5.25863 11.1645 5.51362 11.4774C5.78108 11.7883 5.91565 12.2257 5.91733 12.7894C5.91565 13.3531 5.78108 13.7905 5.51362 14.1014ZM6.12983 18.8374C6.12983 18.2685 5.99525 17.8276 5.7261 17.5147C5.47112 17.2018 5.11698 17.0454 4.66367 17.0454H3.62249V20.9921H4.66367C5.11698 20.9921 5.47112 20.8356 5.7261 20.5227C5.99525 20.2098 6.12983 19.769 6.12983 19.2001V18.8374Z" fill="#37383F"/>
</svg>
