<svg width="1804" height="924" viewBox="0 0 1804 924" fill="none" xmlns="http://www.w3.org/2000/svg">
<path d="M1772 0H32C14.3269 0 0 14.3269 0 32V892C0 909.673 14.3269 924 32 924H1772C1789.67 924 1804 909.673 1804 892V32C1804 14.3269 1789.67 0 1772 0Z" fill="url(#paint0_linear_1749_6228)"/>
<path d="M1662.68 59.2083L1509.04 146.101L1572.67 179.443L1409.2 401.093L1016.28 71.3104L625.681 495.096L362.309 331.415L31.165 670.032L743.434 670.788L1038.15 330.174L1430.8 662.891L1635.33 210.606L1689.7 235.717L1662.68 59.2083Z" stroke="#4753C9" stroke-width="0.5" stroke-miterlimit="10"/>
<path d="M0 465.104C0 465.104 121.021 333.917 358.404 333.917C595.786 333.917 688.368 430.129 836.255 517.173C1054.09 645.274 1514.85 792.505 1804 615.663V891.843C1804 909.516 1789.67 923.843 1772 923.843H32C14.3269 923.843 0 909.516 0 891.843V465.104Z" fill="#ECE8EF"/>
<path d="M1448.47 474.552C1455.48 476.519 1462.88 476.579 1469.92 474.724C1476.96 472.87 1483.37 469.17 1488.5 464.005C1493.62 458.841 1497.28 452.401 1499.08 445.351C1500.89 438.301 1500.77 430.897 1498.75 423.905L1538.78 444.388C1540.38 445.2 1542.13 445.688 1543.92 445.823C1545.71 445.958 1547.52 445.739 1549.22 445.177C1550.93 444.614 1552.51 443.721 1553.87 442.547C1555.23 441.373 1556.34 439.942 1557.15 438.337L1625.31 305.214C1626.12 303.611 1626.61 301.864 1626.75 300.073C1626.88 298.281 1626.66 296.481 1626.1 294.774C1625.54 293.068 1624.65 291.489 1623.47 290.129C1622.3 288.769 1620.87 287.654 1619.26 286.849L1486.14 218.683C1484.54 217.871 1482.79 217.383 1481 217.248C1479.21 217.113 1477.41 217.332 1475.7 217.895C1473.99 218.457 1472.41 219.35 1471.05 220.524C1469.69 221.698 1468.58 223.129 1467.77 224.735L1447.44 264.732C1455.1 262.541 1463.23 262.637 1470.84 265.009C1478.44 267.381 1485.19 271.925 1490.24 278.082C1495.3 284.239 1498.44 291.74 1499.29 299.661C1500.14 307.582 1498.65 315.578 1495.01 322.664C1491.37 329.75 1485.74 335.617 1478.8 339.543C1471.87 343.468 1463.94 345.281 1455.99 344.757C1448.04 344.234 1440.42 341.397 1434.06 336.597C1427.71 331.796 1422.89 325.241 1420.21 317.739L1399.73 357.767C1398.1 361.005 1397.82 364.758 1398.95 368.202C1400.09 371.646 1402.54 374.498 1405.78 376.132L1445.78 396.645C1437.61 399.558 1430.58 404.997 1425.7 412.174C1420.83 419.351 1418.37 427.892 1418.68 436.561C1418.98 445.229 1422.04 453.575 1427.41 460.39C1432.78 467.204 1440.18 472.133 1448.53 474.461L1448.47 474.552Z" fill="#6B16A8"/>
<path d="M1136.42 521.025C1129.28 522.463 1122.66 525.784 1117.24 530.644C1111.82 535.504 1107.79 541.726 1105.59 548.665C1103.38 555.603 1103.07 563.006 1104.69 570.105C1106.3 577.204 1109.79 583.741 1114.79 589.039H1069.8C1066.21 589.078 1062.77 590.534 1060.25 593.088C1057.72 595.643 1056.3 599.091 1056.3 602.684V752.205C1056.3 755.824 1057.74 759.295 1060.3 761.854C1062.86 764.413 1066.33 765.85 1069.95 765.85H1219.44C1223.06 765.85 1226.53 764.413 1229.09 761.854C1231.65 759.295 1233.09 755.824 1233.09 752.205V707.216C1227.27 712.678 1219.99 716.32 1212.13 717.694C1204.28 719.067 1196.19 718.112 1188.87 714.945C1181.55 711.779 1175.31 706.54 1170.93 699.874C1166.55 693.207 1164.22 685.405 1164.22 677.429C1164.22 669.453 1166.55 661.651 1170.93 654.985C1175.31 648.319 1181.55 643.08 1188.87 639.913C1196.19 636.747 1204.28 635.791 1212.13 637.165C1219.99 638.538 1227.27 642.181 1233.09 647.643V602.684C1233.09 600.891 1232.74 599.114 1232.06 597.457C1231.37 595.8 1230.37 594.294 1229.1 593.026C1227.83 591.758 1226.32 590.753 1224.67 590.069C1223.01 589.385 1221.23 589.035 1219.44 589.039H1174.3C1180.25 582.722 1184.03 574.677 1185.09 566.068C1186.16 557.46 1184.46 548.735 1180.23 541.159C1176.01 533.582 1169.49 527.546 1161.6 523.926C1153.72 520.306 1144.89 519.29 1136.39 521.025H1136.42Z" fill="#6B16A8"/>
<path d="M1238.26 682.254C1239.7 689.387 1243.03 696.003 1247.89 701.418C1252.75 706.834 1258.97 710.853 1265.91 713.059C1272.84 715.264 1280.24 715.577 1287.34 713.965C1294.43 712.352 1300.97 708.873 1306.27 703.887V748.816C1306.27 752.435 1307.71 755.906 1310.27 758.465C1312.83 761.024 1316.3 762.461 1319.92 762.461H1469.44C1473.06 762.461 1476.53 761.024 1479.09 758.465C1481.65 755.906 1483.08 752.435 1483.08 748.816V599.294C1483.08 595.676 1481.65 592.205 1479.09 589.646C1476.53 587.087 1473.06 585.649 1469.44 585.649H1424.45C1429.92 591.46 1433.56 598.744 1434.94 606.602C1436.32 614.461 1435.36 622.55 1432.2 629.873C1429.03 637.197 1423.79 643.434 1417.13 647.816C1410.46 652.197 1402.66 654.532 1394.68 654.532C1386.7 654.532 1378.9 652.197 1372.23 647.816C1365.56 643.434 1360.32 637.197 1357.16 629.873C1353.99 622.55 1353.04 614.461 1354.42 606.602C1355.79 598.744 1359.44 591.46 1364.91 585.649H1319.92C1316.3 585.649 1312.83 587.087 1310.27 589.646C1307.71 592.205 1306.27 595.676 1306.27 599.294V644.254C1299.95 638.295 1291.89 634.507 1283.27 633.439C1274.65 632.372 1265.92 634.081 1258.33 638.318C1250.75 642.555 1244.71 649.099 1241.1 657C1237.49 664.902 1236.5 673.748 1238.26 682.254Z" fill="#56BFEF"/>
<path d="M1634.84 538.18V448.775C1634.84 444.827 1633.27 441.041 1630.48 438.25C1627.69 435.458 1623.9 433.89 1619.96 433.89H1587.88C1576.36 433.89 1567.04 445.054 1567.04 458.85V538.18H1634.84Z" fill="#3173FB"/>
<path d="M1614.78 418.641V434.162C1614.78 436.855 1613.7 439.436 1611.8 441.341C1609.89 443.246 1607.31 444.319 1604.62 444.327C1601.92 444.327 1599.33 443.257 1597.42 441.352C1595.51 439.446 1594.43 436.86 1594.42 434.162V418.792L1614.78 418.641Z" fill="#FE9F99"/>
<path d="M1604.62 424.45C1600 424.442 1595.56 422.604 1592.29 419.339C1589.02 416.073 1587.18 411.645 1587.16 407.023V396.706C1587.18 392.084 1589.02 387.656 1592.29 384.39C1595.56 381.124 1600 379.287 1604.62 379.279C1609.24 379.287 1613.66 381.125 1616.93 384.392C1620.2 387.658 1622.04 392.086 1622.04 396.706V406.932C1622.05 409.227 1621.61 411.501 1620.74 413.624C1619.86 415.747 1618.58 417.678 1616.96 419.305C1615.34 420.932 1613.42 422.224 1611.3 423.107C1609.18 423.99 1606.91 424.446 1604.62 424.45Z" fill="#FFBDBB"/>
<path d="M1527.86 438.882C1527.86 438.882 1526.01 432.559 1515.76 430.652C1514.28 422.756 1510.55 425.116 1510.52 433.678C1511.4 435.743 1512.74 437.582 1514.43 439.055C1516.12 440.528 1518.13 441.597 1520.3 442.18L1527.86 438.882Z" fill="#FE9F99"/>
<path d="M1669.03 738.621L1646.73 745.791C1646 746.009 1645.32 746.384 1644.75 746.889C1644.17 747.393 1643.72 748.016 1643.41 748.715C1643.1 749.413 1642.94 750.171 1642.95 750.935C1642.96 751.7 1643.14 752.453 1643.46 753.143L1671.21 744.248L1669.03 738.621Z" fill="#67B2F6"/>
<path d="M1557.42 436.976C1557.42 436.976 1555.58 430.652 1563.14 423.542C1560.11 416.099 1564.56 416.069 1569.19 423.391C1569.57 425.599 1569.43 427.863 1568.81 430.012C1568.18 432.161 1567.07 434.139 1565.56 435.796L1557.42 436.976Z" fill="#FFBDBB"/>
<path d="M1576.91 436.129C1571.55 441.484 1564.8 455.855 1552.31 463.359L1558.03 484.295C1574.09 480.634 1589.58 467.201 1593.48 453.495C1598.36 436.522 1582.99 430.048 1576.91 436.129Z" fill="#3173FB"/>
<path d="M1546.95 466.081C1540.97 455.377 1534.01 445.249 1526.17 435.826L1517.79 436.159C1517.79 436.159 1527.1 483.296 1546.53 485.233C1550.38 485.582 1554.27 485.296 1558.03 484.385L1552.31 463.449C1550.61 464.493 1548.82 465.375 1546.95 466.081Z" fill="#FE9F99"/>
<path d="M1586.37 466.081C1574.63 445.841 1566.95 434.071 1566.95 434.071L1557.21 436.129C1557.21 436.129 1566.52 483.266 1585.98 485.203C1589.81 485.545 1593.67 485.269 1597.42 484.386L1591.36 463.6C1589.78 464.576 1588.11 465.406 1586.37 466.081Z" fill="#FFBDBB"/>
<path d="M1616.33 436.128C1610.94 441.544 1604.22 456.067 1591.4 463.6L1597.45 484.386C1613.51 480.725 1629.03 467.261 1632.97 453.555C1637.81 436.522 1622.41 430.047 1616.33 436.128Z" fill="#3173FB"/>
<path d="M1623.52 400.881C1623.52 400.881 1622.07 403.574 1619.38 400.881C1616.69 398.189 1620.41 393.802 1617.59 389.778C1614.78 385.754 1593.75 398.854 1586.55 390.776C1575.54 378.674 1595.27 365.422 1615.23 377.555C1630.63 386.752 1623.52 400.881 1623.52 400.881Z" fill="#67B2F6"/>
<path d="M1599.6 577.965L1599.44 534.7H1566.62C1566.62 534.7 1558.42 594.303 1560.57 648.278C1560.99 658.353 1561.6 668.217 1562.35 677.596H1591.34C1591.02 644.202 1593.78 610.851 1599.6 577.965Z" fill="#020646"/>
<path d="M1562.35 677.596C1565.65 718.471 1571.43 750.208 1571.43 750.208L1595.24 747.183C1592.65 724.078 1591.37 700.845 1591.4 677.596H1562.35Z" fill="#FFBDBB"/>
<path d="M1616.03 405.601C1616.03 406.564 1616.31 407.506 1616.85 408.307C1617.38 409.108 1618.14 409.733 1619.03 410.101C1619.92 410.47 1620.9 410.567 1621.85 410.379C1622.79 410.191 1623.66 409.727 1624.34 409.045C1625.02 408.364 1625.49 407.496 1625.68 406.551C1625.86 405.606 1625.77 404.627 1625.4 403.737C1625.03 402.847 1624.4 402.086 1623.6 401.551C1622.8 401.016 1621.86 400.73 1620.9 400.73C1619.61 400.73 1618.37 401.243 1617.45 402.157C1616.54 403.07 1616.03 404.309 1616.03 405.601Z" fill="#FFBDBB"/>
<path d="M1620.96 402.939C1620.61 402.935 1620.26 403.001 1619.93 403.133C1619.61 403.265 1619.31 403.461 1619.07 403.709C1618.82 403.957 1618.62 404.253 1618.49 404.577C1618.36 404.902 1618.29 405.25 1618.3 405.601C1618.26 405.832 1618.26 406.066 1618.3 406.297C1618.48 406.297 1618.63 406.085 1618.84 406.085C1619.07 406.088 1619.3 406.155 1619.49 406.278C1619.69 406.402 1619.84 406.577 1619.94 406.784C1620.04 406.992 1620.08 407.223 1620.06 407.452C1620.04 407.681 1619.95 407.899 1619.81 408.082C1620.14 408.216 1620.48 408.288 1620.84 408.294C1621.5 408.224 1622.11 407.911 1622.55 407.417C1623 406.922 1623.25 406.281 1623.25 405.616C1623.25 404.951 1623 404.31 1622.55 403.816C1622.11 403.321 1621.5 403.009 1620.84 402.939H1620.96Z" fill="#FE9F99"/>
<path d="M1643.92 652.575C1638.47 619.294 1634.84 534.579 1634.84 534.579H1595.51C1595.51 534.579 1599.41 538.058 1599.41 573.034C1602.3 608.248 1608.89 643.061 1619.05 676.9L1647.7 670.153C1646.07 663.406 1644.67 657.325 1643.92 652.575Z" fill="#020646"/>
<path d="M1669.03 738.621C1669.03 738.621 1655.24 698.593 1647.85 670.153L1619.05 676.9C1632.39 720.831 1646.95 745.67 1646.95 745.67L1669.03 738.621Z" fill="#FFBDBB"/>
<path d="M1606.46 409.504L1587.31 409.292C1585.25 411.38 1585.22 427.445 1600.95 427.445C1616.69 427.445 1619.77 416.977 1618.84 411.591C1618.54 407.276 1619.31 402.955 1621.07 399.005L1618.53 395.465C1618.53 395.465 1617.23 408.747 1606.46 409.504Z" fill="#67B2F6"/>
<path d="M1595.18 747.153H1571.76C1570.99 747.131 1570.23 747.278 1569.52 747.584C1568.81 747.891 1568.18 748.349 1567.67 748.926C1567.16 749.503 1566.78 750.185 1566.56 750.924C1566.34 751.664 1566.29 752.442 1566.41 753.204H1595.54L1595.18 747.153Z" fill="#67B2F6"/>
<path d="M1607.64 400.881C1607.64 401.035 1607.61 401.187 1607.55 401.328C1607.49 401.47 1607.41 401.598 1607.3 401.705C1607.19 401.812 1607.06 401.896 1606.91 401.952C1606.77 402.008 1606.62 402.035 1606.46 402.031C1606.29 402.058 1606.12 402.048 1605.96 402.002C1605.79 401.956 1605.64 401.875 1605.51 401.764C1605.38 401.654 1605.28 401.516 1605.2 401.361C1605.13 401.206 1605.09 401.037 1605.09 400.866C1605.09 400.695 1605.13 400.526 1605.2 400.371C1605.28 400.216 1605.38 400.078 1605.51 399.968C1605.64 399.857 1605.79 399.776 1605.96 399.73C1606.12 399.684 1606.29 399.674 1606.46 399.701C1606.62 399.697 1606.77 399.725 1606.92 399.782C1607.06 399.84 1607.2 399.927 1607.31 400.038C1607.42 400.148 1607.5 400.28 1607.56 400.425C1607.62 400.57 1607.65 400.725 1607.64 400.881Z" fill="#020646"/>
<path d="M1594.84 400.881C1594.84 401.035 1594.81 401.187 1594.75 401.328C1594.69 401.47 1594.61 401.598 1594.5 401.705C1594.39 401.812 1594.26 401.896 1594.11 401.952C1593.97 402.008 1593.82 402.035 1593.66 402.031C1593.49 402.058 1593.32 402.048 1593.16 402.002C1592.99 401.956 1592.84 401.875 1592.71 401.764C1592.58 401.654 1592.48 401.516 1592.4 401.361C1592.33 401.206 1592.29 401.037 1592.29 400.866C1592.29 400.695 1592.33 400.526 1592.4 400.371C1592.48 400.216 1592.58 400.078 1592.71 399.968C1592.84 399.857 1592.99 399.776 1593.16 399.73C1593.32 399.684 1593.49 399.674 1593.66 399.701C1593.82 399.697 1593.97 399.725 1594.12 399.782C1594.26 399.84 1594.4 399.927 1594.51 400.038C1594.62 400.148 1594.7 400.28 1594.76 400.425C1594.82 400.57 1594.85 400.725 1594.84 400.881Z" fill="#020646"/>
<path d="M1600.08 400.881C1600.08 400.881 1604.11 408.808 1600.08 408.808C1596.06 408.808 1600.08 400.881 1600.08 400.881Z" fill="#F3999B"/>
<path d="M1603.92 411.077H1596.05C1596.46 411.761 1597.04 412.332 1597.73 412.739C1598.41 413.146 1599.19 413.375 1599.99 413.407C1600.79 413.411 1601.58 413.196 1602.28 412.786C1602.97 412.376 1603.54 411.785 1603.92 411.077Z" fill="white"/>
<path d="M1608.01 397.311C1607.79 397.086 1607.54 396.907 1607.25 396.784C1606.96 396.662 1606.66 396.599 1606.34 396.599C1606.03 396.599 1605.73 396.662 1605.44 396.784C1605.15 396.907 1604.9 397.086 1604.68 397.311" stroke="#F3999B" stroke-width="0.35" stroke-miterlimit="10"/>
<path d="M1595.51 397.312C1595.29 397.085 1595.03 396.906 1594.75 396.783C1594.46 396.66 1594.15 396.597 1593.83 396.597C1593.52 396.597 1593.21 396.66 1592.92 396.783C1592.63 396.906 1592.37 397.085 1592.15 397.312" stroke="#F3999B" stroke-width="0.35" stroke-miterlimit="10"/>
<path d="M1610.91 405.147C1610.92 405.591 1610.79 406.027 1610.55 406.399C1610.31 406.771 1609.96 407.063 1609.55 407.237C1609.14 407.411 1608.69 407.46 1608.26 407.377C1607.82 407.294 1607.42 407.083 1607.1 406.771C1606.79 406.459 1606.57 406.061 1606.48 405.625C1606.39 405.19 1606.43 404.739 1606.6 404.328C1606.77 403.917 1607.06 403.565 1607.43 403.318C1607.8 403.071 1608.23 402.939 1608.67 402.938C1609.26 402.938 1609.83 403.17 1610.25 403.584C1610.67 403.997 1610.91 404.559 1610.91 405.147Z" fill="#F3999B"/>
<path d="M1593.69 405.147C1593.69 405.584 1593.56 406.011 1593.32 406.374C1593.08 406.737 1592.73 407.021 1592.33 407.188C1591.93 407.355 1591.48 407.399 1591.05 407.313C1590.62 407.228 1590.23 407.018 1589.92 406.709C1589.61 406.4 1589.4 406.006 1589.32 405.578C1589.23 405.15 1589.28 404.706 1589.44 404.302C1589.61 403.898 1589.89 403.553 1590.26 403.311C1590.62 403.068 1591.05 402.938 1591.48 402.938C1592.07 402.938 1592.63 403.171 1593.05 403.585C1593.46 404 1593.69 404.561 1593.69 405.147Z" fill="#F3999B"/>
<path d="M917.975 438.065C934.464 433.134 972.707 433.406 993.613 378.311C1005.72 378.311 1003.78 379.733 1003.78 379.733C1003.78 379.733 1001.12 439.185 941.513 458.094C904.269 469.924 902.182 456.097 905.57 448.624C906.742 446.065 908.459 443.794 910.602 441.97C912.745 440.145 915.262 438.813 917.975 438.065Z" fill="#FE9F99"/>
<path d="M1157.96 224.008C1151.35 220.983 1144.05 219.778 1136.82 220.517C1129.59 221.256 1122.69 223.913 1116.83 228.213C1110.97 232.512 1106.36 238.299 1103.49 244.974C1100.61 251.65 1099.57 258.972 1100.47 266.184L1064.17 239.68C1062.72 238.627 1061.07 237.87 1059.33 237.452C1057.59 237.034 1055.78 236.964 1054.01 237.245C1052.24 237.526 1050.54 238.153 1049.01 239.09C1047.49 240.027 1046.16 241.256 1045.1 242.706L956.971 363.485C954.843 366.418 953.966 370.077 954.533 373.657C955.1 377.236 957.065 380.444 959.997 382.576L1080.5 470.619C1083.44 472.747 1087.1 473.624 1090.67 473.057C1094.25 472.49 1097.46 470.524 1099.59 467.593L1126.13 431.287C1118.21 432.278 1110.18 430.93 1103.02 427.411C1095.86 423.891 1089.89 418.354 1085.84 411.48C1081.79 404.607 1079.84 396.699 1080.23 388.731C1080.62 380.763 1083.33 373.083 1088.03 366.638C1092.73 360.193 1099.22 355.265 1106.69 352.461C1114.16 349.657 1122.28 349.101 1130.06 350.859C1137.85 352.618 1144.94 356.616 1150.48 362.359C1156.02 368.102 1159.75 375.341 1161.22 383.181L1187.73 346.875C1188.78 345.426 1189.55 343.783 1189.97 342.039C1190.39 340.296 1190.46 338.487 1190.18 336.716C1189.89 334.945 1189.27 333.246 1188.33 331.719C1187.39 330.191 1186.16 328.864 1184.7 327.814L1148.4 301.31C1156.92 299.708 1164.71 295.437 1170.64 289.113C1176.57 282.79 1180.34 274.743 1181.39 266.138C1182.44 257.532 1180.73 248.814 1176.5 241.246C1172.28 233.677 1165.75 227.651 1157.87 224.038L1157.96 224.008Z" fill="#3173FB"/>
<path d="M971.588 532.522C971.588 532.522 979.787 597.722 977.639 651.697C976.134 685.842 972.537 719.862 966.868 753.567L943.027 750.541C943.027 750.541 954.161 664.677 938.64 581.354L938.791 538.089L971.588 532.522Z" fill="#FFBDBB"/>
<path d="M941.149 531.766C941.149 531.766 944.991 597.722 942.813 651.697C941.307 685.842 937.71 719.862 932.042 753.567L908.201 750.541C913.254 704.686 913.335 658.42 908.443 612.547C905.5 587.948 904.005 563.197 903.965 538.422V538.089L941.149 531.766Z" fill="#FFBDBB"/>
<path d="M896.371 633.847L903.451 457.459C903.451 452.09 905.583 446.942 909.379 443.146C913.175 439.35 918.323 437.218 923.692 437.218H950.407C961.904 437.218 971.223 448.382 971.223 462.148L984.232 633.847H896.371Z" fill="#56BFEF"/>
<path d="M943.844 422.06H923.482V441.514H943.844V422.06Z" fill="#FFBDBB"/>
<path d="M933.678 424.057C951.105 424.057 951.105 420.002 951.105 410.412V400.125C951.097 395.505 949.258 391.077 945.992 387.811C942.725 384.544 938.297 382.706 933.678 382.698C929.056 382.706 924.625 384.543 921.353 387.809C918.082 391.075 916.237 395.503 916.221 400.125V410.412C916.221 420.002 924.087 424.057 933.678 424.057Z" fill="#FFBDBB"/>
<path d="M943.086 750.571H966.503C967.274 750.549 968.039 750.696 968.747 751.003C969.454 751.309 970.085 751.767 970.596 752.344C971.107 752.922 971.484 753.604 971.703 754.343C971.921 755.082 971.974 755.86 971.858 756.622H942.723L943.086 750.571Z" fill="#020646"/>
<path d="M908.204 750.571H931.622C932.392 750.549 933.158 750.696 933.865 751.003C934.572 751.309 935.203 751.767 935.714 752.344C936.225 752.922 936.603 753.604 936.821 754.343C937.039 755.082 937.092 755.86 936.977 756.622H907.841L908.204 750.571Z" fill="#020646"/>
<path d="M947.14 435.584C963.629 430.683 1001.9 430.925 1022.78 375.86C1034.88 375.86 1032.91 377.282 1032.91 377.282C1032.91 377.282 1030.25 436.734 970.678 455.643C933.434 467.473 931.347 453.646 934.705 446.173C935.888 443.614 937.612 441.341 939.759 439.513C941.906 437.685 944.424 436.344 947.14 435.584Z" fill="#FFBDBB"/>
<path d="M1026.59 370.262C1028.86 364.816 1031.25 360.792 1035.06 363.515C1038.87 366.238 1031.76 379.581 1031.76 379.581L1022.69 376.767C1024.62 366.027 1027.68 364.09 1026.59 370.262Z" fill="#FFBDBB"/>
<path d="M943.539 401.093C943.539 401.406 943.663 401.706 943.885 401.927C944.106 402.149 944.406 402.273 944.719 402.273C944.875 402.277 945.03 402.249 945.175 402.192C945.32 402.134 945.452 402.047 945.563 401.937C945.673 401.826 945.76 401.695 945.818 401.549C945.875 401.404 945.903 401.249 945.899 401.093C945.899 400.78 945.775 400.48 945.553 400.259C945.332 400.037 945.032 399.913 944.719 399.913C944.408 399.921 944.113 400.048 943.893 400.267C943.674 400.487 943.547 400.783 943.539 401.093Z" fill="#020646"/>
<path d="M943.178 397.583C943.395 397.357 943.656 397.177 943.944 397.054C944.233 396.931 944.543 396.868 944.857 396.868C945.171 396.868 945.481 396.931 945.769 397.054C946.058 397.177 946.319 397.357 946.536 397.583" stroke="#F3999B" stroke-width="0.35" stroke-miterlimit="10"/>
<path d="M940.301 405.449C940.301 405.886 940.43 406.313 940.673 406.676C940.916 407.04 941.261 407.323 941.664 407.49C942.068 407.657 942.512 407.701 942.94 407.616C943.369 407.53 943.762 407.32 944.071 407.011C944.38 406.702 944.59 406.309 944.676 405.88C944.761 405.452 944.717 405.008 944.55 404.604C944.383 404.201 944.1 403.856 943.736 403.613C943.373 403.37 942.946 403.241 942.509 403.241C942.219 403.241 941.932 403.298 941.664 403.409C941.396 403.52 941.153 403.683 940.948 403.888C940.743 404.093 940.58 404.336 940.469 404.604C940.358 404.872 940.301 405.159 940.301 405.449Z" fill="#F3999B"/>
<path d="M951.103 401.123V409.02C955.096 409.02 951.163 401.214 951.103 401.123Z" fill="#F3999B"/>
<path d="M947.386 410.986C947.821 411.623 948.391 412.156 949.055 412.548C949.719 412.94 950.461 413.182 951.228 413.255V410.986H947.386Z" fill="white"/>
<path d="M947.383 428.353C940.031 422.302 930.894 413.013 932.528 404.451C932.595 404.194 932.731 403.96 932.922 403.775C933.112 403.59 933.35 403.461 933.609 403.402C933.868 403.343 934.138 403.356 934.39 403.439C934.643 403.523 934.867 403.674 935.039 403.876C937.278 406.63 940.576 405.54 937.641 397.039C939.424 395.906 941.447 395.207 943.548 394.996C945.65 394.786 947.771 395.071 949.743 395.828C956.187 398.37 957.428 386.298 942.905 381.155C930.198 376.647 913.407 383.212 911.379 395.95C909.141 410.23 914.223 414.103 894.195 432.256C881.124 444.086 887.599 464.357 923.482 464.357C959.364 464.357 964.477 442.24 947.383 428.353Z" fill="#020646"/>
<path d="M937.125 405.903C937.125 406.867 936.839 407.809 936.304 408.61C935.769 409.411 935.008 410.035 934.118 410.404C933.228 410.772 932.249 410.869 931.304 410.681C930.359 410.493 929.491 410.029 928.81 409.348C928.128 408.666 927.664 407.799 927.476 406.854C927.288 405.909 927.385 404.929 927.754 404.039C928.122 403.149 928.747 402.388 929.548 401.853C930.349 401.318 931.291 401.032 932.254 401.032C933.546 401.032 934.785 401.545 935.698 402.459C936.612 403.372 937.125 404.611 937.125 405.903Z" fill="#FFBDBB"/>
<path d="M932.252 403.241C932.603 403.237 932.951 403.303 933.276 403.435C933.601 403.568 933.896 403.764 934.144 404.012C934.392 404.26 934.588 404.555 934.72 404.88C934.853 405.205 934.919 405.553 934.915 405.903C934.946 406.134 934.946 406.368 934.915 406.599C934.753 406.485 934.566 406.413 934.37 406.387C934.205 406.387 934.041 406.42 933.888 406.485C933.736 406.549 933.598 406.643 933.482 406.761C933.367 406.88 933.276 407.02 933.215 407.174C933.155 407.328 933.126 407.493 933.13 407.658C933.136 407.915 933.232 408.161 933.402 408.354C933.08 408.502 932.728 408.574 932.373 408.566C931.667 408.566 930.99 408.285 930.491 407.786C929.991 407.287 929.711 406.61 929.711 405.903C929.711 405.197 929.991 404.52 930.491 404.021C930.99 403.521 931.667 403.241 932.373 403.241H932.252Z" fill="#FE9F99"/>
<path d="M1082.29 560.719C1084.56 555.243 1086.95 551.219 1090.76 553.972C1094.57 556.726 1087.46 570.008 1087.46 570.008L1078.39 567.224C1080.32 556.484 1083.53 554.517 1082.29 560.719Z" fill="#FFBDBB"/>
<path d="M1051.01 550.554H1030.65V570.008H1051.01V550.554Z" fill="#FFBDBB"/>
<path d="M1087.46 570.008C1087.46 570.008 1078.9 615.179 1059.48 617.115C1040.05 619.052 1017.36 602.472 1012.49 585.468C1007.62 568.465 1023.02 561.96 1029.1 568.041C1035.18 574.123 1042.96 591.822 1059.05 598.024C1070.82 577.753 1078.39 567.224 1078.39 567.224L1087.46 570.008Z" fill="#3173FB"/>
<path d="M1010.61 670.153V580.688C1010.61 578.735 1010.99 576.8 1011.74 574.994C1012.48 573.188 1013.57 571.547 1014.95 570.164C1016.33 568.782 1017.97 567.685 1019.78 566.936C1021.58 566.188 1023.52 565.803 1025.47 565.803H1057.57C1069.07 565.803 1078.39 576.997 1078.39 590.763V670.153H1010.61Z" fill="#3173FB"/>
<path d="M976.43 870.534L998.819 877.704C999.522 877.947 1000.16 878.335 1000.71 878.844C1001.25 879.352 1001.68 879.97 1001.96 880.656C1002.25 881.342 1002.38 882.08 1002.36 882.823C1002.34 883.566 1002.17 884.296 1001.84 884.965L974.131 876.07L976.43 870.534Z" fill="#020646"/>
<path d="M1010.62 666.643C1010.62 666.643 1006.96 751.176 1001.54 784.639C997.487 809.478 976.43 870.685 976.43 870.685L998.365 877.764C998.365 877.764 1036.94 811.989 1046.02 705.309C1046.02 670.334 1049.89 666.885 1049.89 666.885L1010.62 666.643Z" fill="#67B2F6"/>
<path d="M1078.39 666.643C1078.39 666.643 1087.04 726.216 1084.86 780.191C1083.35 814.297 1079.75 848.278 1074.06 881.94L1050.25 878.914C1050.25 878.914 1061.38 793.05 1045.86 709.727L1046.01 666.492L1078.39 666.643Z" fill="#67B2F6"/>
<path d="M1050.25 879.066H1073.67C1074.44 879.049 1075.2 879.2 1075.9 879.508C1076.61 879.816 1077.24 880.274 1077.75 880.85C1078.26 881.426 1078.64 882.106 1078.86 882.843C1079.08 883.58 1079.13 884.356 1079.02 885.117H1049.89L1050.25 879.066Z" fill="#020646"/>
<path d="M1125.41 573.336C1125.41 573.336 1117.15 615.209 1097.72 617.146C1078.3 619.082 1055.61 602.502 1050.74 585.498C1045.87 568.495 1061.27 561.99 1067.35 568.072C1073.43 574.153 1081.2 591.852 1097.3 598.054C1109.07 577.783 1116.33 570.552 1116.33 570.552L1125.41 573.336Z" fill="#3173FB"/>
<path d="M1040.97 554.336C1058.42 554.336 1058.42 550.312 1058.42 540.721V530.404C1058.41 525.781 1056.56 521.353 1053.29 518.088C1050.02 514.822 1045.59 512.985 1040.97 512.977C1036.35 512.985 1031.92 514.823 1028.65 518.09C1025.38 521.356 1023.55 525.784 1023.54 530.404V540.721C1023.54 550.312 1031.37 554.336 1040.97 554.336Z" fill="#FFBDBB"/>
<path d="M1052.04 532.583C1052.69 532.583 1053.22 532.054 1053.22 531.403C1053.22 530.751 1052.69 530.223 1052.04 530.223C1051.38 530.223 1050.86 530.751 1050.86 531.403C1050.86 532.054 1051.38 532.583 1052.04 532.583Z" fill="#020646"/>
<path d="M1050.5 527.953C1050.71 527.728 1050.97 527.549 1051.26 527.426C1051.54 527.304 1051.85 527.241 1052.16 527.241C1052.47 527.241 1052.78 527.304 1053.07 527.426C1053.35 527.549 1053.61 527.728 1053.82 527.953" stroke="#F3999B" stroke-width="0.35" stroke-miterlimit="10"/>
<path d="M1047.59 535.729C1047.58 536.173 1047.71 536.609 1047.95 536.981C1048.19 537.353 1048.54 537.645 1048.95 537.819C1049.36 537.993 1049.81 538.041 1050.24 537.958C1050.68 537.875 1051.08 537.665 1051.4 537.353C1051.72 537.041 1051.93 536.642 1052.02 536.207C1052.11 535.772 1052.07 535.32 1051.9 534.909C1051.73 534.498 1051.44 534.147 1051.07 533.9C1050.71 533.652 1050.27 533.52 1049.83 533.52C1049.24 533.52 1048.67 533.752 1048.25 534.165C1047.84 534.578 1047.6 535.14 1047.59 535.729Z" fill="#F3999B"/>
<path d="M1058.42 531.402V539.329C1062.35 539.299 1058.48 531.493 1058.42 531.402Z" fill="#F3999B"/>
<path d="M1054.58 541.266C1055.01 541.899 1055.58 542.429 1056.23 542.821C1056.89 543.213 1057.63 543.457 1058.39 543.535V541.266H1054.58Z" fill="white"/>
<path d="M1039.72 534.731C1039.79 534.474 1039.93 534.24 1040.12 534.055C1040.31 533.87 1040.54 533.741 1040.8 533.682C1041.06 533.622 1041.33 533.635 1041.58 533.719C1041.84 533.802 1042.06 533.954 1042.23 534.156C1043.72 536.001 1045.68 536.122 1045.95 533.49C1046 532.248 1046.32 531.032 1046.9 529.933C1047.48 528.834 1048.3 527.881 1049.3 527.146C1050.31 526.412 1051.46 525.915 1052.69 525.693C1053.91 525.471 1055.17 525.53 1056.36 525.866L1057.03 526.108C1063.47 528.649 1064.71 516.578 1050.22 511.434C1045.8 509.916 1041.05 509.589 1036.47 510.487C1031.88 511.384 1027.6 513.475 1024.08 516.547C1018.24 521.993 1017.48 530.465 1018.03 538.028C1018.63 547.105 1023.02 555.456 1033.16 555.456C1053.52 555.456 1039.63 535.729 1039.63 535.729" fill="#020646"/>
<path d="M1039.57 541.054C1042.26 541.054 1044.44 538.873 1044.44 536.183C1044.44 533.492 1042.26 531.312 1039.57 531.312C1036.88 531.312 1034.7 533.492 1034.7 536.183C1034.7 538.873 1036.88 541.054 1039.57 541.054Z" fill="#FFBDBB"/>
<path d="M1039.57 533.52C1040.27 533.52 1040.95 533.801 1041.45 534.3C1041.95 534.799 1042.23 535.476 1042.23 536.182C1042.21 536.42 1042.16 536.654 1042.08 536.878C1041.93 536.76 1041.75 536.687 1041.57 536.667C1041.23 536.667 1040.91 536.8 1040.67 537.039C1040.43 537.277 1040.29 537.6 1040.29 537.937C1040.32 538.205 1040.42 538.458 1040.6 538.663C1040.27 538.793 1039.92 538.865 1039.57 538.875C1039.19 538.915 1038.81 538.876 1038.45 538.759C1038.09 538.643 1037.76 538.452 1037.48 538.2C1037.2 537.947 1036.98 537.639 1036.82 537.294C1036.67 536.949 1036.59 536.575 1036.59 536.198C1036.59 535.82 1036.67 535.447 1036.82 535.102C1036.98 534.757 1037.2 534.448 1037.48 534.195C1037.76 533.943 1038.09 533.752 1038.45 533.636C1038.81 533.52 1039.19 533.48 1039.57 533.52Z" fill="#FE9F99"/>
<path d="M1120.23 564.017C1122.5 558.541 1124.89 554.517 1128.7 557.24C1132.52 559.963 1125.41 573.306 1125.41 573.306L1116.33 570.522C1118.27 559.782 1121.32 557.815 1120.23 564.017Z" fill="#FFBDBB"/>
<defs>
<linearGradient id="paint0_linear_1749_6228" x1="1100.13" y1="971.908" x2="849.044" y2="-37.5048" gradientUnits="userSpaceOnUse">
<stop stop-color="#21196F"/>
<stop offset="0.23" stop-color="#2A1B70"/>
<stop offset="0.62" stop-color="#422272"/>
<stop offset="1" stop-color="#612A74"/>
</linearGradient>
</defs>
</svg>
