<svg width="89" height="32" viewBox="0 0 89 32" fill="none" xmlns="http://www.w3.org/2000/svg">
<path d="M32 16C32 24.8366 24.8366 32 16 32C7.16344 32 0 24.8366 0 16C0 7.16344 7.16344 0 16 0C24.8366 0 32 7.16344 32 16Z" fill="#AA37FC"/>
<path d="M73.5741 8.31982C73.2073 8.31982 72.91 8.6183 72.91 8.98649V23.6798H76.4373V8.98649C76.4373 8.6183 76.14 8.31982 75.7733 8.31982H73.5741Z" fill="#37383F"/>
<path d="M79.0066 8.31982C78.6398 8.31982 78.3425 8.6183 78.3425 8.98649V11.0078H81.7848V23.6798H85.3121V11.0078H88.7544V8.98649C88.7544 8.6183 88.4571 8.31982 88.0904 8.31982H79.0066Z" fill="#37383F"/>
<path fill-rule="evenodd" clip-rule="evenodd" d="M61.4706 8.31982C62.4197 8.31982 63.2697 8.51894 64.0205 8.91716C64.7712 9.30116 65.3662 9.83449 65.8053 10.5172C66.2408 11.18 66.4604 11.9338 66.464 12.7785L66.4641 12.7998V19.2425H66.4639C66.4567 20.0788 66.2372 20.8326 65.8053 21.5038C65.3662 22.1723 64.7712 22.7056 64.0205 23.1038C63.2697 23.4878 62.4197 23.6798 61.4706 23.6798H57.5662C57.1995 23.6798 56.9022 23.3813 56.9022 23.0132V8.98649C56.9022 8.6183 57.1995 8.31982 57.5662 8.31982H61.4706ZM62.5331 11.4772C62.8022 11.79 62.9368 12.2309 62.9368 12.7998V19.1998C62.9368 19.7687 62.8022 20.2096 62.5331 20.5225C62.2781 20.8354 61.9239 20.9918 61.4706 20.9918H60.4294V11.0078H61.4706C61.9239 11.0078 62.2781 11.1643 62.5331 11.4772Z" fill="#37383F"/>
<path d="M50.388 23.2585C50.4883 23.5128 50.7331 23.6798 51.0054 23.6798H54.2461C54.6128 23.6798 54.9101 23.3813 54.9101 23.0132V8.98649C54.9101 8.6183 54.6128 8.31982 54.2461 8.31982H52.0469C51.6801 8.31982 51.3828 8.6183 51.3828 8.98649V18.2365L47.6392 8.74113C47.5389 8.48684 47.2942 8.31982 47.0218 8.31982H44.4983L44.5006 8.32563C44.1754 8.36886 43.9246 8.64826 43.9246 8.98649V23.0132C43.9246 23.3813 44.2219 23.6798 44.5886 23.6798H47.4518V15.8112L50.388 23.2585Z" fill="#37383F"/>
<path fill-rule="evenodd" clip-rule="evenodd" d="M36.8513 8.31995C35.9265 8.32558 35.0972 8.51669 34.3633 8.89326C33.6183 9.2619 33.0279 9.77391 32.5922 10.4293C32.1637 11.0603 31.9459 11.7771 31.9387 12.5797H31.9385V19.3995C31.9421 20.2105 32.1601 20.941 32.5922 21.5909C33.0279 22.2326 33.6183 22.7446 34.3633 23.1269C35.0972 23.49 35.9265 23.6743 36.8513 23.6797V23.6798C36.8583 23.6798 36.8654 23.6798 36.8724 23.6798C36.8794 23.6798 36.8865 23.6798 36.8935 23.6798V23.6797C37.8183 23.6743 38.6477 23.49 39.3815 23.1269C40.1265 22.7446 40.7169 22.2326 41.1527 21.5909C41.5848 20.941 41.8026 20.2105 41.8063 19.3995L41.8063 19.379V12.5797H41.8061C41.799 11.7771 41.5811 11.0603 41.1527 10.4293C40.7169 9.77391 40.1265 9.2619 39.3815 8.89326C38.6477 8.51669 37.8183 8.32558 36.8935 8.31995V8.31982C36.8794 8.31982 36.8654 8.31987 36.8513 8.31995ZM37.9056 11.3509C38.1727 11.6512 38.3062 12.0745 38.3062 12.6206V19.379C38.3062 19.9252 38.1727 20.3484 37.9056 20.6488C37.6565 20.9445 37.3121 21.0946 36.8724 21.0992C36.4325 21.0946 36.0811 20.9445 35.8182 20.6488C35.5652 20.3484 35.4386 19.9252 35.4386 19.379V12.6206C35.4386 12.0745 35.5652 11.6512 35.8182 11.3509C36.0811 11.0552 36.4325 10.9051 36.8724 10.9004C37.3121 10.9051 37.6565 11.0552 37.9056 11.3509Z" fill="#37383F"/>
<path d="M27.6533 8.74447L25.6893 13.8452L24.0361 8.78062L24.0361 8.78048C23.9472 8.5058 23.6922 8.31982 23.4046 8.31982H21.1187C20.6515 8.31982 20.3304 8.79143 20.5 9.22851L23.9721 18.1758V23.0132C23.9721 23.3813 24.2694 23.6798 24.6361 23.6798H26.4104C26.7771 23.6798 27.0744 23.3813 27.0744 23.0132V18.1758L30.5466 9.22851C30.7162 8.79143 30.3951 8.31982 29.9279 8.31982H28.2721C27.9984 8.31982 27.7528 8.48837 27.6534 8.74434L27.6533 8.74447Z" fill="#37383F"/>
<path d="M18.7813 23.6798C19.148 23.6798 19.4453 23.3813 19.4453 23.0132V20.9918H14.8981V17.3438H18.1704V14.6558H14.8981V11.0078H19.2328V8.98649C19.2328 8.6183 18.9356 8.31982 18.5688 8.31982H12.0349C11.6681 8.31982 11.3708 8.6183 11.3708 8.98649V23.0132C11.3708 23.3813 11.6681 23.6798 12.0349 23.6798H18.7813Z" fill="#37383F"/>
<path fill-rule="evenodd" clip-rule="evenodd" d="M9.44451 12.7785C9.44088 11.9338 9.22132 11.18 8.78585 10.5172C8.34671 9.83449 7.75175 9.30116 7.00096 8.91716C6.25578 8.52191 5.41292 8.32281 4.47237 8.31986L4.45113 8.31982H0.759174C0.392446 8.31982 0.0951538 8.6183 0.0951538 8.98649V23.6798H4.68486C5.62541 23.677 6.46827 23.485 7.21345 23.1038C7.96423 22.7056 8.5592 22.1723 8.99833 21.5038C9.43381 20.8269 9.65336 20.066 9.657 19.2212L9.65704 19.1998V18.8158C9.65285 18.085 9.43324 17.4379 8.99833 16.8745C8.65781 16.4223 8.22359 16.0471 7.69567 15.7489C8.12876 15.4671 8.49215 15.1311 8.78585 14.7412C9.22068 14.1638 9.44022 13.5167 9.44449 12.7998C9.44449 12.796 9.44455 12.7921 9.44454 12.7883C9.44455 12.785 9.44451 12.7818 9.44451 12.7785ZM5.51356 14.1012C5.25857 14.414 4.90443 14.5705 4.45113 14.5705H3.62243V11.0078H4.45113C4.90443 11.0078 5.25857 11.1643 5.51356 11.4772C5.78102 11.7881 5.91559 12.2254 5.91727 12.7892C5.91559 13.3529 5.78102 13.7902 5.51356 14.1012ZM6.12977 18.8372C6.12977 18.2683 5.99519 17.8274 5.72604 17.5145C5.47106 17.2016 5.11692 17.0452 4.66361 17.0452H3.62243V20.9918H4.66361C5.11692 20.9918 5.47106 20.8354 5.72604 20.5225C5.99519 20.2096 6.12977 19.7687 6.12977 19.1998V18.8372Z" fill="#37383F"/>
</svg>
