<svg width="36" height="24" viewBox="0 0 36 24" fill="none" xmlns="http://www.w3.org/2000/svg">
<path d="M15.7589 0.811333C13.7005 1.99938 12.5627 4.39238 12.5627 7.53834L12.5627 10.5042L2.49492 10.5042C2.43606 10.4973 2.37681 10.4938 2.31754 10.4938C2.12207 10.4933 1.92845 10.5315 1.74774 10.606C1.56703 10.6805 1.40276 10.7899 1.2644 10.928C1.12604 11.066 1.01632 11.2301 0.941452 11.4106C0.866581 11.5912 0.828073 11.7847 0.828124 11.9802C0.828124 12.8035 1.49657 13.4906 2.3197 13.4906C2.36047 13.4906 2.40072 13.489 2.44047 13.4857L12.5627 13.4857L12.5627 16.4744C12.5627 19.6203 13.7005 22.0133 15.7589 23.2014C17.8339 24.3897 20.4613 24.1721 23.1888 22.599L30.9367 18.1309C33.6644 16.5581 35.1703 14.3826 35.1703 12.0065C35.1703 9.63043 33.6643 7.45473 30.9367 5.86495L23.1888 1.39712C21.6327 0.493456 20.093 0.0415938 18.6873 0.0415939C17.6331 0.0414967 16.6459 0.292492 15.7589 0.811333ZM17.3216 20.6206C16.1227 19.9334 15.4676 18.3831 15.4676 16.2733L15.4676 7.73838C15.4676 5.62885 16.1227 4.07836 17.3216 3.39109C18.5205 2.70381 20.1826 2.91171 22.0207 3.96659L29.4208 8.234C31.2585 9.28865 32.2656 10.6313 32.2656 12.0058C32.2656 13.3802 31.2584 14.7229 29.4208 15.7778L22.0207 20.0452C20.9019 20.7006 19.8472 21.0202 18.9198 21.0202C18.3613 21.0285 17.8103 20.8908 17.3215 20.6207L17.3216 20.6206Z" fill="#F2F2F8"/>
</svg>
