<svg width="36" height="24" viewBox="0 0 36 24" fill="none" xmlns="http://www.w3.org/2000/svg">
<path d="M20.2411 0.811333C22.2995 1.99938 23.4373 4.39238 23.4373 7.53834L23.4373 10.5042L33.5051 10.5042C33.5639 10.4973 33.6232 10.4938 33.6825 10.4938C33.8779 10.4933 34.0715 10.5315 34.2523 10.606C34.433 10.6805 34.5972 10.7899 34.7356 10.928C34.874 11.066 34.9837 11.2301 35.0585 11.4106C35.1334 11.5912 35.1719 11.7847 35.1719 11.9802C35.1719 12.8035 34.5034 13.4906 33.6803 13.4906C33.6395 13.4906 33.5993 13.489 33.5595 13.4857L23.4373 13.4857L23.4373 16.4744C23.4373 19.6203 22.2995 22.0133 20.2411 23.2014C18.1661 24.3897 15.5387 24.1721 12.8112 22.599L5.06332 18.1309C2.33561 16.5581 0.829694 14.3826 0.829694 12.0065C0.829694 9.63043 2.3357 7.45473 5.06332 5.86495L12.8112 1.39712C14.3673 0.493456 15.907 0.0415938 17.3127 0.0415939C18.3669 0.0414967 19.3541 0.292492 20.2411 0.811333ZM18.6784 20.6206C19.8773 19.9334 20.5324 18.3831 20.5324 16.2733L20.5324 7.73838C20.5324 5.62885 19.8773 4.07836 18.6784 3.39109C17.4795 2.70381 15.8174 2.91171 13.9793 3.96659L6.57923 8.234C4.74149 9.28865 3.73439 10.6313 3.73439 12.0058C3.73439 13.3802 4.74159 14.7229 6.57923 15.7778L13.9793 20.0452C15.0981 20.7006 16.1528 21.0202 17.0802 21.0202C17.6387 21.0285 18.1897 20.8908 18.6785 20.6207L18.6784 20.6206Z" fill="#F2F2F8"/>
</svg>
