<svg width="57" height="57" viewBox="0 0 57 57" fill="none" xmlns="http://www.w3.org/2000/svg">
<path d="M11.1523 11.0736C20.2312 1.99469 34.856 1.65125 44.6855 10.0675C45.5245 10.7859 46.7873 10.7939 47.5683 10.0129C48.3494 9.23185 48.3523 7.95851 47.5208 7.23146C36.1633 -2.69888 19.0094 -2.44035 8.32391 8.24513C2.90799 13.661 0.170702 20.7387 0.0810517 27.881C0.080773 27.9032 0.0627054 27.9211 0.0404995 27.9211C0.0181172 27.9211 -3.01296e-05 27.9393 3.75567e-08 27.9617C0.00455764 31.3432 0.578833 34.5916 1.63109 37.6115C3.02825 41.7162 5.36691 45.5817 8.64044 48.8667C8.66084 48.8872 8.69403 48.8872 8.71446 48.8668C8.73474 48.8465 8.76756 48.8463 8.78809 48.8663C13.9018 53.8526 20.8414 56.9211 28.5 56.9211C43.6115 56.9211 55.9239 44.9743 56.9331 29.9215C57.007 28.8194 56.1045 27.9211 55 27.9211C53.8954 27.9211 53.0081 28.8197 52.9228 29.921C51.9236 42.8226 41.3394 52.9211 28.5 52.9211C17.8556 52.9211 8.76127 45.9804 5.39343 36.2558C2.48318 27.6281 4.40614 17.8198 11.1523 11.0736Z" fill="#6B16A8"/>
</svg>
