<svg width="22" height="22" viewBox="0 0 22 22" fill="none" xmlns="http://www.w3.org/2000/svg">
<path d="M13.8959 21.3537H8.12184C2.89677 21.3537 0.664062 19.121 0.664062 13.8959V8.12183C0.664062 2.89377 2.89437 0.664062 8.12184 0.664062H13.8959C19.121 0.664062 21.3537 2.89677 21.3537 8.12183V13.8959C21.3537 19.121 19.121 21.3537 13.8959 21.3537ZM8.12184 2.10773C3.68581 2.10773 2.10773 3.68581 2.10773 8.12183V13.8959C2.10773 18.3319 3.68581 19.91 8.12184 19.91H13.8959C18.3319 19.91 19.9106 18.3319 19.9106 13.8959V8.12183C19.9106 3.68581 18.3325 2.10713 13.8959 2.10713L8.12184 2.10773Z" fill="white"/>
<path d="M11.009 15.0978C10.0605 15.0997 9.14066 14.7726 8.40637 14.1722C7.67207 13.5718 7.16878 12.7352 6.98232 11.8052C6.79585 10.8752 6.93776 9.90931 7.38384 9.07223C7.82992 8.23515 8.55255 7.57872 9.42851 7.21487C10.3045 6.85103 11.2795 6.80229 12.1874 7.07698C13.0953 7.35168 13.8797 7.93278 14.4071 8.72121C14.9344 9.50964 15.1719 10.4566 15.0791 11.4005C14.9863 12.3445 14.5689 13.2271 13.8982 13.8977C13.1322 14.6649 12.0931 15.0965 11.009 15.0978V15.0978ZM11.009 8.36183C10.3526 8.36222 9.7198 8.60674 9.23367 9.04783C8.74755 9.48892 8.44286 10.095 8.37886 10.7483C8.31485 11.4016 8.49612 12.0554 8.88739 12.5824C9.27867 13.1095 9.85198 13.4721 10.4958 13.5999C11.1397 13.7277 11.8081 13.6114 12.3709 13.2737C12.9338 12.9361 13.351 12.4011 13.5413 11.7729C13.7317 11.1447 13.6815 10.4681 13.4007 9.87482C13.1198 9.28151 12.6284 8.81387 12.0219 8.56284C11.7007 8.42998 11.3566 8.36167 11.009 8.36183V8.36183Z" fill="white"/>
<path d="M15.8213 6.67685C15.6957 6.67541 15.5715 6.64932 15.4559 6.60005C15.3394 6.55117 15.2321 6.48279 15.1385 6.39784C15.0507 6.30461 14.9791 6.19732 14.9267 6.08042C14.8369 5.84529 14.8369 5.58532 14.9267 5.35019C14.9802 5.23392 15.0517 5.12681 15.1385 5.03277C15.1843 4.99147 15.2326 4.95299 15.2831 4.91756C15.3368 4.88118 15.3951 4.85212 15.4565 4.83116C15.5128 4.80138 15.5736 4.7811 15.6365 4.77116C15.7911 4.74073 15.9508 4.74849 16.1017 4.79377C16.2525 4.83904 16.3901 4.92047 16.5024 5.03097C16.5894 5.1229 16.6581 5.23065 16.7046 5.34839C16.7553 5.46342 16.7815 5.58777 16.7815 5.7135C16.7815 5.83923 16.7553 5.96358 16.7046 6.07862C16.6557 6.19515 16.5873 6.30249 16.5024 6.39604C16.4088 6.48099 16.3015 6.54937 16.185 6.59825C16.07 6.64791 15.9465 6.67461 15.8213 6.67685V6.67685Z" fill="white"/>
</svg>
