<svg width="63" height="62" viewBox="0 0 63 62" fill="none" xmlns="http://www.w3.org/2000/svg">
<g clip-path="url(#clip0_610_383)">
<path d="M18.3686 57.4135C16.2875 57.3908 14.226 57.0154 12.2746 56.3036C10.8473 55.7862 9.55566 54.961 8.4944 53.8886C7.40147 52.8462 6.56158 51.5746 6.03727 50.1684C5.3146 48.2478 4.93363 46.2191 4.91109 44.1712C4.75358 40.761 4.71893 39.7457 4.71893 31.1195C4.71893 22.4933 4.75358 21.4749 4.90952 18.0694C4.93548 16.0242 5.31691 13.9985 6.03727 12.0799C6.56478 10.6757 7.40363 9.40485 8.49282 8.35973C9.55249 7.28504 10.8445 6.45907 12.273 5.94316C14.2248 5.23301 16.2862 4.85914 18.367 4.83795C21.8322 4.68294 22.867 4.65039 31.6276 4.65039C40.3882 4.65039 41.4261 4.68449 44.8882 4.83795C46.9685 4.8628 49.0291 5.23818 50.9806 5.94781C52.4085 6.46404 53.7004 7.28936 54.7608 8.36283C55.8519 9.40638 56.691 10.6777 57.2163 12.083C57.9401 14.0034 58.3221 16.0322 58.3456 18.0803C58.5031 21.4904 58.5362 22.5073 58.5362 31.1304C58.5362 39.7534 58.5047 40.7734 58.3456 44.1805C58.3204 46.2284 57.9385 48.2569 57.2163 50.1777C56.6702 51.5706 55.8337 52.8356 54.7608 53.8912C53.6879 54.9468 52.4024 55.7696 50.9869 56.3067C49.0355 57.019 46.974 57.395 44.8929 57.4181C41.4277 57.5731 40.3945 57.6057 31.6323 57.6057C22.8701 57.6057 21.8322 57.5762 18.3749 57.4181" fill="url(#paint0_linear_610_383)"/>
<path d="M18.3686 57.4135C16.2875 57.3908 14.226 57.0154 12.2746 56.3036C10.8473 55.7862 9.55566 54.961 8.4944 53.8886C7.40147 52.8462 6.56158 51.5746 6.03727 50.1684C5.3146 48.2478 4.93363 46.2191 4.91109 44.1712C4.75358 40.761 4.71893 39.7457 4.71893 31.1195C4.71893 22.4933 4.75358 21.4749 4.90952 18.0694C4.93548 16.0242 5.31691 13.9985 6.03727 12.0799C6.56478 10.6757 7.40363 9.40485 8.49282 8.35973C9.55249 7.28504 10.8445 6.45907 12.273 5.94316C14.2248 5.23301 16.2862 4.85914 18.367 4.83795C21.8322 4.68294 22.867 4.65039 31.6276 4.65039C40.3882 4.65039 41.4261 4.68449 44.8882 4.83795C46.9685 4.8628 49.0291 5.23818 50.9806 5.94781C52.4085 6.46404 53.7004 7.28936 54.7608 8.36283C55.8519 9.40638 56.691 10.6777 57.2163 12.083C57.9401 14.0034 58.3221 16.0322 58.3456 18.0803C58.5031 21.4904 58.5362 22.5073 58.5362 31.1304C58.5362 39.7534 58.5047 40.7734 58.3456 44.1805C58.3204 46.2284 57.9385 48.2569 57.2163 50.1777C56.6702 51.5706 55.8337 52.8356 54.7608 53.8912C53.6879 54.9468 52.4024 55.7696 50.9869 56.3067C49.0355 57.019 46.974 57.395 44.8929 57.4181C41.4277 57.5731 40.3945 57.6057 31.6323 57.6057C22.8701 57.6057 21.8322 57.5762 18.3749 57.4181" fill="url(#paint1_radial_610_383)"/>
<path d="M25.0212 31.2373C25.0211 29.7203 25.5555 28.2503 26.5334 27.0776C27.5112 25.905 28.872 25.1023 30.3838 24.8063C31.8956 24.5103 33.4649 24.7394 34.8243 25.4544C36.1837 26.1695 37.2492 27.3263 37.8391 28.7278C38.429 30.1292 38.5069 31.6886 38.0595 33.1403C37.6121 34.5919 36.667 35.846 35.3854 36.6888C34.1038 37.5316 32.5648 37.911 31.0308 37.7624C29.4968 37.6137 28.0627 36.9462 26.9727 35.8736C25.7232 34.644 25.0212 32.9763 25.0212 31.2373ZM21.419 31.2373C21.4154 33.7446 22.3595 36.1636 24.0677 38.0238C25.776 39.884 28.1262 41.0524 30.6613 41.3018C33.1964 41.5512 35.7351 40.8637 37.7837 39.3731C39.8323 37.8825 41.2443 35.6954 41.7451 33.237C42.2459 30.7786 41.7997 28.2248 40.4933 26.0723C39.1868 23.9197 37.1136 22.3223 34.6767 21.5908C32.2398 20.8592 29.6136 21.0458 27.3087 22.1142C25.0039 23.1826 23.1852 25.0565 22.2065 27.3714C21.6885 28.5966 21.4209 29.9103 21.419 31.2373ZM39.9545 20.7355C39.9535 21.2826 40.1454 21.813 40.4973 22.2364C40.8493 22.6598 41.3396 22.95 41.8846 23.0575C42.4296 23.1649 42.9956 23.0831 43.4862 22.8258C43.9767 22.5685 44.3614 22.1517 44.5747 21.6465C44.7879 21.1414 44.8165 20.579 44.6556 20.0554C44.4947 19.5318 44.1543 19.0793 43.6923 18.7751C43.2303 18.4708 42.6754 18.3337 42.1222 18.3871C41.569 18.4404 41.0517 18.6809 40.6585 19.0676C40.2085 19.5098 39.9553 20.1097 39.9545 20.7355ZM23.6083 47.2573C22.3407 47.2438 21.0849 47.0157 19.8959 46.5831C19.0336 46.2562 18.2505 45.7552 17.5969 45.1123C16.9434 44.4694 16.434 43.6989 16.1015 42.8505C15.6616 41.6804 15.4298 40.4445 15.4163 39.1969C15.3187 37.1229 15.2998 36.5014 15.2998 31.2481C15.2998 25.9949 15.3203 25.3733 15.4163 23.2978C15.4315 22.0504 15.6632 20.8148 16.1015 19.6443C16.4331 18.7944 16.9421 18.0224 17.5956 17.3781C18.2492 16.7339 19.0328 16.2316 19.8959 15.9039C21.0848 15.471 22.3407 15.2429 23.6083 15.2296C25.7158 15.1335 26.3474 15.1149 31.6837 15.1149C37.0201 15.1149 37.6533 15.1351 39.7623 15.2296C41.0298 15.2445 42.2854 15.4726 43.4748 15.9039C44.3372 16.231 45.1204 16.7322 45.774 17.3754C46.4275 18.0185 46.9368 18.7893 47.2691 19.6381C47.709 20.8082 47.9408 22.0441 47.9543 23.2916C48.052 25.3687 48.0709 25.9872 48.0709 31.2419C48.0709 36.4967 48.052 37.1167 47.9543 39.1923C47.9398 40.4397 47.7081 41.6755 47.2691 42.8458C46.9368 43.6937 46.4278 44.4637 45.7748 45.1063C45.1219 45.7489 44.3395 46.2498 43.4779 46.5769C42.289 47.0098 41.0331 47.2379 39.7655 47.2511C37.658 47.3472 37.0248 47.3658 31.6869 47.3658C26.349 47.3658 25.7173 47.3472 23.6115 47.2511L23.6083 47.2573ZM23.4429 11.6862C21.7849 11.7187 20.1446 12.028 18.5917 12.6007C17.2635 13.1057 16.0571 13.8782 15.05 14.8688C14.0429 15.8594 13.2572 17.0462 12.7434 18.353C12.1628 19.8825 11.8502 21.4979 11.8189 23.1304C11.7196 25.2276 11.6976 25.8988 11.6976 31.2404C11.6976 36.582 11.7196 37.2531 11.8189 39.3504C11.8513 40.9825 12.165 42.5974 12.7466 44.1262C13.2599 45.433 14.045 46.6199 15.0516 47.6107C16.0581 48.6016 17.2639 49.3745 18.5917 49.8801C20.1452 50.4522 21.7861 50.761 23.4445 50.7931C25.5772 50.8892 26.2576 50.9124 31.6853 50.9124C37.113 50.9124 37.7951 50.8907 39.9261 50.7931C41.5846 50.7611 43.2255 50.4524 44.779 49.8801C46.107 49.3747 47.3131 48.6018 48.3199 47.611C49.3268 46.6201 50.1121 45.4332 50.6256 44.1262C51.2081 42.5976 51.5218 40.9826 51.5534 39.3504C51.651 37.2516 51.6731 36.582 51.6731 31.2404C51.6731 25.8988 51.651 25.2276 51.5534 23.1304C51.5211 21.4982 51.2074 19.8834 50.6256 18.3546C50.1122 17.0478 49.3271 15.861 48.3205 14.8702C47.314 13.8793 46.1082 13.1064 44.7805 12.6007C43.2272 12.028 41.5862 11.7192 39.9277 11.6877C37.7966 11.5916 37.1146 11.5684 31.6885 11.5684C26.2623 11.5684 25.5787 11.5901 23.4461 11.6877" fill="white"/>
</g>
<defs>
<linearGradient id="paint0_linear_610_383" x1="8.59378" y1="7.40407" x2="53.3092" y2="54.5145" gradientUnits="userSpaceOnUse">
<stop stop-color="#9939A0"/>
<stop offset="0.505208" stop-color="#D53B77"/>
<stop offset="1" stop-color="#DD3B71"/>
</linearGradient>
<radialGradient id="paint1_radial_610_383" cx="0" cy="0" r="1" gradientUnits="userSpaceOnUse" gradientTransform="translate(-73.9819 85.7319) rotate(45.6763) scale(26.4752 63.1217)">
<stop stop-color="#FA8F21"/>
<stop offset="1" stop-color="#FA8F21" stop-opacity="0"/>
</radialGradient>
<clipPath id="clip0_610_383">
<rect width="63" height="62" fill="white"/>
</clipPath>
</defs>
</svg>
