<svg width="54" height="54" viewBox="0 0 54 54" fill="none" xmlns="http://www.w3.org/2000/svg">
<path d="M34.4929 53.7778H19.5688C18.7581 53.7778 17.9363 53.7547 17.1256 53.7097C16.3149 53.6647 15.5446 53.5872 14.8641 53.5004C14.072 53.3997 13.3876 53.2867 12.7691 53.1549C12.039 52.9999 11.4137 52.8446 10.8557 52.6664C10.245 52.4726 9.66052 52.2574 9.11489 52.0249C8.57196 51.7957 8.04269 51.5336 7.53151 51.2404C7.04192 50.9536 6.56969 50.6381 6.11767 50.2951C5.6743 49.961 5.25587 49.5957 4.86429 49.2021C4.47061 48.8103 4.10484 48.3911 3.76985 47.948C3.42812 47.4954 3.11234 47.0236 2.82527 46.5345C2.53206 46.0239 2.27035 45.4958 2.04115 44.9534C1.80398 44.3969 1.58688 43.811 1.39932 43.2111C1.21176 42.6112 1.06898 42.0393 0.954276 41.4828C0.499834 39.8211 0.279381 38.1041 0.298823 36.3815V35.5288C0.298823 35.1971 0.286713 34.8422 0.286713 34.4919V32.8582C0.286713 32.9915 0.286423 33.1264 0.298823 33.2628V27.7164C0.286423 27.2514 0.286423 26.7634 0.298823 26.2844V20.8591C0.298823 21.042 0.288227 21.2155 0.288227 21.3984V19.5739C0.288227 19.2112 0.287936 18.8407 0.300337 18.5431V17.6844C0.280834 15.9618 0.501288 14.2448 0.95579 12.5831C1.09065 11.9723 1.24117 11.3925 1.40083 10.8593C1.59459 10.2393 1.8117 9.6595 2.04266 9.11697C2.27214 8.57468 2.53384 8.04667 2.82678 7.53586C3.11066 7.04479 3.42656 6.57279 3.77136 6.1224C4.10646 5.67939 4.47222 5.26023 4.8658 4.86826C5.25903 4.47459 5.67733 4.10747 6.11918 3.76928C6.57129 3.4283 7.04352 3.11469 7.53302 2.83C8.04429 2.53693 8.57355 2.27484 9.1164 2.0455C9.68478 1.80023 10.2659 1.58581 10.8572 1.40253C11.4772 1.21187 12.1227 1.04728 12.7706 0.913972C13.4185 0.780665 14.1324 0.655408 14.8656 0.562404C15.6779 0.464749 16.4157 0.397971 17.1272 0.357669C17.9363 0.312717 18.7581 0.289551 19.5703 0.289551H34.4944C35.3066 0.289551 36.1299 0.312717 36.9391 0.357669C37.6506 0.396421 38.3929 0.464749 39.2052 0.562404C39.9306 0.655408 40.6338 0.772915 41.2941 0.913972C41.9545 1.05503 42.5782 1.21032 43.2075 1.40253C43.7994 1.58566 44.381 1.80007 44.9498 2.0455C45.4924 2.27439 46.0212 2.53648 46.5317 2.83C47.0238 3.11124 47.4968 3.42499 47.9471 3.76928C48.3886 4.10779 48.8069 4.47489 49.2004 4.86826C49.5941 5.26154 49.9612 5.68058 50.2994 6.1224C50.6413 6.57351 50.9553 7.04546 51.2379 7.53586C51.5315 8.04659 51.7937 8.57461 52.0236 9.11697C52.2708 9.68493 52.4851 10.2667 52.6654 10.8593C52.8359 11.4375 52.9748 11.9443 53.0787 12.4279C53.565 14.1369 53.8003 15.9077 53.7765 17.6844V36.386C53.8005 38.1647 53.5652 39.9375 53.0787 41.6485C52.9469 42.2283 52.8127 42.7413 52.6654 43.2172C52.4853 43.8098 52.2709 44.3916 52.0236 44.9595C51.7933 45.5017 51.5312 46.0297 51.2379 46.5406C50.9519 47.0289 50.6381 47.501 50.2994 47.9544C49.9609 48.396 49.5938 48.8147 49.2004 49.2082C48.8087 49.6015 48.3902 49.9668 47.9471 50.3011C47.497 50.6477 47.0241 50.9637 46.5317 51.2468C46.0209 51.5397 45.4921 51.8014 44.9498 52.031C44.4027 52.265 43.8167 52.4806 43.2075 52.6728C42.6464 52.8448 42.0196 53.0044 41.2941 53.161C40.6741 53.2927 39.9895 53.4057 39.2052 53.5065C38.5293 53.5933 37.7684 53.6615 36.9391 53.7158C36.1098 53.77 35.3036 53.7778 34.4929 53.7778ZM22.5222 22.4152C22.5826 23.8103 22.5438 35.3569 22.5222 40.2551C22.5222 40.4768 22.5222 40.6037 22.5222 40.6177H28.5681V30.4461C28.5421 29.9506 28.6073 29.4549 28.7603 28.983C28.9931 28.3386 29.4107 27.7775 29.9622 27.3709C30.5214 26.974 31.1915 26.7624 31.8771 26.7661C33.8783 26.7661 34.9349 28.1862 34.9349 30.8741V40.6022H40.9808V30.1827C40.9808 25.055 38.3778 21.9937 34.0206 21.9937C33.9338 21.9937 33.8441 21.9937 33.7511 21.9937C32.742 21.9939 31.7488 22.2488 30.8644 22.7346C29.909 23.2749 29.1151 24.0588 28.562 25.0068V22.4243L22.5222 22.4152ZM13.1097 22.4152V40.5976H19.1677V22.4152H13.1097ZM16.178 13.5519C15.3022 13.5264 14.4526 13.8485 13.8136 14.448C13.1746 15.0475 12.7979 15.8755 12.7676 16.7512C12.7971 17.6276 13.1731 18.4567 13.812 19.0574C14.451 19.658 15.3014 19.9816 16.178 19.9569C17.0545 19.9812 17.9051 19.6576 18.544 19.057C19.1829 18.4564 19.5585 17.6275 19.5885 16.7512C19.5594 15.8746 19.1831 15.0453 18.544 14.4446C17.9049 13.8439 17.0548 13.5207 16.178 13.5458V13.5519Z" fill="#0077B5"/>
</svg>
