<svg width="22" height="22" viewBox="0 0 22 22" fill="none" xmlns="http://www.w3.org/2000/svg">
<path d="M8.20037 21.3038C3.00291 21.3038 0.780273 19.0837 0.780273 13.8832V8.13797C0.780273 2.94051 3.00051 0.717285 8.20037 0.717285H13.9446C19.1427 0.717285 21.3629 2.93751 21.3629 8.13797V13.8832C21.3629 19.0807 19.1427 21.3038 13.9446 21.3038H8.20037ZM2.21765 8.13855V13.8838C2.21765 18.294 3.78715 19.8684 8.20037 19.8684H13.9446C18.3572 19.8684 19.9279 18.294 19.9279 13.8838V8.13855C19.9279 3.72833 18.3578 2.15378 13.9446 2.15378H8.20037C3.78775 2.15378 2.21824 3.72833 2.21824 8.13855H2.21765ZM9.26449 16.2707V16.2401C9.26449 16.2167 9.26449 16.1801 9.26449 16.1297C9.27169 14.2312 9.28549 9.75743 9.26449 9.2264H11.6048V10.2249C11.8195 9.85687 12.1284 9.55265 12.4996 9.34345C12.8417 9.15578 13.2251 9.05714 13.6153 9.05662H13.6692C13.6878 9.05662 13.7046 9.05662 13.719 9.05662C15.4081 9.05662 16.4139 10.241 16.4139 12.2289V16.2611H14.0741V12.4948C14.0741 11.4537 13.6645 10.9065 12.8916 10.9065C12.6248 10.9044 12.3646 10.9867 12.1474 11.1416C11.9344 11.2988 11.7723 11.5156 11.6822 11.7645C11.6234 11.9473 11.598 12.1391 11.6072 12.3309V16.269L9.26449 16.2707ZM5.6227 16.2636V9.2264H7.96716V16.2636H5.6227ZM5.48852 7.03152C5.4998 6.69239 5.64538 6.37154 5.89283 6.13938C6.14029 5.90722 6.46955 5.78257 6.8087 5.79293C7.14828 5.78208 7.47828 5.90647 7.72632 6.13865C7.97436 6.37083 8.12023 6.69196 8.13181 7.03152C8.12053 7.37159 7.97487 7.69328 7.72691 7.92629C7.47894 8.1593 7.14882 8.28466 6.8087 8.27479C6.46921 8.28401 6.14007 8.1584 5.89283 7.92556C5.6456 7.69271 5.50023 7.37154 5.4891 7.0321L5.48852 7.03152Z" fill="white"/>
</svg>
