<svg width="22" height="26" viewBox="0 0 22 26" fill="none" xmlns="http://www.w3.org/2000/svg">
<path d="M11.0088 25.0777H10.8562C9.76507 25.0429 8.71674 24.6448 7.87759 23.9464C7.01046 23.2117 6.22025 22.3908 5.51916 21.4963C5.41066 21.3633 5.29792 21.2345 5.18872 21.1022C5.06411 20.9734 4.93536 20.8404 4.81075 20.7158C3.52308 19.4749 2.40395 18.0703 1.48208 16.538C0.589111 15.058 0.109897 13.3654 0.0945766 11.637C0.0767701 10.2193 0.346807 8.81269 0.888269 7.50236C1.42973 6.19202 2.23136 5.00522 3.24473 4.01363C4.26294 3.01149 5.47136 2.22318 6.79883 1.69511C8.13262 1.16535 9.55773 0.903697 10.9927 0.925087H11.0166C12.4445 0.903361 13.8626 1.16306 15.1901 1.68947C16.5137 2.21329 17.7203 2.99449 18.74 3.98774C19.751 4.97291 20.5529 6.15176 21.0978 7.4539C21.6428 8.75605 21.9197 10.1547 21.9119 11.5663V11.6363C21.8907 13.362 21.4114 15.0512 20.523 16.5309C19.5987 18.0603 18.4798 19.4633 17.1943 20.7046C17.0739 20.825 16.9486 20.9537 16.8198 21.0867C16.7071 21.2197 16.5944 21.3528 16.4859 21.4851C15.786 22.3821 14.9957 23.2048 14.1275 23.9401C13.2883 24.6385 12.24 25.0366 11.1488 25.0713L11.0088 25.0777ZM11.1817 7.50048C10.4824 7.50048 9.79825 7.7046 9.21323 8.0878C8.63318 8.46929 8.17929 9.01431 7.90904 9.65382C7.64172 10.29 7.57224 10.992 7.70959 11.6682C7.84694 12.3445 8.18473 12.9637 8.67906 13.4452C9.17797 13.9336 9.80885 14.2654 10.4939 14.3998C11.179 14.5343 11.8884 14.4655 12.5349 14.2019C13.1806 13.9414 13.7341 13.4944 14.1247 12.9181C14.5793 12.2502 14.7841 11.4434 14.703 10.6396C14.622 9.83577 14.2604 9.08619 13.6816 8.5225C13.0138 7.86862 12.1171 7.50116 11.1824 7.49834L11.1817 7.50048Z" fill="white"/>
</svg>
