<svg width="22" height="26" viewBox="0 0 22 26" fill="none" xmlns="http://www.w3.org/2000/svg">
<path d="M11.0083 25.0777H10.8558C9.76458 25.0429 8.71625 24.6448 7.87711 23.9464C7.00997 23.2117 6.21976 22.3908 5.51868 21.4963C5.41017 21.3633 5.29743 21.2345 5.18823 21.1022C5.06362 20.9734 4.93487 20.8404 4.81027 20.7158C3.52259 19.4749 2.40347 18.0703 1.4816 16.538C0.588623 15.058 0.109409 13.3654 0.0940884 11.637C0.0762818 10.2193 0.346319 8.81269 0.88778 7.50236C1.42924 6.19202 2.23087 5.00522 3.24425 4.01363C4.26245 3.01149 5.47088 2.22318 6.79834 1.69511C8.13213 1.16535 9.55724 0.903697 10.9922 0.925087H11.0161C12.444 0.903361 13.8621 1.16306 15.1896 1.68947C16.5132 2.21329 17.7198 2.99449 18.7395 3.98774C19.7505 4.97291 20.5524 6.15176 21.0974 7.4539C21.6423 8.75605 21.9192 10.1547 21.9114 11.5663V11.6363C21.8902 13.362 21.4109 15.0512 20.5225 16.5309C19.5982 18.0603 18.4793 19.4633 17.1938 20.7046C17.0734 20.825 16.9481 20.9537 16.8193 21.0867C16.7066 21.2197 16.5939 21.3528 16.4854 21.4851C15.7855 22.3821 14.9952 23.2048 14.127 23.9401C13.2879 24.6385 12.2395 25.0366 11.1484 25.0713L11.0083 25.0777ZM11.1813 7.50048C10.4819 7.50048 9.79776 7.7046 9.21274 8.0878C8.63269 8.46929 8.1788 9.01431 7.90855 9.65382C7.64123 10.29 7.57175 10.992 7.70911 11.6682C7.84646 12.3445 8.18425 12.9637 8.67857 13.4452C9.17748 13.9336 9.80836 14.2654 10.4934 14.3998C11.1785 14.5343 11.8879 14.4655 12.5344 14.2019C13.1801 13.9414 13.7336 13.4944 14.1242 12.9181C14.5788 12.2502 14.7836 11.4434 14.7025 10.6396C14.6215 9.83577 14.2599 9.08619 13.6811 8.5225C13.0133 7.86862 12.1166 7.50116 11.1819 7.49834L11.1813 7.50048Z" fill="#37383F"/>
</svg>
