<svg width="32" height="32" viewBox="0 0 32 32" fill="none" xmlns="http://www.w3.org/2000/svg">
<path d="M2.49131 24.7405C2.49025 24.8995 2.52077 25.057 2.5811 25.2041C2.64144 25.3511 2.73038 25.4847 2.84277 25.5971C2.95516 25.7095 3.08876 25.7985 3.23581 25.8588C3.38286 25.9191 3.54043 25.9497 3.69937 25.9486H28.4494C28.7698 25.9486 29.0771 25.8213 29.3036 25.5948C29.5302 25.3682 29.6575 25.0609 29.6575 24.7405C29.6575 24.4201 29.5302 24.1129 29.3036 23.8863C29.0771 23.6597 28.7698 23.5325 28.4494 23.5325H3.70017C3.38067 23.5356 3.07512 23.6638 2.84911 23.8897C2.6231 24.1156 2.49464 24.421 2.49131 24.7405Z" fill="#ECE8EF"/>
<path d="M29.8503 16.0001C29.8513 15.8411 29.8208 15.6836 29.7605 15.5365C29.7001 15.3895 29.6112 15.2559 29.4988 15.1435C29.3864 15.0311 29.2528 14.9421 29.1058 14.8818C28.9587 14.8215 28.8011 14.791 28.6422 14.792L3.50734 14.792C3.18684 14.792 2.87946 14.9193 2.65283 15.146C2.4262 15.3726 2.29888 15.68 2.29888 16.0005C2.29888 16.321 2.4262 16.6284 2.65283 16.855C2.87946 17.0816 3.18684 17.2089 3.50734 17.2089H28.6422C28.9624 17.2079 29.2692 17.0802 29.4955 16.8537C29.7219 16.6272 29.8494 16.3203 29.8503 16.0001Z" fill="#ECE8EF"/>
<path d="M2.49131 7.25957C2.49025 7.41852 2.52077 7.57608 2.5811 7.72313C2.64144 7.87018 2.73038 8.00378 2.84277 8.11617C2.95516 8.22856 3.08876 8.31751 3.23581 8.37784C3.38286 8.43818 3.54043 8.4687 3.69937 8.46763L28.4494 8.46763C28.7698 8.46763 29.0771 8.34036 29.3036 8.1138C29.5302 7.88725 29.6575 7.57997 29.6575 7.25957C29.6575 6.93918 29.5302 6.6319 29.3036 6.40535C29.0771 6.17879 28.7698 6.05151 28.4494 6.05151L3.70017 6.05151C3.37996 6.05236 3.07309 6.17988 2.84659 6.40623C2.62009 6.63258 2.49236 6.93936 2.49131 7.25957Z" fill="#ECE8EF"/>
</svg>
