<svg width="390" height="785" viewBox="0 0 390 785" fill="none" xmlns="http://www.w3.org/2000/svg">
<path d="M390 0H0V785H390V0Z" fill="url(#paint0_linear_1787_428)"/>
<path d="M377.321 45L307.23 84.6419L336.258 99.8527L261.681 200.973L82.4224 50.5212L-95.773 243.858L-215.927 169.185L-367 323.667L-42.0522 324.012L92.4019 168.619L271.536 320.409L364.844 114.07L389.647 125.526L377.321 45Z" stroke="#4753C9" stroke-width="0.5" stroke-miterlimit="10"/>
<path d="M279.596 234.486C282.792 235.384 286.17 235.411 289.38 234.565C292.591 233.719 295.517 232.031 297.856 229.675C300.195 227.319 301.862 224.381 302.685 221.164C303.508 217.948 303.456 214.57 302.536 211.38L320.797 220.725C321.528 221.095 322.325 221.318 323.143 221.38C323.96 221.441 324.781 221.341 325.56 221.085C326.338 220.828 327.058 220.42 327.679 219.885C328.299 219.349 328.808 218.697 329.176 217.964L360.274 157.231C360.644 156.5 360.867 155.703 360.928 154.886C360.99 154.069 360.89 153.247 360.634 152.469C360.377 151.69 359.969 150.97 359.434 150.35C358.898 149.729 358.246 149.221 357.513 148.853L296.78 117.755C296.049 117.385 295.252 117.162 294.435 117.1C293.618 117.038 292.796 117.139 292.018 117.395C291.239 117.652 290.519 118.059 289.899 118.595C289.278 119.13 288.77 119.783 288.402 120.516L279.126 138.763C282.621 137.763 286.331 137.807 289.8 138.889C293.27 139.972 296.347 142.045 298.653 144.854C300.96 147.662 302.394 151.084 302.78 154.698C303.167 158.312 302.488 161.96 300.827 165.193C299.166 168.425 296.596 171.102 293.434 172.893C290.271 174.684 286.654 175.511 283.028 175.272C279.401 175.033 275.924 173.739 273.023 171.549C270.123 169.359 267.926 166.368 266.704 162.946L257.359 181.207C256.615 182.684 256.487 184.397 257.005 185.968C257.522 187.539 258.643 188.84 260.12 189.585L278.367 198.944C274.64 200.273 271.432 202.754 269.21 206.028C266.987 209.302 265.864 213.199 266.004 217.154C266.144 221.109 267.539 224.916 269.988 228.025C272.436 231.134 275.811 233.382 279.623 234.445L279.596 234.486Z" fill="#6B16A8"/>
<path d="M137.234 255.688C133.977 256.344 130.956 257.859 128.482 260.076C126.009 262.293 124.173 265.132 123.166 268.297C122.16 271.463 122.018 274.84 122.756 278.079C123.494 281.318 125.085 284.3 127.365 286.717H106.84C105.201 286.735 103.635 287.399 102.482 288.564C101.33 289.73 100.683 291.303 100.684 292.942V361.156C100.684 362.807 101.339 364.39 102.507 365.557C103.674 366.725 105.258 367.381 106.909 367.381H175.109C176.76 367.381 178.343 366.725 179.511 365.557C180.678 364.39 181.334 362.807 181.334 361.156V340.631C178.682 343.123 175.359 344.784 171.775 345.411C168.19 346.038 164.501 345.602 161.161 344.157C157.821 342.713 154.977 340.322 152.979 337.281C150.981 334.24 149.916 330.681 149.916 327.042C149.916 323.403 150.981 319.843 152.979 316.802C154.977 313.761 157.821 311.371 161.161 309.926C164.501 308.482 168.19 308.046 171.775 308.673C175.359 309.299 178.682 310.961 181.334 313.453V292.942C181.336 292.124 181.176 291.313 180.864 290.557C180.552 289.801 180.093 289.114 179.515 288.536C178.936 287.957 178.249 287.499 177.493 287.187C176.737 286.875 175.927 286.715 175.109 286.717H154.515C157.227 283.835 158.952 280.165 159.438 276.237C159.925 272.31 159.149 268.33 157.222 264.873C155.296 261.416 152.318 258.663 148.722 257.011C145.126 255.36 141.097 254.896 137.22 255.688H137.234Z" fill="#6B16A8"/>
<path d="M183.692 329.243C184.352 332.497 185.869 335.515 188.087 337.986C190.304 340.457 193.142 342.29 196.306 343.296C199.47 344.303 202.845 344.445 206.082 343.71C209.32 342.974 212.302 341.387 214.72 339.112V359.609C214.72 361.26 215.376 362.844 216.544 364.011C217.711 365.179 219.295 365.835 220.946 365.835H289.16C290.811 365.835 292.394 365.179 293.561 364.011C294.729 362.844 295.385 361.26 295.385 359.609V291.395C295.385 289.744 294.729 288.161 293.561 286.994C292.394 285.826 290.811 285.17 289.16 285.17H268.635C271.129 287.821 272.792 291.144 273.42 294.729C274.049 298.314 273.614 302.005 272.17 305.346C270.726 308.687 268.336 311.533 265.294 313.532C262.252 315.531 258.692 316.596 255.053 316.596C251.413 316.596 247.853 315.531 244.811 313.532C241.769 311.533 239.379 308.687 237.935 305.346C236.491 302.005 236.057 298.314 236.685 294.729C237.313 291.144 238.977 287.821 241.471 285.17H220.946C219.295 285.17 217.711 285.826 216.544 286.994C215.376 288.161 214.72 289.744 214.72 291.395V311.907C211.837 309.188 208.161 307.46 204.228 306.973C200.295 306.486 196.31 307.266 192.85 309.199C189.39 311.132 186.637 314.117 184.99 317.722C183.343 321.326 182.888 325.362 183.692 329.243Z" fill="#56BFEF"/>
<path d="M364.62 263.514V222.726C364.62 220.925 363.904 219.198 362.631 217.924C361.357 216.651 359.63 215.935 357.829 215.935H343.198C337.939 215.935 333.688 221.029 333.688 227.323V263.514H364.62Z" fill="#3173FB"/>
<path d="M355.469 208.979V216.059C355.465 217.288 354.976 218.466 354.107 219.335C353.238 220.204 352.06 220.694 350.831 220.697C349.6 220.697 348.419 220.209 347.547 219.34C346.675 218.47 346.183 217.291 346.18 216.059V209.048L355.469 208.979Z" fill="#FE9F99"/>
<path d="M350.833 211.629C348.725 211.625 346.703 210.787 345.211 209.297C343.718 207.807 342.876 205.787 342.869 203.679V198.972C342.876 196.863 343.718 194.843 345.211 193.353C346.703 191.863 348.725 191.025 350.833 191.021C352.941 191.025 354.961 191.864 356.451 193.354C357.941 194.844 358.78 196.864 358.784 198.972V203.637C358.787 204.684 358.585 205.722 358.187 206.69C357.789 207.659 357.204 208.539 356.466 209.282C355.727 210.024 354.85 210.613 353.883 211.016C352.917 211.419 351.88 211.627 350.833 211.629Z" fill="#FFBDBB"/>
<path d="M315.813 218.213C315.813 218.213 314.971 215.328 310.292 214.458C309.616 210.856 307.918 211.932 307.904 215.839C308.305 216.781 308.914 217.62 309.686 218.292C310.459 218.964 311.374 219.451 312.363 219.717L315.813 218.213Z" fill="#FE9F99"/>
<path d="M380.219 354.958L370.046 358.229C369.712 358.329 369.403 358.5 369.141 358.73C368.879 358.96 368.67 359.244 368.529 359.563C368.387 359.882 368.316 360.227 368.321 360.576C368.325 360.925 368.405 361.269 368.555 361.583L381.213 357.525L380.219 354.958Z" fill="#67B2F6"/>
<path d="M329.301 217.343C329.301 217.343 328.46 214.458 331.91 211.215C330.53 207.819 332.559 207.805 334.671 211.146C334.842 212.153 334.782 213.186 334.495 214.166C334.208 215.147 333.702 216.049 333.014 216.805L329.301 217.343Z" fill="#FFBDBB"/>
<path d="M338.191 216.957C335.747 219.4 332.669 225.956 326.969 229.379L329.578 238.931C336.907 237.261 343.974 231.132 345.754 224.88C347.977 217.136 340.965 214.182 338.191 216.957Z" fill="#3173FB"/>
<path d="M324.523 230.622C321.794 225.738 318.619 221.118 315.04 216.819L311.217 216.97C311.217 216.97 315.468 238.475 324.33 239.359C326.087 239.518 327.859 239.388 329.575 238.972L326.966 229.421C326.191 229.897 325.373 230.299 324.523 230.622Z" fill="#FE9F99"/>
<path d="M342.511 230.622C337.156 221.388 333.65 216.018 333.65 216.018L329.205 216.957C329.205 216.957 333.456 238.462 342.332 239.345C344.08 239.501 345.841 239.376 347.549 238.973L344.789 229.49C344.065 229.935 343.303 230.314 342.511 230.622Z" fill="#FFBDBB"/>
<path d="M356.174 216.957C353.717 219.428 350.653 226.053 344.801 229.49L347.561 238.973C354.891 237.302 361.972 231.16 363.766 224.907C365.974 217.136 358.949 214.183 356.174 216.957Z" fill="#3173FB"/>
<path d="M359.459 200.876C359.459 200.876 358.796 202.105 357.568 200.876C356.339 199.648 358.037 197.646 356.753 195.81C355.47 193.975 345.877 199.951 342.592 196.266C337.567 190.745 346.567 184.699 355.677 190.234C362.702 194.43 359.459 200.876 359.459 200.876Z" fill="#67B2F6"/>
<path d="M348.542 281.665L348.473 261.927H333.497C333.497 261.927 329.756 289.118 330.736 313.743C330.929 318.339 331.205 322.839 331.55 327.118H344.774C344.629 311.883 345.89 296.667 348.542 281.665Z" fill="#020646"/>
<path d="M331.551 327.118C333.055 345.765 335.692 360.245 335.692 360.245L346.555 358.864C345.374 348.323 344.789 337.724 344.802 327.118H331.551Z" fill="#FFBDBB"/>
<path d="M356.037 203.03C356.037 203.469 356.167 203.899 356.412 204.264C356.656 204.63 357.003 204.915 357.409 205.083C357.815 205.251 358.262 205.295 358.693 205.209C359.124 205.123 359.52 204.912 359.831 204.601C360.142 204.29 360.353 203.894 360.439 203.463C360.525 203.032 360.481 202.585 360.313 202.179C360.144 201.773 359.859 201.426 359.494 201.182C359.129 200.938 358.699 200.807 358.259 200.807C357.67 200.807 357.105 201.042 356.688 201.458C356.271 201.875 356.037 202.44 356.037 203.03Z" fill="#FFBDBB"/>
<path d="M358.284 201.815C358.124 201.813 357.965 201.843 357.817 201.904C357.669 201.964 357.534 202.054 357.421 202.167C357.308 202.28 357.218 202.414 357.158 202.563C357.098 202.711 357.068 202.87 357.069 203.03C357.055 203.135 357.055 203.242 357.069 203.347C357.152 203.347 357.221 203.251 357.318 203.251C357.423 203.252 357.526 203.282 357.614 203.339C357.703 203.395 357.774 203.475 357.82 203.57C357.866 203.664 357.885 203.77 357.874 203.874C357.863 203.979 357.824 204.078 357.76 204.162C357.909 204.223 358.068 204.255 358.229 204.258C358.53 204.226 358.809 204.084 359.012 203.858C359.215 203.632 359.327 203.34 359.327 203.037C359.327 202.733 359.215 202.441 359.012 202.215C358.809 201.99 358.53 201.847 358.229 201.815H358.284Z" fill="#FE9F99"/>
<path d="M368.76 315.702C366.276 300.519 364.62 261.871 364.62 261.871H346.676C346.676 261.871 348.456 263.458 348.456 279.415C349.775 295.48 352.778 311.362 357.414 326.8L370.486 323.722C369.74 320.644 369.105 317.869 368.76 315.702Z" fill="#020646"/>
<path d="M380.222 354.958C380.222 354.958 373.928 336.697 370.56 323.722L357.42 326.8C363.507 346.842 370.146 358.174 370.146 358.174L380.222 354.958Z" fill="#FFBDBB"/>
<path d="M351.672 204.81L342.935 204.713C341.996 205.666 341.982 212.995 349.16 212.995C356.337 212.995 357.745 208.219 357.317 205.762C357.185 203.794 357.535 201.823 358.339 200.02L357.179 198.406C357.179 198.406 356.586 204.465 351.672 204.81Z" fill="#67B2F6"/>
<path d="M346.527 358.85H335.843C335.492 358.84 335.142 358.907 334.82 359.047C334.497 359.187 334.209 359.396 333.976 359.659C333.743 359.922 333.571 360.234 333.471 360.571C333.372 360.908 333.347 361.263 333.4 361.611H346.692L346.527 358.85Z" fill="#67B2F6"/>
<path d="M352.211 200.876C352.211 200.946 352.197 201.016 352.17 201.08C352.143 201.145 352.103 201.203 352.053 201.252C352.003 201.301 351.943 201.339 351.878 201.365C351.813 201.39 351.743 201.403 351.673 201.401C351.596 201.413 351.517 201.409 351.442 201.388C351.367 201.367 351.298 201.33 351.238 201.279C351.179 201.229 351.131 201.166 351.098 201.095C351.066 201.024 351.049 200.947 351.049 200.869C351.049 200.791 351.066 200.714 351.098 200.644C351.131 200.573 351.179 200.51 351.238 200.459C351.298 200.409 351.367 200.372 351.442 200.351C351.517 200.33 351.596 200.326 351.673 200.338C351.744 200.336 351.815 200.349 351.881 200.375C351.947 200.401 352.008 200.441 352.058 200.491C352.108 200.542 352.148 200.602 352.174 200.668C352.201 200.734 352.213 200.805 352.211 200.876Z" fill="#020646"/>
<path d="M346.373 200.876C346.373 200.946 346.359 201.016 346.332 201.08C346.305 201.145 346.265 201.203 346.215 201.252C346.165 201.301 346.105 201.339 346.04 201.365C345.975 201.39 345.905 201.403 345.835 201.401C345.758 201.413 345.679 201.409 345.604 201.388C345.529 201.367 345.46 201.33 345.4 201.279C345.341 201.229 345.293 201.166 345.261 201.095C345.228 201.024 345.211 200.947 345.211 200.869C345.211 200.791 345.228 200.714 345.261 200.644C345.293 200.573 345.341 200.51 345.4 200.459C345.46 200.409 345.529 200.372 345.604 200.351C345.679 200.33 345.758 200.326 345.835 200.338C345.906 200.336 345.977 200.349 346.043 200.375C346.11 200.401 346.17 200.441 346.22 200.491C346.27 200.542 346.31 200.602 346.336 200.668C346.363 200.734 346.375 200.805 346.373 200.876Z" fill="#020646"/>
<path d="M348.761 200.876C348.761 200.876 350.597 204.493 348.761 204.493C346.925 204.493 348.761 200.876 348.761 200.876Z" fill="#F3999B"/>
<path d="M350.513 205.528H346.924C347.111 205.84 347.373 206.1 347.687 206.286C348 206.471 348.354 206.576 348.718 206.59C349.085 206.592 349.446 206.494 349.762 206.307C350.078 206.12 350.338 205.851 350.513 205.528Z" fill="white"/>
<path d="M352.378 199.247C352.28 199.145 352.162 199.063 352.031 199.007C351.901 198.951 351.76 198.922 351.619 198.922C351.477 198.922 351.336 198.951 351.206 199.007C351.075 199.063 350.957 199.145 350.859 199.247" stroke="#F3999B" stroke-width="0.35" stroke-miterlimit="10"/>
<path d="M346.679 199.248C346.579 199.144 346.461 199.062 346.329 199.006C346.197 198.95 346.056 198.921 345.913 198.921C345.769 198.921 345.628 198.95 345.496 199.006C345.365 199.062 345.246 199.144 345.146 199.248" stroke="#F3999B" stroke-width="0.35" stroke-miterlimit="10"/>
<path d="M353.703 202.823C353.706 203.025 353.648 203.224 353.538 203.394C353.427 203.564 353.268 203.697 353.082 203.776C352.896 203.855 352.69 203.878 352.491 203.84C352.292 203.802 352.108 203.706 351.964 203.564C351.82 203.421 351.721 203.239 351.681 203.041C351.64 202.842 351.66 202.636 351.737 202.449C351.813 202.261 351.944 202.101 352.113 201.988C352.281 201.875 352.479 201.815 352.681 201.815C352.95 201.815 353.208 201.921 353.399 202.109C353.59 202.298 353.699 202.554 353.703 202.823Z" fill="#F3999B"/>
<path d="M345.845 202.823C345.845 203.022 345.786 203.217 345.675 203.382C345.565 203.548 345.407 203.677 345.223 203.753C345.039 203.83 344.837 203.85 344.641 203.811C344.446 203.772 344.266 203.676 344.125 203.535C343.984 203.394 343.888 203.215 343.849 203.019C343.811 202.824 343.831 202.621 343.907 202.437C343.983 202.253 344.112 202.095 344.278 201.985C344.444 201.874 344.638 201.815 344.838 201.815C345.105 201.815 345.361 201.921 345.55 202.11C345.739 202.299 345.845 202.555 345.845 202.823Z" fill="#F3999B"/>
<path d="M37.5751 217.84C45.0977 215.59 62.5446 215.715 72.0824 190.58C77.6035 190.58 76.7202 191.228 76.7202 191.228C76.7202 191.228 75.5055 218.351 48.3138 226.978C31.3224 232.375 30.37 226.067 31.9159 222.658C32.4503 221.49 33.2339 220.454 34.2115 219.622C35.1892 218.789 36.3373 218.181 37.5751 217.84Z" fill="#FE9F99"/>
<path d="M147.06 120.184C144.044 118.804 140.716 118.254 137.417 118.591C134.118 118.929 130.969 120.141 128.296 122.102C125.622 124.064 123.521 126.704 122.209 129.749C120.897 132.794 120.423 136.135 120.834 139.425L104.271 127.334C103.609 126.853 102.859 126.508 102.064 126.317C101.269 126.127 100.444 126.095 99.6368 126.223C98.8293 126.351 98.0549 126.637 97.358 127.064C96.661 127.492 96.0551 128.053 95.5748 128.714L55.367 183.815C54.3959 185.154 53.9958 186.823 54.2547 188.456C54.5135 190.089 55.41 191.553 56.7473 192.525L111.724 232.691C113.062 233.662 114.732 234.063 116.365 233.804C117.998 233.545 119.461 232.648 120.434 231.311L132.539 214.748C128.928 215.2 125.263 214.585 121.997 212.979C118.73 211.374 116.005 208.847 114.158 205.712C112.31 202.576 111.42 198.968 111.598 195.333C111.776 191.698 113.013 188.194 115.159 185.254C117.304 182.313 120.262 180.065 123.67 178.786C127.077 177.507 130.784 177.253 134.334 178.055C137.884 178.858 141.122 180.682 143.648 183.302C146.174 185.922 147.878 189.224 148.55 192.801L160.642 176.238C161.124 175.577 161.471 174.827 161.662 174.032C161.854 173.236 161.887 172.411 161.758 171.603C161.63 170.795 161.344 170.02 160.915 169.323C160.487 168.626 159.925 168.021 159.261 167.542L142.698 155.45C146.585 154.72 150.139 152.771 152.845 149.886C155.551 147.001 157.269 143.33 157.75 139.404C158.231 135.478 157.451 131.501 155.521 128.048C153.592 124.595 150.614 121.846 147.018 120.198L147.06 120.184Z" fill="#3173FB"/>
<path d="M62.0353 260.933C62.0353 260.933 65.7759 290.678 64.7959 315.302C64.1092 330.88 62.4682 346.4 59.882 361.777L49.0053 360.397C49.0053 360.397 54.0848 321.224 47.0039 283.211L47.0729 263.473L62.0353 260.933Z" fill="#FFBDBB"/>
<path d="M48.1474 260.588C48.1474 260.588 49.9003 290.678 48.9065 315.303C48.2198 330.88 46.5788 346.4 43.9927 361.777L33.116 360.397C35.4214 339.477 35.4584 318.369 33.2264 297.442C31.8839 286.219 31.2017 274.927 31.1836 263.625V263.473L48.1474 260.588Z" fill="#FFBDBB"/>
<path d="M27.7207 307.159L30.9506 226.688C30.9506 224.239 31.9234 221.89 33.6552 220.158C35.3869 218.427 37.7357 217.454 40.1847 217.454H52.3727C57.6178 217.454 61.8691 222.547 61.8691 228.827L67.8043 307.159H27.7207Z" fill="#56BFEF"/>
<path d="M49.3772 210.538H40.0879V219.414H49.3772V210.538Z" fill="#FFBDBB"/>
<path d="M44.7416 211.449C52.6921 211.449 52.6921 209.6 52.6921 205.224V200.531C52.6884 198.424 51.8496 196.404 50.3594 194.914C48.8692 193.423 46.8491 192.584 44.7416 192.581C42.6329 192.584 40.6113 193.423 39.1189 194.913C37.6265 196.402 36.7846 198.423 36.7773 200.531V205.224C36.7773 209.6 40.3661 211.449 44.7416 211.449Z" fill="#FFBDBB"/>
<path d="M49.0289 360.41H59.7124C60.0638 360.4 60.4132 360.467 60.7358 360.607C61.0584 360.747 61.3464 360.956 61.5794 361.219C61.8124 361.482 61.9848 361.794 62.0843 362.131C62.1839 362.468 62.2082 362.823 62.1555 363.17H48.8633L49.0289 360.41Z" fill="#020646"/>
<path d="M33.1188 360.41H43.8022C44.1537 360.4 44.503 360.467 44.8256 360.607C45.1483 360.747 45.4362 360.956 45.6692 361.219C45.9023 361.482 46.0746 361.794 46.1742 362.131C46.2737 362.468 46.298 362.823 46.2453 363.17H32.9531L33.1188 360.41Z" fill="#020646"/>
<path d="M50.881 216.708C58.4036 214.472 75.8643 214.583 85.3883 189.461C90.9094 189.461 90.0122 190.11 90.0122 190.11C90.0122 190.11 88.7976 217.233 61.6197 225.86C44.6283 231.257 43.6759 224.949 45.208 221.539C45.7477 220.372 46.5344 219.335 47.5139 218.501C48.4933 217.667 49.6422 217.055 50.881 216.708Z" fill="#FFBDBB"/>
<path d="M87.1282 186.908C88.1634 184.423 89.2539 182.587 90.993 183.829C92.7322 185.072 89.4885 191.159 89.4885 191.159L85.3477 189.875C86.231 184.975 87.6251 184.092 87.1282 186.908Z" fill="#FFBDBB"/>
<path d="M49.2402 200.973C49.2402 201.116 49.2969 201.253 49.3979 201.354C49.4989 201.455 49.6358 201.511 49.7785 201.511C49.8497 201.513 49.9206 201.501 49.9868 201.474C50.053 201.448 50.113 201.408 50.1634 201.358C50.2138 201.308 50.2534 201.248 50.2797 201.181C50.3061 201.115 50.3188 201.044 50.3169 200.973C50.3169 200.83 50.2601 200.693 50.1592 200.592C50.0582 200.492 49.9213 200.435 49.7785 200.435C49.6369 200.438 49.502 200.496 49.4018 200.596C49.3016 200.697 49.2437 200.831 49.2402 200.973Z" fill="#020646"/>
<path d="M49.0723 199.372C49.1714 199.268 49.2904 199.186 49.4221 199.13C49.5537 199.074 49.6953 199.045 49.8384 199.045C49.9814 199.045 50.123 199.074 50.2546 199.13C50.3863 199.186 50.5052 199.268 50.6044 199.372" stroke="#F3999B" stroke-width="0.35" stroke-miterlimit="10"/>
<path d="M47.7617 202.961C47.7617 203.16 47.8208 203.355 47.9315 203.52C48.0422 203.686 48.1996 203.815 48.3837 203.891C48.5678 203.968 48.7704 203.988 48.9659 203.949C49.1613 203.91 49.3409 203.814 49.4818 203.673C49.6227 203.532 49.7187 203.353 49.7576 203.157C49.7965 202.962 49.7765 202.759 49.7002 202.575C49.624 202.391 49.4948 202.233 49.3291 202.123C49.1634 202.012 48.9686 201.953 48.7693 201.953C48.637 201.953 48.506 201.979 48.3837 202.03C48.2615 202.08 48.1504 202.154 48.0568 202.248C47.9633 202.342 47.8891 202.453 47.8384 202.575C47.7878 202.697 47.7617 202.828 47.7617 202.961Z" fill="#F3999B"/>
<path d="M52.6875 200.987V204.589C54.5095 204.589 52.7151 201.028 52.6875 200.987Z" fill="#F3999B"/>
<path d="M50.9941 205.486C51.1927 205.777 51.4526 206.02 51.7555 206.199C52.0584 206.378 52.3969 206.488 52.7471 206.522V205.486H50.9941Z" fill="white"/>
<path d="M50.991 213.409C47.6369 210.649 43.4684 206.411 44.2137 202.505C44.2443 202.388 44.3065 202.281 44.3934 202.197C44.4804 202.112 44.5889 202.053 44.707 202.026C44.8251 201.999 44.9484 202.005 45.0634 202.043C45.1785 202.081 45.2809 202.15 45.3594 202.243C46.3808 203.499 47.8853 203.002 46.5464 199.123C47.3597 198.606 48.2827 198.287 49.2414 198.191C50.2002 198.096 51.1681 198.226 52.0676 198.571C55.0076 199.731 55.5735 194.223 48.9481 191.877C43.1509 189.82 35.4903 192.815 34.5655 198.626C33.5441 205.141 35.863 206.908 26.7255 215.19C20.7626 220.587 23.7165 229.835 40.0867 229.835C56.4569 229.835 58.7896 219.745 50.991 213.409Z" fill="#020646"/>
<path d="M46.3137 203.168C46.3137 203.607 46.1833 204.037 45.9391 204.402C45.695 204.768 45.3479 205.053 44.9418 205.221C44.5358 205.389 44.089 205.433 43.6579 205.347C43.2268 205.261 42.8308 205.05 42.5201 204.739C42.2093 204.428 41.9976 204.032 41.9118 203.601C41.8261 203.17 41.8701 202.723 42.0383 202.317C42.2065 201.911 42.4913 201.564 42.8568 201.32C43.2222 201.076 43.6519 200.945 44.0914 200.945C44.6808 200.945 45.246 201.179 45.6628 201.596C46.0795 202.013 46.3137 202.578 46.3137 203.168Z" fill="#FFBDBB"/>
<path d="M44.0891 201.953C44.2492 201.951 44.4079 201.981 44.5561 202.042C44.7043 202.102 44.839 202.191 44.9521 202.305C45.0653 202.418 45.1547 202.552 45.2151 202.701C45.2755 202.849 45.3056 203.008 45.3038 203.168C45.3182 203.273 45.3182 203.38 45.3038 203.485C45.2301 203.433 45.1448 203.4 45.0553 203.388C44.9799 203.388 44.9051 203.404 44.8355 203.433C44.7659 203.462 44.7029 203.505 44.6502 203.559C44.5975 203.613 44.5561 203.677 44.5285 203.747C44.5009 203.818 44.4876 203.893 44.4894 203.968C44.4921 204.085 44.5361 204.198 44.6136 204.286C44.4666 204.353 44.3061 204.386 44.1443 204.382C43.8222 204.382 43.5133 204.254 43.2855 204.027C43.0577 203.799 42.9297 203.49 42.9297 203.168C42.9297 202.845 43.0577 202.537 43.2855 202.309C43.5133 202.081 43.8222 201.953 44.1443 201.953H44.0891Z" fill="#FE9F99"/>
<path d="M112.538 273.797C113.574 271.298 114.664 269.463 116.403 270.719C118.142 271.975 114.899 278.034 114.899 278.034L110.758 276.764C111.641 271.864 113.104 270.967 112.538 273.797Z" fill="#FFBDBB"/>
<path d="M98.2679 269.159H88.9785V278.035H98.2679V269.159Z" fill="#FFBDBB"/>
<path d="M114.897 278.034C114.897 278.034 110.991 298.642 102.129 299.525C93.2677 300.409 82.9156 292.845 80.6933 285.088C78.471 277.33 85.4967 274.363 88.2711 277.137C91.0455 279.912 94.5928 287.986 101.936 290.816C107.305 281.568 110.756 276.764 110.756 276.764L114.897 278.034Z" fill="#3173FB"/>
<path d="M79.8379 323.722V282.907C79.8361 282.016 80.0101 281.133 80.3498 280.309C80.6896 279.485 81.1885 278.737 81.818 278.106C82.4475 277.475 83.1953 276.975 84.0184 276.633C84.8416 276.292 85.724 276.116 86.6151 276.116H101.26C106.505 276.116 110.756 281.223 110.756 287.503V323.722H79.8379Z" fill="#3173FB"/>
<path d="M79.8414 322.121C79.8414 322.121 78.1713 360.686 75.7005 375.952C73.8509 387.284 64.2441 415.208 64.2441 415.208L74.2512 418.437C74.2512 418.437 91.8499 388.43 95.9908 339.761C95.9908 323.805 97.7576 322.231 97.7576 322.231L79.8414 322.121Z" fill="#67B2F6"/>
<path d="M110.758 322.121C110.758 322.121 114.706 349.299 113.712 373.924C113.024 389.483 111.378 404.985 108.784 420.343L97.9214 418.962C97.9214 418.962 103.001 379.79 95.9199 341.777L95.989 322.052L110.758 322.121Z" fill="#67B2F6"/>
<path d="M132.21 279.553C132.21 279.553 128.442 298.656 119.58 299.539C110.719 300.423 100.367 292.858 98.1445 285.101C95.9222 277.344 102.948 274.376 105.722 277.151C108.497 279.925 112.044 288 119.387 290.83C124.756 281.582 128.069 278.283 128.069 278.283L132.21 279.553Z" fill="#3173FB"/>
<path d="M93.6848 270.885C101.649 270.885 101.649 269.049 101.649 264.673V259.967C101.642 257.858 100.8 255.838 99.3075 254.348C97.8151 252.858 95.7936 252.02 93.6848 252.016C91.5773 252.02 89.5572 252.859 88.067 254.349C86.5768 255.839 85.738 257.859 85.7344 259.967V264.673C85.7344 269.049 89.3093 270.885 93.6848 270.885Z" fill="#FFBDBB"/>
<path d="M98.7356 260.96C99.0329 260.96 99.2739 260.719 99.2739 260.422C99.2739 260.125 99.0329 259.884 98.7356 259.884C98.4383 259.884 98.1973 260.125 98.1973 260.422C98.1973 260.719 98.4383 260.96 98.7356 260.96Z" fill="#020646"/>
<path d="M98.0352 258.848C98.1331 258.746 98.2509 258.664 98.3814 258.608C98.5119 258.552 98.6524 258.523 98.7943 258.523C98.9363 258.523 99.0767 258.552 99.2072 258.608C99.3377 258.664 99.4555 258.746 99.5535 258.848" stroke="#F3999B" stroke-width="0.35" stroke-miterlimit="10"/>
<path d="M96.7071 262.396C96.7044 262.598 96.7619 262.797 96.8725 262.967C96.9831 263.137 97.1416 263.27 97.328 263.349C97.5144 263.428 97.7202 263.451 97.9192 263.413C98.1183 263.375 98.3015 263.279 98.4458 263.137C98.59 262.994 98.6887 262.812 98.7292 262.614C98.7697 262.415 98.7504 262.209 98.6735 262.022C98.5966 261.834 98.4657 261.674 98.2974 261.561C98.1292 261.448 97.9311 261.388 97.7285 261.388C97.46 261.388 97.2023 261.494 97.0111 261.682C96.82 261.871 96.7108 262.127 96.7071 262.396Z" fill="#F3999B"/>
<path d="M101.648 260.422V264.038C103.443 264.025 101.676 260.464 101.648 260.422Z" fill="#F3999B"/>
<path d="M99.8945 264.921C100.092 265.21 100.349 265.452 100.65 265.631C100.95 265.81 101.286 265.921 101.634 265.957V264.921H99.8945Z" fill="white"/>
<path d="M93.1177 261.941C93.1483 261.823 93.2105 261.717 93.2975 261.632C93.3844 261.548 93.4929 261.489 93.611 261.462C93.7291 261.435 93.8524 261.441 93.9674 261.479C94.0825 261.517 94.1849 261.586 94.2634 261.678C94.9397 262.52 95.8369 262.576 95.9611 261.375C95.9798 260.808 96.1271 260.253 96.3918 259.752C96.6566 259.25 97.0318 258.816 97.4892 258.481C97.9466 258.145 98.4741 257.919 99.032 257.818C99.5899 257.716 100.163 257.743 100.709 257.896L101.013 258.007C103.953 259.166 104.519 253.659 97.9073 251.312C95.8897 250.62 93.7253 250.471 91.6318 250.88C89.5383 251.29 87.5896 252.243 85.9817 253.645C83.3177 256.13 82.9726 259.994 83.2211 263.445C83.4971 267.586 85.4986 271.396 90.1225 271.396C99.4119 271.396 93.0763 262.396 93.0763 262.396" fill="#020646"/>
<path d="M93.0485 264.825C94.2758 264.825 95.2707 263.83 95.2707 262.603C95.2707 261.375 94.2758 260.38 93.0485 260.38C91.8211 260.38 90.8262 261.375 90.8262 262.603C90.8262 263.83 91.8211 264.825 93.0485 264.825Z" fill="#FFBDBB"/>
<path d="M93.0499 261.388C93.3721 261.388 93.681 261.516 93.9088 261.744C94.1366 261.972 94.2646 262.281 94.2646 262.603C94.2562 262.711 94.233 262.818 94.1955 262.92C94.1281 262.867 94.0467 262.833 93.9609 262.824C93.8072 262.824 93.6597 262.885 93.551 262.994C93.4423 263.102 93.3812 263.25 93.3812 263.403C93.3919 263.525 93.4401 263.641 93.5192 263.735C93.3696 263.794 93.2108 263.827 93.0499 263.831C92.8786 263.85 92.7054 263.832 92.5415 263.779C92.3775 263.725 92.2266 263.638 92.0985 263.523C91.9704 263.408 91.8679 263.267 91.7978 263.11C91.7277 262.952 91.6914 262.782 91.6914 262.61C91.6914 262.438 91.7277 262.267 91.7978 262.11C91.8679 261.952 91.9704 261.812 92.0985 261.696C92.2266 261.581 92.3775 261.494 92.5415 261.441C92.7054 261.388 92.8786 261.37 93.0499 261.388Z" fill="#FE9F99"/>
<path d="M129.849 275.301C130.884 272.803 131.975 270.967 133.714 272.209C135.453 273.452 132.209 279.539 132.209 279.539L128.068 278.269C128.952 273.369 130.346 272.472 129.849 275.301Z" fill="#FFBDBB"/>
<path d="M64.2443 415.139L74.4585 418.41C74.7789 418.521 75.0723 418.698 75.3194 418.93C75.5665 419.162 75.7616 419.444 75.892 419.757C76.0224 420.069 76.0851 420.406 76.0759 420.745C76.0667 421.084 75.9859 421.417 75.8388 421.723L63.1953 417.665L64.2443 415.139Z" fill="#020646"/>
<path d="M97.9195 419.031H108.603C108.954 419.024 109.302 419.093 109.623 419.233C109.945 419.374 110.232 419.583 110.464 419.845C110.697 420.108 110.869 420.418 110.97 420.755C111.07 421.091 111.096 421.445 111.046 421.792H97.7539L97.9195 419.031Z" fill="#020646"/>
<path d="M0 516.152C0 516.152 26.1631 493 77.482 493C128.801 493 148.816 509.98 180.787 525.341C227.88 547.949 327.49 573.933 390 542.723V785H0L0 516.152Z" fill="#ECE8EF"/>
<defs>
<linearGradient id="paint0_linear_1787_428" x1="237.833" y1="825.701" x2="-217.362" y2="360.036" gradientUnits="userSpaceOnUse">
<stop stop-color="#21196F"/>
<stop offset="0.23" stop-color="#2A1B70"/>
<stop offset="0.62" stop-color="#422272"/>
<stop offset="1" stop-color="#612A74"/>
</linearGradient>
</defs>
</svg>
