<svg width="15" height="14" viewBox="0 0 15 14" fill="none" xmlns="http://www.w3.org/2000/svg">
<path d="M10.9292 13.9673C10.1457 13.9518 9.37334 13.7793 8.65761 13.4603C7.8074 13.0919 7.00147 12.6292 6.25465 12.0807C5.99714 11.8872 5.74043 11.6947 5.49192 11.4912L4.31461 10.4411C4.27231 10.4147 4.23275 10.3839 4.19693 10.3492C4.12093 10.2727 4.04247 10.2041 3.96596 10.1281C3.26106 9.4191 2.61101 8.6577 2.02104 7.8505C1.47962 7.11142 1.02025 6.31554 0.651346 5.47691C0.341705 4.75659 0.174126 3.98316 0.158157 3.19927C0.155849 2.73948 0.240683 2.28342 0.40817 1.85521C0.587534 1.41333 0.862254 1.01643 1.21241 0.692676C1.3979 0.492661 1.62117 0.331665 1.86967 0.219142C2.11866 0.10739 2.3874 0.0462112 2.66024 0.0391402C2.85583 0.0369838 3.04923 0.0797506 3.22569 0.164146C3.41462 0.248804 3.57704 0.383465 3.69496 0.553631L5.30929 2.82926C5.42189 2.97938 5.5156 3.14299 5.58763 3.31628C5.649 3.45039 5.6831 3.59541 5.68773 3.74282C5.68395 3.91739 5.6327 4.08769 5.54026 4.23582C5.43247 4.4163 5.30203 4.58201 5.15157 4.72883L4.62274 5.2789C4.58547 5.31526 4.55555 5.35831 4.53435 5.40586C4.51612 5.45459 4.50758 5.5064 4.50896 5.5584C4.50731 5.61206 4.51456 5.66563 4.53045 5.71691C4.55045 5.77542 4.57412 5.81691 4.58562 5.85791C4.77362 6.17467 4.99034 6.47346 5.23312 6.75047C5.54813 7.11049 5.88288 7.48049 6.2444 7.8505C6.2974 7.90401 6.35447 7.95701 6.40847 8.00951L7.76449 9.20256C7.91886 9.31726 8.08061 9.42151 8.24889 9.51459C8.2899 9.53009 8.32978 9.5516 8.37878 9.5716C8.43454 9.59164 8.4934 9.601 8.55262 9.59913C8.60586 9.60122 8.65866 9.59109 8.70741 9.56958C8.75732 9.55081 8.80252 9.52067 8.83877 9.48157L9.36907 8.95908C9.51609 8.80525 9.68449 8.67336 9.86909 8.56752C10.0177 8.47319 10.1901 8.42295 10.3662 8.42255C10.5131 8.4241 10.6584 8.45465 10.7935 8.51252C10.9645 8.58536 11.127 8.6766 11.2783 8.78457L13.5895 10.4206C13.7559 10.5307 13.8879 10.6852 13.9709 10.8666C14.0441 11.038 14.082 11.2223 14.0827 11.4087C14.0832 11.6113 14.0467 11.8123 13.9748 12.0017C13.9586 12.0597 13.9357 12.1156 13.9064 12.1682C13.7848 12.4275 13.6258 12.6675 13.4347 12.8808C13.1199 13.2361 12.7299 13.5163 12.2926 13.7008C12.2846 13.7008 12.2766 13.7068 12.2686 13.7068C11.8489 13.8775 11.4003 13.9653 10.9473 13.9653L10.9292 13.9673Z" fill="#6B16A8"/>
</svg>
