<svg width="12" height="18" viewBox="0 0 12 18" fill="none" xmlns="http://www.w3.org/2000/svg">
<path d="M11.5942 10.041C11.0002 11.0701 9.80369 11.6391 8.23071 11.6391L6.74777 11.6391L6.74777 16.673C6.75124 16.7024 6.75298 16.732 6.75298 16.7616C6.7532 16.8594 6.73414 16.9562 6.69689 17.0465C6.65964 17.1369 6.60493 17.219 6.53589 17.2882C6.46686 17.3574 6.38485 17.4122 6.29457 17.4497C6.20429 17.4871 6.10751 17.5064 6.00978 17.5063C5.59811 17.5063 5.2546 17.1721 5.2546 16.7606C5.2546 16.7402 5.2554 16.72 5.25701 16.7002L5.25701 11.6391L3.7627 11.6391C2.18974 11.6391 0.993214 11.0701 0.399192 10.041C-0.194951 9.00344 -0.0861561 7.68978 0.700395 6.32602L2.93441 2.45207C3.72085 1.08821 4.80857 0.335258 5.99662 0.335258C7.18466 0.335258 8.27251 1.08826 9.0674 2.45207L11.3013 6.32601C11.7531 7.10406 11.9791 7.87393 11.9791 8.57677C11.9791 9.10388 11.8536 9.59744 11.5942 10.041ZM1.68957 9.25961C2.03319 9.85906 2.80834 10.1866 3.86323 10.1866L8.13069 10.1866C9.18545 10.1866 9.9607 9.85906 10.3043 9.25961C10.648 8.66017 10.544 7.82913 10.0166 6.91007L7.88287 3.21003C7.35555 2.29116 6.68421 1.78761 5.99698 1.78761C5.30975 1.78761 4.63843 2.29121 4.11099 3.21003L1.97728 6.91007C1.64957 7.46947 1.48979 7.99681 1.48979 8.46052C1.48564 8.73976 1.5545 9.01524 1.68955 9.25968L1.68957 9.25961Z" fill="#56566F"/>
</svg>
