<svg width="255" height="44" viewBox="0 0 255 44" fill="none" xmlns="http://www.w3.org/2000/svg">
<rect y="-0.000244141" width="255" height="44" rx="8" fill="#6B16A8"/>
<g clip-path="url(#clip0_923_2010)">
<path d="M66.315 28.9671C65.5316 28.9515 64.7592 28.7791 64.0434 28.46C63.1932 28.0917 62.3873 27.6289 61.6405 27.0805C61.383 26.8869 61.1263 26.6945 60.8778 26.4909L59.7004 25.4409C59.6581 25.4145 59.6186 25.3836 59.5828 25.3489C59.5068 25.2724 59.4283 25.2039 59.3518 25.1279C58.6469 24.4189 57.9968 23.6575 57.4069 22.8503C56.8655 22.1112 56.4061 21.3153 56.0372 20.4767C55.7275 19.7563 55.56 18.9829 55.544 18.199C55.5417 17.7392 55.6265 17.2832 55.794 16.855C55.9734 16.4131 56.2481 16.0162 56.5982 15.6924C56.7837 15.4924 57.007 15.3314 57.2555 15.2189C57.5045 15.1071 57.7732 15.046 58.0461 15.0389C58.2417 15.0367 58.4351 15.0795 58.6115 15.1639C58.8005 15.2486 58.9629 15.3832 59.0808 15.5534L60.6951 17.829C60.8077 17.9791 60.9014 18.1427 60.9735 18.316C61.0348 18.4501 61.0689 18.5952 61.0736 18.7426C61.0698 18.9171 61.0185 19.0874 60.9261 19.2356C60.8183 19.4161 60.6879 19.5818 60.5374 19.7286L60.0086 20.2787C59.9713 20.315 59.9414 20.3581 59.9202 20.4056C59.902 20.4543 59.8934 20.5062 59.8948 20.5582C59.8931 20.6118 59.9004 20.6654 59.9163 20.7167C59.9363 20.7752 59.96 20.8167 59.9715 20.8577C60.1594 21.1744 60.3762 21.4732 60.619 21.7502C60.934 22.1102 61.2687 22.4802 61.6302 22.8503C61.6832 22.9038 61.7403 22.9568 61.7943 23.0093L63.1503 24.2023C63.3047 24.317 63.4664 24.4213 63.6347 24.5143C63.6757 24.5298 63.7156 24.5514 63.7646 24.5714C63.8204 24.5914 63.8792 24.6008 63.9385 24.5989C63.9917 24.601 64.0445 24.5908 64.0932 24.5693C64.1432 24.5506 64.1884 24.5204 64.2246 24.4813L64.7549 23.9588C64.9019 23.805 65.0703 23.6731 65.2549 23.5673C65.4036 23.4729 65.576 23.4227 65.752 23.4223C65.8989 23.4239 66.0443 23.4544 66.1793 23.5123C66.3503 23.5851 66.5128 23.6764 66.6642 23.7843L68.9753 25.4204C69.1417 25.5305 69.2737 25.685 69.3567 25.8664C69.4299 26.0378 69.4678 26.2221 69.4685 26.4084C69.4691 26.611 69.4326 26.8121 69.3606 27.0015C69.3444 27.0595 69.3215 27.1154 69.2922 27.168C69.1707 27.4272 69.0116 27.6673 68.8205 27.8805C68.5058 28.2359 68.1158 28.516 67.6784 28.7005C67.6704 28.7005 67.6625 28.7066 67.6545 28.7066C67.2348 28.8772 66.7862 28.965 66.3331 28.9651L66.315 28.9671Z" fill="#ECE8EF"/>
</g>
<path d="M82.5 15.4998L89.5 21.9998L82.5 28.4998" stroke="#ECE8EF" stroke-width="1.5" stroke-linecap="round" stroke-linejoin="round"/>
<path d="M102.364 26.0958V19.2478H104.444V26.0958H102.364ZM99.98 23.5198V21.7438H106.828V23.5198H99.98ZM115.264 20.6718C115.264 21.3758 115.174 22.0904 114.992 22.8158C114.822 23.5304 114.582 24.2291 114.273 24.9118C113.974 25.5838 113.622 26.2184 113.216 26.8158C112.811 27.4024 112.379 27.9144 111.92 28.3518L110.304 27.2478C110.624 26.8638 110.944 26.4798 111.264 26.0958C111.584 25.7011 111.872 25.2638 112.128 24.7838C112.395 24.2931 112.608 23.7171 112.768 23.0558C112.928 22.3944 113.008 21.5998 113.008 20.6718H115.264ZM115.264 19.9038V20.4798H113.008V19.9038H115.264ZM110.768 19.9038V20.4798H108.512V19.9038H110.768ZM108.512 19.9198C108.512 19.2264 108.662 18.6131 108.96 18.0798C109.259 17.5358 109.659 17.1091 110.16 16.7998C110.672 16.4798 111.254 16.3198 111.904 16.3198V18.0798C111.542 18.0798 111.259 18.2398 111.056 18.5598C110.864 18.8798 110.768 19.3331 110.768 19.9198H108.512ZM115.264 19.9198H113.008C113.008 19.3331 112.907 18.8798 112.704 18.5598C112.512 18.2398 112.24 18.0798 111.888 18.0798V16.3198C112.539 16.3198 113.115 16.4798 113.616 16.7998C114.128 17.1091 114.528 17.5358 114.816 18.0798C115.115 18.6131 115.264 19.2264 115.264 19.9198ZM108.512 20.4638H110.768C110.768 21.0398 110.864 21.4931 111.056 21.8238C111.259 22.1438 111.542 22.3038 111.904 22.3038V24.0638C111.254 24.0638 110.672 23.9091 110.16 23.5998C109.659 23.2798 109.259 22.8478 108.96 22.3038C108.662 21.7598 108.512 21.1464 108.512 20.4638ZM115.264 20.4638C115.264 21.1464 115.115 21.7598 114.816 22.3038C114.528 22.8478 114.128 23.2798 113.616 23.5998C113.115 23.9091 112.539 24.0638 111.888 24.0638V22.3038C112.24 22.3038 112.512 22.1438 112.704 21.8238C112.907 21.4931 113.008 21.0398 113.008 20.4638H115.264ZM122.422 24.3838C122.422 23.8184 122.31 23.3811 122.086 23.0718C121.873 22.7624 121.569 22.6078 121.174 22.6078V21.3278C122.273 21.3278 123.131 21.6104 123.75 22.1758C124.369 22.7304 124.678 23.5091 124.678 24.5118L122.422 24.3838ZM121.174 28.2558C120.075 28.2558 119.217 27.9518 118.598 27.3438C117.979 26.7358 117.67 25.8878 117.67 24.7998L119.926 24.6878C119.926 25.0611 119.974 25.3864 120.07 25.6638C120.177 25.9304 120.321 26.1331 120.502 26.2718C120.694 26.4104 120.918 26.4798 121.174 26.4798V28.2558ZM117.67 24.7998V24.5118L119.926 24.3838V24.6878L117.67 24.7998ZM121.174 28.2558V26.4798C121.441 26.4798 121.665 26.4104 121.846 26.2718C122.027 26.1331 122.166 25.9304 122.262 25.6638C122.369 25.3864 122.422 25.0611 122.422 24.6878L124.678 24.7998C124.678 25.8878 124.369 26.7358 123.75 27.3438C123.131 27.9518 122.273 28.2558 121.174 28.2558ZM117.67 24.5118C117.67 23.5091 117.979 22.7304 118.598 22.1758C119.217 21.6104 120.075 21.3278 121.174 21.3278V22.6078C120.79 22.6078 120.486 22.7624 120.262 23.0718C120.038 23.3811 119.926 23.8184 119.926 24.3838L117.67 24.5118ZM122.422 24.6878V24.3838L124.678 24.5118V24.7998L122.422 24.6878ZM121.174 22.6078C120.129 22.6078 119.307 22.3464 118.71 21.8238C118.113 21.3011 117.814 20.5864 117.814 19.6798L120.07 19.8078C120.07 20.2878 120.166 20.6611 120.358 20.9278C120.55 21.1944 120.822 21.3278 121.174 21.3278V22.6078ZM117.814 19.6798V19.4718L120.07 19.5838V19.8078L117.814 19.6798ZM121.174 22.6078V21.3278C121.537 21.3278 121.809 21.1944 121.99 20.9278C122.182 20.6611 122.278 20.2878 122.278 19.8078L124.534 19.6798C124.534 20.5864 124.235 21.3011 123.638 21.8238C123.051 22.3464 122.23 22.6078 121.174 22.6078ZM117.814 19.4718C117.814 18.4904 118.113 17.7224 118.71 17.1678C119.307 16.6024 120.129 16.3198 121.174 16.3198V18.0798C120.939 18.0798 120.737 18.1384 120.566 18.2558C120.406 18.3731 120.283 18.5438 120.198 18.7678C120.113 18.9918 120.07 19.2638 120.07 19.5838L117.814 19.4718ZM122.278 19.8078V19.5838L124.534 19.4718V19.6798L122.278 19.8078ZM122.278 19.5838C122.278 19.2638 122.235 18.9918 122.15 18.7678C122.065 18.5438 121.937 18.3731 121.766 18.2558C121.606 18.1384 121.409 18.0798 121.174 18.0798V16.3198C122.23 16.3198 123.051 16.6024 123.638 17.1678C124.235 17.7224 124.534 18.4904 124.534 19.4718L122.278 19.5838ZM126.912 23.5678V21.7918H131.84V23.5678H126.912ZM134.851 20.6238L133.603 19.3278L136.131 16.5598V19.2158L134.851 20.6238ZM136.131 27.9998V16.5598H138.387V27.9998H136.131ZM141.29 26.2238C141.3 25.5518 141.402 24.9758 141.594 24.4958C141.786 24.0158 142.031 23.6104 142.33 23.2798C142.639 22.9384 142.964 22.6291 143.306 22.3518C143.647 22.0744 143.967 21.8024 144.266 21.5358C144.575 21.2691 144.826 20.9811 145.018 20.6718C145.21 20.3518 145.306 19.9784 145.306 19.5518C145.306 19.5518 145.38 19.5518 145.53 19.5518C145.69 19.5518 145.882 19.5518 146.106 19.5518C146.33 19.5518 146.554 19.5518 146.778 19.5518C147.002 19.5518 147.188 19.5518 147.338 19.5518C147.487 19.5518 147.562 19.5518 147.562 19.5518C147.562 20.1811 147.466 20.7144 147.274 21.1518C147.082 21.5891 146.831 21.9678 146.522 22.2878C146.212 22.5971 145.887 22.8851 145.546 23.1518C145.204 23.4078 144.879 23.6744 144.57 23.9518C144.26 24.2291 144.004 24.5491 143.802 24.9118C143.61 25.2638 143.508 25.7011 143.498 26.2238H141.29ZM141.29 27.9998V26.2238H147.514V27.9998H141.29ZM142.954 19.3438L140.954 18.9758C141.05 18.4104 141.236 17.9251 141.514 17.5198C141.802 17.1144 142.17 16.8051 142.618 16.5918C143.066 16.3784 143.572 16.2718 144.138 16.2718V18.0318C143.828 18.0318 143.567 18.1438 143.354 18.3678C143.14 18.5811 143.007 18.9064 142.954 19.3438ZM147.562 19.5678H145.306C145.306 19.0984 145.199 18.7251 144.986 18.4478C144.772 18.1704 144.484 18.0318 144.122 18.0318V16.2718C144.783 16.2718 145.37 16.4158 145.882 16.7038C146.404 16.9811 146.815 17.3704 147.114 17.8718C147.412 18.3731 147.562 18.9384 147.562 19.5678ZM152.489 22.9438V21.1838C152.819 21.1838 153.081 21.0398 153.273 20.7518C153.475 20.4531 153.577 20.0584 153.577 19.5678H155.833C155.833 20.2611 155.694 20.8638 155.417 21.3758C155.15 21.8771 154.766 22.2664 154.265 22.5438C153.774 22.8104 153.182 22.9438 152.489 22.9438ZM153.801 24.9758V24.4638H156.057V24.9758H153.801ZM151.529 22.9438V21.1838H152.505V22.9438H151.529ZM153.577 19.5838C153.577 19.1251 153.475 18.7624 153.273 18.4958C153.081 18.2184 152.819 18.0798 152.489 18.0798V16.3198C153.182 16.3198 153.774 16.4531 154.265 16.7198C154.766 16.9864 155.15 17.3651 155.417 17.8558C155.694 18.3358 155.833 18.9118 155.833 19.5838H153.577ZM156.057 24.9598C156.057 25.5891 155.907 26.1544 155.609 26.6558C155.31 27.1464 154.899 27.5358 154.377 27.8238C153.854 28.1118 153.267 28.2558 152.617 28.2558V26.4958C152.969 26.4958 153.251 26.3571 153.465 26.0798C153.689 25.7918 153.801 25.4184 153.801 24.9598H156.057ZM156.057 24.4798H153.801C153.801 24.0104 153.689 23.6371 153.465 23.3598C153.251 23.0824 152.969 22.9438 152.617 22.9438V21.1838C153.267 21.1838 153.854 21.3278 154.377 21.6158C154.899 21.8931 155.31 22.2824 155.609 22.7838C155.907 23.2851 156.057 23.8504 156.057 24.4798ZM151.321 19.3918L149.321 19.0238C149.417 18.4584 149.603 17.9784 149.881 17.5838C150.169 17.1784 150.537 16.8691 150.985 16.6558C151.433 16.4318 151.939 16.3198 152.505 16.3198V18.0798C152.195 18.0798 151.934 18.1918 151.721 18.4158C151.507 18.6398 151.374 18.9651 151.321 19.3918ZM151.433 25.1838C151.486 25.5998 151.619 25.9251 151.833 26.1598C152.057 26.3838 152.323 26.4958 152.633 26.4958V28.2558C152.067 28.2558 151.555 28.1491 151.097 27.9358C150.649 27.7118 150.281 27.3971 149.993 26.9918C149.715 26.5864 149.534 26.1064 149.449 25.5518L151.433 25.1838ZM157.811 24.0958L160.483 16.5598H162.739L160.067 24.0958H157.811ZM157.811 25.8718V24.0958H165.123V25.8718H157.811ZM161.923 27.9998V21.6158H164.019V27.9998H161.923ZM167.366 23.1518V16.5598H169.366V23.1518H167.366ZM171.51 24.6718V23.2638H173.766V24.6718H171.51ZM167.366 18.3358V16.5598H173.414V18.3358H167.366ZM171.51 23.2638C171.51 22.7838 171.398 22.4051 171.174 22.1278C170.961 21.8504 170.673 21.7118 170.31 21.7118L170.726 20.0318C171.313 20.0318 171.836 20.1704 172.294 20.4478C172.753 20.7251 173.11 21.1091 173.366 21.5998C173.633 22.0904 173.766 22.6451 173.766 23.2638H171.51ZM168.118 23.1518C168.118 22.5544 168.23 22.0211 168.454 21.5518C168.689 21.0824 169.004 20.7144 169.398 20.4478C169.793 20.1704 170.241 20.0318 170.742 20.0318L170.31 21.7118C170.033 21.7118 169.804 21.8398 169.622 22.0958C169.452 22.3518 169.366 22.7038 169.366 23.1518H168.118ZM173.766 24.6398C173.766 25.3224 173.617 25.9358 173.318 26.4798C173.02 27.0238 172.614 27.4558 172.102 27.7758C171.601 28.0851 171.025 28.2398 170.374 28.2398V26.4798C170.737 26.4798 171.014 26.3198 171.206 25.9998C171.409 25.6691 171.51 25.2158 171.51 24.6398H173.766ZM169.206 25.1838C169.26 25.5998 169.393 25.9251 169.606 26.1598C169.82 26.3838 170.081 26.4958 170.39 26.4958V28.2558C169.825 28.2558 169.318 28.1491 168.87 27.9358C168.422 27.7118 168.054 27.3971 167.766 26.9918C167.489 26.5864 167.302 26.1064 167.206 25.5518L169.206 25.1838ZM175.936 23.8718C175.936 23.1678 176.022 22.4584 176.192 21.7438C176.374 21.0291 176.614 20.3358 176.912 19.6638C177.222 18.9811 177.579 18.3464 177.984 17.7598C178.4 17.1624 178.838 16.6398 179.296 16.1918L180.896 17.2958C180.587 17.6798 180.272 18.0691 179.952 18.4638C179.632 18.8584 179.339 19.3011 179.072 19.7918C178.806 20.2718 178.592 20.8424 178.432 21.5038C178.272 22.1544 178.192 22.9438 178.192 23.8718H175.936ZM175.936 24.6558V24.0798H178.192V24.6558H175.936ZM180.432 24.6558V24.0798H182.688V24.6558H180.432ZM182.688 24.6398C182.688 25.3224 182.539 25.9358 182.24 26.4798C181.952 27.0238 181.552 27.4558 181.04 27.7758C180.539 28.0851 179.963 28.2398 179.312 28.2398V26.4798C179.664 26.4798 179.936 26.3198 180.128 25.9998C180.331 25.6691 180.432 25.2158 180.432 24.6398H182.688ZM175.936 24.6398H178.192C178.192 25.2158 178.288 25.6691 178.48 25.9998C178.683 26.3198 178.966 26.4798 179.328 26.4798V28.2398C178.678 28.2398 178.096 28.0851 177.584 27.7758C177.083 27.4558 176.683 27.0238 176.384 26.4798C176.086 25.9358 175.936 25.3224 175.936 24.6398ZM182.688 24.0958H180.432C180.432 23.5091 180.331 23.0558 180.128 22.7358C179.936 22.4158 179.664 22.2558 179.312 22.2558V20.4958C179.963 20.4958 180.539 20.6558 181.04 20.9758C181.552 21.2851 181.952 21.7118 182.24 22.2558C182.539 22.7891 182.688 23.4024 182.688 24.0958ZM175.936 24.0958C175.936 23.4024 176.086 22.7891 176.384 22.2558C176.683 21.7118 177.083 21.2851 177.584 20.9758C178.096 20.6558 178.678 20.4958 179.328 20.4958V22.2558C178.966 22.2558 178.683 22.4158 178.48 22.7358C178.288 23.0558 178.192 23.5091 178.192 24.0958H175.936ZM191.366 20.6718C191.366 21.3758 191.275 22.0904 191.094 22.8158C190.923 23.5304 190.683 24.2291 190.374 24.9118C190.075 25.5838 189.723 26.2184 189.318 26.8158C188.912 27.4024 188.48 27.9144 188.022 28.3518L186.406 27.2478C186.726 26.8638 187.046 26.4798 187.366 26.0958C187.686 25.7011 187.974 25.2638 188.23 24.7838C188.496 24.2931 188.71 23.7171 188.87 23.0558C189.03 22.3944 189.11 21.5998 189.11 20.6718H191.366ZM191.366 19.9038V20.4798H189.11V19.9038H191.366ZM186.87 19.9038V20.4798H184.614V19.9038H186.87ZM184.614 19.9198C184.614 19.2264 184.763 18.6131 185.062 18.0798C185.36 17.5358 185.76 17.1091 186.262 16.7998C186.774 16.4798 187.355 16.3198 188.006 16.3198V18.0798C187.643 18.0798 187.36 18.2398 187.158 18.5598C186.966 18.8798 186.87 19.3331 186.87 19.9198H184.614ZM191.366 19.9198H189.11C189.11 19.3331 189.008 18.8798 188.806 18.5598C188.614 18.2398 188.342 18.0798 187.99 18.0798V16.3198C188.64 16.3198 189.216 16.4798 189.718 16.7998C190.23 17.1091 190.63 17.5358 190.918 18.0798C191.216 18.6131 191.366 19.2264 191.366 19.9198ZM184.614 20.4638H186.87C186.87 21.0398 186.966 21.4931 187.158 21.8238C187.36 22.1438 187.643 22.3038 188.006 22.3038V24.0638C187.355 24.0638 186.774 23.9091 186.262 23.5998C185.76 23.2798 185.36 22.8478 185.062 22.3038C184.763 21.7598 184.614 21.1464 184.614 20.4638ZM191.366 20.4638C191.366 21.1464 191.216 21.7598 190.918 22.3038C190.63 22.8478 190.23 23.2798 189.718 23.5998C189.216 23.9091 188.64 24.0638 187.99 24.0638V22.3038C188.342 22.3038 188.614 22.1438 188.806 21.8238C189.008 21.4931 189.11 21.0398 189.11 20.4638H191.366ZM198.523 24.3838C198.523 23.8184 198.411 23.3811 198.187 23.0718C197.974 22.7624 197.67 22.6078 197.275 22.6078V21.3278C198.374 21.3278 199.233 21.6104 199.851 22.1758C200.47 22.7304 200.779 23.5091 200.779 24.5118L198.523 24.3838ZM197.275 28.2558C196.177 28.2558 195.318 27.9518 194.699 27.3438C194.081 26.7358 193.771 25.8878 193.771 24.7998L196.027 24.6878C196.027 25.0611 196.075 25.3864 196.171 25.6638C196.278 25.9304 196.422 26.1331 196.603 26.2718C196.795 26.4104 197.019 26.4798 197.275 26.4798V28.2558ZM193.771 24.7998V24.5118L196.027 24.3838V24.6878L193.771 24.7998ZM197.275 28.2558V26.4798C197.542 26.4798 197.766 26.4104 197.947 26.2718C198.129 26.1331 198.267 25.9304 198.363 25.6638C198.47 25.3864 198.523 25.0611 198.523 24.6878L200.779 24.7998C200.779 25.8878 200.47 26.7358 199.851 27.3438C199.233 27.9518 198.374 28.2558 197.275 28.2558ZM193.771 24.5118C193.771 23.5091 194.081 22.7304 194.699 22.1758C195.318 21.6104 196.177 21.3278 197.275 21.3278V22.6078C196.891 22.6078 196.587 22.7624 196.363 23.0718C196.139 23.3811 196.027 23.8184 196.027 24.3838L193.771 24.5118ZM198.523 24.6878V24.3838L200.779 24.5118V24.7998L198.523 24.6878ZM197.275 22.6078C196.23 22.6078 195.409 22.3464 194.811 21.8238C194.214 21.3011 193.915 20.5864 193.915 19.6798L196.171 19.8078C196.171 20.2878 196.267 20.6611 196.459 20.9278C196.651 21.1944 196.923 21.3278 197.275 21.3278V22.6078ZM193.915 19.6798V19.4718L196.171 19.5838V19.8078L193.915 19.6798ZM197.275 22.6078V21.3278C197.638 21.3278 197.91 21.1944 198.091 20.9278C198.283 20.6611 198.379 20.2878 198.379 19.8078L200.635 19.6798C200.635 20.5864 200.337 21.3011 199.739 21.8238C199.153 22.3464 198.331 22.6078 197.275 22.6078ZM193.915 19.4718C193.915 18.4904 194.214 17.7224 194.811 17.1678C195.409 16.6024 196.23 16.3198 197.275 16.3198V18.0798C197.041 18.0798 196.838 18.1384 196.667 18.2558C196.507 18.3731 196.385 18.5438 196.299 18.7678C196.214 18.9918 196.171 19.2638 196.171 19.5838L193.915 19.4718ZM198.379 19.8078V19.5838L200.635 19.4718V19.6798L198.379 19.8078ZM198.379 19.5838C198.379 19.2638 198.337 18.9918 198.251 18.7678C198.166 18.5438 198.038 18.3731 197.867 18.2558C197.707 18.1384 197.51 18.0798 197.275 18.0798V16.3198C198.331 16.3198 199.153 16.6024 199.739 17.1678C200.337 17.7224 200.635 18.4904 200.635 19.4718L198.379 19.5838Z" fill="#ECE8EF"/>
<defs>
<clipPath id="clip0_923_2010">
<rect width="20" height="20" fill="white" transform="translate(52.5 11.9998)"/>
</clipPath>
</defs>
</svg>
