<svg width="942" height="900" viewBox="0 0 942 900" fill="none" xmlns="http://www.w3.org/2000/svg">
<path d="M0 2H908C925.673 2 940 16.3269 940 34V866C940 883.673 925.673 898 908 898H0V2Z" fill="#F5F7F9"/>
<path d="M0 0.5H908C926.502 0.5 941.5 15.4985 941.5 34H938.5C938.5 17.1553 924.845 3.5 908 3.5H0V0.5ZM941.5 866C941.5 884.502 926.502 899.5 908 899.5H0V896.5H908C924.845 896.5 938.5 882.845 938.5 866H941.5ZM0 898V2V898ZM908 0.5C926.502 0.5 941.5 15.4985 941.5 34V866C941.5 884.502 926.502 899.5 908 899.5V896.5C924.845 896.5 938.5 882.845 938.5 866V34C938.5 17.1553 924.845 3.5 908 3.5V0.5Z" fill="#ECE8EF"/>
</svg>
