<svg width="26" height="22" viewBox="0 0 26 22" fill="none" xmlns="http://www.w3.org/2000/svg">
<path d="M18.622 21.4012H7.37686C3.26856 21.4012 0.912109 19.0444 0.912109 14.934V7.06382C0.912109 2.95552 3.26856 0.600098 7.37686 0.600098H18.622C22.7324 0.600098 25.0888 2.95622 25.0888 7.06382V14.934C25.0923 19.0444 22.7331 21.4012 18.622 21.4012ZM5.81963 5.51138C5.69309 5.51082 5.56809 5.53886 5.45391 5.59341C5.33973 5.64795 5.23905 5.72739 5.15996 5.82617C5.08977 5.91265 5.03706 6.01229 5.00547 6.11909C4.97387 6.22589 4.96423 6.33784 4.97607 6.44858C4.98741 6.55938 5.02059 6.66693 5.07383 6.76475C5.12706 6.86257 5.19886 6.94868 5.28574 7.01836C10.3957 11.1568 10.4409 11.1742 10.5214 11.2043C11.2458 11.7147 12.1126 11.9842 12.9987 11.9744C13.8781 11.9866 14.7384 11.7192 15.4563 11.2112C15.5465 11.1804 15.5961 11.1637 20.7145 7.01973C20.8874 6.87746 20.9976 6.6727 21.0207 6.44995C21.0438 6.2272 20.9783 6.00427 20.8382 5.82959C20.759 5.731 20.6582 5.65147 20.5442 5.59683C20.4302 5.54218 20.3056 5.51405 20.1792 5.51411C19.985 5.51444 19.797 5.58114 19.646 5.70313L14.573 9.77427C14.1199 10.1186 13.5636 10.2994 12.9946 10.2873C12.425 10.2992 11.8675 10.1185 11.4135 9.77427L6.35283 5.70313C6.20215 5.58058 6.01385 5.51401 5.81963 5.5148V5.51138Z" fill="white"/>
</svg>
