<svg width="25" height="22" viewBox="0 0 25 22" fill="none" xmlns="http://www.w3.org/2000/svg">
<path d="M18.1215 21.4009H6.87637C2.76807 21.4009 0.411621 19.0442 0.411621 14.9338V7.06357C0.411621 2.95527 2.76807 0.599854 6.87637 0.599854H18.1215C22.2319 0.599854 24.5883 2.95597 24.5883 7.06357V14.9338C24.5918 19.0442 22.2326 21.4009 18.1215 21.4009ZM5.31914 5.51113C5.1926 5.51058 5.0676 5.53862 4.95342 5.59316C4.83924 5.64771 4.73856 5.72715 4.65947 5.82593C4.58929 5.9124 4.53658 6.01205 4.50498 6.11885C4.47339 6.22565 4.46374 6.3376 4.47559 6.44834C4.48692 6.55913 4.5201 6.66668 4.57334 6.7645C4.62658 6.86232 4.69837 6.94844 4.78525 7.01812C9.89525 11.1565 9.9404 11.174 10.0209 11.2041C10.7453 11.7145 11.6121 11.984 12.4982 11.9742C13.3776 11.9863 14.2379 11.7189 14.9558 11.2109C15.0461 11.1801 15.0956 11.1635 20.214 7.01948C20.3869 6.87722 20.4972 6.67246 20.5202 6.44971C20.5433 6.22696 20.4778 6.00402 20.3377 5.82935C20.2585 5.73076 20.1578 5.65122 20.0437 5.59658C19.9297 5.54194 19.8051 5.51381 19.6787 5.51387C19.4846 5.51419 19.2965 5.58089 19.1455 5.70288L14.0726 9.77402C13.6194 10.1184 13.0632 10.2992 12.4941 10.2871C11.9245 10.299 11.367 10.1183 10.913 9.77402L5.85234 5.70288C5.70166 5.58034 5.51336 5.51376 5.31914 5.51455V5.51113Z" fill="#ECE8EF"/>
</svg>
