<svg width="353" height="304" viewBox="0 0 353 304" fill="none" xmlns="http://www.w3.org/2000/svg">
<path d="M6.18914 303.958C5.3773 303.959 4.57325 303.8 3.82285 303.49C3.07246 303.18 2.39044 302.725 1.81573 302.152C1.24102 301.579 0.784921 300.898 0.473394 300.148C0.161867 299.398 0.00105748 298.595 0.000136512 297.783V6.18904C0.000136512 4.54761 0.652191 2.9734 1.81286 1.81273C2.97353 0.652058 4.5477 0 6.18914 0H271.307C280.072 5.73979 287.492 13.3062 293.06 22.1809C305.628 42.0602 317.62 66.4515 316.918 89.9586C316.217 113.466 311.543 136.657 308.975 160.038C308.645 163.013 308.421 166.269 310.091 168.753C313.227 173.412 320.097 172.149 323.655 176.079C326.981 179.749 325.591 188.576 324.434 192.92C322.062 201.81 315.571 207.754 312.891 216.343C310.774 223.303 310.201 230.642 311.212 237.847C312.222 245.052 314.792 251.95 318.743 258.059C326.462 269.757 338.79 277.77 346.495 289.453C349.425 293.902 351.621 298.792 353 303.937L6.18914 303.958Z" fill="#C78AF3"/>
<path d="M335.114 276.261C339.261 280.388 343.282 284.612 346.488 289.475C349.418 293.923 351.614 298.813 352.993 303.958H6.18927C5.37744 303.959 4.57339 303.8 3.823 303.49C3.0726 303.18 2.39056 302.725 1.81586 302.152C1.24115 301.579 0.785065 300.898 0.473541 300.148C0.162018 299.398 0.00119019 298.595 0.000274658 297.783V276.261H335.114Z" fill="#6B16A8"/>
<path d="M161.133 158.34L168.093 150.382V100.575H237.759V151.982H169.974L161.133 158.34Z" fill="#6B16A8"/>
<path d="M221.556 133.703H226.98V144.348H221.556V133.703Z" fill="#C2BFEB"/>
<path d="M213.403 127.528H218.827V144.348H213.403V127.528Z" fill="#C2BFEB"/>
<path d="M205.249 122.321H210.673V144.348H205.249V122.321Z" fill="#C2BFEB"/>
<path d="M197.095 114.181H202.52V144.348H197.095V114.181Z" fill="#7278FF"/>
<path d="M188.941 107.564H194.365V144.348H188.941V107.564Z" fill="#7278FF"/>
<path d="M180.788 117.907H186.212V144.348H180.788V117.907Z" fill="#7278FF"/>
<path d="M205.468 108.058L227.975 125.719L227.541 126.271L205.035 108.61L205.468 108.058Z" fill="white"/>
<path d="M204.716 113.438H205.417V108.287H210.855V107.585H204.716V113.438Z" fill="white"/>
<path d="M17.4024 43.1831H47.3652V134.096H17.4024V43.1831Z" fill="#7278FF"/>
<path d="M84.401 118.939L87.9516 132.419H92.0215C92.0215 132.419 90.0427 144.621 84.401 140.404C78.7593 136.187 79.4329 134.285 79.4329 134.285L83.1379 133.471C83.1379 133.471 81.4749 122.946 81.3275 122.321C81.1801 121.697 84.401 118.939 84.401 118.939Z" fill="#E6B287"/>
<path d="M65.5463 105.53C65.5463 105.53 56.4241 103.459 61.3711 97.9511C66.3181 92.4427 84.373 101.726 84.373 101.726L69.0548 106.736L65.5463 105.53Z" fill="#6B16A8"/>
<path d="M44.8315 128.461L41.295 120.834L50.9364 120.244L58.0166 138.832H49.3786L44.8315 128.461Z" fill="#1E1A56"/>
<path d="M125.087 223.381C125.087 223.381 120.876 223.479 116.863 209.459C112.849 195.439 107.46 163.946 108.442 155.498C109.425 147.049 138.756 149.737 139.156 149.737C139.556 149.737 147.576 165.041 147.576 165.041L152.678 211.396L144.727 226.931L125.087 223.381Z" fill="#1E1A56"/>
<path d="M156.655 175.349L160.901 183.847L180.029 180.907L179.938 183.847L158.971 189.531L154.403 183.847L152.628 176.451L156.655 175.349Z" fill="#E2A171"/>
<path d="M155.695 154.354C155.695 154.354 159.042 149.197 159.905 145.793C151.281 138.685 134.125 133.492 130.027 133.163C126.013 147.604 126.715 163.89 126.715 163.89C126.715 163.89 140.622 171.286 157.267 168.732C155.08 165.924 153.742 162.55 153.407 159.006L155.695 154.354Z" fill="#6901BC"/>
<path d="M146.425 169.188C146.425 169.188 150.769 166.732 151.962 166.304C153.155 165.876 156.656 175.349 156.656 175.349L154.439 176.717C154.439 176.717 159.126 186.955 150.425 188.576C151.365 194.807 153.934 205.817 153.934 205.817H135.717L129.234 179.615C126.334 178.934 123.399 178.416 120.441 178.065C118.596 172.339 117.473 167.427 119.789 166.725C122.104 166.023 130.041 168.529 130.041 168.529L143.303 176.795L146.425 169.188Z" fill="white"/>
<path d="M153.337 147.428C153.337 147.428 158.326 154.852 158.95 160.761C154.979 163.96 144.481 165.673 144.481 165.673L142.558 170.9L146.404 169.237C146.404 169.237 149.73 173.721 151.267 175.77C152.803 177.819 151.267 180.128 146.018 180.956C140.769 181.784 138.081 179.096 134.369 174.1C130.657 169.104 130.019 168.585 130.019 168.585C130.019 168.585 138.439 170.9 138.439 170.521C138.439 170.142 140.102 165.673 140.102 165.673C140.102 165.673 137.029 163.083 137.541 157.645C138.053 152.207 149.498 148.579 153.337 147.428Z" fill="#E6B287"/>
<path d="M153.926 148.362C152.158 150.272 150.215 152.013 148.123 153.561C145.316 155.498 146.446 153.919 148.123 151.983C145.218 154.972 139.379 159.547 135.429 158.228C137.997 152.509 141.428 149.807 141.428 149.807L151.996 145.822L153.926 146.285V148.362Z" fill="#6901BC"/>
<path d="M139.127 158.179C139.127 158.179 136.692 155.877 135.668 157.54C134.643 159.203 136.439 164.325 139.127 162.15" fill="#E6B287"/>
<path d="M131.507 223.086C131.507 223.086 126.062 221.774 122.174 224.96C118.287 228.146 123.655 235.759 123.655 235.759C123.655 235.759 138.545 241.59 169.967 235.275C175.77 228.075 174.086 223.346 174.086 223.346L161.828 222.013L131.507 223.086Z" fill="#1E1A56"/>
<path d="M135.717 205.817C135.717 205.817 123.648 218.862 130.04 228.475C136.433 238.089 162.691 228.91 175.609 216.28C171.16 226.896 185.51 254.565 185.51 254.565L187.952 255.715V203.916C187.952 203.916 165.399 205.207 156.656 206.35L153.926 205.796L135.717 205.817Z" fill="#6B16A8"/>
<path d="M168.093 222.3C168.093 222.3 170.9 213.838 184.506 211.396C182.499 218.715 170.156 264.122 170.156 264.122L168.093 262.683C168.093 262.683 160.578 228.314 168.093 222.3Z" fill="#6B16A8"/>
<path d="M168.094 222.3C168.778 220.724 169.759 219.295 170.985 218.09C172.174 216.872 173.522 215.82 174.991 214.96C177.951 213.291 181.185 212.164 184.542 211.634L184.31 211.382L182.633 217.585L180.921 223.781C180.345 225.851 179.756 227.907 179.145 229.963C178.535 232.019 177.924 234.068 177.258 236.11C178.731 232.082 180.03 227.991 181.244 223.879C182.457 219.767 183.594 215.627 184.703 211.487L184.787 211.171L184.471 211.227C181.068 211.789 177.798 212.978 174.83 214.736C173.359 215.637 172.018 216.735 170.844 217.999C169.662 219.245 168.729 220.705 168.094 222.3Z" fill="#221B87"/>
<path d="M187.951 255.716C187.951 255.716 192.611 263.673 193.396 269.967C189.353 266.241 185.534 262.279 181.959 258.101C181.959 258.101 180.696 255.828 185.509 254.593L187.951 255.716Z" fill="#1E1A56"/>
<path d="M170.156 264.122C170.156 264.122 181.531 273.314 184.008 277.391C178.689 277.181 165.939 269.672 165.939 269.672C165.939 269.672 162.592 265.609 168.093 262.655L170.156 264.122Z" fill="#1E1A56"/>
<path d="M128.174 199.586L120.456 178.065C120.456 178.065 127.052 178.766 129.248 179.615L132.862 191.488L154.404 183.847C154.404 183.847 162.733 186.597 164.754 188.057C166.775 189.517 168.263 193.671 168.263 193.671C168.263 193.671 167.161 194.029 165.266 191.271C165.596 191.978 165.882 192.704 166.122 193.446C166.15 193.543 166.151 193.646 166.126 193.744C166.1 193.842 166.049 193.931 165.978 194.003C165.906 194.074 165.817 194.125 165.719 194.151C165.621 194.176 165.518 194.175 165.421 194.148C163.428 193.642 161.552 192.753 159.898 191.53C157.499 191.173 153.878 188.822 153.906 187.018C150.313 189.973 128.174 199.586 128.174 199.586Z" fill="#E6B287"/>
<path d="M210.673 174.184L157.14 136.678L133.464 184.542L172.072 194.906L210.673 174.184Z" fill="url(#paint0_linear_1180_11590)"/>
<path d="M172.072 194.906L171.707 194.688L180.429 173.896H210.343L210.673 174.184L172.072 194.906Z" fill="#444470"/>
<path d="M180.794 174.184H210.673L201.951 194.906H172.072L180.794 174.184Z" fill="#BEBCE6"/>
<path d="M146.228 194.906H172.072V196.688H146.228V194.906Z" fill="#BEBCE6"/>
<path d="M172.072 194.906H201.985V196.688H172.072V194.906Z" fill="#7A7A9F"/>
<path d="M173.308 195.306V196.358" stroke="#444470" stroke-width="0.62" stroke-miterlimit="10"/>
<path d="M174.359 195.306V196.358" stroke="#444470" stroke-width="0.62" stroke-miterlimit="10"/>
<path d="M175.412 195.306V196.358" stroke="#444470" stroke-width="0.62" stroke-miterlimit="10"/>
<path d="M176.465 195.306V196.358" stroke="#444470" stroke-width="0.62" stroke-miterlimit="10"/>
<path d="M177.524 195.306V196.358" stroke="#444470" stroke-width="0.62" stroke-miterlimit="10"/>
<path d="M196.682 195.306V196.358" stroke="#444470" stroke-width="0.62" stroke-miterlimit="10"/>
<path d="M197.733 195.306V196.358" stroke="#444470" stroke-width="0.62" stroke-miterlimit="10"/>
<path d="M198.786 195.306V196.358" stroke="#444470" stroke-width="0.62" stroke-miterlimit="10"/>
<path d="M199.839 195.306V196.358" stroke="#444470" stroke-width="0.62" stroke-miterlimit="10"/>
<path d="M200.892 195.306V196.358" stroke="#444470" stroke-width="0.62" stroke-miterlimit="10"/>
<path d="M201.985 195.832H146.221" stroke="#444470" stroke-width="0.12" stroke-miterlimit="10"/>
<path d="M231.359 188.822L222.426 193.642C222.426 193.642 215.15 194.87 215.325 196.688H222.518L228.005 194.906C228.005 194.906 225.303 196.134 225.935 196.688C226.566 197.242 229.443 196.597 230.699 195.797C231.955 194.997 233.682 191.523 233.682 191.523L231.359 188.822Z" fill="#A56536"/>
<path d="M243.05 276.963H248.32L232.349 200.316H227.08L243.05 276.963Z" fill="#460878"/>
<path d="M93.622 276.963H88.3451L104.316 200.316H109.593L93.622 276.963Z" fill="#460878"/>
<path d="M93.4391 196.688H250.698V200.575H93.4391V196.688Z" fill="#1E1A56"/>
<path d="M63.0346 150.298L56.3053 154.705C56.3053 154.705 50.7899 135.296 50.9021 134.966C51.0144 134.636 47.7024 134.096 47.7024 134.096L51.5617 167.834L66.7256 158.459L63.0346 150.298Z" fill="#E2A171"/>
<path d="M65.5466 105.529C65.5466 105.529 64.6976 122.462 67.4483 134.096C71.6585 133.885 81.2017 133.247 83.1103 130.286C85.019 127.324 84.3734 101.726 84.3734 101.726C84.3734 101.726 71.9181 101.509 65.5466 105.529Z" fill="#E6B287"/>
<path d="M83.1377 130.286C81.2291 133.247 71.7069 133.885 67.4757 134.096C66.8554 131.342 66.4031 128.554 66.1214 125.746C67.9183 124.407 69.8631 123.279 71.9175 122.384C73.0918 121.887 74.3252 121.543 75.5874 121.36C75.5874 121.36 81.4747 120.034 84.064 121.36C84.1515 121.405 84.2338 121.459 84.3096 121.521C84.1201 125.767 83.7903 129.296 83.1377 130.286Z" fill="#6B16A8"/>
<path d="M83.1383 113.508C83.1383 113.508 85.7627 108.87 88.1836 111.494C90.6045 114.118 87.5731 122.174 83.7488 118.139" fill="#E6B287"/>
<path d="M84.4922 111.747L81.4468 110.687L79.2715 101.93C80.9646 101.681 82.6794 101.613 84.3869 101.726C85.9728 101.93 84.4922 111.747 84.4922 111.747Z" fill="#6B16A8"/>
<path d="M103.916 180.907C103.916 180.907 110.435 193.867 101.656 195.116C98.6111 199.6 71.7357 218.588 71.7357 218.588L69.0552 271.279L65.4695 268.339L64.3959 221.648L33.0437 273.784L30.714 270.199L81.1526 178.065C81.1526 178.065 98.4707 179.419 103.916 180.907Z" fill="#6B16A8"/>
<path d="M81.1527 133.794C81.1527 133.794 84.1068 143.948 90.2748 132.391C93.645 132.352 97.0139 132.542 100.358 132.959C102.014 138.18 105.102 175.426 103.916 180.879C96.4428 179.175 88.8159 178.235 81.1527 178.072C81.1527 178.072 78.5634 176.528 81.1527 176.051C80.3106 174.037 81.6158 173.321 81.6158 173.321C81.6158 173.321 78.1073 156.971 74.9777 153.105L67.1467 159.919L61.4488 150.095L73.0831 135.78C73.0831 135.78 74.3531 135.148 81.1527 133.794Z" fill="#7278FF"/>
<path d="M74.9775 152.537C74.6851 151.327 74.2664 150.151 73.7285 149.028C73.2146 147.89 72.5794 146.81 71.8339 145.807C72.4534 148.231 73.5195 150.518 74.9775 152.551V152.537Z" fill="#5459D0"/>
<path d="M86.0928 142.165L90.9346 151.989C90.9346 151.989 71.9885 163.645 66.7819 165.63C59.835 151.077 53.1057 135.969 53.1057 135.969C53.1057 135.969 48.6919 138.39 46.7131 136.404C44.7343 134.419 42.5028 128.244 42.5028 128.244L43.9414 126.595L44.8185 128.468L53.3302 129.535C53.3302 129.535 52.5583 126.117 54.3196 124.132C56.0809 122.146 55.5336 125.016 55.6458 127.107C55.7581 129.198 56.4177 134.068 56.4177 134.068L70.0939 154.901L86.0928 142.165Z" fill="#E6B287"/>
<path d="M30.7074 270.185L8.37922 276.963H31.9354L33.0371 273.77L30.7074 270.185Z" fill="#1E1A56"/>
<path d="M65.4627 268.325L45.3729 276.963L69.708 273.77L69.0484 271.265L65.4627 268.325Z" fill="#1E1A56"/>
<path d="M72.1706 115.585C72.1706 115.585 69.876 122.083 68.7883 124.707C72.0372 125.009 75.223 122.784 75.5879 121.339C75.9528 119.893 74.1845 119.353 73.2372 120.56" fill="#E6B287"/>
<path d="M87.4326 114.322C87.4326 114.322 86.1695 110.659 83.6434 115.585C84.9696 115.283 84.1276 117.03 84.1276 117.03" fill="#E6B287"/>
<path d="M72.171 115.585C71.5324 117.087 70.9289 118.588 70.3395 120.104C69.7501 121.62 69.1817 123.135 68.5993 124.651L68.508 124.904H68.7747C69.7683 124.985 70.7682 124.866 71.7148 124.553C72.6635 124.244 73.5498 123.769 74.3322 123.149C74.7274 122.844 75.073 122.48 75.3567 122.069C75.5184 121.865 75.6332 121.627 75.6926 121.374C75.752 121.12 75.7547 120.857 75.7005 120.602C75.6162 120.352 75.4498 120.137 75.2281 119.993C75.0065 119.849 74.7427 119.784 74.4796 119.809C74.234 119.829 73.9958 119.902 73.7813 120.023C73.5668 120.145 73.3813 120.311 73.2376 120.511C73.3913 120.328 73.582 120.179 73.7973 120.075C74.0126 119.971 74.2476 119.914 74.4866 119.907C74.7076 119.898 74.9254 119.962 75.1067 120.089C75.288 120.216 75.4226 120.399 75.49 120.609C75.5257 120.831 75.5122 121.058 75.4503 121.274C75.3885 121.489 75.2798 121.689 75.1321 121.858C74.8438 122.23 74.5035 122.559 74.1217 122.834C72.5954 123.976 70.7132 124.541 68.8098 124.426L68.9782 124.707C69.5255 123.17 70.1009 121.655 70.6202 120.111C71.1394 118.567 71.6798 117.136 72.171 115.585Z" fill="#D18B56"/>
<path d="M87.4326 114.322C87.3787 114.077 87.2913 113.841 87.173 113.62C87.0582 113.395 86.8924 113.201 86.6888 113.052C86.4691 112.887 86.1982 112.805 85.9239 112.82C85.7899 112.846 85.6584 112.884 85.531 112.932L85.1872 113.122C84.7949 113.428 84.4599 113.801 84.1978 114.224C83.9302 114.623 83.6955 115.043 83.4961 115.48L83.3346 115.802L83.6855 115.725C83.821 115.688 83.964 115.688 84.0995 115.725C84.2118 115.725 84.275 115.873 84.289 116.034C84.2952 116.373 84.2429 116.71 84.1346 117.03C84.3332 116.729 84.4582 116.385 84.4995 116.027C84.5134 115.917 84.4941 115.806 84.4441 115.707C84.3941 115.608 84.3156 115.526 84.2188 115.473C84.0274 115.395 83.8168 115.378 83.6153 115.424L83.8048 115.662C84.0504 115.269 84.2679 114.855 84.5065 114.483C84.7556 114.107 85.0529 113.765 85.3907 113.466C85.5362 113.321 85.7245 113.226 85.9278 113.196C86.1311 113.165 86.3388 113.201 86.5204 113.297C86.9111 113.551 87.2262 113.905 87.4326 114.322Z" fill="#D18B56"/>
<path d="M72.8158 127.43C73.4121 127.687 74.0664 127.779 74.7104 127.696C75.3614 127.624 75.99 127.416 76.5559 127.086C77.1121 126.744 77.6037 126.307 78.0084 125.795C78.1985 125.54 78.3719 125.272 78.5277 124.995C78.6696 124.711 78.7915 124.418 78.8926 124.118C78.654 124.335 78.4575 124.574 78.247 124.819C78.0365 125.065 77.826 125.261 77.6014 125.451C77.1705 125.851 76.7003 126.206 76.198 126.51C75.1651 127.095 74.0023 127.411 72.8158 127.43Z" fill="#1E1A56"/>
<path d="M74.1422 114.652C74.1422 115.171 74.3808 115.585 74.6825 115.585C74.9843 115.585 75.2158 115.171 75.2158 114.652C75.2158 114.132 74.9772 113.725 74.6825 113.725C74.3878 113.725 74.1422 114.139 74.1422 114.652Z" fill="#1E1A56"/>
<path d="M70.2966 116.518C69.9982 116.518 69.7563 116.1 69.7563 115.585C69.7563 115.069 69.9982 114.652 70.2966 114.652C70.595 114.652 70.8369 115.069 70.8369 115.585C70.8369 116.1 70.595 116.518 70.2966 116.518Z" fill="#1E1A56"/>
<path d="M72.5629 110.687C72.5629 110.687 74.5487 108.491 76.71 111.255L72.5629 110.687Z" fill="#6B16A8"/>
<path d="M69.9951 111.29C69.9951 111.29 68.1917 109.81 67.3497 112.624L69.9951 111.29Z" fill="#6B16A8"/>
<path d="M64.3894 221.634C64.4736 219.528 64.5016 217.374 64.5648 215.248L64.5297 215.353C66.4243 212.841 68.34 210.343 70.2065 207.817L75.8202 200.232L81.3566 192.59L86.8159 184.871L86.7738 184.913C88.3705 183.91 90.0806 183.1 91.8682 182.5C90.0304 182.99 88.2621 183.712 86.6054 184.647L80.9146 192.169L75.3009 199.754L69.7644 207.396C67.9119 209.943 66.1156 212.518 64.2911 215.08V215.129V215.185C64.2701 217.374 64.3051 219.507 64.3894 221.634Z" fill="#1E1687"/>
<path d="M85.959 185.798C85.6292 185.575 85.3275 185.314 85.0608 185.019C84.7848 184.718 84.549 184.383 84.3591 184.022C84.1666 183.66 84.0451 183.265 84.0012 182.857C83.9579 182.436 83.9912 182.011 84.0994 181.601C83.9222 182.001 83.8176 182.428 83.7907 182.864C83.7799 183.306 83.8513 183.747 84.0012 184.163C84.1522 184.583 84.3574 184.981 84.6117 185.348C84.8807 185.726 85.1941 186.07 85.545 186.373L85.959 185.798Z" fill="#1E1687"/>
<path d="M86.0921 142.165C86.9973 141.527 87.8745 140.853 88.7446 140.18C89.6147 139.506 90.4637 138.776 91.3268 138.11C92.1899 137.443 93.018 136.706 93.846 135.962C94.674 135.219 95.502 134.503 96.2949 133.731C95.3897 134.362 94.5126 135.036 93.6425 135.717C92.7723 136.397 91.9233 137.12 91.0602 137.787C90.1971 138.453 89.3691 139.19 88.5411 139.934C87.7131 140.678 86.8851 141.366 86.0921 142.165Z" fill="#5459D0"/>
<path d="M90.9344 151.989C91.7624 151.547 92.5694 151.063 93.3694 150.586C94.1693 150.109 94.9552 149.583 95.7481 149.084C96.541 148.586 97.3059 148.039 98.0638 147.492C98.8216 146.944 99.5935 146.404 100.323 145.814C99.4952 146.257 98.6883 146.734 97.8883 147.218C97.0884 147.702 96.3025 148.221 95.5166 148.727C94.7307 149.232 93.9588 149.765 93.1939 150.312C92.4291 150.86 91.6712 151.393 90.9344 151.989Z" fill="#5459D0"/>
<path d="M152.628 156.656C152.368 157.694 152.165 158.761 151.997 159.778V159.912L152.13 159.982C152.642 160.256 153.154 160.529 153.681 160.782L153.786 160.389C152.474 160.333 151.169 160.298 149.849 160.389C151.148 160.606 152.453 160.733 153.758 160.824L154.74 160.894L153.863 160.438C153.351 160.164 152.825 159.912 152.305 159.659L152.411 159.856C152.502 158.782 152.558 157.722 152.628 156.656Z" fill="#D18B56"/>
<path d="M144.137 159.441C144.11 160.08 144.202 160.718 144.411 161.322C144.612 161.958 145.004 162.517 145.534 162.922C145.809 163.116 146.12 163.253 146.449 163.324C146.779 163.395 147.119 163.399 147.449 163.336C147.767 163.275 148.079 163.188 148.383 163.076C148.663 162.922 148.951 162.782 149.218 162.613C148.909 162.69 148.614 162.796 148.32 162.88C148.023 162.944 147.723 162.988 147.421 163.013C146.839 163.071 146.256 162.917 145.779 162.578C145.308 162.211 144.94 161.727 144.713 161.175C144.459 160.619 144.266 160.038 144.137 159.441Z" fill="#D18B56"/>
<path d="M136.32 159.007C136.401 158.846 136.526 158.711 136.679 158.618C136.833 158.525 137.011 158.477 137.19 158.48C137.538 158.551 137.856 158.724 138.103 158.978C138.381 159.229 138.639 159.501 138.875 159.792C139.12 160.08 139.338 160.396 139.576 160.698L139.703 160.424C139.548 160.454 139.396 160.494 139.246 160.543C139.106 160.606 138.917 160.656 138.832 160.88C138.818 160.969 138.83 161.061 138.867 161.144C138.905 161.226 138.966 161.296 139.043 161.343C139.16 161.441 139.29 161.521 139.429 161.582C139.323 161.481 139.225 161.373 139.134 161.259C139.043 161.154 138.994 161.013 139.036 160.95C139.078 160.887 139.204 160.838 139.324 160.817C139.461 160.793 139.599 160.777 139.738 160.768H140.025L139.864 160.522C139.651 160.185 139.417 159.861 139.162 159.554C139.045 159.393 138.913 159.243 138.769 159.105C138.635 158.953 138.484 158.817 138.32 158.698C138.004 158.408 137.591 158.246 137.162 158.242C136.959 158.263 136.768 158.349 136.616 158.486C136.465 158.624 136.361 158.806 136.32 159.007Z" fill="#D18B56"/>
<path d="M150.34 156.445C150.34 156.887 150.536 157.252 150.775 157.252C151.014 157.252 151.203 156.887 151.203 156.445C151.203 156.003 151.014 155.638 150.775 155.638C150.536 155.638 150.34 155.996 150.34 156.445Z" fill="#1E1A56"/>
<path d="M153.498 156.445C153.498 156.887 153.688 157.252 153.926 157.252C154.165 157.252 154.361 156.887 154.361 156.445C154.361 156.003 154.165 155.638 153.926 155.638C153.688 155.638 153.498 155.996 153.498 156.445Z" fill="#1E1A56"/>
<path d="M151.786 153.673C151.59 153.476 151.349 153.329 151.084 153.243C150.819 153.158 150.538 153.137 150.263 153.182C149.989 153.228 149.729 153.338 149.506 153.504C149.282 153.67 149.102 153.887 148.979 154.137" fill="#6901BC"/>
<path d="M153.498 153.632C153.498 153.632 154.41 152.039 155.694 154.333L153.498 153.632Z" fill="#6901BC"/>
<path d="M154.438 176.717C154.358 176.376 154.248 176.043 154.109 175.721C153.971 175.402 153.811 175.092 153.632 174.795C153.448 174.495 153.236 174.213 153 173.953C152.773 173.677 152.485 173.458 152.158 173.314C152.376 173.575 152.57 173.855 152.74 174.149L153.274 175.012C153.449 175.3 153.624 175.595 153.821 175.875C154.012 176.167 154.218 176.448 154.438 176.717Z" fill="#DAD5E0"/>
<path d="M156.656 206.372C155.049 206.736 153.456 207.15 151.871 207.571C150.285 207.993 148.706 208.47 147.12 208.933C145.534 209.396 143.983 209.915 142.433 210.456C140.869 210.981 139.335 211.59 137.837 212.28C139.394 211.733 140.959 211.248 142.531 210.764L147.246 209.361L151.955 207.908C153.527 207.424 155.098 206.898 156.656 206.372Z" fill="#221B87"/>
<path d="M255.231 101.158C255.231 101.158 240.179 87.2921 256.95 88.7446C259.462 85.8395 258.929 89.2779 258.929 89.2779C258.929 89.2779 278.079 75.2789 285.18 82.1415C292.281 89.0042 287.285 103.6 274.745 112.09C285.973 109.347 292.709 119.914 285.046 127.444C285.046 127.444 291.649 143.885 286.766 149.33C285.395 150.895 283.634 152.069 281.661 152.731C279.689 153.393 277.576 153.52 275.538 153.098L259.217 136.678C259.217 136.678 252.901 125.065 258.557 118.195C256.9 112.637 255.786 106.931 255.231 101.158Z" fill="#1E1A56"/>
<path d="M251.709 130.321C251.709 130.321 272.346 123.584 286.183 126.209C298.112 142.004 305.831 160.087 305.831 160.087L287.376 171.314L285.061 168.346L298.688 156.663L283.776 139.962L281.917 170.009L282.57 171.77H265.848C265.848 171.77 261.055 154.761 260.866 153.344C260.866 153.344 256.88 154.803 255.491 154.431L250.712 170.009L233.696 191.523L231.373 188.822L245.47 165.792L251.709 130.321Z" fill="white"/>
<path d="M254.046 95.3477C254.046 95.3477 257.477 104.856 246.783 105.649C247.969 107.368 248.369 107.894 248.369 107.894C248.369 107.894 249.948 115.823 252.13 118.595C254.313 121.367 261.954 117.143 261.954 117.143L264.614 126.026L263.028 144.383L270.045 126.286L263.309 100.274C263.309 100.274 256.025 93.7478 254.046 95.3477Z" fill="#A56536"/>
<path d="M264.079 108.161C264.079 108.161 265.139 103.249 268.57 105.122C272.001 106.996 267.777 113.003 266.325 111.971C264.872 110.94 264.079 108.161 264.079 108.161Z" fill="#A56536"/>
<path d="M254.046 95.3479C254.046 95.3479 258.536 104.33 264.873 102.365C271.209 100.4 266.325 94.7514 266.325 94.7514L254.046 93.1165V95.3479Z" fill="#1E1A56"/>
<path d="M268.83 107.417C268.629 107.041 268.331 106.726 267.967 106.505C267.752 106.375 267.502 106.315 267.251 106.331C267 106.348 266.76 106.44 266.564 106.596C266.213 106.889 265.952 107.276 265.813 107.712C265.675 108.108 265.576 108.517 265.518 108.933L265.434 109.445L265.918 109.298C266.1 109.242 266.29 109.185 266.472 109.143C266.593 109.127 266.716 109.127 266.837 109.143C266.893 109.143 266.872 109.375 266.795 109.55C266.719 109.744 266.632 109.934 266.535 110.119C266.716 109.994 266.879 109.845 267.02 109.677C267.123 109.582 267.196 109.458 267.228 109.322C267.261 109.186 267.252 109.043 267.202 108.912C267.167 108.813 267.076 108.771 267.006 108.715C266.935 108.683 266.863 108.658 266.788 108.638C266.665 108.625 266.54 108.625 266.416 108.638C266.18 108.649 265.945 108.679 265.715 108.729L266.114 109.094C266.227 108.729 266.297 108.35 266.437 108.007C266.531 107.664 266.702 107.348 266.935 107.08C267.043 106.974 267.178 106.899 267.326 106.866C267.473 106.832 267.628 106.841 267.77 106.891C268.149 107.009 268.507 107.187 268.83 107.417Z" fill="#935125"/>
<path d="M251.709 113.227C251.709 113.227 254.144 110.715 258.929 110.091C259.484 114.876 254.93 119.746 251.709 113.227Z" fill="#1E1A56"/>
<path d="M252.965 112.245C254.763 111.081 256.803 110.344 258.93 110.091C259 110.657 259 111.23 258.93 111.796L253.449 113.234L252.965 112.245Z" fill="white"/>
<path d="M255.006 103.67C255.006 104.245 255.224 104.708 255.491 104.708C255.757 104.708 255.968 104.245 255.968 103.67C255.968 103.095 255.757 102.638 255.491 102.638C255.224 102.638 255.006 103.102 255.006 103.67Z" fill="#1E1A56"/>
<path d="M255.477 154.431C255.025 154.378 254.592 154.215 254.217 153.957C253.842 153.699 253.535 153.354 253.323 152.951C253.202 152.762 253.11 152.556 253.049 152.34C252.962 152.132 252.903 151.912 252.874 151.688L252.769 151.021C252.769 150.797 252.769 150.565 252.769 150.319V149.618L252.853 148.916C252.888 148.46 252.958 148.007 253.063 147.562L253.358 146.221L253.765 144.909C254.004 144.018 254.34 143.162 254.663 142.299C254.986 141.436 255.365 140.594 255.709 139.745C256.053 138.896 256.41 138.047 256.838 137.219L257.989 134.699C257.098 136.313 256.165 137.92 255.414 139.611C255.014 140.446 254.628 141.295 254.305 142.166C253.983 143.036 253.604 143.885 253.365 144.783C253.232 145.232 253.091 145.674 252.972 146.123L252.684 147.492C252.586 147.954 252.52 148.423 252.488 148.895L252.418 149.597V150.298C252.418 150.53 252.418 150.769 252.46 151L252.6 151.702C252.636 151.946 252.709 152.182 252.818 152.403C252.887 152.63 252.993 152.844 253.133 153.035C253.373 153.448 253.714 153.793 254.124 154.037C254.534 154.281 255 154.417 255.477 154.431Z" fill="#DAD5E0"/>
<path d="M272.016 126.026L273.798 131.058L273.854 130.91C271.981 131.865 270.1 132.791 268.241 133.717L267.967 133.857L268.227 134.033L272.984 137.317V136.987C269.314 140.334 265.644 143.688 262.037 147.113L262.15 147.183L263.048 144.334L262.016 147.141L261.925 147.393L262.129 147.211C265.883 143.955 269.574 140.629 273.265 137.296L273.461 137.12L273.244 136.966L268.451 133.731V134.047C270.311 133.079 272.149 132.068 274.002 131.086L274.093 131.037L274.058 130.938L272.016 126.026Z" fill="#DAD5E0"/>
<path d="M262.838 127.465C261.666 129.072 260.53 130.7 259.4 132.335L259.295 132.489L259.47 132.566C260.719 133.149 261.989 133.689 263.252 134.257L263.217 133.914C261.814 134.896 260.41 135.899 259.007 136.91L258.881 137.001L258.944 137.141C260.116 139.948 261.351 142.755 262.621 145.492C261.564 142.643 260.455 139.81 259.295 136.994L259.232 137.219C260.635 136.236 262.038 135.247 263.442 134.236L263.729 134.026L263.407 133.892C262.137 133.359 260.874 132.798 259.596 132.279L259.667 132.51C260.74 130.84 261.807 129.163 262.838 127.465Z" fill="#DAD5E0"/>
<path d="M262.024 147.176C261.77 147.756 261.566 148.357 261.413 148.972C261.249 149.594 261.197 150.24 261.259 150.881C261.286 151.219 261.402 151.543 261.594 151.823C261.786 152.102 262.048 152.327 262.353 152.474C262.976 152.708 263.652 152.764 264.304 152.635L264.108 152.516C264.529 154.095 264.887 155.709 265.244 157.315L266.325 162.136L267.42 166.957C267.778 168.571 268.185 170.171 268.563 171.771C268.269 170.15 267.995 168.522 267.672 166.908C267.35 165.294 267.041 163.673 266.697 162.059C266.353 160.445 265.995 158.831 265.644 157.224C265.294 155.617 264.894 154.01 264.444 152.418L264.402 152.27H264.248C263.658 152.407 263.042 152.381 262.466 152.193C262.195 152.072 261.961 151.882 261.787 151.642C261.613 151.402 261.506 151.12 261.476 150.825C261.388 150.209 261.404 149.582 261.525 148.972C261.64 148.36 261.806 147.759 262.024 147.176Z" fill="#DAD5E0"/>
<path d="M264.129 150.123C264.129 150.208 264.154 150.29 264.201 150.361C264.248 150.431 264.315 150.486 264.394 150.518C264.472 150.551 264.558 150.559 264.641 150.543C264.724 150.526 264.8 150.485 264.86 150.426C264.92 150.366 264.961 150.289 264.977 150.206C264.994 150.123 264.985 150.037 264.953 149.959C264.92 149.881 264.865 149.814 264.795 149.767C264.725 149.72 264.642 149.695 264.557 149.695C264.501 149.694 264.445 149.704 264.392 149.726C264.34 149.747 264.292 149.778 264.253 149.818C264.213 149.858 264.181 149.906 264.16 149.958C264.139 150.01 264.128 150.066 264.129 150.123Z" fill="#DAD5E0"/>
<path d="M266.354 157.077C266.353 157.162 266.376 157.245 266.423 157.316C266.469 157.388 266.535 157.444 266.613 157.477C266.691 157.511 266.778 157.52 266.861 157.504C266.945 157.489 267.022 157.449 267.082 157.389C267.143 157.329 267.184 157.253 267.201 157.17C267.218 157.087 267.21 157 267.178 156.922C267.146 156.843 267.091 156.776 267.02 156.728C266.95 156.681 266.867 156.656 266.782 156.656C266.67 156.656 266.562 156.7 266.482 156.779C266.402 156.857 266.356 156.964 266.354 157.077Z" fill="#DAD5E0"/>
<path d="M267.56 162.824C267.56 162.909 267.585 162.992 267.633 163.062C267.68 163.133 267.747 163.188 267.826 163.22C267.904 163.252 267.991 163.26 268.074 163.243C268.157 163.226 268.234 163.185 268.293 163.124C268.353 163.063 268.393 162.986 268.409 162.903C268.424 162.819 268.415 162.733 268.381 162.655C268.348 162.577 268.292 162.511 268.221 162.465C268.149 162.418 268.066 162.394 267.981 162.396C267.925 162.396 267.87 162.407 267.818 162.429C267.767 162.45 267.72 162.482 267.681 162.522C267.642 162.561 267.611 162.609 267.59 162.661C267.569 162.712 267.559 162.768 267.56 162.824Z" fill="#DAD5E0"/>
<path d="M268.81 169.532C268.81 169.617 268.835 169.7 268.882 169.77C268.929 169.84 268.996 169.895 269.074 169.928C269.152 169.96 269.238 169.968 269.321 169.952C269.405 169.935 269.481 169.895 269.541 169.835C269.601 169.775 269.641 169.699 269.658 169.616C269.674 169.533 269.666 169.447 269.633 169.368C269.601 169.29 269.546 169.223 269.476 169.176C269.405 169.129 269.323 169.104 269.238 169.104C269.182 169.103 269.125 169.114 269.073 169.135C269.021 169.156 268.973 169.187 268.933 169.227C268.893 169.267 268.862 169.315 268.841 169.367C268.819 169.42 268.809 169.476 268.81 169.532Z" fill="#DAD5E0"/>
<path d="M265.834 171.771L238.096 269.567L240.531 270.388C240.531 270.388 264.017 244.601 255.266 232.229C265.792 215.922 276.128 195.832 276.128 195.832L296.941 269.174L299.748 268.985C299.748 268.985 307.993 242.187 292.436 229.072C302.554 211.452 299.874 173.967 282.549 171.799L265.834 171.771Z" fill="#6B16A8"/>
<path d="M238.095 269.567C238.095 269.567 219.724 276.921 220.286 276.689C220.847 276.458 240.341 276.689 240.341 276.689C240.341 276.689 243.716 275.146 240.53 270.374L238.095 269.567Z" fill="#1E1A56"/>
<path d="M299.755 268.957L307.438 275.875L301.249 278.795L293.755 277.061L296.941 269.146L299.755 268.957Z" fill="#1E1A56"/>
<path d="M285.061 168.339C285.061 168.339 283.104 163.855 280.409 165.624C277.714 167.392 272.438 173.42 273.904 175.349C275.371 177.279 284.346 172.135 284.346 172.135L286.121 172.795L287.377 171.307L285.061 168.339Z" fill="#A56536"/>
<path d="M137.787 44.8459H238.117V88.5061L244.797 98.8562L236.019 90.9971H137.787V44.8459Z" fill="#6B16A8"/>
<path d="M28.539 108.87H36.2578C37.1704 108.873 38.0446 109.238 38.6899 109.883C39.3353 110.528 39.6994 111.402 39.7031 112.315V115.824C39.6994 116.736 39.3353 117.61 38.6899 118.256C38.0446 118.901 37.1704 119.265 36.2578 119.269H30.4617L29.367 120.672C29.3143 120.739 29.2455 120.791 29.167 120.823C29.0885 120.856 29.003 120.868 28.9186 120.858C28.8342 120.848 28.7538 120.817 28.6849 120.767C28.616 120.718 28.5609 120.651 28.525 120.574L27.8935 119.171C27.105 119.019 26.3938 118.598 25.8817 117.98C25.3696 117.362 25.0885 116.584 25.0866 115.781V112.273C25.1013 111.366 25.4713 110.502 26.117 109.865C26.7627 109.229 27.6324 108.871 28.539 108.87ZM36.2578 115.129C36.4468 115.129 36.6316 115.073 36.7887 114.968C36.9458 114.862 37.0681 114.713 37.1401 114.538C37.2121 114.363 37.2306 114.171 37.1932 113.986C37.1558 113.8 37.0642 113.63 36.9301 113.497C36.7959 113.364 36.6252 113.274 36.4396 113.238C36.254 113.202 36.0619 113.222 35.8877 113.295C35.7134 113.368 35.5649 113.492 35.4609 113.649C35.3568 113.807 35.3021 113.992 35.3035 114.182C35.3034 114.428 35.3993 114.665 35.5709 114.842C35.7426 115.019 35.9764 115.122 36.2227 115.129H36.2578ZM32.3984 115.129C32.5874 115.129 32.7722 115.073 32.9293 114.968C33.0864 114.862 33.2087 114.713 33.2807 114.538C33.3527 114.363 33.3712 114.171 33.3338 113.986C33.2964 113.8 33.2048 113.63 33.0707 113.497C32.9365 113.364 32.7658 113.274 32.5802 113.238C32.3947 113.202 32.2026 113.222 32.0283 113.295C31.8541 113.368 31.7055 113.492 31.6015 113.649C31.4975 113.807 31.4427 113.992 31.4441 114.182C31.4457 114.427 31.5422 114.663 31.7135 114.84C31.8847 115.016 32.1176 115.12 32.3633 115.129H32.3984ZM28.532 115.129C28.7213 115.13 28.9068 115.075 29.0648 114.971C29.2228 114.867 29.3462 114.718 29.4193 114.543C29.4924 114.368 29.5119 114.176 29.4753 113.99C29.4387 113.804 29.3477 113.634 29.2138 113.5C29.0799 113.366 28.9092 113.275 28.7234 113.238C28.5377 113.202 28.3452 113.221 28.1706 113.294C27.9959 113.367 27.8469 113.491 27.7426 113.649C27.6382 113.807 27.5833 113.992 27.5847 114.182C27.5863 114.426 27.6818 114.661 27.8516 114.837C28.0213 115.014 28.2524 115.118 28.4969 115.129H28.532Z" fill="white"/>
<path d="M28.2721 83.8679C28.2707 84.6818 28.5109 85.4778 28.9622 86.1551C29.4135 86.8323 30.0556 87.3605 30.8073 87.6726C31.5589 87.9847 32.3863 88.0667 33.1846 87.9083C33.9829 87.7498 34.7163 87.358 35.2917 86.7825C35.8672 86.2071 36.259 85.4737 36.4174 84.6754C36.5759 83.8771 36.4939 83.0497 36.1818 82.2981C35.8697 81.5464 35.3415 80.9043 34.6642 80.453C33.9869 80.0017 33.191 79.7616 32.3771 79.7629C31.2884 79.7629 30.2443 80.1954 29.4745 80.9653C28.7046 81.7351 28.2721 82.7792 28.2721 83.8679Z" fill="#6B16A8"/>
<path d="M32.3763 89.4814C35.1831 89.4814 37.6111 90.6042 38.5864 92.19C38.6825 92.3462 38.7351 92.5252 38.739 92.7085C38.7429 92.8918 38.6978 93.0729 38.6085 93.233C38.5191 93.3931 38.3887 93.5265 38.2307 93.6195C38.0726 93.7124 37.8927 93.7616 37.7093 93.7619H27.0504C26.867 93.7616 26.687 93.7124 26.529 93.6195C26.3709 93.5265 26.2405 93.3931 26.1512 93.233C26.0618 93.0729 26.0168 92.8918 26.0207 92.7085C26.0245 92.5252 26.0772 92.3462 26.1733 92.19C27.1486 90.6042 29.5555 89.4814 32.3763 89.4814Z" fill="#6B16A8"/>
<path d="M31.2257 58.7256V55.3925C31.2257 55.2399 31.2864 55.0936 31.3943 54.9857C31.5022 54.8778 31.6485 54.8171 31.8011 54.8171C32.3948 54.8171 32.9641 55.053 33.3839 55.4728C33.8037 55.8926 34.0395 56.4619 34.0395 57.0556V58.6625H38.3059C38.5733 58.6646 38.8324 58.7554 39.0426 58.9207C39.2528 59.086 39.4021 59.3164 39.4671 59.5758C39.5322 59.8352 39.5092 60.1088 39.4019 60.3537C39.2947 60.5986 39.1091 60.801 38.8743 60.929C39.0656 61.0301 39.2255 61.1817 39.3368 61.3672C39.4482 61.5527 39.5066 61.7652 39.5059 61.9816C39.5056 62.1986 39.4468 62.4116 39.3357 62.5981C39.2245 62.7846 39.0651 62.9376 38.8743 63.0411C39.0656 63.1423 39.2255 63.2938 39.3368 63.4793C39.4482 63.6649 39.5066 63.8773 39.5059 64.0937C39.5054 64.3349 39.4331 64.5706 39.2981 64.7706C39.1631 64.9706 38.9716 65.1258 38.748 65.2164C39.0049 65.3223 39.2174 65.5136 39.3496 65.758C39.4818 66.0024 39.5256 66.285 39.4737 66.5579C39.4217 66.8309 39.2772 67.0776 39.0644 67.2563C38.8517 67.4351 38.5838 67.5349 38.3059 67.5391H31.7801C31.4828 67.54 31.1882 67.4822 30.9133 67.3691C30.6383 67.2559 30.3884 67.0897 30.1778 66.8798C29.9672 66.6698 29.8002 66.4205 29.6862 66.1459C29.5722 65.8713 29.5136 65.5769 29.5136 65.2796V60.929C29.5123 60.4234 29.6801 59.9318 29.9904 59.5326C30.3006 59.1333 30.7355 58.8493 31.2257 58.7256Z" fill="white"/>
<path d="M26.0897 59.5537H27.7878C28.2529 59.5537 28.6299 59.9307 28.6299 60.3958V65.7778C28.6299 66.2429 28.2529 66.6199 27.7878 66.6199H26.0897C25.6247 66.6199 25.2477 66.2429 25.2477 65.7778V60.3958C25.2477 59.9307 25.6247 59.5537 26.0897 59.5537Z" fill="#6B16A8"/>
<path d="M143.169 237.338H147.695V264.206H143.169V237.338Z" fill="#1E1A56"/>
<path d="M141.534 247.919H149.33V264.206H141.534V247.919Z" fill="#1E1A56"/>
<path d="M149.33 264.206L173.097 269.742V272.619H166.943V270.739L142.25 267.988L141.534 264.206H149.33Z" fill="#1E1A56"/>
<path d="M141.99 264.206L118.223 269.742V272.619H124.384V270.739L149.07 267.988L149.793 264.206H141.99Z" fill="#1E1A56"/>
<path d="M166.817 273.532C166.815 274.212 167.016 274.878 167.393 275.445C167.77 276.011 168.307 276.453 168.936 276.714C169.565 276.975 170.256 277.044 170.924 276.911C171.592 276.779 172.205 276.451 172.686 275.97C173.168 275.489 173.495 274.876 173.628 274.208C173.76 273.54 173.691 272.848 173.43 272.22C173.169 271.591 172.727 271.054 172.161 270.677C171.594 270.3 170.929 270.099 170.248 270.1C169.338 270.1 168.465 270.462 167.822 271.105C167.178 271.749 166.817 272.622 166.817 273.532Z" fill="#1E1A56"/>
<path d="M145.954 273.532C145.954 275.426 146.726 276.963 147.674 276.963C148.621 276.963 149.386 275.426 149.386 273.532C149.386 271.637 148.621 270.1 147.674 270.1C146.726 270.1 145.954 271.637 145.954 273.532Z" fill="#1E1A56"/>
<path d="M150.663 273.532C150.663 275.426 151.435 276.963 152.382 276.963C153.33 276.963 154.102 275.426 154.102 273.532C154.102 271.637 153.33 270.1 152.382 270.1C151.435 270.1 150.663 271.637 150.663 273.532Z" fill="#1E1A56"/>
<path d="M118.223 273.532C118.222 274.212 118.422 274.878 118.799 275.444C119.176 276.01 119.712 276.452 120.341 276.713C120.969 276.975 121.66 277.044 122.328 276.912C122.995 276.78 123.608 276.453 124.09 275.973C124.572 275.492 124.9 274.879 125.033 274.212C125.166 273.545 125.099 272.853 124.839 272.225C124.579 271.596 124.138 271.059 123.572 270.68C123.007 270.302 122.342 270.1 121.661 270.1C121.21 270.1 120.763 270.188 120.346 270.36C119.929 270.532 119.55 270.784 119.23 271.103C118.911 271.422 118.658 271.8 118.485 272.217C118.312 272.634 118.223 273.081 118.223 273.532Z" fill="#1E1A56"/>
<path d="M149.794 264.206L151.682 270.1V272.619H147.654V270.1L141.991 264.206H149.794Z" fill="#1E1A56"/>
<path d="M196.4 69.3846V63.6798H199.27C199.604 62.1461 200.21 60.6846 201.059 59.3643L199.031 57.3293L203.08 53.3016L205.108 55.3295C206.42 54.4836 207.871 53.8777 209.395 53.5401V50.6702H215.1V53.5401C216.636 53.8733 218.1 54.4793 219.423 55.3295L221.451 53.3016L225.485 57.3293L223.457 59.3643C224.306 60.6846 224.912 62.1461 225.247 63.6798H228.131V69.3846H225.261C224.928 70.9209 224.322 72.3849 223.472 73.7072L225.499 75.7351L221.465 79.7699L219.437 77.742C218.114 78.5921 216.65 79.1982 215.114 79.5313V82.4013H209.395V79.5313C207.862 79.1969 206.4 78.5909 205.08 77.742L203.052 79.7699L199.017 75.7351L201.045 73.7072C200.195 72.3849 199.589 70.9209 199.256 69.3846H196.4ZM212.265 69.2724C212.807 69.2724 213.336 69.1119 213.786 68.8112C214.236 68.5105 214.586 68.0831 214.794 67.583C215.001 67.0829 215.055 66.5327 214.949 66.0018C214.844 65.471 214.583 64.9833 214.2 64.6006C213.818 64.2179 213.33 63.9573 212.799 63.8517C212.268 63.7461 211.718 63.8003 211.218 64.0074C210.718 64.2145 210.291 64.5653 209.99 65.0153C209.689 65.4654 209.529 65.9945 209.529 66.5357C209.53 67.261 209.819 67.956 210.332 68.4688C210.845 68.9816 211.54 69.2705 212.265 69.2724Z" fill="#ECE8EF"/>
<path d="M146.242 69.3846V63.6798H149.112C149.449 62.1457 150.057 60.6842 150.908 59.3643L148.874 57.3293L152.908 53.3016L154.936 55.3295C156.259 54.4793 157.723 53.8733 159.259 53.5401V50.6702H164.978V53.5401C166.511 53.8745 167.973 54.4805 169.293 55.3295L171.328 53.3016L175.363 57.3293L173.328 59.3643C174.177 60.6846 174.783 62.1461 175.117 63.6798H177.987V69.3846H175.117C174.784 70.9209 174.178 72.3849 173.328 73.7072L175.363 75.7351L171.328 79.7699L169.293 77.742C167.973 78.5909 166.511 79.1969 164.978 79.5313V82.4013H159.273V79.5313C157.737 79.1982 156.273 78.5921 154.95 77.742L152.922 79.7699L148.888 75.7351L150.923 73.7072C150.07 72.3853 149.462 70.9213 149.126 69.3846H146.242ZM162.108 69.2724C162.649 69.2738 163.179 69.1144 163.63 68.8146C164.081 68.5147 164.433 68.0878 164.641 67.5879C164.849 67.0879 164.904 66.5375 164.8 66.0061C164.695 65.4748 164.435 64.9865 164.052 64.6031C163.67 64.2197 163.182 63.9583 162.651 63.8522C162.12 63.746 161.57 63.7998 161.069 64.0067C160.569 64.2136 160.141 64.5644 159.84 65.0146C159.539 65.4648 159.378 65.9942 159.378 66.5357C159.38 67.2622 159.67 67.9582 160.184 68.4713C160.698 68.9843 161.395 69.2724 162.122 69.2724H162.108Z" fill="#6EE2E5"/>
<path d="M180.197 84.0222L177.65 79.3559L180.247 77.9525C180.194 77.6088 180.165 77.2617 180.162 76.914C180.163 76.3713 180.222 75.8303 180.338 75.3L177.868 73.6931L180.759 69.1882L183.243 70.8021C183.795 70.3982 184.4 70.0702 185.039 69.8267V66.8726H190.358V69.8267C191.178 70.1375 191.938 70.5886 192.604 71.16L195.193 69.7566L197.747 74.4229L195.151 75.8263C195.201 76.1726 195.227 76.522 195.228 76.8719C195.227 77.4122 195.168 77.9509 195.053 78.4788L197.53 80.0857L194.631 84.5485L192.147 82.9346C191.598 83.3398 190.996 83.668 190.358 83.91V86.8712H185.039V83.924C184.219 83.6158 183.459 83.167 182.794 82.5978L180.197 84.0222ZM187.699 78.4086C188.006 78.4086 188.306 78.3175 188.561 78.1468C188.816 77.976 189.015 77.7334 189.132 77.4497C189.249 77.1659 189.279 76.8537 189.219 76.5527C189.159 76.2517 189.01 75.9754 188.793 75.7588C188.575 75.5422 188.298 75.395 187.997 75.336C187.696 75.277 187.384 75.3087 187.1 75.4271C186.817 75.5456 186.575 75.7454 186.406 76.0014C186.236 76.2573 186.146 76.5578 186.148 76.8648C186.144 77.0705 186.182 77.2749 186.258 77.4659C186.334 77.6569 186.448 77.8307 186.592 77.9771C186.737 78.1236 186.909 78.2397 187.099 78.3186C187.289 78.3975 187.493 78.4376 187.699 78.4367V78.4086Z" fill="white"/>
<defs>
<linearGradient id="paint0_linear_1180_11590" x1="185.839" y1="178.914" x2="150.705" y2="163.055" gradientUnits="userSpaceOnUse">
<stop stop-color="#BEBCE6" stop-opacity="0.3"/>
<stop offset="1" stop-color="#B4B2D9" stop-opacity="0"/>
</linearGradient>
</defs>
</svg>
