<svg width="24" height="24" viewBox="0 0 24 24" fill="none" xmlns="http://www.w3.org/2000/svg">
<path d="M9.7238 16.6708C9.13793 16.6707 8.55542 16.5836 7.9952 16.4122C7.43507 16.2403 6.9038 15.9857 6.41895 15.6568C6.61784 15.6836 6.81828 15.6973 7.01898 15.6976C7.05438 15.6976 7.08796 15.6976 7.11976 15.6976C7.15156 15.6976 7.19968 15.6976 7.23988 15.6976C7.68955 15.6977 8.13469 15.6107 8.55128 15.4414C9.00663 15.2587 9.41737 14.9804 9.75603 14.6253C9.5231 14.624 9.29215 14.5851 9.07162 14.5102C8.85164 14.4349 8.64533 14.325 8.45987 14.1848C8.27445 14.0458 8.11193 13.8782 7.97937 13.6881C7.84735 13.497 7.74611 13.2864 7.67936 13.064C7.82249 13.0902 7.96806 13.1035 8.11356 13.1037H8.17333C8.32473 13.1034 8.47475 13.0725 8.61398 13.013C8.45418 12.9752 8.29848 12.9209 8.14989 12.851C8.00051 12.7817 7.8587 12.6971 7.72682 12.5985C7.60168 12.5067 7.48739 12.4013 7.3852 12.2845C7.28255 12.1668 7.19283 12.0383 7.118 11.9012C7.02369 11.7194 6.95187 11.5267 6.90471 11.3275C6.85679 11.1279 6.83517 10.9231 6.83967 10.7179C7.07643 10.8851 7.35449 10.9839 7.64362 11.0036H7.64713C7.68133 11.0036 7.7172 10.9982 7.75261 10.9928C7.61185 10.8674 7.48331 10.7292 7.36821 10.5799C7.25303 10.4305 7.15151 10.2711 7.06468 10.1036C6.9847 9.953 6.92089 9.79424 6.87483 9.6301C6.82947 9.46567 6.80171 9.29687 6.79162 9.1266C6.7846 8.91558 6.80683 8.70465 6.85725 8.49962C6.90833 8.2948 6.98744 8.09803 7.09281 7.91512C7.49506 8.35804 7.94564 8.75483 8.43584 9.09789C9.3703 9.81284 10.506 10.2158 11.6821 10.2499H11.7348H11.7395C11.7995 10.2499 11.8554 10.2468 11.9106 10.2402C11.8594 10.0534 11.8318 9.86098 11.8292 9.6673C11.8249 9.51677 11.8364 9.36617 11.8626 9.21787C11.889 9.07102 11.9293 8.92696 11.9827 8.78762C12.0362 8.64854 12.1023 8.5149 12.1813 8.38858C12.2621 8.26182 12.3549 8.14271 12.4573 8.03275C12.5616 7.9238 12.6758 7.82516 12.799 7.73816C12.9209 7.65176 13.0514 7.57784 13.188 7.51739C13.3229 7.45622 13.4638 7.40873 13.6082 7.37574C13.7548 7.34235 13.9038 7.32346 14.0541 7.31934H14.0963C14.2403 7.31953 14.3839 7.33363 14.5252 7.36138C14.6664 7.38799 14.8049 7.42815 14.9383 7.48136C15.0784 7.53738 15.2123 7.60781 15.3379 7.69142C15.4643 7.77518 15.5821 7.87113 15.6895 7.97811H15.7247C16.2684 7.96464 16.7937 7.77881 17.2248 7.44722C17.224 7.48771 17.2189 7.52795 17.2089 7.5672C17.1861 7.65947 17.1505 7.74823 17.104 7.83118C17.029 7.9716 16.9386 8.10309 16.8339 8.22304C16.6751 8.40555 16.5001 8.57339 16.3112 8.72463C16.7535 8.68923 17.1833 8.56229 17.574 8.35196C17.4252 8.60906 17.2534 8.85189 17.0601 9.07738C16.867 9.30209 16.653 9.50828 16.4214 9.69309C16.4415 10.1827 16.413 10.6732 16.3358 11.1571C16.2585 11.6407 16.1321 12.1153 15.9585 12.5733C15.7993 13.0033 15.5924 13.4143 15.342 13.7985C15.0901 14.1818 14.7965 14.536 14.4666 14.8546C14.0255 15.2634 13.5329 15.6131 13.0017 15.895C12.472 16.1763 11.9084 16.3885 11.3247 16.5262C10.8833 16.6152 10.4348 16.6625 9.98455 16.6673C9.90115 16.6691 9.8126 16.6708 9.7238 16.6708ZM11.2842 13.5026C11.247 13.5974 11.2101 13.6887 11.1747 13.7817C11.1104 13.9509 11.0493 14.1099 10.9707 14.2803C10.8798 14.476 10.7743 14.6647 10.6555 14.8449C10.5346 15.0413 10.4008 15.2293 10.2547 15.4077C10.1464 15.5285 10.016 15.6274 9.87029 15.6988C9.88529 15.6988 9.90094 15.6988 9.91834 15.6988C10.1003 15.6866 10.2812 15.6592 10.4586 15.6166C10.5618 15.595 10.6586 15.5752 10.724 15.5668C11.0655 15.5239 11.4009 15.442 11.7237 15.3226C11.7483 15.3136 11.7841 15.2985 11.8321 15.2775C12.0862 15.1797 12.3345 15.0686 12.5769 14.9445C12.8476 14.8067 13.1103 14.6528 13.3627 14.4837C13.6245 14.3191 13.8638 14.1215 14.0752 13.8956C14.5858 13.3383 14.9661 12.6742 15.1879 11.9515C15.4077 11.2937 15.4769 10.5949 15.3907 9.90667V9.89642C15.3907 9.88022 15.3907 9.79561 15.3907 9.75901V9.74582L15.4587 9.58439L15.328 9.3607L15.2963 8.98626H15.1452C14.9576 8.76587 14.7257 8.58769 14.4643 8.46358L14.4309 8.44747C14.4177 8.44002 14.4044 8.43328 14.3904 8.42755C14.2447 8.37496 14.0906 8.35005 13.9357 8.35386C13.8798 8.35368 13.8238 8.35644 13.7681 8.36221C13.6048 8.36361 13.446 8.41563 13.3134 8.51105C13.2236 8.5661 13.1471 8.64053 13.0896 8.72888C13.01 8.83142 12.9441 8.94391 12.8939 9.06361C12.794 9.30584 12.7398 9.56433 12.7333 9.82625C12.7223 10.0315 12.7575 10.2365 12.8365 10.4263C12.8485 10.4665 12.8607 10.5055 12.8745 10.5463C12.8742 10.6277 12.857 10.7082 12.8241 10.7827C12.7695 10.8684 12.701 10.9445 12.6214 11.0077L12.6144 11.0149L12.6097 11.0185C12.6001 11.0185 12.5958 11.0263 12.5886 11.0377L12.5851 11.0414C12.5174 11.0953 12.4373 11.1321 12.3524 11.1488C12.1831 11.1963 12.0086 11.2214 11.8327 11.2232C11.2838 11.2069 10.7389 11.125 10.2096 10.979C9.40123 10.69 8.6392 10.2842 7.94832 9.77468C8.19523 10.3919 8.67501 10.8876 9.28374 11.1548L9.30718 11.1691C9.31165 11.1715 9.31557 11.1743 9.31948 11.1775L9.32534 11.1811L9.34761 11.1955C9.242 11.2513 9.18823 11.2861 9.13783 11.3155C9.04473 11.3757 8.94706 11.4289 8.84602 11.4746L8.68371 11.5538C8.53498 11.6363 8.37511 11.6968 8.20907 11.7337C8.59622 12.1611 9.1243 12.4346 9.69684 12.5037C9.88645 12.5331 10.5084 12.6295 10.5576 12.6409L9.70915 13.1811C9.68201 13.2017 9.65256 13.2195 9.62184 13.2344C9.53592 13.2795 9.45389 13.3319 9.37691 13.391C9.33051 13.4102 9.28984 13.4404 9.25737 13.4787C9.29761 13.5316 9.35087 13.5729 9.41206 13.5987C9.61025 13.685 9.82545 13.7247 10.0414 13.715H10.0836C10.4959 13.687 10.9028 13.6085 11.2959 13.4811L11.2842 13.5026Z" fill="white"/>
<path d="M14.8695 22.2929H9.12542C3.92736 22.2929 1.70605 20.0728 1.70605 14.8718V9.12767C1.70605 3.92901 3.92616 1.70654 9.12542 1.70654H14.8695C20.0676 1.70654 22.2889 3.92661 22.2889 9.12767V14.8718C22.2895 20.0704 20.0682 22.2929 14.8695 22.2929ZM9.12542 3.14231C4.7122 3.14231 3.14193 4.71624 3.14193 9.12767V14.8718C3.14193 19.2832 4.7122 20.8571 9.12542 20.8571H14.8695C19.2827 20.8571 20.853 19.2832 20.853 14.8718V9.12767C20.853 4.71624 19.2827 3.14231 14.8695 3.14231H9.12542Z" fill="white"/>
</svg>
