<svg width="38" height="35" viewBox="0 0 38 35" fill="none" xmlns="http://www.w3.org/2000/svg">
<path d="M30.6463 6.69929C31.2311 6.69929 31.7051 6.22524 31.7051 5.64046C31.7051 5.05569 31.2311 4.58164 30.6463 4.58164C30.0615 4.58164 29.5875 5.05569 29.5875 5.64046C29.5875 6.22524 30.0615 6.69929 30.6463 6.69929Z" fill="#37383F"/>
<path d="M27.4708 5.64046C27.4708 6.22524 26.9967 6.69929 26.4119 6.69929C25.8272 6.69929 25.3531 6.22524 25.3531 5.64046C25.3531 5.05569 25.8272 4.58164 26.4119 4.58164C26.9967 4.58164 27.4708 5.05569 27.4708 5.64046Z" fill="#37383F"/>
<path d="M22.1756 6.69929C22.7604 6.69929 23.2344 6.22524 23.2344 5.64046C23.2344 5.05569 22.7604 4.58164 22.1756 4.58164C21.5908 4.58164 21.1168 5.05569 21.1168 5.64046C21.1168 6.22524 21.5908 6.69929 22.1756 6.69929Z" fill="#37383F"/>
<path d="M10.5283 18.3475C10.5283 17.7122 10.9518 17.2887 11.5871 17.2887C12.2224 17.2887 12.646 17.7122 12.646 18.3475V25.3357C12.646 25.5475 12.4342 25.5475 12.4342 25.5475C12.4342 25.7593 12.2224 25.7593 12.2224 25.7593H11.3754C11.3754 25.5475 11.1636 25.5475 11.1636 25.5475H10.9518L8.41067 23.0063L6.08126 25.5475C5.97538 25.5475 5.92244 25.6004 5.8695 25.6534C5.81656 25.7063 5.76361 25.7593 5.65773 25.7593H4.81067L4.17538 25.124V18.3475C4.17538 17.7122 4.59891 17.2887 5.2342 17.2887C5.8695 17.2887 6.29303 17.7122 6.29303 18.3475V22.1593L7.56361 20.6769C7.98714 20.2534 8.62244 20.2534 9.04597 20.6769L10.5283 22.1593V18.3475Z" fill="#37383F"/>
<path d="M21.1166 18.3475C21.1166 17.7122 21.5401 17.2887 22.1754 17.2887C22.8107 17.2887 23.2342 17.7122 23.2342 18.3475V25.3357C23.2342 25.5475 23.0224 25.5475 23.0224 25.5475C23.0224 25.7593 22.8107 25.7593 22.8107 25.7593H21.9636C21.9636 25.5475 21.7518 25.5475 21.7518 25.5475H21.5401L18.9989 23.0063L16.6695 25.5475C16.5636 25.5475 16.5107 25.6004 16.4577 25.6534C16.4048 25.7063 16.3518 25.7593 16.246 25.7593H15.3989L14.7636 25.124V18.3475C14.7636 17.7122 15.1871 17.2887 15.8224 17.2887C16.4577 17.2887 16.8813 17.7122 16.8813 18.3475V22.1593L18.1518 20.6769C18.5754 20.2534 19.2107 20.2534 19.6342 20.6769L21.1166 22.1593V18.3475Z" fill="#37383F"/>
<path d="M31.7048 18.3475C31.7048 17.7122 32.1283 17.2887 32.7636 17.2887C33.3989 17.2887 33.8224 17.7122 33.8224 18.3475V25.3357C33.8224 25.5475 33.6107 25.5475 33.6107 25.5475C33.6107 25.7593 33.3989 25.7593 33.3989 25.7593H32.5518C32.5518 25.5475 32.3401 25.5475 32.3401 25.5475H32.1283L29.5871 23.0063L27.2577 25.5475C27.1518 25.5475 27.0989 25.6004 27.046 25.6534C26.993 25.7063 26.9401 25.7593 26.8342 25.7593H25.9871L25.3518 25.124V18.3475C25.3518 17.7122 25.7754 17.2887 26.4107 17.2887C27.046 17.2887 27.4695 17.7122 27.4695 18.3475V22.1593L28.7401 20.6769C29.1636 20.2534 29.7989 20.2534 30.2224 20.6769L31.7048 22.1593V18.3475Z" fill="#37383F"/>
<path fill-rule="evenodd" clip-rule="evenodd" d="M3.11724 0.55586C2.28879 0.55586 1.53236 0.835721 0.980909 1.38717C0.429459 1.93862 0.149597 2.69505 0.149597 3.52351V31.0529C0.149597 31.8814 0.429459 32.6378 0.980909 33.1893C1.53236 33.7407 2.28879 34.0206 3.11724 34.0206H34.882C35.7104 34.0206 36.4668 33.7407 37.0183 33.1893C37.5697 32.6378 37.8496 31.8814 37.8496 31.0529V3.52351C37.8496 2.69505 37.5697 1.93862 37.0183 1.38717C36.4668 0.835721 35.7104 0.55586 34.882 0.55586H3.11724ZM1.8496 3.52351C1.8496 3.08137 1.99327 2.77898 2.18299 2.58925C2.37272 2.39953 2.67511 2.25586 3.11724 2.25586H34.882C35.3241 2.25586 35.6265 2.39953 35.8162 2.58925C36.0059 2.77898 36.1496 3.08137 36.1496 3.52351V9.05246C36.0827 9.03555 36.0127 9.02656 35.9405 9.02656H2.05819C1.98622 9.02656 1.91634 9.03551 1.8496 9.05235V3.52351ZM1.8496 10.7008V31.0529C1.8496 31.4951 1.99327 31.7974 2.18299 31.9872C2.37272 32.1769 2.67511 32.3206 3.11724 32.3206H34.882C35.3241 32.3206 35.6265 32.1769 35.8162 31.9872C36.0059 31.7974 36.1496 31.4951 36.1496 31.0529V10.7007C36.0827 10.7176 36.0127 10.7266 35.9405 10.7266H2.05819C1.98622 10.7266 1.91634 10.7176 1.8496 10.7008Z" fill="#37383F"/>
</svg>
