<svg width="34" height="37" viewBox="0 0 34 37" fill="none" xmlns="http://www.w3.org/2000/svg">
<path fill-rule="evenodd" clip-rule="evenodd" d="M15.3316 32.0083C15.3316 31.0818 16.0786 30.3307 17 30.3307C17.9215 30.3307 18.6684 31.0818 18.6684 32.0083C18.6684 32.9348 17.9215 33.6858 17 33.6858C16.0786 33.6858 15.3316 32.9348 15.3316 32.0083ZM17 32.1443C17.0747 32.1443 17.1353 32.0834 17.1353 32.0083C17.1353 31.9331 17.0747 31.8722 17 31.8722C16.9253 31.8722 16.8647 31.9331 16.8647 32.0083C16.8647 32.0834 16.9253 32.1443 17 32.1443Z" fill="#37383F"/>
<path fill-rule="evenodd" clip-rule="evenodd" d="M2.70557 4.35083C2.70557 2.1723 4.46199 0.40625 6.62865 0.40625H27.3714C29.538 0.40625 31.2944 2.1723 31.2944 4.35083C31.2944 6.52937 29.538 8.29542 27.3714 8.29542H17.9019V9.47426H27.3714C29.538 9.47426 31.2944 11.2403 31.2944 13.4188C31.2944 15.5974 29.538 17.3634 27.3714 17.3634H17.9019V18.5423H27.3714C29.538 18.5423 31.2944 20.3083 31.2944 22.4869C31.2944 24.6654 29.538 26.4314 27.3714 26.4314H17.9019V27.7039C18.5531 27.8411 19.151 28.124 19.6605 28.5171H34V34.5926H20.5395C19.7444 35.6918 18.4552 36.4062 17 36.4062C15.5448 36.4062 14.2556 35.6918 13.4605 34.5926H0V28.5171H14.3395C14.849 28.124 15.4469 27.8411 16.0981 27.7039V26.4314H6.62865C4.46199 26.4314 2.70557 24.6654 2.70557 22.4869C2.70557 20.3083 4.46199 18.5423 6.62865 18.5423H16.0981V17.3634H6.62865C4.46199 17.3634 2.70557 15.5974 2.70557 13.4188C2.70557 11.2403 4.46199 9.47426 6.62865 9.47426H16.0981V8.29542H6.62865C4.46199 8.29542 2.70557 6.52937 2.70557 4.35083ZM13.0782 30.0586H1.53316V33.0511H12.7497C12.6859 32.7874 12.6458 32.5145 12.6317 32.2346C12.6279 32.1596 12.626 32.0842 12.626 32.0083C12.626 31.8726 12.6321 31.7384 12.6441 31.6058C12.6938 31.0544 12.8448 30.5324 13.0782 30.0586ZM14.1628 32.1553C14.2389 33.6645 15.4801 34.8647 17 34.8647C18.5053 34.8647 19.7372 33.6875 19.8346 32.1987C19.8388 32.1357 19.8409 32.0722 19.8409 32.0083C19.8409 31.9899 19.8407 31.9715 19.8403 31.9532C19.8112 30.4011 18.5507 29.1518 17 29.1518C15.431 29.1518 14.1592 30.4307 14.1592 32.0083C14.1592 32.0576 14.1604 32.1066 14.1628 32.1553ZM21.2503 33.0511H32.4668V30.0586H20.9218C21.1566 30.5351 21.3079 31.0605 21.3568 31.6155C21.3682 31.7449 21.374 31.8759 21.374 32.0083C21.374 32.1071 21.3708 32.2052 21.3644 32.3024C21.3476 32.5586 21.3089 32.8087 21.2503 33.0511ZM6.62865 1.94781C5.30873 1.94781 4.23873 3.02368 4.23873 4.35083C4.23873 5.67799 5.30873 6.75386 6.62865 6.75386H27.3714C28.6913 6.75386 29.7613 5.67799 29.7613 4.35083C29.7613 3.02368 28.6913 1.94781 27.3714 1.94781H6.62865ZM6.62865 20.0838C5.30873 20.0838 4.23873 21.1597 4.23873 22.4869C4.23873 23.814 5.30873 24.8899 6.62865 24.8899H27.3714C28.6913 24.8899 29.7613 23.814 29.7613 22.4869C29.7613 21.1597 28.6913 20.0838 27.3714 20.0838H6.62865ZM4.23873 13.4188C4.23873 12.0917 5.30873 11.0158 6.62865 11.0158H27.3714C28.6913 11.0158 29.7613 12.0917 29.7613 13.4188C29.7613 14.746 28.6913 15.8219 27.3714 15.8219H6.62865C5.30873 15.8219 4.23873 14.746 4.23873 13.4188Z" fill="#37383F"/>
</svg>
