<svg width="36" height="36" viewBox="0 0 36 36" fill="none" xmlns="http://www.w3.org/2000/svg">
<path fill-rule="evenodd" clip-rule="evenodd" d="M6.91324 31.8802C10.0379 34.4383 13.953 35.8334 17.9912 35.8277C20.278 35.8271 22.5423 35.3758 24.6546 34.4995C26.7668 33.6232 28.6857 32.3391 30.3013 30.7207C33.1576 27.8661 34.9353 24.1092 35.3314 20.0904C35.7276 16.0717 34.7176 12.04 32.4737 8.68266C30.2297 5.32531 26.8907 2.8502 23.026 1.6793C19.1613 0.508401 15.0101 0.714211 11.2802 2.26164C7.55023 3.80907 4.47253 6.6023 2.57168 10.1651C0.670833 13.728 0.0645175 17.8398 0.856228 21.7997C1.64794 25.7595 3.7886 29.3222 6.91324 31.8802ZM14.3502 3.86005C15.5332 3.56556 16.7555 3.41437 17.9912 3.41569C19.2333 3.41726 20.4593 3.57272 21.6438 3.87147C21.6507 3.98053 21.6728 4.08834 21.7096 4.19178C22.234 5.78151 22.6681 7.39303 23.0119 9.01883L22.957 8.92773C22.957 8.92773 23.1983 9.68653 22.9033 9.99854C22.7968 10.1112 22.617 10.1632 22.4307 10.1835C19.4848 9.90665 16.5193 9.90564 13.5733 10.1805C13.3682 10.1646 13.1629 10.1142 13.0459 9.99048C12.9233 9.86081 12.8932 9.65392 12.8998 9.4564C13.2562 7.68781 13.7193 5.9353 14.289 4.2085C14.3258 4.09545 14.3463 3.97813 14.3502 3.86005ZM22.2826 12.6143C22.6307 12.7178 22.9647 12.8677 23.2755 13.0608C23.5365 13.2806 23.6928 13.6856 23.7863 14.0795C24.06 16.9413 24.061 19.823 23.7891 22.6849C23.6969 23.0844 23.5406 23.4985 23.2755 23.7218C22.9155 23.9455 22.5243 24.1111 22.1162 24.2141C19.3454 24.4666 16.5569 24.4633 13.7865 24.2042C13.392 24.1007 13.0136 23.9385 12.6645 23.7218C12.4702 23.5584 12.3343 23.2922 12.2393 23.0043C11.9271 19.9362 11.9286 16.844 12.244 13.7762C12.3397 13.4892 12.4758 13.224 12.6695 13.0608C12.9769 12.87 13.3069 12.7214 13.6507 12.618C16.5213 12.3421 19.4119 12.3408 22.2826 12.6143ZM32.1922 14.6949C30.4964 14.1349 28.7757 13.6779 27.0393 13.3238C26.8113 13.3008 26.5452 13.3149 26.3899 13.4617C26.2883 13.5578 26.2361 13.7135 26.2119 13.8797C26.4984 16.8882 26.497 19.9175 26.2076 22.9258C26.2332 23.0833 26.2852 23.2292 26.3821 23.3209C26.6941 23.6159 27.4531 23.3749 27.4531 23.3749L27.3768 23.4208C29.0049 23.0765 30.6187 22.6414 32.2105 22.1156C32.3166 22.0788 32.4265 22.0574 32.5369 22.0512C32.9484 20.3998 33.0791 18.6783 32.9107 16.9593C32.8376 16.2138 32.7093 15.4787 32.5283 14.7596C32.4136 14.7561 32.3001 14.7343 32.1922 14.6949ZM27.2935 10.8959C28.7104 11.179 30.1175 11.5275 31.5103 11.9412C30.7828 10.422 29.7994 9.0249 28.5912 7.81566C27.3807 6.6046 25.9847 5.62163 24.4698 4.89446C24.9041 6.35998 25.266 7.84127 25.5557 9.33309C25.6558 9.68287 25.8097 10.0158 26.0127 10.3198C26.4026 10.617 26.8604 10.812 27.3447 10.8877L27.2935 10.8959ZM9.57703 23.3698C9.45905 23.4813 9.27714 23.5162 9.09653 23.5165C7.31089 23.1583 5.54158 22.6913 3.79852 22.1156C3.67398 22.0735 3.54392 22.0517 3.41327 22.0506C2.8809 19.9137 2.82167 17.6706 3.25918 15.4815C3.30771 15.2387 3.36213 14.9977 3.42234 14.7585C3.54397 14.7559 3.66467 14.7345 3.7802 14.6949C5.47764 14.1344 7.19996 13.677 8.93801 13.3228C9.16372 13.3013 9.42408 13.3171 9.57703 13.4617C9.72356 13.6003 9.7673 13.8628 9.77249 14.1022C9.51323 16.9663 9.51334 19.8482 9.7728 22.7122C9.76937 22.9561 9.72713 23.2278 9.57703 23.3698ZM11.4889 5.03552C11.1071 6.34421 10.7824 7.66516 10.515 8.99471L10.5029 8.91992C10.4233 9.42064 10.2356 9.89813 9.9541 10.3198C9.56381 10.6169 9.10569 10.812 8.62109 10.8877L8.67549 10.8964C7.25108 11.1811 5.83655 11.5318 4.43647 11.9485C5.38021 9.97507 6.75073 8.21778 8.46634 6.81266C9.32998 6.10532 10.2639 5.50131 11.249 5.00741C11.3273 5.02462 11.4076 5.03415 11.4889 5.03552ZM4.58814 25.2048C4.61161 25.1121 4.6239 25.0167 4.62457 24.9206C6.1269 25.3611 7.64841 25.7263 9.1834 26.0153C9.45891 26.1166 9.71883 26.2587 9.9541 26.4377C10.2356 26.8594 10.4233 27.3369 10.5029 27.8376L10.5102 27.7925C10.7785 29.1301 11.1048 30.459 11.4889 31.7755C11.3916 31.7766 11.2951 31.7896 11.2013 31.8139C8.45412 30.4243 6.1918 28.2182 4.73428 25.4859C4.68454 25.3926 4.63582 25.2989 4.58814 25.2048ZM14.289 32.6185C13.7202 30.8945 13.2577 29.1449 12.9015 27.3792C12.8896 27.1706 12.9154 26.9449 13.0459 26.8069C13.1492 26.6977 13.3212 26.6456 13.5013 26.624C14.9932 26.7645 16.4926 26.8343 17.9946 26.8326C19.5029 26.8348 21.0087 26.765 22.507 26.6242C22.665 26.6497 22.8114 26.7016 22.9033 26.7988C23.1983 27.1108 22.957 27.8699 22.957 27.8699L23.0106 27.7809C22.6671 29.4046 22.2334 31.0141 21.7096 32.6018C21.6646 32.7217 21.6407 32.8481 21.6388 32.9756C19.2398 33.5796 16.7363 33.5792 14.3507 32.9854C14.3484 32.8611 14.3277 32.7374 14.289 32.6185ZM24.4402 31.9657C24.8886 30.4647 25.261 28.9469 25.5575 27.4181C25.6576 27.0707 25.8109 26.7399 26.0127 26.4377C26.2333 26.2696 26.4756 26.1341 26.7323 26.0344C28.2985 25.7435 29.8509 25.3736 31.3835 24.9256C31.3842 24.9926 31.3906 25.0592 31.4024 25.1247C31.1206 25.6894 30.8021 26.2382 30.448 26.7675C28.9411 29.0199 26.8609 30.8101 24.4402 31.9657Z" fill="#37383F"/>
</svg>
