<svg width="62" height="62" viewBox="0 0 62 62" fill="none" xmlns="http://www.w3.org/2000/svg">
<g clip-path="url(#clip0_610_382)">
<g filter="url(#filter0_d_610_382)">
<path d="M6.17081 57.7124C5.92903 57.7057 5.69072 57.6532 5.46862 57.5574C5.23456 57.4708 5.0227 57.3331 4.84855 57.1544C4.61534 56.9221 4.44563 56.634 4.35564 56.3174C4.2662 55.9949 4.2662 55.654 4.35564 55.3314L7.49288 43.6037C4.46512 37.9568 3.5712 31.4086 4.97438 25.1568C6.37757 18.9049 9.98426 13.3669 15.1348 9.55552C20.2854 5.74417 26.6357 3.91425 33.0247 4.40007C39.4137 4.8859 45.4144 7.65502 49.9295 12.2014C54.4445 16.7477 57.1723 22.7673 57.614 29.1595C58.0557 35.5517 56.1818 41.8892 52.335 47.0134C48.4882 52.1375 42.9255 55.706 36.6641 57.066C30.4027 58.426 23.8609 57.4868 18.235 54.4202L6.67148 57.6318C6.50895 57.6809 6.34056 57.708 6.17081 57.7124ZM18.4971 50.5557C18.8251 50.5731 19.1457 50.6596 19.4379 50.8099C24.2761 53.6605 29.9866 54.6522 35.5027 53.5997C41.0188 52.5472 45.9631 49.5226 49.4118 45.0907C52.8605 40.6589 54.5779 35.1231 54.2429 29.5175C53.9079 23.9119 51.5436 18.62 47.5917 14.6304C43.6397 10.6407 38.3705 8.22631 32.7683 7.83817C27.1662 7.45003 21.6142 9.11483 17.1498 12.5213C12.6855 15.9278 9.61417 20.843 8.50936 26.3488C7.40456 31.8547 8.34192 37.5745 11.1465 42.4396C11.395 42.8691 11.4646 43.3789 11.3403 43.8593L8.86017 53.1598L18.018 50.6208C18.1736 50.5761 18.3351 50.5542 18.4971 50.5557Z" fill="white"/>
</g>
<path d="M6.17081 57.7124C5.92903 57.7057 5.69072 57.6532 5.46862 57.5574C5.23456 57.4708 5.0227 57.3331 4.84855 57.1544C4.61534 56.9221 4.44563 56.634 4.35564 56.3174C4.2662 55.9949 4.2662 55.654 4.35564 55.3314L7.49288 43.6037C4.46512 37.9568 3.5712 31.4086 4.97438 25.1568C6.37757 18.9049 9.98426 13.3669 15.1348 9.55552C20.2854 5.74417 26.6357 3.91425 33.0247 4.40007C39.4137 4.8859 45.4144 7.65502 49.9295 12.2014C54.4445 16.7477 57.1723 22.7673 57.614 29.1595C58.0557 35.5517 56.1818 41.8892 52.335 47.0134C48.4882 52.1375 42.9255 55.706 36.6641 57.066C30.4027 58.426 23.8609 57.4868 18.235 54.4202L6.67148 57.6318C6.50895 57.6809 6.34056 57.708 6.17081 57.7124Z" fill="#46C655"/>
<path d="M6.17081 57.7124C5.92903 57.7057 5.69072 57.6532 5.46862 57.5574C5.23456 57.4708 5.0227 57.3331 4.84855 57.1544C4.61534 56.9221 4.44563 56.634 4.35564 56.3174C4.2662 55.9949 4.2662 55.654 4.35564 55.3314L7.49288 43.6037C4.46512 37.9568 3.5712 31.4086 4.97438 25.1568C6.37757 18.9049 9.98426 13.3669 15.1348 9.55552C20.2854 5.74417 26.6357 3.91425 33.0247 4.40007C39.4137 4.8859 45.4144 7.65502 49.9295 12.2014C54.4445 16.7477 57.1723 22.7673 57.614 29.1595C58.0557 35.5517 56.1818 41.8892 52.335 47.0134C48.4882 52.1375 42.9255 55.706 36.6641 57.066C30.4027 58.426 23.8609 57.4868 18.235 54.4202L6.67148 57.6318C6.50895 57.6809 6.34056 57.708 6.17081 57.7124ZM18.4971 50.5557C18.8251 50.5731 19.1457 50.6596 19.4379 50.8099C24.2761 53.6605 29.9866 54.6522 35.5027 53.5997C41.0188 52.5472 45.9631 49.5226 49.4118 45.0907C52.8605 40.6589 54.5779 35.1231 54.2429 29.5175C53.9079 23.9119 51.5436 18.62 47.5917 14.6304C43.6397 10.6407 38.3705 8.22631 32.7683 7.83817C27.1662 7.45003 21.6142 9.11483 17.1498 12.5213C12.6855 15.9278 9.61417 20.843 8.50936 26.3488C7.40456 31.8547 8.34192 37.5745 11.1465 42.4396C11.395 42.8691 11.4646 43.3789 11.3403 43.8593L8.86017 53.1598L18.018 50.6208C18.1736 50.5761 18.3351 50.5542 18.4971 50.5557Z" fill="white"/>
<path d="M37.9328 42.3726C36.6353 42.4382 35.3378 42.243 34.1169 41.7989C32.6679 41.2889 31.2812 40.6176 29.9822 39.7977C29.5338 39.5078 29.0868 39.2194 28.6521 38.9119L26.5828 37.3129C26.5097 37.2741 26.4407 37.2277 26.3774 37.1745C26.2428 37.0568 26.1051 36.9527 25.9697 36.8359C24.7214 35.7457 23.5576 34.5625 22.4879 33.2966C21.5064 32.1377 20.6541 30.8753 19.9463 29.5316C19.3503 28.3767 18.9831 27.1175 18.8654 25.8232C18.8081 25.0633 18.8953 24.2993 19.1224 23.5718C19.3676 22.8204 19.7757 22.1321 20.3171 21.556C20.6006 21.2037 20.9511 20.9115 21.349 20.6965C21.7478 20.4828 22.1851 20.3503 22.6355 20.3069C22.9587 20.2805 23.2836 20.3287 23.5852 20.4477C23.9075 20.5657 24.1919 20.7694 24.4067 21.037L27.3415 24.6115C27.5452 24.8466 27.7192 25.1062 27.8585 25.3843C27.9756 25.5989 28.0489 25.8347 28.0737 26.0779C28.0878 26.367 28.0229 26.6545 27.8873 26.9102C27.73 27.2212 27.5336 27.5104 27.3018 27.7706L26.4913 28.7417C26.4339 28.8062 26.3894 28.8808 26.3599 28.9619C26.3354 29.0446 26.3273 29.1313 26.3357 29.2171C26.3392 29.306 26.3574 29.3937 26.3896 29.4767C26.4295 29.5711 26.4735 29.6369 26.4973 29.7034C26.8451 30.2052 27.2383 30.674 27.6721 31.1037C28.235 31.6623 28.8317 32.235 29.4727 32.8047C29.5666 32.887 29.6671 32.968 29.7625 33.0485L32.1441 34.8632C32.4128 35.0348 32.6924 35.1884 32.9815 35.3227C33.0512 35.3435 33.1196 35.3744 33.203 35.4018C33.2975 35.4284 33.396 35.437 33.4937 35.4271C33.582 35.4243 33.6681 35.4014 33.7463 35.3602C33.8266 35.3233 33.8979 35.2682 33.9533 35.1994L34.7695 34.2737C34.9947 34.0023 35.2578 33.7646 35.5508 33.5681C35.7857 33.3948 36.0649 33.2917 36.3561 33.2705C36.5992 33.2559 36.8431 33.2895 37.0732 33.3695C37.3645 33.47 37.6439 33.6019 37.9068 33.7628L41.9195 36.1987C42.2075 36.3613 42.4439 36.6014 42.6022 36.8917C42.7432 37.1665 42.8274 37.4668 42.8502 37.7749C42.8747 38.1098 42.8378 38.4464 42.7408 38.768C42.7208 38.8658 42.6895 38.9609 42.6471 39.0513C42.4762 39.494 42.2412 39.9095 41.95 40.2843C41.4708 40.9085 40.8584 41.4172 40.1565 41.7731C40.1433 41.7741 40.1309 41.785 40.1177 41.7859C39.4434 42.117 38.7118 42.3143 37.9625 42.3672L37.9328 42.3726Z" fill="white"/>
</g>
<defs>
<filter id="filter0_d_610_382" x="0.288559" y="0.323242" width="61.3889" height="61.3892" filterUnits="userSpaceOnUse" color-interpolation-filters="sRGB">
<feFlood flood-opacity="0" result="BackgroundImageFix"/>
<feColorMatrix in="SourceAlpha" type="matrix" values="0 0 0 0 0 0 0 0 0 0 0 0 0 0 0 0 0 0 127 0" result="hardAlpha"/>
<feOffset/>
<feGaussianBlur stdDeviation="2"/>
<feComposite in2="hardAlpha" operator="out"/>
<feColorMatrix type="matrix" values="0 0 0 0 0 0 0 0 0 0 0 0 0 0 0 0 0 0 0.08 0"/>
<feBlend mode="normal" in2="BackgroundImageFix" result="effect1_dropShadow_610_382"/>
<feBlend mode="normal" in="SourceGraphic" in2="effect1_dropShadow_610_382" result="shape"/>
</filter>
<clipPath id="clip0_610_382">
<rect width="62" height="62" fill="white"/>
</clipPath>
</defs>
</svg>
