<svg width="255" height="44" viewBox="0 0 255 44" fill="none" xmlns="http://www.w3.org/2000/svg">
<rect width="255" height="44" rx="8" fill="#6B16A8"/>
<g clip-path="url(#clip0_787_2622)">
<path d="M66.3152 28.9673C65.5317 28.9518 64.7593 28.7793 64.0436 28.4603C63.1934 28.0919 62.3874 27.6292 61.6406 27.0807C61.3831 26.8872 61.1264 26.6947 60.8779 26.4912L59.7006 25.4411C59.6583 25.4147 59.6187 25.3839 59.5829 25.3492C59.5069 25.2727 59.4284 25.2041 59.3519 25.1281C58.647 24.4191 57.997 23.6577 57.407 22.8505C56.8656 22.1114 56.4062 21.3155 56.0373 20.4769C55.7277 19.7566 55.5601 18.9832 55.5441 18.1993C55.5418 17.7395 55.6266 17.2834 55.7941 16.8552C55.9735 16.4133 56.2482 16.0164 56.5984 15.6927C56.7839 15.4927 57.0071 15.3317 57.2556 15.2191C57.5046 15.1074 57.7734 15.0462 58.0462 15.0391C58.2418 15.037 58.4352 15.0798 58.6116 15.1641C58.8006 15.2488 58.963 15.3835 59.0809 15.5536L60.6952 17.8293C60.8078 17.9794 60.9016 18.143 60.9736 18.3163C61.035 18.4504 61.0691 18.5954 61.0737 18.7428C61.0699 18.9174 61.0187 19.0877 60.9262 19.2358C60.8184 19.4163 60.688 19.582 60.5375 19.7288L60.0087 20.2789C59.9714 20.3153 59.9415 20.3583 59.9203 20.4059C59.9021 20.4546 59.8935 20.5064 59.8949 20.5584C59.8933 20.6121 59.9005 20.6656 59.9164 20.7169C59.9364 20.7754 59.9601 20.8169 59.9716 20.8579C60.1596 21.1747 60.3763 21.4735 60.6191 21.7505C60.9341 22.1105 61.2688 22.4805 61.6304 22.8505C61.6834 22.904 61.7404 22.957 61.7944 23.0095L63.1505 24.2026C63.3048 24.3173 63.4666 24.4215 63.6348 24.5146C63.6759 24.5301 63.7157 24.5516 63.7647 24.5716C63.8205 24.5916 63.8794 24.601 63.9386 24.5991C63.9918 24.6012 64.0446 24.5911 64.0934 24.5696C64.1433 24.5508 64.1885 24.5207 64.2247 24.4816L64.755 23.9591C64.902 23.8053 65.0704 23.6734 65.255 23.5675C65.4037 23.4732 65.5761 23.423 65.7521 23.4226C65.899 23.4241 66.0444 23.4547 66.1794 23.5125C66.3505 23.5854 66.513 23.6766 66.6643 23.7846L68.9754 25.4206C69.1418 25.5307 69.2739 25.6852 69.3568 25.8666C69.43 26.038 69.4679 26.2223 69.4686 26.4087C69.4692 26.6113 69.4327 26.8123 69.3607 27.0017C69.3445 27.0597 69.3217 27.1156 69.2924 27.1682C69.1708 27.4275 69.0117 27.6675 68.8207 27.8808C68.5059 28.2361 68.1159 28.5163 67.6785 28.7008C67.6705 28.7008 67.6626 28.7068 67.6546 28.7068C67.2349 28.8775 66.7863 28.9653 66.3332 28.9653L66.3152 28.9673Z" fill="#ECE8EF"/>
</g>
<path d="M82.5 15.5L89.5 22L82.5 28.5" stroke="#ECE8EF" stroke-width="1.5" stroke-linecap="round" stroke-linejoin="round"/>
<path d="M102.364 26.096V19.248H104.444V26.096H102.364ZM99.98 23.52V21.744H106.828V23.52H99.98ZM115.264 20.672C115.264 21.376 115.174 22.0907 114.992 22.816C114.822 23.5307 114.582 24.2293 114.273 24.912C113.974 25.584 113.622 26.2187 113.216 26.816C112.811 27.4027 112.379 27.9147 111.92 28.352L110.304 27.248C110.624 26.864 110.944 26.48 111.264 26.096C111.584 25.7013 111.872 25.264 112.128 24.784C112.395 24.2933 112.608 23.7173 112.768 23.056C112.928 22.3947 113.008 21.6 113.008 20.672H115.264ZM115.264 19.904V20.48H113.008V19.904H115.264ZM110.768 19.904V20.48H108.512V19.904H110.768ZM108.512 19.92C108.512 19.2267 108.662 18.6133 108.96 18.08C109.259 17.536 109.659 17.1093 110.16 16.8C110.672 16.48 111.254 16.32 111.904 16.32V18.08C111.542 18.08 111.259 18.24 111.056 18.56C110.864 18.88 110.768 19.3333 110.768 19.92H108.512ZM115.264 19.92H113.008C113.008 19.3333 112.907 18.88 112.704 18.56C112.512 18.24 112.24 18.08 111.888 18.08V16.32C112.539 16.32 113.115 16.48 113.616 16.8C114.128 17.1093 114.528 17.536 114.816 18.08C115.115 18.6133 115.264 19.2267 115.264 19.92ZM108.512 20.464H110.768C110.768 21.04 110.864 21.4933 111.056 21.824C111.259 22.144 111.542 22.304 111.904 22.304V24.064C111.254 24.064 110.672 23.9093 110.16 23.6C109.659 23.28 109.259 22.848 108.96 22.304C108.662 21.76 108.512 21.1467 108.512 20.464ZM115.264 20.464C115.264 21.1467 115.115 21.76 114.816 22.304C114.528 22.848 114.128 23.28 113.616 23.6C113.115 23.9093 112.539 24.064 111.888 24.064V22.304C112.24 22.304 112.512 22.144 112.704 21.824C112.907 21.4933 113.008 21.04 113.008 20.464H115.264ZM122.422 24.384C122.422 23.8187 122.31 23.3813 122.086 23.072C121.873 22.7627 121.569 22.608 121.174 22.608V21.328C122.273 21.328 123.131 21.6107 123.75 22.176C124.369 22.7307 124.678 23.5093 124.678 24.512L122.422 24.384ZM121.174 28.256C120.075 28.256 119.217 27.952 118.598 27.344C117.979 26.736 117.67 25.888 117.67 24.8L119.926 24.688C119.926 25.0613 119.974 25.3867 120.07 25.664C120.177 25.9307 120.321 26.1333 120.502 26.272C120.694 26.4107 120.918 26.48 121.174 26.48V28.256ZM117.67 24.8V24.512L119.926 24.384V24.688L117.67 24.8ZM121.174 28.256V26.48C121.441 26.48 121.665 26.4107 121.846 26.272C122.027 26.1333 122.166 25.9307 122.262 25.664C122.369 25.3867 122.422 25.0613 122.422 24.688L124.678 24.8C124.678 25.888 124.369 26.736 123.75 27.344C123.131 27.952 122.273 28.256 121.174 28.256ZM117.67 24.512C117.67 23.5093 117.979 22.7307 118.598 22.176C119.217 21.6107 120.075 21.328 121.174 21.328V22.608C120.79 22.608 120.486 22.7627 120.262 23.072C120.038 23.3813 119.926 23.8187 119.926 24.384L117.67 24.512ZM122.422 24.688V24.384L124.678 24.512V24.8L122.422 24.688ZM121.174 22.608C120.129 22.608 119.307 22.3467 118.71 21.824C118.113 21.3013 117.814 20.5867 117.814 19.68L120.07 19.808C120.07 20.288 120.166 20.6613 120.358 20.928C120.55 21.1947 120.822 21.328 121.174 21.328V22.608ZM117.814 19.68V19.472L120.07 19.584V19.808L117.814 19.68ZM121.174 22.608V21.328C121.537 21.328 121.809 21.1947 121.99 20.928C122.182 20.6613 122.278 20.288 122.278 19.808L124.534 19.68C124.534 20.5867 124.235 21.3013 123.638 21.824C123.051 22.3467 122.23 22.608 121.174 22.608ZM117.814 19.472C117.814 18.4907 118.113 17.7227 118.71 17.168C119.307 16.6027 120.129 16.32 121.174 16.32V18.08C120.939 18.08 120.737 18.1387 120.566 18.256C120.406 18.3733 120.283 18.544 120.198 18.768C120.113 18.992 120.07 19.264 120.07 19.584L117.814 19.472ZM122.278 19.808V19.584L124.534 19.472V19.68L122.278 19.808ZM122.278 19.584C122.278 19.264 122.235 18.992 122.15 18.768C122.065 18.544 121.937 18.3733 121.766 18.256C121.606 18.1387 121.409 18.08 121.174 18.08V16.32C122.23 16.32 123.051 16.6027 123.638 17.168C124.235 17.7227 124.534 18.4907 124.534 19.472L122.278 19.584ZM126.912 23.568V21.792H131.84V23.568H126.912ZM134.851 20.624L133.603 19.328L136.131 16.56V19.216L134.851 20.624ZM136.131 28V16.56H138.387V28H136.131ZM141.29 26.224C141.3 25.552 141.402 24.976 141.594 24.496C141.786 24.016 142.031 23.6107 142.33 23.28C142.639 22.9387 142.964 22.6293 143.306 22.352C143.647 22.0747 143.967 21.8027 144.266 21.536C144.575 21.2693 144.826 20.9813 145.018 20.672C145.21 20.352 145.306 19.9787 145.306 19.552C145.306 19.552 145.38 19.552 145.53 19.552C145.69 19.552 145.882 19.552 146.106 19.552C146.33 19.552 146.554 19.552 146.778 19.552C147.002 19.552 147.188 19.552 147.338 19.552C147.487 19.552 147.562 19.552 147.562 19.552C147.562 20.1813 147.466 20.7147 147.274 21.152C147.082 21.5893 146.831 21.968 146.522 22.288C146.212 22.5973 145.887 22.8853 145.546 23.152C145.204 23.408 144.879 23.6747 144.57 23.952C144.26 24.2293 144.004 24.5493 143.802 24.912C143.61 25.264 143.508 25.7013 143.498 26.224H141.29ZM141.29 28V26.224H147.514V28H141.29ZM142.954 19.344L140.954 18.976C141.05 18.4107 141.236 17.9253 141.514 17.52C141.802 17.1147 142.17 16.8053 142.618 16.592C143.066 16.3787 143.572 16.272 144.138 16.272V18.032C143.828 18.032 143.567 18.144 143.354 18.368C143.14 18.5813 143.007 18.9067 142.954 19.344ZM147.562 19.568H145.306C145.306 19.0987 145.199 18.7253 144.986 18.448C144.772 18.1707 144.484 18.032 144.122 18.032V16.272C144.783 16.272 145.37 16.416 145.882 16.704C146.404 16.9813 146.815 17.3707 147.114 17.872C147.412 18.3733 147.562 18.9387 147.562 19.568ZM152.489 22.944V21.184C152.819 21.184 153.081 21.04 153.273 20.752C153.475 20.4533 153.577 20.0587 153.577 19.568H155.833C155.833 20.2613 155.694 20.864 155.417 21.376C155.15 21.8773 154.766 22.2667 154.265 22.544C153.774 22.8107 153.182 22.944 152.489 22.944ZM153.801 24.976V24.464H156.057V24.976H153.801ZM151.529 22.944V21.184H152.505V22.944H151.529ZM153.577 19.584C153.577 19.1253 153.475 18.7627 153.273 18.496C153.081 18.2187 152.819 18.08 152.489 18.08V16.32C153.182 16.32 153.774 16.4533 154.265 16.72C154.766 16.9867 155.15 17.3653 155.417 17.856C155.694 18.336 155.833 18.912 155.833 19.584H153.577ZM156.057 24.96C156.057 25.5893 155.907 26.1547 155.609 26.656C155.31 27.1467 154.899 27.536 154.377 27.824C153.854 28.112 153.267 28.256 152.617 28.256V26.496C152.969 26.496 153.251 26.3573 153.465 26.08C153.689 25.792 153.801 25.4187 153.801 24.96H156.057ZM156.057 24.48H153.801C153.801 24.0107 153.689 23.6373 153.465 23.36C153.251 23.0827 152.969 22.944 152.617 22.944V21.184C153.267 21.184 153.854 21.328 154.377 21.616C154.899 21.8933 155.31 22.2827 155.609 22.784C155.907 23.2853 156.057 23.8507 156.057 24.48ZM151.321 19.392L149.321 19.024C149.417 18.4587 149.603 17.9787 149.881 17.584C150.169 17.1787 150.537 16.8693 150.985 16.656C151.433 16.432 151.939 16.32 152.505 16.32V18.08C152.195 18.08 151.934 18.192 151.721 18.416C151.507 18.64 151.374 18.9653 151.321 19.392ZM151.433 25.184C151.486 25.6 151.619 25.9253 151.833 26.16C152.057 26.384 152.323 26.496 152.633 26.496V28.256C152.067 28.256 151.555 28.1493 151.097 27.936C150.649 27.712 150.281 27.3973 149.993 26.992C149.715 26.5867 149.534 26.1067 149.449 25.552L151.433 25.184ZM157.811 24.096L160.483 16.56H162.739L160.067 24.096H157.811ZM157.811 25.872V24.096H165.123V25.872H157.811ZM161.923 28V21.616H164.019V28H161.923ZM167.366 23.152V16.56H169.366V23.152H167.366ZM171.51 24.672V23.264H173.766V24.672H171.51ZM167.366 18.336V16.56H173.414V18.336H167.366ZM171.51 23.264C171.51 22.784 171.398 22.4053 171.174 22.128C170.961 21.8507 170.673 21.712 170.31 21.712L170.726 20.032C171.313 20.032 171.836 20.1707 172.294 20.448C172.753 20.7253 173.11 21.1093 173.366 21.6C173.633 22.0907 173.766 22.6453 173.766 23.264H171.51ZM168.118 23.152C168.118 22.5547 168.23 22.0213 168.454 21.552C168.689 21.0827 169.004 20.7147 169.398 20.448C169.793 20.1707 170.241 20.032 170.742 20.032L170.31 21.712C170.033 21.712 169.804 21.84 169.622 22.096C169.452 22.352 169.366 22.704 169.366 23.152H168.118ZM173.766 24.64C173.766 25.3227 173.617 25.936 173.318 26.48C173.02 27.024 172.614 27.456 172.102 27.776C171.601 28.0853 171.025 28.24 170.374 28.24V26.48C170.737 26.48 171.014 26.32 171.206 26C171.409 25.6693 171.51 25.216 171.51 24.64H173.766ZM169.206 25.184C169.26 25.6 169.393 25.9253 169.606 26.16C169.82 26.384 170.081 26.496 170.39 26.496V28.256C169.825 28.256 169.318 28.1493 168.87 27.936C168.422 27.712 168.054 27.3973 167.766 26.992C167.489 26.5867 167.302 26.1067 167.206 25.552L169.206 25.184ZM175.936 23.872C175.936 23.168 176.022 22.4587 176.192 21.744C176.374 21.0293 176.614 20.336 176.912 19.664C177.222 18.9813 177.579 18.3467 177.984 17.76C178.4 17.1627 178.838 16.64 179.296 16.192L180.896 17.296C180.587 17.68 180.272 18.0693 179.952 18.464C179.632 18.8587 179.339 19.3013 179.072 19.792C178.806 20.272 178.592 20.8427 178.432 21.504C178.272 22.1547 178.192 22.944 178.192 23.872H175.936ZM175.936 24.656V24.08H178.192V24.656H175.936ZM180.432 24.656V24.08H182.688V24.656H180.432ZM182.688 24.64C182.688 25.3227 182.539 25.936 182.24 26.48C181.952 27.024 181.552 27.456 181.04 27.776C180.539 28.0853 179.963 28.24 179.312 28.24V26.48C179.664 26.48 179.936 26.32 180.128 26C180.331 25.6693 180.432 25.216 180.432 24.64H182.688ZM175.936 24.64H178.192C178.192 25.216 178.288 25.6693 178.48 26C178.683 26.32 178.966 26.48 179.328 26.48V28.24C178.678 28.24 178.096 28.0853 177.584 27.776C177.083 27.456 176.683 27.024 176.384 26.48C176.086 25.936 175.936 25.3227 175.936 24.64ZM182.688 24.096H180.432C180.432 23.5093 180.331 23.056 180.128 22.736C179.936 22.416 179.664 22.256 179.312 22.256V20.496C179.963 20.496 180.539 20.656 181.04 20.976C181.552 21.2853 181.952 21.712 182.24 22.256C182.539 22.7893 182.688 23.4027 182.688 24.096ZM175.936 24.096C175.936 23.4027 176.086 22.7893 176.384 22.256C176.683 21.712 177.083 21.2853 177.584 20.976C178.096 20.656 178.678 20.496 179.328 20.496V22.256C178.966 22.256 178.683 22.416 178.48 22.736C178.288 23.056 178.192 23.5093 178.192 24.096H175.936ZM191.366 20.672C191.366 21.376 191.275 22.0907 191.094 22.816C190.923 23.5307 190.683 24.2293 190.374 24.912C190.075 25.584 189.723 26.2187 189.318 26.816C188.912 27.4027 188.48 27.9147 188.022 28.352L186.406 27.248C186.726 26.864 187.046 26.48 187.366 26.096C187.686 25.7013 187.974 25.264 188.23 24.784C188.496 24.2933 188.71 23.7173 188.87 23.056C189.03 22.3947 189.11 21.6 189.11 20.672H191.366ZM191.366 19.904V20.48H189.11V19.904H191.366ZM186.87 19.904V20.48H184.614V19.904H186.87ZM184.614 19.92C184.614 19.2267 184.763 18.6133 185.062 18.08C185.36 17.536 185.76 17.1093 186.262 16.8C186.774 16.48 187.355 16.32 188.006 16.32V18.08C187.643 18.08 187.36 18.24 187.158 18.56C186.966 18.88 186.87 19.3333 186.87 19.92H184.614ZM191.366 19.92H189.11C189.11 19.3333 189.008 18.88 188.806 18.56C188.614 18.24 188.342 18.08 187.99 18.08V16.32C188.64 16.32 189.216 16.48 189.718 16.8C190.23 17.1093 190.63 17.536 190.918 18.08C191.216 18.6133 191.366 19.2267 191.366 19.92ZM184.614 20.464H186.87C186.87 21.04 186.966 21.4933 187.158 21.824C187.36 22.144 187.643 22.304 188.006 22.304V24.064C187.355 24.064 186.774 23.9093 186.262 23.6C185.76 23.28 185.36 22.848 185.062 22.304C184.763 21.76 184.614 21.1467 184.614 20.464ZM191.366 20.464C191.366 21.1467 191.216 21.76 190.918 22.304C190.63 22.848 190.23 23.28 189.718 23.6C189.216 23.9093 188.64 24.064 187.99 24.064V22.304C188.342 22.304 188.614 22.144 188.806 21.824C189.008 21.4933 189.11 21.04 189.11 20.464H191.366ZM198.523 24.384C198.523 23.8187 198.411 23.3813 198.187 23.072C197.974 22.7627 197.67 22.608 197.275 22.608V21.328C198.374 21.328 199.233 21.6107 199.851 22.176C200.47 22.7307 200.779 23.5093 200.779 24.512L198.523 24.384ZM197.275 28.256C196.177 28.256 195.318 27.952 194.699 27.344C194.081 26.736 193.771 25.888 193.771 24.8L196.027 24.688C196.027 25.0613 196.075 25.3867 196.171 25.664C196.278 25.9307 196.422 26.1333 196.603 26.272C196.795 26.4107 197.019 26.48 197.275 26.48V28.256ZM193.771 24.8V24.512L196.027 24.384V24.688L193.771 24.8ZM197.275 28.256V26.48C197.542 26.48 197.766 26.4107 197.947 26.272C198.129 26.1333 198.267 25.9307 198.363 25.664C198.47 25.3867 198.523 25.0613 198.523 24.688L200.779 24.8C200.779 25.888 200.47 26.736 199.851 27.344C199.233 27.952 198.374 28.256 197.275 28.256ZM193.771 24.512C193.771 23.5093 194.081 22.7307 194.699 22.176C195.318 21.6107 196.177 21.328 197.275 21.328V22.608C196.891 22.608 196.587 22.7627 196.363 23.072C196.139 23.3813 196.027 23.8187 196.027 24.384L193.771 24.512ZM198.523 24.688V24.384L200.779 24.512V24.8L198.523 24.688ZM197.275 22.608C196.23 22.608 195.409 22.3467 194.811 21.824C194.214 21.3013 193.915 20.5867 193.915 19.68L196.171 19.808C196.171 20.288 196.267 20.6613 196.459 20.928C196.651 21.1947 196.923 21.328 197.275 21.328V22.608ZM193.915 19.68V19.472L196.171 19.584V19.808L193.915 19.68ZM197.275 22.608V21.328C197.638 21.328 197.91 21.1947 198.091 20.928C198.283 20.6613 198.379 20.288 198.379 19.808L200.635 19.68C200.635 20.5867 200.337 21.3013 199.739 21.824C199.153 22.3467 198.331 22.608 197.275 22.608ZM193.915 19.472C193.915 18.4907 194.214 17.7227 194.811 17.168C195.409 16.6027 196.23 16.32 197.275 16.32V18.08C197.041 18.08 196.838 18.1387 196.667 18.256C196.507 18.3733 196.385 18.544 196.299 18.768C196.214 18.992 196.171 19.264 196.171 19.584L193.915 19.472ZM198.379 19.808V19.584L200.635 19.472V19.68L198.379 19.808ZM198.379 19.584C198.379 19.264 198.337 18.992 198.251 18.768C198.166 18.544 198.038 18.3733 197.867 18.256C197.707 18.1387 197.51 18.08 197.275 18.08V16.32C198.331 16.32 199.153 16.6027 199.739 17.168C200.337 17.7227 200.635 18.4907 200.635 19.472L198.379 19.584Z" fill="#ECE8EF"/>
<defs>
<clipPath id="clip0_787_2622">
<rect width="20" height="20" fill="white" transform="translate(52.5 12)"/>
</clipPath>
</defs>
</svg>
