<svg width="199" height="44" viewBox="0 0 199 44" fill="none" xmlns="http://www.w3.org/2000/svg">
<rect x="0.113892" width="198" height="44" rx="8" fill="#ECE8EF"/>
<g clip-path="url(#clip0_787_2598)">
<path d="M37.9291 28.9673C37.1456 28.9518 36.3732 28.7793 35.6575 28.4603C34.8073 28.0919 34.0013 27.6292 33.2545 27.0807C32.997 26.8872 32.7403 26.6947 32.4918 26.4912L31.3145 25.4411C31.2722 25.4147 31.2326 25.3839 31.1968 25.3492C31.1208 25.2727 31.0423 25.2041 30.9658 25.1281C30.2609 24.4191 29.6109 23.6577 29.0209 22.8505C28.4795 22.1114 28.0201 21.3155 27.6512 20.4769C27.3416 19.7566 27.174 18.9832 27.158 18.1993C27.1557 17.7395 27.2406 17.2834 27.408 16.8552C27.5874 16.4133 27.8621 16.0164 28.2123 15.6927C28.3978 15.4927 28.621 15.3317 28.8695 15.2191C29.1185 15.1074 29.3873 15.0462 29.6601 15.0391C29.8557 15.037 30.0491 15.0798 30.2256 15.1641C30.4145 15.2488 30.5769 15.3835 30.6948 15.5536L32.3092 17.8293C32.4218 17.9794 32.5155 18.143 32.5875 18.3163C32.6489 18.4504 32.683 18.5954 32.6876 18.7428C32.6838 18.9174 32.6326 19.0877 32.5401 19.2358C32.4323 19.4163 32.3019 19.582 32.1514 19.7288L31.6226 20.2789C31.5853 20.3153 31.5554 20.3583 31.5342 20.4059C31.516 20.4546 31.5075 20.5064 31.5088 20.5584C31.5072 20.6121 31.5144 20.6656 31.5303 20.7169C31.5503 20.7754 31.574 20.8169 31.5855 20.8579C31.7735 21.1747 31.9902 21.4735 32.233 21.7505C32.548 22.1105 32.8828 22.4805 33.2443 22.8505C33.2973 22.904 33.3543 22.957 33.4083 23.0095L34.7644 24.2026C34.9187 24.3173 35.0805 24.4215 35.2488 24.5146C35.2898 24.5301 35.3297 24.5516 35.3787 24.5716C35.4344 24.5916 35.4933 24.601 35.5525 24.5991C35.6057 24.6012 35.6585 24.5911 35.7073 24.5696C35.7572 24.5508 35.8024 24.5207 35.8386 24.4816L36.3689 23.9591C36.516 23.8053 36.6844 23.6734 36.869 23.5675C37.0176 23.4732 37.19 23.423 37.3661 23.4226C37.5129 23.4241 37.6583 23.4547 37.7933 23.5125C37.9644 23.5854 38.1269 23.6766 38.2782 23.7846L40.5894 25.4206C40.7558 25.5307 40.8878 25.6852 40.9707 25.8666C41.0439 26.038 41.0819 26.2223 41.0826 26.4087C41.0831 26.6113 41.0466 26.8123 40.9746 27.0017C40.9584 27.0597 40.9356 27.1156 40.9063 27.1682C40.7847 27.4275 40.6257 27.6675 40.4346 27.8808C40.1198 28.2361 39.7298 28.5163 39.2924 28.7008C39.2844 28.7008 39.2765 28.7068 39.2685 28.7068C38.8488 28.8775 38.4002 28.9653 37.9471 28.9653L37.9291 28.9673Z" fill="#6B16A8"/>
</g>
<path d="M54.1139 15.5L61.1139 22L54.1139 28.5" stroke="#6B16A8" stroke-width="1.5" stroke-linecap="round" stroke-linejoin="round"/>
<path d="M73.9779 26.096V19.248H76.0579V26.096H73.9779ZM71.5939 23.52V21.744H78.4419V23.52H71.5939ZM86.8784 20.672C86.8784 21.376 86.7877 22.0907 86.6064 22.816C86.4357 23.5307 86.1957 24.2293 85.8864 24.912C85.5877 25.584 85.2357 26.2187 84.8304 26.816C84.4251 27.4027 83.9931 27.9147 83.5344 28.352L81.9184 27.248C82.2384 26.864 82.5584 26.48 82.8784 26.096C83.1984 25.7013 83.4864 25.264 83.7424 24.784C84.0091 24.2933 84.2224 23.7173 84.3824 23.056C84.5424 22.3947 84.6224 21.6 84.6224 20.672H86.8784ZM86.8784 19.904V20.48H84.6224V19.904H86.8784ZM82.3824 19.904V20.48H80.1264V19.904H82.3824ZM80.1264 19.92C80.1264 19.2267 80.2757 18.6133 80.5744 18.08C80.8731 17.536 81.2731 17.1093 81.7744 16.8C82.2864 16.48 82.8677 16.32 83.5184 16.32V18.08C83.1557 18.08 82.8731 18.24 82.6704 18.56C82.4784 18.88 82.3824 19.3333 82.3824 19.92H80.1264ZM86.8784 19.92H84.6224C84.6224 19.3333 84.5211 18.88 84.3184 18.56C84.1264 18.24 83.8544 18.08 83.5024 18.08V16.32C84.1531 16.32 84.7291 16.48 85.2304 16.8C85.7424 17.1093 86.1424 17.536 86.4304 18.08C86.7291 18.6133 86.8784 19.2267 86.8784 19.92ZM80.1264 20.464H82.3824C82.3824 21.04 82.4784 21.4933 82.6704 21.824C82.8731 22.144 83.1557 22.304 83.5184 22.304V24.064C82.8677 24.064 82.2864 23.9093 81.7744 23.6C81.2731 23.28 80.8731 22.848 80.5744 22.304C80.2757 21.76 80.1264 21.1467 80.1264 20.464ZM86.8784 20.464C86.8784 21.1467 86.7291 21.76 86.4304 22.304C86.1424 22.848 85.7424 23.28 85.2304 23.6C84.7291 23.9093 84.1531 24.064 83.5024 24.064V22.304C83.8544 22.304 84.1264 22.144 84.3184 21.824C84.5211 21.4933 84.6224 21.04 84.6224 20.464H86.8784ZM94.0359 24.384C94.0359 23.8187 93.9239 23.3813 93.6999 23.072C93.4866 22.7627 93.1826 22.608 92.7879 22.608V21.328C93.8866 21.328 94.7452 21.6107 95.3639 22.176C95.9826 22.7307 96.2919 23.5093 96.2919 24.512L94.0359 24.384ZM92.7879 28.256C91.6892 28.256 90.8306 27.952 90.2119 27.344C89.5932 26.736 89.2839 25.888 89.2839 24.8L91.5399 24.688C91.5399 25.0613 91.5879 25.3867 91.6839 25.664C91.7906 25.9307 91.9346 26.1333 92.1159 26.272C92.3079 26.4107 92.5319 26.48 92.7879 26.48V28.256ZM89.2839 24.8V24.512L91.5399 24.384V24.688L89.2839 24.8ZM92.7879 28.256V26.48C93.0546 26.48 93.2786 26.4107 93.4599 26.272C93.6412 26.1333 93.7799 25.9307 93.8759 25.664C93.9826 25.3867 94.0359 25.0613 94.0359 24.688L96.2919 24.8C96.2919 25.888 95.9826 26.736 95.3639 27.344C94.7452 27.952 93.8866 28.256 92.7879 28.256ZM89.2839 24.512C89.2839 23.5093 89.5932 22.7307 90.2119 22.176C90.8306 21.6107 91.6892 21.328 92.7879 21.328V22.608C92.4039 22.608 92.0999 22.7627 91.8759 23.072C91.6519 23.3813 91.5399 23.8187 91.5399 24.384L89.2839 24.512ZM94.0359 24.688V24.384L96.2919 24.512V24.8L94.0359 24.688ZM92.7879 22.608C91.7426 22.608 90.9212 22.3467 90.3239 21.824C89.7266 21.3013 89.4279 20.5867 89.4279 19.68L91.6839 19.808C91.6839 20.288 91.7799 20.6613 91.9719 20.928C92.1639 21.1947 92.4359 21.328 92.7879 21.328V22.608ZM89.4279 19.68V19.472L91.6839 19.584V19.808L89.4279 19.68ZM92.7879 22.608V21.328C93.1506 21.328 93.4226 21.1947 93.6039 20.928C93.7959 20.6613 93.8919 20.288 93.8919 19.808L96.1479 19.68C96.1479 20.5867 95.8492 21.3013 95.2519 21.824C94.6652 22.3467 93.8439 22.608 92.7879 22.608ZM89.4279 19.472C89.4279 18.4907 89.7266 17.7227 90.3239 17.168C90.9212 16.6027 91.7426 16.32 92.7879 16.32V18.08C92.5532 18.08 92.3506 18.1387 92.1799 18.256C92.0199 18.3733 91.8972 18.544 91.8119 18.768C91.7266 18.992 91.6839 19.264 91.6839 19.584L89.4279 19.472ZM93.8919 19.808V19.584L96.1479 19.472V19.68L93.8919 19.808ZM93.8919 19.584C93.8919 19.264 93.8492 18.992 93.7639 18.768C93.6786 18.544 93.5506 18.3733 93.3799 18.256C93.2199 18.1387 93.0226 18.08 92.7879 18.08V16.32C93.8439 16.32 94.6652 16.6027 95.2519 17.168C95.8492 17.7227 96.1479 18.4907 96.1479 19.472L93.8919 19.584ZM98.5258 23.568V21.792H103.454V23.568H98.5258ZM106.465 20.624L105.217 19.328L107.745 16.56V19.216L106.465 20.624ZM107.745 28V16.56H110.001V28H107.745ZM112.904 26.224C112.914 25.552 113.016 24.976 113.208 24.496C113.4 24.016 113.645 23.6107 113.944 23.28C114.253 22.9387 114.578 22.6293 114.92 22.352C115.261 22.0747 115.581 21.8027 115.88 21.536C116.189 21.2693 116.44 20.9813 116.632 20.672C116.824 20.352 116.92 19.9787 116.92 19.552C116.92 19.552 116.994 19.552 117.144 19.552C117.304 19.552 117.496 19.552 117.72 19.552C117.944 19.552 118.168 19.552 118.392 19.552C118.616 19.552 118.802 19.552 118.952 19.552C119.101 19.552 119.176 19.552 119.176 19.552C119.176 20.1813 119.08 20.7147 118.888 21.152C118.696 21.5893 118.445 21.968 118.136 22.288C117.826 22.5973 117.501 22.8853 117.16 23.152C116.818 23.408 116.493 23.6747 116.184 23.952C115.874 24.2293 115.618 24.5493 115.416 24.912C115.224 25.264 115.122 25.7013 115.112 26.224H112.904ZM112.904 28V26.224H119.128V28H112.904ZM114.568 19.344L112.568 18.976C112.664 18.4107 112.85 17.9253 113.128 17.52C113.416 17.1147 113.784 16.8053 114.232 16.592C114.68 16.3787 115.186 16.272 115.752 16.272V18.032C115.442 18.032 115.181 18.144 114.968 18.368C114.754 18.5813 114.621 18.9067 114.568 19.344ZM119.176 19.568H116.92C116.92 19.0987 116.813 18.7253 116.6 18.448C116.386 18.1707 116.098 18.032 115.736 18.032V16.272C116.397 16.272 116.984 16.416 117.496 16.704C118.018 16.9813 118.429 17.3707 118.728 17.872C119.026 18.3733 119.176 18.9387 119.176 19.568ZM124.103 22.944V21.184C124.433 21.184 124.695 21.04 124.887 20.752C125.089 20.4533 125.191 20.0587 125.191 19.568H127.447C127.447 20.2613 127.308 20.864 127.031 21.376C126.764 21.8773 126.38 22.2667 125.879 22.544C125.388 22.8107 124.796 22.944 124.103 22.944ZM125.415 24.976V24.464H127.671V24.976H125.415ZM123.143 22.944V21.184H124.119V22.944H123.143ZM125.191 19.584C125.191 19.1253 125.089 18.7627 124.887 18.496C124.695 18.2187 124.433 18.08 124.103 18.08V16.32C124.796 16.32 125.388 16.4533 125.879 16.72C126.38 16.9867 126.764 17.3653 127.031 17.856C127.308 18.336 127.447 18.912 127.447 19.584H125.191ZM127.671 24.96C127.671 25.5893 127.521 26.1547 127.223 26.656C126.924 27.1467 126.513 27.536 125.991 27.824C125.468 28.112 124.881 28.256 124.231 28.256V26.496C124.583 26.496 124.865 26.3573 125.079 26.08C125.303 25.792 125.415 25.4187 125.415 24.96H127.671ZM127.671 24.48H125.415C125.415 24.0107 125.303 23.6373 125.079 23.36C124.865 23.0827 124.583 22.944 124.231 22.944V21.184C124.881 21.184 125.468 21.328 125.991 21.616C126.513 21.8933 126.924 22.2827 127.223 22.784C127.521 23.2853 127.671 23.8507 127.671 24.48ZM122.935 19.392L120.935 19.024C121.031 18.4587 121.217 17.9787 121.495 17.584C121.783 17.1787 122.151 16.8693 122.599 16.656C123.047 16.432 123.553 16.32 124.119 16.32V18.08C123.809 18.08 123.548 18.192 123.335 18.416C123.121 18.64 122.988 18.9653 122.935 19.392ZM123.047 25.184C123.1 25.6 123.233 25.9253 123.447 26.16C123.671 26.384 123.937 26.496 124.247 26.496V28.256C123.681 28.256 123.169 28.1493 122.711 27.936C122.263 27.712 121.895 27.3973 121.607 26.992C121.329 26.5867 121.148 26.1067 121.063 25.552L123.047 25.184ZM129.425 24.096L132.097 16.56H134.353L131.681 24.096H129.425ZM129.425 25.872V24.096H136.737V25.872H129.425ZM133.537 28V21.616H135.633V28H133.537ZM138.98 23.152V16.56H140.98V23.152H138.98ZM143.124 24.672V23.264H145.38V24.672H143.124ZM138.98 18.336V16.56H145.028V18.336H138.98ZM143.124 23.264C143.124 22.784 143.012 22.4053 142.788 22.128C142.575 21.8507 142.287 21.712 141.924 21.712L142.34 20.032C142.927 20.032 143.449 20.1707 143.908 20.448C144.367 20.7253 144.724 21.1093 144.98 21.6C145.247 22.0907 145.38 22.6453 145.38 23.264H143.124ZM139.732 23.152C139.732 22.5547 139.844 22.0213 140.068 21.552C140.303 21.0827 140.617 20.7147 141.012 20.448C141.407 20.1707 141.855 20.032 142.356 20.032L141.924 21.712C141.647 21.712 141.417 21.84 141.236 22.096C141.065 22.352 140.98 22.704 140.98 23.152H139.732ZM145.38 24.64C145.38 25.3227 145.231 25.936 144.932 26.48C144.633 27.024 144.228 27.456 143.716 27.776C143.215 28.0853 142.639 28.24 141.988 28.24V26.48C142.351 26.48 142.628 26.32 142.82 26C143.023 25.6693 143.124 25.216 143.124 24.64H145.38ZM140.82 25.184C140.873 25.6 141.007 25.9253 141.22 26.16C141.433 26.384 141.695 26.496 142.004 26.496V28.256C141.439 28.256 140.932 28.1493 140.484 27.936C140.036 27.712 139.668 27.3973 139.38 26.992C139.103 26.5867 138.916 26.1067 138.82 25.552L140.82 25.184ZM147.55 23.872C147.55 23.168 147.635 22.4587 147.806 21.744C147.987 21.0293 148.227 20.336 148.526 19.664C148.835 18.9813 149.193 18.3467 149.598 17.76C150.014 17.1627 150.451 16.64 150.91 16.192L152.51 17.296C152.201 17.68 151.886 18.0693 151.566 18.464C151.246 18.8587 150.953 19.3013 150.686 19.792C150.419 20.272 150.206 20.8427 150.046 21.504C149.886 22.1547 149.806 22.944 149.806 23.872H147.55ZM147.55 24.656V24.08H149.806V24.656H147.55ZM152.046 24.656V24.08H154.302V24.656H152.046ZM154.302 24.64C154.302 25.3227 154.153 25.936 153.854 26.48C153.566 27.024 153.166 27.456 152.654 27.776C152.153 28.0853 151.577 28.24 150.926 28.24V26.48C151.278 26.48 151.55 26.32 151.742 26C151.945 25.6693 152.046 25.216 152.046 24.64H154.302ZM147.55 24.64H149.806C149.806 25.216 149.902 25.6693 150.094 26C150.297 26.32 150.579 26.48 150.942 26.48V28.24C150.291 28.24 149.71 28.0853 149.198 27.776C148.697 27.456 148.297 27.024 147.998 26.48C147.699 25.936 147.55 25.3227 147.55 24.64ZM154.302 24.096H152.046C152.046 23.5093 151.945 23.056 151.742 22.736C151.55 22.416 151.278 22.256 150.926 22.256V20.496C151.577 20.496 152.153 20.656 152.654 20.976C153.166 21.2853 153.566 21.712 153.854 22.256C154.153 22.7893 154.302 23.4027 154.302 24.096ZM147.55 24.096C147.55 23.4027 147.699 22.7893 147.998 22.256C148.297 21.712 148.697 21.2853 149.198 20.976C149.71 20.656 150.291 20.496 150.942 20.496V22.256C150.579 22.256 150.297 22.416 150.094 22.736C149.902 23.056 149.806 23.5093 149.806 24.096H147.55ZM162.98 20.672C162.98 21.376 162.889 22.0907 162.708 22.816C162.537 23.5307 162.297 24.2293 161.988 24.912C161.689 25.584 161.337 26.2187 160.932 26.816C160.526 27.4027 160.094 27.9147 159.636 28.352L158.02 27.248C158.34 26.864 158.66 26.48 158.98 26.096C159.3 25.7013 159.588 25.264 159.844 24.784C160.11 24.2933 160.324 23.7173 160.484 23.056C160.644 22.3947 160.724 21.6 160.724 20.672H162.98ZM162.98 19.904V20.48H160.724V19.904H162.98ZM158.484 19.904V20.48H156.228V19.904H158.484ZM156.228 19.92C156.228 19.2267 156.377 18.6133 156.676 18.08C156.974 17.536 157.374 17.1093 157.876 16.8C158.388 16.48 158.969 16.32 159.62 16.32V18.08C159.257 18.08 158.974 18.24 158.772 18.56C158.58 18.88 158.484 19.3333 158.484 19.92H156.228ZM162.98 19.92H160.724C160.724 19.3333 160.622 18.88 160.42 18.56C160.228 18.24 159.956 18.08 159.604 18.08V16.32C160.254 16.32 160.83 16.48 161.332 16.8C161.844 17.1093 162.244 17.536 162.532 18.08C162.83 18.6133 162.98 19.2267 162.98 19.92ZM156.228 20.464H158.484C158.484 21.04 158.58 21.4933 158.772 21.824C158.974 22.144 159.257 22.304 159.62 22.304V24.064C158.969 24.064 158.388 23.9093 157.876 23.6C157.374 23.28 156.974 22.848 156.676 22.304C156.377 21.76 156.228 21.1467 156.228 20.464ZM162.98 20.464C162.98 21.1467 162.83 21.76 162.532 22.304C162.244 22.848 161.844 23.28 161.332 23.6C160.83 23.9093 160.254 24.064 159.604 24.064V22.304C159.956 22.304 160.228 22.144 160.42 21.824C160.622 21.4933 160.724 21.04 160.724 20.464H162.98ZM170.137 24.384C170.137 23.8187 170.025 23.3813 169.801 23.072C169.588 22.7627 169.284 22.608 168.889 22.608V21.328C169.988 21.328 170.846 21.6107 171.465 22.176C172.084 22.7307 172.393 23.5093 172.393 24.512L170.137 24.384ZM168.889 28.256C167.79 28.256 166.932 27.952 166.313 27.344C165.694 26.736 165.385 25.888 165.385 24.8L167.641 24.688C167.641 25.0613 167.689 25.3867 167.785 25.664C167.892 25.9307 168.036 26.1333 168.217 26.272C168.409 26.4107 168.633 26.48 168.889 26.48V28.256ZM165.385 24.8V24.512L167.641 24.384V24.688L165.385 24.8ZM168.889 28.256V26.48C169.156 26.48 169.38 26.4107 169.561 26.272C169.742 26.1333 169.881 25.9307 169.977 25.664C170.084 25.3867 170.137 25.0613 170.137 24.688L172.393 24.8C172.393 25.888 172.084 26.736 171.465 27.344C170.846 27.952 169.988 28.256 168.889 28.256ZM165.385 24.512C165.385 23.5093 165.694 22.7307 166.313 22.176C166.932 21.6107 167.79 21.328 168.889 21.328V22.608C168.505 22.608 168.201 22.7627 167.977 23.072C167.753 23.3813 167.641 23.8187 167.641 24.384L165.385 24.512ZM170.137 24.688V24.384L172.393 24.512V24.8L170.137 24.688ZM168.889 22.608C167.844 22.608 167.022 22.3467 166.425 21.824C165.828 21.3013 165.529 20.5867 165.529 19.68L167.785 19.808C167.785 20.288 167.881 20.6613 168.073 20.928C168.265 21.1947 168.537 21.328 168.889 21.328V22.608ZM165.529 19.68V19.472L167.785 19.584V19.808L165.529 19.68ZM168.889 22.608V21.328C169.252 21.328 169.524 21.1947 169.705 20.928C169.897 20.6613 169.993 20.288 169.993 19.808L172.249 19.68C172.249 20.5867 171.95 21.3013 171.353 21.824C170.766 22.3467 169.945 22.608 168.889 22.608ZM165.529 19.472C165.529 18.4907 165.828 17.7227 166.425 17.168C167.022 16.6027 167.844 16.32 168.889 16.32V18.08C168.654 18.08 168.452 18.1387 168.281 18.256C168.121 18.3733 167.998 18.544 167.913 18.768C167.828 18.992 167.785 19.264 167.785 19.584L165.529 19.472ZM169.993 19.808V19.584L172.249 19.472V19.68L169.993 19.808ZM169.993 19.584C169.993 19.264 169.95 18.992 169.865 18.768C169.78 18.544 169.652 18.3733 169.481 18.256C169.321 18.1387 169.124 18.08 168.889 18.08V16.32C169.945 16.32 170.766 16.6027 171.353 17.168C171.95 17.7227 172.249 18.4907 172.249 19.472L169.993 19.584Z" fill="#6B16A8"/>
<defs>
<clipPath id="clip0_787_2598">
<rect width="20" height="20" fill="white" transform="translate(24.1139 12)"/>
</clipPath>
</defs>
</svg>
