<svg width="140" height="50" viewBox="0 0 140 50" fill="none" xmlns="http://www.w3.org/2000/svg">
<path d="M50.8513 25C50.8513 38.8071 39.6584 50 25.8513 50C12.0442 50 0.851318 38.8071 0.851318 25C0.851318 11.1929 12.0442 0 25.8513 0C39.6584 0 50.8513 11.1929 50.8513 25Z" fill="#6B16A8"/>
<path d="M115.811 13C115.238 13 114.773 13.4664 114.773 14.0417V37H120.285V14.0417C120.285 13.4664 119.82 13 119.247 13H115.811Z" fill="white"/>
<path d="M124.299 13C123.726 13 123.261 13.4664 123.261 14.0417V17.2H128.64V37H134.151V17.2H139.53V14.0417C139.53 13.4664 139.065 13 138.492 13H124.299Z" fill="white"/>
<path fill-rule="evenodd" clip-rule="evenodd" d="M96.8992 13C98.3822 13 99.7102 13.3111 100.883 13.9333C102.056 14.5333 102.986 15.3667 103.672 16.4333C104.353 17.4691 104.696 18.6468 104.701 19.9667L104.701 20V30.0667H104.701C104.69 31.3734 104.347 32.5512 103.672 33.6C102.986 34.6445 102.056 35.4778 100.883 36.1C99.7102 36.7 98.3822 37 96.8992 37H90.7985C90.2255 37 89.761 36.5336 89.761 35.9583V14.0417C89.761 13.4664 90.2255 13 90.7985 13H96.8992ZM98.5593 17.9333C98.9798 18.4222 99.1901 19.1111 99.1901 20V30C99.1901 30.8889 98.9798 31.5778 98.5593 32.0667C98.1608 32.5556 97.6075 32.8 96.8992 32.8H95.2724V17.2H96.8992C97.6075 17.2 98.1608 17.4444 98.5593 17.9333Z" fill="white"/>
<path d="M79.5826 36.3417C79.7392 36.739 80.1217 37 80.5473 37H85.6108C86.1838 37 86.6483 36.5336 86.6483 35.9583V14.0417C86.6483 13.4664 86.1838 13 85.6108 13H82.1745C81.6015 13 81.137 13.4664 81.137 14.0417V28.4947L75.2875 13.6583C75.1309 13.261 74.7484 13 74.3228 13H70.3798L70.3834 13.0091C69.8754 13.0766 69.4834 13.5132 69.4834 14.0417V35.9583C69.4834 36.5336 69.9479 37 70.5209 37H74.9948V24.7053L79.5826 36.3417Z" fill="white"/>
<path fill-rule="evenodd" clip-rule="evenodd" d="M58.4315 13.0002C56.9865 13.009 55.6906 13.3076 54.544 13.896C53.3799 14.472 52.4574 15.272 51.7766 16.296C51.1071 17.2819 50.7667 18.4019 50.7555 19.656H50.7552V30.312C50.7609 31.5792 51.1014 32.7206 51.7766 33.736C52.4574 34.7387 53.3799 35.5387 54.544 36.136C55.6906 36.7034 56.9865 36.9913 58.4315 36.9998V37C58.4425 37 58.4534 37 58.4643 37C58.4753 37 58.4864 37 58.4974 37V36.9998C59.9424 36.9913 61.2383 36.7034 62.3849 36.136C63.549 35.5387 64.4714 34.7387 65.1523 33.736C65.8275 32.7206 66.1679 31.5792 66.1736 30.312L66.1736 30.28V19.656H66.1733C66.1622 18.4019 65.8218 17.2819 65.1523 16.296C64.4714 15.272 63.549 14.472 62.3849 13.896C61.2383 13.3076 59.9424 13.009 58.4974 13.0002V13C58.4754 13 58.4534 13.0001 58.4315 13.0002ZM60.0788 17.736C60.4961 18.2053 60.7047 18.8667 60.7047 19.72V30.28C60.7047 31.1334 60.4961 31.7947 60.0788 32.264C59.6896 32.726 59.1515 32.9606 58.4644 32.9678C57.777 32.9606 57.228 32.726 56.8172 32.264C56.4218 31.7947 56.2242 31.1334 56.2242 30.28V19.72C56.2242 18.8667 56.4218 18.2053 56.8172 17.736C57.228 17.274 57.777 17.0394 58.4644 17.0322C59.1515 17.0394 59.6896 17.274 60.0788 17.736Z" fill="white"/>
<path d="M44.0597 13.6635L40.9909 21.6333L38.4078 13.72L38.4077 13.7198C38.2688 13.2906 37.8705 13 37.421 13H33.8493C33.1193 13 32.6175 13.7369 32.8826 14.4198L38.3078 28.4V35.9583C38.3078 36.5336 38.7723 37 39.3453 37H42.1176C42.6906 37 43.1551 36.5336 43.1551 35.9583V28.4L48.5804 14.4198C48.8454 13.7369 48.3437 13 47.6136 13H45.0265C44.5989 13 44.2151 13.2634 44.0598 13.6633L44.0597 13.6635Z" fill="white"/>
<path d="M30.1971 37C30.7701 37 31.2347 36.5336 31.2347 35.9583V32.8H24.1297V27.1H29.2426V22.9H24.1297V17.2H30.9027V14.0417C30.9027 13.4664 30.4381 13 29.8651 13H19.6558C19.0828 13 18.6183 13.4664 18.6183 14.0417V35.9583C18.6183 36.5336 19.0828 37 19.6558 37H30.1971Z" fill="white"/>
<path fill-rule="evenodd" clip-rule="evenodd" d="M15.6084 19.9667C15.6027 18.6468 15.2596 17.4691 14.5792 16.4333C13.8931 15.3667 12.9634 14.5333 11.7903 13.9333C10.626 13.3158 9.30901 13.0047 7.83941 13.0001L7.80621 13H2.03753C1.46452 13 1 13.4664 1 14.0417V37H8.17142C9.64102 36.9956 10.958 36.6955 12.1223 36.1C13.2954 35.4778 14.2251 34.6444 14.9112 33.6C15.5917 32.5422 15.9347 31.3533 15.9404 30.0333L15.9405 30V29.4C15.9339 28.2581 15.5908 27.247 14.9112 26.3667C14.3792 25.6602 13.7007 25.0739 12.8758 24.6079C13.5525 24.1675 14.1203 23.6427 14.5792 23.0333C15.2586 22.1312 15.6017 21.1201 15.6083 20C15.6083 19.994 15.6084 19.988 15.6084 19.982C15.6084 19.9769 15.6084 19.9718 15.6084 19.9667ZM9.46626 22.0333C9.06784 22.5222 8.51449 22.7667 7.80621 22.7667H6.51137V17.2H7.80621C8.51449 17.2 9.06784 17.4444 9.46626 17.9333C9.88417 18.4192 10.0944 19.1025 10.097 19.9833C10.0944 20.8642 9.88417 21.5475 9.46626 22.0333ZM10.4291 29.4333C10.4291 28.5444 10.2188 27.8556 9.79827 27.3667C9.39985 26.8778 8.8465 26.6333 8.13822 26.6333H6.51137V32.8H8.13822C8.8465 32.8 9.39985 32.5556 9.79827 32.0667C10.2188 31.5778 10.4291 30.8889 10.4291 30V29.4333Z" fill="white"/>
</svg>
