<svg width="52" height="32" viewBox="0 0 52 32" fill="none" xmlns="http://www.w3.org/2000/svg">
<rect width="52" height="32" rx="8" fill="#ECE8EF"/>
<g clip-path="url(#clip0_787_4362)">
<path d="M29.8152 22.9673C29.0317 22.9518 28.2593 22.7793 27.5436 22.4603C26.6934 22.0919 25.8874 21.6292 25.1406 21.0807C24.8831 20.8872 24.6264 20.6947 24.3779 20.4912L23.2006 19.4411C23.1583 19.4147 23.1187 19.3839 23.0829 19.3492C23.0069 19.2727 22.9284 19.2041 22.8519 19.1281C22.147 18.4191 21.497 17.6577 20.907 16.8505C20.3656 16.1114 19.9062 15.3155 19.5373 14.4769C19.2277 13.7566 19.0601 12.9832 19.0441 12.1993C19.0418 11.7395 19.1266 11.2834 19.2941 10.8552C19.4735 10.4133 19.7482 10.0164 20.0984 9.69268C20.2839 9.49266 20.5071 9.33167 20.7556 9.21914C21.0046 9.10739 21.2734 9.04621 21.5462 9.03914C21.7418 9.03698 21.9352 9.07975 22.1116 9.16415C22.3006 9.2488 22.463 9.38346 22.5809 9.55363L24.1952 11.8293C24.3078 11.9794 24.4016 12.143 24.4736 12.3163C24.535 12.4504 24.5691 12.5954 24.5737 12.7428C24.5699 12.9174 24.5187 13.0877 24.4262 13.2358C24.3184 13.4163 24.188 13.582 24.0375 13.7288L23.5087 14.2789C23.4714 14.3153 23.4415 14.3583 23.4203 14.4059C23.4021 14.4546 23.3935 14.5064 23.3949 14.5584C23.3933 14.6121 23.4005 14.6656 23.4164 14.7169C23.4364 14.7754 23.4601 14.8169 23.4716 14.8579C23.6596 15.1747 23.8763 15.4735 24.1191 15.7505C24.4341 16.1105 24.7688 16.4805 25.1304 16.8505C25.1834 16.904 25.2404 16.957 25.2944 17.0095L26.6505 18.2026C26.8048 18.3173 26.9666 18.4215 27.1348 18.5146C27.1759 18.5301 27.2157 18.5516 27.2647 18.5716C27.3205 18.5916 27.3794 18.601 27.4386 18.5991C27.4918 18.6012 27.5446 18.5911 27.5934 18.5696C27.6433 18.5508 27.6885 18.5207 27.7247 18.4816L28.255 17.9591C28.402 17.8053 28.5704 17.6734 28.755 17.5675C28.9037 17.4732 29.0761 17.423 29.2521 17.4226C29.399 17.4241 29.5444 17.4547 29.6794 17.5125C29.8505 17.5854 30.013 17.6766 30.1643 17.7846L32.4754 19.4206C32.6418 19.5307 32.7739 19.6852 32.8568 19.8666C32.93 20.038 32.9679 20.2223 32.9686 20.4087C32.9692 20.6113 32.9327 20.8123 32.8607 21.0017C32.8445 21.0597 32.8217 21.1156 32.7924 21.1682C32.6708 21.4275 32.5117 21.6675 32.3207 21.8808C32.0059 22.2361 31.6159 22.5163 31.1785 22.7008C31.1705 22.7008 31.1626 22.7068 31.1546 22.7068C30.7349 22.8775 30.2863 22.9653 29.8332 22.9653L29.8152 22.9673Z" fill="#6B16A8"/>
</g>
<defs>
<clipPath id="clip0_787_4362">
<rect width="20" height="20" fill="white" transform="translate(16 6)"/>
</clipPath>
</defs>
</svg>
