<svg width="36" height="36" viewBox="0 0 36 36" fill="none" xmlns="http://www.w3.org/2000/svg">
<path fill-rule="evenodd" clip-rule="evenodd" d="M26.4573 18.444C26.6847 18.7162 26.8852 19.0088 27.0567 19.3176C28.9987 19.3485 30.8641 20.085 32.3039 21.391C33.7614 22.713 34.6804 24.5259 34.8852 26.4829C35.1229 27.8384 35.2732 29.2077 35.3352 30.5824C35.4481 32.9321 35.3352 35.8818 35.3352 35.8818C35.3352 35.8818 32.4145 35.9948 30.0688 35.8818C28.6885 35.8186 27.3136 35.6684 25.9523 35.4318C23.9649 35.2175 22.1283 34.2711 20.8005 32.7769C19.5878 31.4123 18.8786 29.6799 18.7806 27.8671C18.476 27.6968 18.1847 27.5032 17.9093 27.2879L14.8367 24.7642C9.67337 20.5307 3.48115 11.9698 1.01546 5.67757C0.762319 5.04528 0.69986 4.3527 0.835788 3.68532C0.971717 3.01794 1.30008 2.40496 1.78036 1.92204C2.24302 1.44994 2.83584 1.12637 3.48318 0.992632C4.13053 0.858889 4.80304 0.921034 5.41491 1.17114C11.5471 3.69482 19.9221 10.052 24.0576 15.3444L26.4573 18.444ZM24.3545 19.6008C23.0346 19.9611 21.8374 20.6734 20.891 21.6616C19.9393 22.6029 19.26 23.7841 18.9252 25.0801L16.2885 22.9074C15.8826 22.5456 15.4827 22.1776 15.089 21.8038C15.1228 20.2066 15.7485 18.6743 16.8509 17.5079C17.9569 16.3378 19.4577 15.6259 21.0564 15.5056C21.4603 15.9488 21.8569 16.3994 22.2458 16.8572L24.3545 19.6008ZM19.0082 13.3836C17.5576 13.8324 16.2328 14.6495 15.172 15.7727C14.1165 16.8903 13.3786 18.2515 13.0115 19.7169C8.90859 15.3554 5.58063 10.3102 3.18419 4.79768C3.10182 4.6037 3.08163 4.38895 3.12639 4.18302C3.17116 3.97709 3.27869 3.7901 3.43415 3.64783C3.57924 3.49998 3.76565 3.39948 3.9689 3.3595C4.17215 3.31953 4.38274 3.34196 4.57301 3.42386C9.92784 5.90145 14.8077 9.27316 19.0082 13.3836ZM26.8852 21.8325C28.2516 21.8284 29.5712 22.3302 30.5897 23.2411C31.6082 24.1519 32.2536 25.4075 32.4015 26.7659L32.8515 30.8654C32.895 31.7091 32.895 32.5544 32.8515 33.3981C32.0188 33.4416 31.1844 33.4416 30.3518 33.3981L26.2523 32.9481C24.8775 32.7969 23.6079 32.1402 22.6902 31.1055C21.7724 30.0707 21.2719 28.7319 21.2859 27.3488C21.2865 27.0871 21.3032 26.8256 21.3359 26.5659C21.4927 25.377 22.0511 24.2773 22.9187 23.4493C23.78 22.5659 24.9125 21.9966 26.1353 21.8325H26.8852Z" fill="#37383F"/>
</svg>
