<svg width="36" height="37" viewBox="0 0 36 37" fill="none" xmlns="http://www.w3.org/2000/svg">
<path fill-rule="evenodd" clip-rule="evenodd" d="M10.0931 31.0756H25.9037C26.9244 31.0942 27.9451 31.0386 28.9577 30.9092C34.7999 30.2713 35.9353 26.803 35.9353 21.0441V10.4919C35.9353 4.73595 34.7999 1.26471 28.9918 0.62883C27.9676 0.501661 26.9357 0.446029 25.9037 0.462338H10.0931C9.07306 0.444937 8.05312 0.500577 7.04106 0.62883C1.19883 1.26471 0.0634766 4.73595 0.0634766 10.4919V21.0441C0.0634766 26.803 1.21487 30.2753 7.00496 30.9092C8.02911 31.0374 9.06106 31.093 10.0931 31.0756ZM7.34195 3.12018C8.24965 3.00585 9.16426 2.95557 10.079 2.96974L25.8877 2.96372C26.8191 2.95088 27.7503 3.00115 28.6749 3.11416C32.2464 3.49829 33.4319 4.63264 33.4319 10.4919V21.0441C33.4319 26.9194 32.2464 28.0377 28.6408 28.4389C27.7331 28.5537 26.8185 28.604 25.9037 28.5893H10.0951C9.16365 28.6027 8.23241 28.5524 7.30785 28.4389C3.73631 28.0547 2.55082 26.9204 2.55082 21.0611V10.515C2.55082 4.63966 3.73631 3.52136 7.34195 3.12018Z" fill="#37383F"/>
<path d="M9.64476 36.3542H26.337C26.6691 36.3521 26.987 36.219 27.2215 35.9839C27.4561 35.7488 27.5884 35.4306 27.5897 35.0985C27.5873 34.7671 27.4546 34.45 27.2201 34.2157C26.9857 33.9814 26.6684 33.8489 26.337 33.8468H9.64476C9.31352 33.8492 8.99652 33.9818 8.76229 34.216C8.52806 34.4503 8.39543 34.7673 8.39307 35.0985C8.39438 35.4305 8.52655 35.7485 8.76089 35.9836C8.99523 36.2187 9.31283 36.3518 9.64476 36.3542Z" fill="#37383F"/>
</svg>
