<svg width="24" height="39" viewBox="0 0 24 39" fill="none" xmlns="http://www.w3.org/2000/svg">
<path d="M19.7037 38.7305H4.90477C3.84404 38.7305 2.82705 38.3088 2.077 37.5588C1.32695 36.8087 0.905273 35.7917 0.905273 34.731V4.73473C0.906596 3.6744 1.32919 2.6577 2.07895 1.90793C2.82872 1.15817 3.84445 0.736552 4.90477 0.735229H19.7037C20.764 0.736552 21.7798 1.15817 22.5295 1.90793C23.2793 2.6577 23.7019 3.6744 23.7032 4.73473V34.731C23.7032 35.7917 23.2815 36.8087 22.5315 37.5588C21.7814 38.3088 20.7644 38.7305 19.7037 38.7305ZM6.27179 36.2806H6.27765C6.34964 36.2806 6.41662 36.2904 6.48661 36.2904H18.116C18.186 36.2904 18.253 36.2906 18.325 36.2806H18.3367C18.5227 36.2806 18.7072 36.2806 18.8972 36.2806H19.4967C19.7307 36.2806 19.9291 36.2808 20.1021 36.2738C20.807 36.2628 21.2105 35.7383 21.2445 34.7954C21.2695 34.1355 21.2604 33.7857 21.2504 33.4157C21.2504 33.3057 21.2505 33.1902 21.2445 33.0622C21.2436 33.0516 21.2436 33.0407 21.2445 33.03C21.2455 33.0164 21.2455 33.0027 21.2445 32.989C21.2445 32.921 21.2445 32.8567 21.2445 32.7957V6.67101C21.2445 6.59802 21.2445 6.51468 21.2445 6.43569C21.2396 6.42436 21.2377 6.41187 21.2387 6.39956C21.2387 6.26958 21.2385 6.15317 21.2445 6.04218C21.2545 5.67223 21.2647 5.3223 21.2387 4.66638C21.2057 3.73749 20.7901 3.20002 20.0962 3.18902C19.8963 3.18902 19.6742 3.18121 19.3912 3.18121C19.1553 3.18121 18.9075 3.18121 18.6316 3.18121H18.3113C18.2433 3.18121 18.1771 3.17145 18.1102 3.17145H6.48075C6.41076 3.17145 6.34178 3.17219 6.27179 3.18219H5.94371C5.67074 3.18219 5.42572 3.18219 5.19575 3.18219C4.91479 3.18219 4.68974 3.182 4.49076 3.19C3.79985 3.201 3.38428 3.73847 3.35028 4.66736C3.32728 5.21829 3.33642 5.54744 3.34442 5.8674C3.34442 6.03438 3.35028 6.20268 3.35028 6.39565V6.42397C3.34428 6.50896 3.34052 6.58895 3.34052 6.67394V32.7996C3.34052 32.8836 3.34028 32.9703 3.35028 33.0622V33.071C3.35028 33.263 3.35042 33.4294 3.34442 33.5954C3.33642 33.9143 3.32628 34.2435 3.35028 34.7944C3.38328 35.7363 3.78785 36.2618 4.49076 36.2728C4.66874 36.2728 4.86214 36.2796 5.09811 36.2796H5.69178C5.89176 36.2826 6.07781 36.2806 6.27179 36.2806Z" fill="#37383F"/>
<path d="M9.30581 3.17326H15.5436V4.23213C15.5436 4.50828 15.3197 4.73213 15.0436 4.73213H9.80581C9.52966 4.73213 9.30581 4.50827 9.30581 4.23213V3.17326Z" fill="#37383F"/>
</svg>
